<svg width="974" height="574" viewBox="0 0 974 574" fill="none" xmlns="http://www.w3.org/2000/svg">
<g style="mix-blend-mode:overlay" opacity="0.21">
<path d="M970.667 158.453L969.512 155.622C967.793 151.41 965.261 147.579 962.06 144.345C958.859 141.112 955.052 138.54 950.857 136.777C946.661 135.014 942.16 134.094 937.608 134.069C933.057 134.045 928.546 134.916 924.332 136.634L581.95 276.208C573.065 279.829 563.105 279.775 554.26 276.058C545.415 272.342 538.409 265.266 534.783 256.388V256.388C531.16 247.509 531.213 237.555 534.933 228.716C538.652 219.876 545.732 212.875 554.617 209.253L738.69 134.209C747.574 130.586 754.654 123.585 758.373 114.746C762.093 105.906 762.147 95.9528 758.523 87.0739V87.0739C754.898 78.1958 747.892 71.1203 739.047 67.4035C730.202 63.6866 720.242 63.6328 711.357 67.2537L374.152 204.712C365.267 208.333 355.307 208.279 346.461 204.563C337.616 200.846 330.611 193.77 326.985 184.892V184.892C323.361 176.013 323.415 166.059 327.134 157.22C330.854 148.381 337.934 141.38 346.818 137.757L435.295 101.688C444.179 98.0643 451.259 91.0633 454.979 82.224C458.698 73.3848 458.752 63.4311 455.128 54.5522V54.5522C451.503 45.6741 444.497 38.5986 435.652 34.8818C426.807 31.1649 416.847 31.1111 407.962 34.732L27.3334 189.889C18.4494 193.512 11.3692 200.513 7.64989 209.352C3.93056 218.192 3.87666 228.145 7.50004 237.024V237.024C11.1256 245.902 18.1313 252.978 26.9765 256.695C35.8216 260.411 45.7818 260.465 54.6667 256.844L204.985 195.565C213.87 191.944 223.83 191.998 232.675 195.715C241.52 199.432 248.526 206.507 252.152 215.385V215.385C255.775 224.264 255.721 234.218 252.002 243.057C248.283 251.896 241.202 258.897 232.318 262.521L190.777 279.456C181.893 283.079 174.813 290.08 171.093 298.919C167.374 307.759 167.32 317.712 170.943 326.591V326.591C174.569 335.47 181.574 342.545 190.42 346.262C199.265 349.979 209.225 350.033 218.11 346.411L379.482 280.622C388.367 277.001 398.327 277.055 407.172 280.772C416.017 284.488 423.023 291.564 426.648 300.442V300.442C430.271 309.321 430.217 319.274 426.498 328.114C422.779 336.953 415.699 343.954 406.815 347.577L23.2034 503.992C14.3194 507.615 7.23922 514.616 3.51989 523.455C-0.199439 532.294 -0.253342 542.248 3.37004 551.127V551.127C6.99563 560.005 14.0013 567.081 22.8465 570.797C31.6916 574.514 41.6518 574.568 50.5367 570.947L568.5 359.808C572.714 358.09 577.225 357.218 581.776 357.243C586.327 357.267 590.829 358.187 595.024 359.95C599.22 361.713 603.026 364.285 606.227 367.518C609.428 370.752 611.96 374.584 613.678 378.795V378.795C615.397 383.006 616.27 387.515 616.245 392.063C616.221 396.611 615.3 401.11 613.536 405.302C611.771 409.495 609.198 413.299 605.962 416.498C602.727 419.697 598.893 422.227 594.678 423.945L483.28 469.353C479.066 471.071 475.232 473.601 471.996 476.8C468.761 479.999 466.187 483.803 464.423 487.996C462.658 492.188 461.738 496.687 461.713 501.235C461.689 505.783 462.561 510.292 464.28 514.503L465.435 517.334C467.154 521.546 469.686 525.377 472.886 528.611C476.087 531.844 479.894 534.416 484.089 536.179C488.284 537.942 492.786 538.862 497.337 538.887C501.888 538.911 506.399 538.04 510.613 536.322L871.713 389.115C875.927 387.397 879.762 384.867 882.997 381.668C886.233 378.47 888.806 374.666 890.57 370.473C892.335 366.281 893.255 361.782 893.28 357.234C893.305 352.686 892.432 348.178 890.713 343.966L889.558 341.135C887.84 336.924 885.307 333.092 882.107 329.859C878.906 326.625 875.1 324.053 870.904 322.29C866.709 320.527 862.207 319.607 857.656 319.583C853.105 319.558 848.594 320.43 844.38 322.148L756.428 358.002C752.214 359.72 747.703 360.592 743.152 360.567C738.601 360.543 734.099 359.622 729.904 357.859C725.709 356.096 721.902 353.524 718.702 350.291C715.501 347.058 712.969 343.226 711.25 339.015V339.015C709.531 334.803 708.659 330.295 708.683 325.747C708.708 321.199 709.629 316.7 711.393 312.508C713.157 308.315 715.731 304.511 718.966 301.313C722.202 298.114 726.036 295.584 730.25 293.866L951.667 203.601C955.881 201.884 959.715 199.353 962.951 196.155C966.186 192.956 968.759 189.152 970.524 184.96C972.288 180.767 973.209 176.269 973.233 171.721C973.258 167.173 972.386 162.664 970.667 158.453V158.453Z" fill="white"/>
</g>
<path d="M702.265 131.48L669 115.529L658.132 122.934C634.989 90.8265 604.452 64.7583 569.101 46.9323C533.751 29.1062 494.626 20.0461 455.033 20.5175C415.439 20.9889 376.542 30.9781 341.626 49.6408C306.711 68.3035 276.804 95.0913 254.433 127.74H248.95V136.09C248.71 136.473 248.47 136.857 248.232 137.241H211.293C207.155 137.241 203.057 138.056 199.234 139.639C195.411 141.222 191.937 143.541 189.011 146.466C186.085 149.391 183.764 152.862 182.181 156.683C180.597 160.504 179.783 164.599 179.783 168.735V168.735C179.784 177.086 183.104 185.095 189.013 191.001C194.922 196.906 202.936 200.224 211.293 200.224H220.478C203.715 259.993 210.101 323.879 238.363 379.154C266.625 434.428 314.689 477.032 372.978 498.477V498.477C373.63 498.717 374.29 498.94 374.943 499.175C376.073 499.578 377.203 499.983 378.342 500.369C378.657 500.478 378.972 500.586 379.287 500.691L379.32 500.706C380.037 500.946 380.76 501.172 381.487 501.407C382.153 501.624 382.82 501.843 383.487 502.055C383.74 502.135 383.987 502.221 384.245 502.295C384.87 502.491 385.5 502.674 386.127 502.866L386.592 503.006C387.19 503.188 387.785 503.374 388.385 503.549C388.783 503.665 389.185 503.779 389.585 503.894C390.313 504.104 391.045 504.307 391.775 504.51L392.233 504.638C392.598 504.738 392.962 504.846 393.33 504.946C393.898 505.101 394.473 505.243 395.045 505.393C395.773 505.584 396.502 505.776 397.232 505.961C397.593 506.052 397.952 506.149 398.313 506.239C398.768 506.352 399.227 506.455 399.683 506.572L400.85 506.852C401.457 506.995 402.062 507.145 402.67 507.285L403.327 507.433C403.97 507.58 404.617 507.713 405.26 507.853C406.177 508.053 407.093 508.257 408.013 508.447L408.635 508.572C409.258 508.699 409.885 508.814 410.51 508.937C411.51 509.13 412.502 509.323 413.51 509.505C413.753 509.55 413.995 509.6 414.238 509.645C414.63 509.715 415.027 509.773 415.418 509.841L415.727 509.893C416.703 510.063 417.681 510.229 418.66 510.393C419.107 510.464 419.55 510.538 419.993 510.606C420.437 510.674 420.908 510.742 421.365 510.809C422.192 510.932 423.019 511.051 423.847 511.166C424.498 511.255 425.152 511.345 425.807 511.43C426.213 511.484 426.618 511.539 427.027 511.597C427.71 511.682 428.397 511.763 429.082 511.838C429.848 511.928 430.615 512.017 431.383 512.098C431.807 512.143 432.227 512.195 432.648 512.238C432.955 512.27 433.263 512.293 433.57 512.323C433.835 512.35 434.102 512.371 434.367 512.398C435.128 512.47 435.89 512.543 436.653 512.608C437.228 512.658 437.804 512.706 438.383 512.751C438.94 512.794 439.498 512.833 440.05 512.873C440.68 512.918 441.308 512.966 441.94 513.006C442.697 513.054 443.455 513.094 444.215 513.136C444.81 513.169 445.405 513.204 446.002 513.232C446.422 513.252 446.835 513.274 447.262 513.292C448.277 513.336 449.295 513.364 450.313 513.396C450.87 513.412 451.423 513.436 451.98 513.449L452.608 513.466C454.397 513.505 456.189 513.524 457.985 513.526C459.78 513.527 461.573 513.507 463.362 513.466L463.988 513.449C464.547 513.436 465.1 513.412 465.655 513.396C466.673 513.364 467.692 513.336 468.707 513.292L469.967 513.232C470.562 513.204 471.158 513.169 471.753 513.136C472.512 513.094 473.272 513.054 474.028 513.006C474.66 512.966 475.288 512.918 475.918 512.873C476.477 512.833 477.037 512.794 477.585 512.751C478.133 512.708 478.738 512.658 479.315 512.608C480.078 512.543 480.84 512.47 481.6 512.398C481.867 512.371 482.133 512.35 482.398 512.323C482.705 512.293 483.013 512.27 483.32 512.238C483.742 512.195 484.153 512.143 484.583 512.098C485.352 512.017 486.12 511.932 486.885 511.838C487.572 511.758 488.258 511.682 488.942 511.597C489.35 511.545 489.755 511.49 490.162 511.43C490.817 511.345 491.47 511.264 492.122 511.166C492.949 511.054 493.777 510.936 494.603 510.809C495.06 510.742 495.518 510.678 495.975 510.606C496.432 510.534 496.865 510.464 497.308 510.393C498.288 510.235 499.267 510.068 500.245 509.893L500.55 509.841C500.943 509.773 501.34 509.715 501.732 509.645C501.975 509.6 502.217 509.55 502.46 509.505C503.46 509.323 504.46 509.13 505.46 508.937C506.083 508.814 506.712 508.699 507.333 508.572L507.957 508.447C508.878 508.257 509.79 508.053 510.71 507.853C511.353 507.713 512 507.58 512.643 507.433L513.3 507.285C513.908 507.145 514.512 506.995 515.118 506.852C515.51 506.758 515.9 506.667 516.285 506.572C516.742 506.462 517.2 506.359 517.655 506.239C518.017 506.149 518.375 506.052 518.737 505.961C519.467 505.776 520.195 505.584 520.923 505.393C521.495 505.243 522.068 505.101 522.638 504.946C523.005 504.846 523.368 504.738 523.735 504.638L524.192 504.51C524.923 504.307 525.655 504.104 526.383 503.894C526.783 503.779 527.185 503.665 527.583 503.549C528.183 503.374 528.778 503.188 529.375 503.006L529.84 502.866C530.468 502.674 531.097 502.491 531.722 502.295C531.977 502.216 532.222 502.128 532.482 502.055C533.148 501.843 533.815 501.624 534.473 501.407C535.193 501.172 535.917 500.946 536.64 500.706L536.673 500.691C536.99 500.586 537.305 500.478 537.62 500.369C538.758 499.983 539.887 499.578 541.017 499.175C541.672 498.94 542.332 498.717 542.983 498.477C599.916 477.54 647.145 436.394 675.663 382.885C704.181 329.376 711.992 267.249 697.607 208.354L780.217 168.735L702.265 131.48Z" fill="white"/>
<path d="M457.661 513.505C593.891 513.505 704.327 403.142 704.327 267.003C704.327 130.863 593.891 20.5 457.661 20.5C321.431 20.5 210.994 130.863 210.994 267.003C210.994 403.142 321.431 513.505 457.661 513.505Z" fill="#FBFAFE"/>
<path d="M457.662 449.989C558.79 449.989 640.77 368.063 640.77 267.002C640.77 165.942 558.79 84.0156 457.662 84.0156C356.534 84.0156 274.554 165.942 274.554 267.002C274.554 368.063 356.534 449.989 457.662 449.989Z" fill="#F7F4FF"/>
<path d="M457.661 513.505C593.891 513.505 704.327 403.142 704.327 267.003C704.327 130.863 593.891 20.5 457.661 20.5C321.431 20.5 210.994 130.863 210.994 267.003C210.994 403.142 321.431 513.505 457.661 513.505Z" stroke="#5F30E2" stroke-width="13.3333" stroke-linecap="round" stroke-linejoin="round"/>
<path d="M210.976 137.246H594.333V200.224H210.976C206.838 200.224 202.74 199.41 198.917 197.827C195.094 196.245 191.621 193.925 188.695 191.001C185.769 188.077 183.448 184.606 181.864 180.786C180.281 176.965 179.466 172.87 179.466 168.735C179.466 164.6 180.281 160.505 181.864 156.685C183.448 152.864 185.769 149.393 188.695 146.469C191.621 143.545 195.094 141.226 198.917 139.643C202.74 138.061 206.838 137.246 210.976 137.246Z" fill="#F7F4FF"/>
<path opacity="0.93" d="M180.896 159.336C179.945 162.378 179.463 165.547 179.466 168.735V168.735C179.466 172.87 180.281 176.965 181.864 180.785C183.448 184.605 185.769 188.077 188.695 191.001C191.621 193.925 195.095 196.244 198.917 197.827C202.74 199.409 206.838 200.224 210.976 200.224H594.333V181.426H210.976C204.261 181.426 197.722 179.283 192.312 175.309C186.901 171.336 182.902 165.74 180.896 159.336V159.336Z" fill="#FBFAFE"/>
<path opacity="0.67" d="M210.976 137.246C206.838 137.246 202.74 138.061 198.917 139.643C195.094 141.226 191.621 143.545 188.695 146.469C185.769 149.393 183.448 152.864 181.864 156.685C180.281 160.505 179.466 164.6 179.466 168.735C179.472 171.057 179.734 173.371 180.249 175.636C181.815 168.659 185.711 162.423 191.296 157.954C196.881 153.485 203.821 151.049 210.976 151.047H594.333V137.246H210.976Z" fill="#F7F4FF"/>
<path d="M210.976 137.246H594.333V200.224H210.976C206.838 200.224 202.74 199.41 198.917 197.827C195.094 196.245 191.621 193.925 188.695 191.001C185.769 188.077 183.448 184.606 181.864 180.786C180.281 176.965 179.466 172.87 179.466 168.735C179.466 164.6 180.281 160.505 181.864 156.685C183.448 152.864 185.769 149.393 188.695 146.469C191.621 143.545 195.094 141.226 198.917 139.643C202.74 138.061 206.838 137.246 210.976 137.246Z" stroke="#5F30E2" stroke-width="13.3333" stroke-linecap="round" stroke-linejoin="round"/>
<path d="M618.773 127.742H594.328V209.731H618.773V127.742Z" fill="#A0D4A1"/>
<path opacity="0.43" d="M618.773 127.602H594.328V147.182H618.773V127.602Z" fill="white"/>
<path d="M618.773 184.812H594.328V209.872H618.773V184.812Z" fill="#F7F4FF"/>
<path d="M618.773 127.742H594.328V209.731H618.773V127.742Z" stroke="#5F30E2" stroke-width="13.3333" stroke-linecap="round" stroke-linejoin="round"/>
<path d="M273.078 127.742H248.633V209.731H273.078V127.742Z" fill="#A0D4A1"/>
<path opacity="0.43" d="M273.078 127.742H248.633V147.323H273.078V127.742Z" fill="white"/>
<path d="M273.078 184.957H248.633V210.017H273.078V184.957Z" fill="#F7F4FF"/>
<path d="M273.078 127.742H248.633V209.731H273.078V127.742Z" stroke="#5F30E2" stroke-width="13.3333" stroke-linecap="round" stroke-linejoin="round"/>
<path d="M618.867 187.672L669.081 221.879L779.901 168.735L668.704 115.59L618.867 149.799V187.672Z" fill="#A0D4A1"/>
<path d="M618.867 187.672L669.079 221.879L779.901 168.734H618.867V187.672Z" fill="#A0D4A1"/>
<path d="M618.867 176.841L670.995 194.472L779.901 168.734L669.081 221.879L618.867 187.672V176.841Z" fill="#A0D4A1"/>
<path d="M618.474 160.57L670.602 131.686L765.139 168.738L668.687 115.531L618.474 149.739V160.57Z" fill="#5F30E2"/>
<path d="M618.867 187.672L669.081 221.879L779.901 168.735L668.704 115.59L618.867 149.799V187.672Z" stroke="#5F30E2" stroke-width="13.3333" stroke-linecap="round" stroke-linejoin="round"/>
<path d="M780.534 168.734H687.2" stroke="#5F30E2" stroke-width="13.3333" stroke-linecap="round" stroke-linejoin="round"/>
<path d="M688.608 182.539C696.235 182.539 702.418 176.36 702.418 168.738C702.418 161.116 696.235 154.938 688.608 154.938C680.981 154.938 674.798 161.116 674.798 168.738C674.798 176.36 680.981 182.539 688.608 182.539Z" fill="#5F30E2"/>
<path d="M520.161 279.32H395.161V497.052H520.161V279.32Z" fill="#FFA183"/>
<path d="M520.161 279.32H395.161V497.052H520.161V279.32Z" fill="#F7F4FF"/>
<g style="mix-blend-mode:multiply" opacity="0.58">
<path d="M395.166 338.236C407.451 344.557 421.07 347.849 434.888 347.84H480.444C494.262 347.849 507.881 344.557 520.166 338.236V279.32H395.166V338.236Z" fill="#A0D4A1"/>
</g>
<path d="M520.161 279.32H395.161V497.052H520.161V279.32Z" stroke="#5F30E2" stroke-width="13.3333" stroke-linecap="round" stroke-linejoin="round"/>
<path d="M360.999 149.504H554.332V260.675C554.332 280.258 546.548 299.04 532.691 312.887C518.834 326.735 500.04 334.514 480.444 334.514H434.882C415.287 334.513 396.494 326.733 382.639 312.885C368.783 299.038 360.999 280.258 360.999 260.675V149.504Z" fill="#F7F4FF"/>
<path d="M480.437 310.931H434.882C415.287 310.929 396.494 303.149 382.638 289.301C368.782 275.454 360.999 256.673 360.999 237.09V260.674C360.999 270.371 362.91 279.973 366.623 288.931C370.336 297.89 375.779 306.03 382.64 312.887C389.501 319.743 397.647 325.182 406.611 328.893C415.576 332.604 425.184 334.514 434.887 334.513H480.442C490.146 334.514 499.754 332.604 508.719 328.893C517.683 325.182 525.829 319.744 532.69 312.887C539.552 306.03 544.994 297.89 548.708 288.932C552.421 279.973 554.332 270.371 554.332 260.674V237.09C554.332 246.787 552.421 256.39 548.707 265.349C544.994 274.308 539.551 282.448 532.689 289.305C525.827 296.162 517.681 301.601 508.715 305.311C499.75 309.022 490.141 310.931 480.437 310.931V310.931Z" fill="#F7F4FF"/>
<path d="M360.999 149.504H554.332V260.675C554.332 280.258 546.548 299.04 532.691 312.887C518.834 326.735 500.04 334.514 480.444 334.514H434.882C415.287 334.513 396.494 326.733 382.639 312.885C368.783 299.038 360.999 280.258 360.999 260.675V149.504Z" stroke="#5F30E2" stroke-width="13.3333" stroke-linecap="round" stroke-linejoin="round"/>
<path d="M409.327 136.744C409.327 123.406 398.508 112.594 385.161 112.594C371.814 112.594 360.994 123.406 360.994 136.744V191.49C360.994 204.828 371.814 215.64 385.161 215.64C398.508 215.64 409.327 204.828 409.327 191.49V136.744Z" fill="#F7F4FF"/>
<path d="M457.661 125.701C457.661 112.363 446.842 101.551 433.495 101.551C420.148 101.551 409.328 112.363 409.328 125.701V191.306C409.328 204.644 420.148 215.457 433.495 215.457C446.842 215.457 457.661 204.644 457.661 191.306V125.701Z" fill="#F7F4FF"/>
<path d="M505.994 123.69C505.994 110.352 495.175 99.5391 481.828 99.5391C468.481 99.5391 457.661 110.352 457.661 123.69V191.308C457.661 204.646 468.481 215.459 481.828 215.459C495.175 215.459 505.994 204.646 505.994 191.308V123.69Z" fill="#F7F4FF"/>
<path d="M554.327 138.584C554.327 125.246 543.508 114.434 530.161 114.434C516.814 114.434 505.994 125.246 505.994 138.584V187.803C505.994 201.141 516.814 211.954 530.161 211.954C543.508 211.954 554.327 201.141 554.327 187.803V138.584Z" fill="#F7F4FF"/>
<path d="M391.229 190.72H379.091C376.714 190.719 374.36 190.25 372.165 189.341C369.969 188.431 367.974 187.098 366.294 185.417C364.614 183.737 363.282 181.743 362.373 179.548C361.465 177.353 360.998 175 360.999 172.625V191.486C360.999 197.891 363.545 204.034 368.077 208.563C372.609 213.092 378.756 215.636 385.166 215.636C391.575 215.636 397.722 213.092 402.254 208.563C406.786 204.034 409.332 197.891 409.332 191.486V172.625C409.333 175.001 408.866 177.354 407.957 179.55C407.047 181.746 405.714 183.741 404.033 185.421C402.351 187.102 400.355 188.434 398.158 189.344C395.961 190.253 393.607 190.72 391.229 190.72V190.72Z" fill="#F7F4FF"/>
<path d="M439.563 190.53H427.425C422.626 190.529 418.024 188.623 414.632 185.231C411.239 181.84 409.333 177.241 409.333 172.445V191.304C409.333 197.71 411.879 203.852 416.411 208.382C420.943 212.911 427.09 215.455 433.5 215.455C439.909 215.455 446.056 212.911 450.588 208.382C455.12 203.852 457.666 197.71 457.666 191.304V172.445C457.666 174.821 457.198 177.173 456.288 179.368C455.378 181.562 454.045 183.556 452.364 185.235C450.682 186.915 448.687 188.247 446.49 189.155C444.294 190.064 441.94 190.531 439.563 190.53V190.53Z" fill="#FBFAFE"/>
<g style="mix-blend-mode:multiply" opacity="0.58">
<path d="M487.896 190.53H475.758C470.959 190.529 466.357 188.623 462.965 185.231C459.572 181.84 457.666 177.241 457.666 172.445V191.304C457.666 197.71 460.212 203.852 464.744 208.382C469.276 212.911 475.423 215.455 481.833 215.455C488.242 215.455 494.389 212.911 498.921 208.382C503.453 203.852 505.999 197.71 505.999 191.304V172.445C505.999 174.821 505.531 177.173 504.621 179.368C503.711 181.562 502.378 183.556 500.697 185.235C499.015 186.915 497.02 188.247 494.823 189.155C492.627 190.064 490.273 190.531 487.896 190.53V190.53Z" fill="#A0D4A1"/>
</g>
<g style="mix-blend-mode:multiply" opacity="0.58">
<path d="M536.229 187.028H524.091C519.292 187.026 514.69 185.12 511.297 181.728C507.904 178.337 505.999 173.737 505.999 168.941V187.801C505.999 194.206 508.545 200.348 513.077 204.878C517.609 209.407 523.756 211.951 530.166 211.951C536.575 211.951 542.722 209.407 547.254 204.878C551.786 200.348 554.332 194.206 554.332 187.801V168.941C554.332 171.317 553.864 173.669 552.954 175.864C552.044 178.059 550.711 180.053 549.03 181.732C547.349 183.412 545.353 184.744 543.156 185.652C540.96 186.561 538.606 187.028 536.229 187.028V187.028Z" fill="#A0D4A1"/>
</g>
<path opacity="0.43" d="M385.166 112.594C378.756 112.594 372.609 115.138 368.077 119.667C363.545 124.196 360.999 130.339 360.999 136.744V152.734C360.999 149.562 361.624 146.422 362.839 143.492C364.053 140.562 365.833 137.899 368.077 135.657C370.321 133.414 372.985 131.635 375.917 130.421C378.85 129.208 381.992 128.583 385.166 128.583C388.339 128.583 391.482 129.208 394.414 130.421C397.346 131.635 400.01 133.414 402.254 135.657C404.498 137.899 406.278 140.562 407.493 143.492C408.707 146.422 409.332 149.562 409.332 152.734V136.744C409.332 130.339 406.786 124.196 402.254 119.667C397.722 115.138 391.575 112.594 385.166 112.594V112.594Z" fill="white"/>
<path opacity="0.43" d="M433.5 101.551C427.09 101.551 420.943 104.095 416.411 108.624C411.879 113.153 409.333 119.296 409.333 125.701V141.691C409.333 135.286 411.879 129.143 416.411 124.614C420.943 120.085 427.09 117.54 433.5 117.54C439.909 117.54 446.056 120.085 450.588 124.614C455.12 129.143 457.666 135.286 457.666 141.691V125.701C457.666 119.296 455.12 113.153 450.588 108.624C446.056 104.095 439.909 101.551 433.5 101.551V101.551Z" fill="white"/>
<path opacity="0.43" d="M481.833 99.5391C475.423 99.5391 469.276 102.083 464.744 106.613C460.212 111.142 457.666 117.285 457.666 123.69V139.679C457.666 133.274 460.212 127.131 464.744 122.602C469.276 118.073 475.423 115.528 481.833 115.528C488.242 115.528 494.389 118.073 498.921 122.602C503.453 127.131 505.999 133.274 505.999 139.679V123.69C505.999 117.285 503.453 111.142 498.921 106.613C494.389 102.083 488.242 99.5391 481.833 99.5391V99.5391Z" fill="white"/>
<path opacity="0.43" d="M530.166 114.438C523.756 114.438 517.609 116.982 513.077 121.511C508.545 126.04 505.999 132.183 505.999 138.588V154.578C505.999 148.172 508.545 142.03 513.077 137.5C517.609 132.971 523.756 130.427 530.166 130.427C536.575 130.427 542.722 132.971 547.254 137.5C551.786 142.03 554.332 148.172 554.332 154.578V138.588C554.332 132.183 551.786 126.04 547.254 121.511C542.722 116.982 536.575 114.438 530.166 114.438V114.438Z" fill="white"/>
<path d="M409.327 136.744C409.327 123.406 398.508 112.594 385.161 112.594C371.814 112.594 360.994 123.406 360.994 136.744V191.49C360.994 204.828 371.814 215.64 385.161 215.64C398.508 215.64 409.327 204.828 409.327 191.49V136.744Z" stroke="#5F30E2" stroke-width="13.3333" stroke-linecap="round" stroke-linejoin="round"/>
<path d="M457.661 125.701C457.661 112.363 446.842 101.551 433.495 101.551C420.148 101.551 409.328 112.363 409.328 125.701V191.306C409.328 204.644 420.148 215.457 433.495 215.457C446.842 215.457 457.661 204.644 457.661 191.306V125.701Z" stroke="#5F30E2" stroke-width="13.3333" stroke-linecap="round" stroke-linejoin="round"/>
<path d="M505.994 123.69C505.994 110.352 495.175 99.5391 481.828 99.5391C468.481 99.5391 457.661 110.352 457.661 123.69V191.308C457.661 204.646 468.481 215.459 481.828 215.459C495.175 215.459 505.994 204.646 505.994 191.308V123.69Z" stroke="#5F30E2" stroke-width="13.3333" stroke-linecap="round" stroke-linejoin="round"/>
<path d="M554.327 138.584C554.327 125.246 543.508 114.434 530.161 114.434C516.814 114.434 505.994 125.246 505.994 138.584V187.803C505.994 201.141 516.814 211.954 530.161 211.954C543.508 211.954 554.327 201.141 554.327 187.803V138.584Z" stroke="#5F30E2" stroke-width="13.3333" stroke-linecap="round" stroke-linejoin="round"/>
<path d="M520.166 242.778H478.5C472.09 242.778 465.943 240.233 461.411 235.704C456.879 231.175 454.333 225.032 454.333 218.627V218.627C454.333 212.222 456.879 206.079 461.411 201.55C465.943 197.021 472.09 194.477 478.5 194.477H530.166C536.576 194.477 542.723 197.021 547.255 201.55C551.787 206.079 554.333 212.222 554.333 218.627V242.778H520.166Z" fill="#F7F4FF"/>
<path d="M478.501 228.083C473.376 228.082 468.385 226.454 464.247 223.434C460.109 220.413 457.039 216.156 455.481 211.277C454.397 214.667 454.075 218.254 454.539 221.782C455.411 227.661 458.384 233.026 462.908 236.884C467.432 240.742 473.201 242.832 479.147 242.768H526.901C526.901 238.872 525.352 235.135 522.595 232.379C519.838 229.624 516.098 228.076 512.199 228.076L478.501 228.083Z" fill="#FBFAFE"/>
<path opacity="0.43" d="M530.167 194.477H478.5C474.723 194.476 470.999 195.361 467.626 197.06C464.252 198.758 461.325 201.223 459.077 204.256C456.83 207.29 455.325 210.808 454.684 214.528C454.043 218.247 454.283 222.066 455.385 225.676C456.896 220.727 459.958 216.393 464.12 213.314C468.281 210.236 473.322 208.574 478.5 208.574H530.167C536.576 208.574 542.723 211.118 547.255 215.647C551.787 220.177 554.334 226.319 554.334 232.724V218.627C554.334 212.222 551.787 206.079 547.255 201.55C542.723 197.021 536.576 194.477 530.167 194.477V194.477Z" fill="white"/>
<path d="M520.166 242.778H478.5C472.09 242.778 465.943 240.233 461.411 235.704C456.879 231.175 454.333 225.032 454.333 218.627V218.627C454.333 212.222 456.879 206.079 461.411 201.55C465.943 197.021 472.09 194.477 478.5 194.477H530.166C536.576 194.477 542.723 197.021 547.255 201.55C551.787 206.079 554.333 212.222 554.333 218.627V242.778" stroke="#5F30E2" stroke-width="13.3333" stroke-linecap="round" stroke-linejoin="round"/>
<path d="M473.247 211.278H485.129C487.314 211.29 489.414 210.434 490.968 208.898C492.522 207.363 493.401 205.273 493.414 203.09V203.09" stroke="#0A002D" stroke-width="6.70326" stroke-linecap="round" stroke-linejoin="round"/>
<path d="M372.666 498.477C427.559 518.515 487.773 518.515 542.666 498.477V388.184H372.666V498.477Z" fill="#2561A1"/>
<path d="M372.666 498.477C427.559 518.515 487.773 518.515 542.666 498.477V388.184H372.666V498.477Z" fill="#2561A1"/>
<path d="M372.666 498.477C427.559 518.515 487.773 518.515 542.666 498.477V388.184H372.666V498.477Z" fill="#A0D4A1"/>
<path d="M372.666 388.184V498.477C399.893 508.45 428.668 513.538 457.666 513.505V388.184H372.666Z" fill="#A0D4A1"/>
<path d="M542.661 388.184H372.661V402.469H542.661V388.184Z" fill="#F7F4FF"/>
<path d="M372.666 491.915C372.669 493.859 373.282 495.754 374.42 497.331C375.559 498.909 377.164 500.089 379.009 500.705C430.056 517.772 485.274 517.772 536.321 500.705C538.167 500.089 539.772 498.909 540.911 497.331C542.049 495.754 542.663 493.859 542.666 491.915V388.184H372.666V491.915Z" stroke="#5F30E2" stroke-width="13.3333" stroke-linecap="round" stroke-linejoin="round"/>
<path d="M317.157 247.374C314.919 247.374 312.773 246.485 311.191 244.904C309.608 243.322 308.719 241.177 308.719 238.941V238.941C308.749 237.474 308.232 236.049 307.27 234.941C306.308 233.833 304.968 233.122 303.511 232.945C302.719 232.874 301.922 232.968 301.169 233.222C300.416 233.476 299.724 233.884 299.137 234.42C298.551 234.956 298.082 235.608 297.762 236.335C297.441 237.061 297.276 237.847 297.276 238.641V238.939C297.276 241.176 296.387 243.321 294.804 244.902C293.222 246.483 291.075 247.372 288.837 247.372C287.37 247.342 285.943 247.858 284.835 248.82C283.726 249.782 283.014 251.12 282.837 252.577C282.766 253.368 282.861 254.165 283.115 254.917C283.369 255.67 283.777 256.361 284.314 256.947C284.85 257.533 285.502 258.001 286.23 258.322C286.957 258.642 287.743 258.808 288.537 258.808H288.834C291.072 258.808 293.218 259.696 294.801 261.277C296.383 262.859 297.272 265.004 297.272 267.24C297.243 268.707 297.759 270.133 298.722 271.241C299.685 272.349 301.025 273.06 302.482 273.236C303.274 273.307 304.071 273.213 304.824 272.959C305.577 272.705 306.269 272.297 306.855 271.761C307.442 271.225 307.91 270.573 308.23 269.846C308.551 269.12 308.716 268.334 308.716 267.54V267.244C308.716 265.007 309.605 262.862 311.187 261.281C312.77 259.699 314.916 258.811 317.154 258.811H317.452C318.247 258.811 319.033 258.645 319.76 258.325C320.487 258.004 321.139 257.536 321.675 256.95C322.211 256.364 322.619 255.673 322.873 254.92C323.127 254.168 323.222 253.371 323.151 252.58C322.974 251.125 322.264 249.786 321.156 248.824C320.049 247.863 318.624 247.346 317.157 247.374V247.374Z" fill="white"/>
<path d="M347.928 400.972C347.29 400.972 346.678 400.719 346.227 400.268C345.775 399.816 345.522 399.205 345.522 398.567V398.567C345.53 398.149 345.382 397.743 345.108 397.427C344.834 397.111 344.452 396.909 344.037 396.858C343.811 396.838 343.584 396.865 343.369 396.937C343.154 397.01 342.957 397.126 342.79 397.279C342.623 397.432 342.489 397.617 342.397 397.825C342.306 398.032 342.259 398.255 342.258 398.482V398.567C342.259 398.883 342.197 399.195 342.076 399.487C341.955 399.779 341.778 400.044 341.555 400.267C341.331 400.491 341.066 400.668 340.774 400.789C340.482 400.91 340.169 400.972 339.853 400.972V400.972C339.435 400.963 339.028 401.11 338.712 401.384C338.396 401.659 338.193 402.041 338.143 402.456C338.123 402.682 338.15 402.909 338.222 403.123C338.295 403.338 338.411 403.535 338.564 403.702C338.717 403.87 338.903 404.003 339.11 404.095C339.318 404.186 339.542 404.233 339.768 404.233H339.853C340.169 404.233 340.482 404.295 340.774 404.416C341.066 404.537 341.331 404.714 341.555 404.938C341.778 405.161 341.955 405.426 342.076 405.718C342.197 406.01 342.259 406.322 342.258 406.638V406.638C342.25 407.056 342.398 407.463 342.673 407.778C342.947 408.094 343.329 408.297 343.745 408.347C343.971 408.367 344.198 408.34 344.412 408.268C344.627 408.195 344.824 408.079 344.991 407.926C345.158 407.773 345.292 407.588 345.383 407.38C345.474 407.173 345.522 406.949 345.522 406.723V406.638C345.522 406.322 345.584 406.01 345.705 405.718C345.826 405.426 346.003 405.161 346.227 404.938C346.45 404.714 346.715 404.537 347.007 404.416C347.299 404.295 347.612 404.233 347.928 404.233H348.013C348.24 404.233 348.464 404.185 348.671 404.094C348.878 404.003 349.064 403.869 349.217 403.702C349.37 403.535 349.486 403.338 349.559 403.123C349.631 402.909 349.658 402.681 349.638 402.456C349.588 402.041 349.385 401.659 349.069 401.385C348.753 401.111 348.347 400.964 347.928 400.972Z" fill="white"/>
<path d="M654.666 316.677C654.186 316.677 653.725 316.487 653.386 316.148C653.046 315.808 652.855 315.348 652.854 314.868C652.86 314.554 652.749 314.248 652.543 314.01C652.336 313.773 652.049 313.621 651.736 313.583C651.566 313.568 651.396 313.589 651.235 313.644C651.074 313.699 650.926 313.786 650.801 313.901C650.675 314.016 650.575 314.156 650.507 314.311C650.438 314.467 650.403 314.635 650.403 314.805V314.87C650.402 315.35 650.211 315.81 649.871 316.149C649.532 316.488 649.071 316.679 648.591 316.679V316.679C648.276 316.673 647.97 316.784 647.733 316.99C647.495 317.197 647.342 317.484 647.304 317.796C647.29 317.966 647.311 318.136 647.365 318.297C647.42 318.458 647.508 318.606 647.623 318.731C647.738 318.857 647.878 318.957 648.034 319.025C648.189 319.093 648.358 319.129 648.528 319.129H648.591C649.071 319.129 649.532 319.319 649.871 319.659C650.211 319.998 650.402 320.458 650.403 320.938V320.938C650.396 321.252 650.507 321.558 650.713 321.796C650.92 322.033 651.207 322.186 651.519 322.224C651.689 322.238 651.859 322.217 652.021 322.162C652.182 322.108 652.329 322.02 652.455 321.905C652.58 321.79 652.68 321.65 652.749 321.495C652.817 321.339 652.853 321.171 652.853 321.001V320.938C652.854 320.458 653.046 319.999 653.386 319.661C653.726 319.323 654.186 319.133 654.666 319.134H654.729C654.899 319.134 655.068 319.098 655.223 319.03C655.379 318.962 655.519 318.862 655.634 318.736C655.749 318.611 655.837 318.463 655.892 318.302C655.946 318.141 655.967 317.971 655.953 317.801C655.916 317.488 655.764 317.199 655.527 316.991C655.289 316.783 654.982 316.671 654.666 316.677V316.677Z" fill="white"/>
<path d="M626.633 238.869C626.026 238.869 625.425 238.75 624.864 238.518C624.304 238.286 623.794 237.946 623.365 237.517C622.936 237.088 622.595 236.579 622.363 236.018C622.131 235.458 622.011 234.857 622.011 234.251C622.028 233.45 621.75 232.672 621.231 232.062C620.711 231.453 619.985 231.056 619.191 230.946C618.753 230.901 618.311 230.948 617.892 231.085C617.473 231.221 617.088 231.444 616.761 231.739C616.434 232.033 616.172 232.393 615.993 232.795C615.814 233.197 615.722 233.633 615.721 234.073V234.252C615.721 235.477 615.235 236.652 614.368 237.518C613.502 238.384 612.327 238.871 611.101 238.871V238.871C610.3 238.854 609.52 239.131 608.91 239.651C608.3 240.17 607.903 240.896 607.793 241.689C607.748 242.127 607.795 242.569 607.932 242.987C608.068 243.406 608.291 243.791 608.586 244.117C608.881 244.444 609.241 244.705 609.643 244.884C610.046 245.063 610.481 245.155 610.921 245.155H611.101C612.327 245.156 613.502 245.642 614.368 246.509C615.235 247.375 615.721 248.549 615.721 249.774V249.774C615.704 250.574 615.982 251.353 616.502 251.963C617.022 252.572 617.748 252.97 618.541 253.08C618.979 253.125 619.422 253.078 619.841 252.942C620.259 252.805 620.645 252.582 620.972 252.288C621.299 251.993 621.56 251.633 621.739 251.231C621.919 250.829 622.011 250.394 622.011 249.954V249.787C622.011 248.558 622.5 247.379 623.369 246.51C624.239 245.641 625.418 245.152 626.648 245.152H626.815C627.255 245.152 627.69 245.06 628.093 244.881C628.495 244.702 628.855 244.441 629.15 244.114C629.445 243.787 629.668 243.402 629.805 242.984C629.941 242.566 629.988 242.124 629.943 241.686C629.833 240.892 629.435 240.167 628.825 239.648C628.214 239.129 627.434 238.852 626.633 238.869V238.869Z" fill="white"/>
<g style="mix-blend-mode:overlay" opacity="0.59">
<path d="M360.393 304.58C360.004 304.58 359.618 304.504 359.258 304.355C358.898 304.206 358.571 303.988 358.296 303.713C358.02 303.438 357.802 303.111 357.652 302.751C357.503 302.392 357.427 302.006 357.427 301.617V301.617C357.438 301.103 357.26 300.603 356.926 300.212C356.592 299.82 356.126 299.565 355.617 299.495C355.336 299.466 355.053 299.496 354.784 299.583C354.516 299.67 354.269 299.812 354.06 300.001C353.85 300.189 353.682 300.419 353.566 300.676C353.451 300.934 353.391 301.212 353.39 301.494V301.61C353.39 302 353.314 302.385 353.165 302.745C353.016 303.104 352.797 303.431 352.522 303.706C352.247 303.981 351.92 304.2 351.56 304.348C351.2 304.497 350.814 304.574 350.425 304.573V304.573C349.911 304.562 349.41 304.741 349.019 305.074C348.627 305.408 348.372 305.873 348.302 306.382C348.273 306.663 348.303 306.947 348.391 307.216C348.479 307.484 348.622 307.731 348.811 307.941C349 308.151 349.231 308.318 349.49 308.433C349.748 308.548 350.027 308.607 350.31 308.607H350.425C350.814 308.607 351.2 308.684 351.56 308.833C351.92 308.982 352.247 309.201 352.522 309.476C352.797 309.751 353.016 310.078 353.165 310.438C353.314 310.797 353.39 311.183 353.39 311.572V311.572C353.379 312.086 353.557 312.586 353.891 312.977C354.225 313.368 354.691 313.622 355.2 313.692C355.48 313.722 355.764 313.692 356.032 313.604C356.3 313.517 356.547 313.375 356.757 313.187C356.967 312.998 357.135 312.768 357.25 312.511C357.365 312.254 357.426 311.976 357.427 311.694V311.589C357.427 310.8 357.74 310.043 358.298 309.485C358.857 308.927 359.614 308.614 360.403 308.614H360.508C360.79 308.613 361.069 308.553 361.326 308.438C361.584 308.322 361.814 308.155 362.002 307.945C362.191 307.735 362.333 307.488 362.42 307.22C362.507 306.952 362.537 306.669 362.508 306.389C362.438 305.881 362.184 305.416 361.795 305.083C361.405 304.75 360.906 304.571 360.393 304.58Z" fill="#174268"/>
</g>
<g style="mix-blend-mode:overlay" opacity="0.59">
<path d="M649.726 383.043C648.939 383.043 648.184 382.73 647.628 382.174C647.072 381.618 646.759 380.864 646.759 380.078V380.078C646.771 379.564 646.593 379.064 646.259 378.673C645.926 378.282 645.46 378.026 644.951 377.956C644.67 377.927 644.387 377.957 644.119 378.044C643.851 378.132 643.604 378.274 643.394 378.462C643.185 378.65 643.017 378.88 642.901 379.138C642.786 379.395 642.725 379.673 642.724 379.955V380.07C642.724 380.856 642.412 381.61 641.855 382.166C641.299 382.722 640.544 383.034 639.757 383.034C639.244 383.023 638.743 383.201 638.352 383.534C637.961 383.867 637.706 384.332 637.636 384.841C637.607 385.122 637.637 385.405 637.724 385.673C637.811 385.941 637.953 386.188 638.142 386.397C638.33 386.607 638.561 386.775 638.818 386.89C639.075 387.005 639.354 387.065 639.636 387.066H639.751C640.538 387.066 641.292 387.379 641.849 387.935C642.405 388.491 642.717 389.245 642.717 390.031V390.031C642.706 390.545 642.884 391.045 643.218 391.436C643.552 391.827 644.018 392.082 644.527 392.151C644.808 392.181 645.091 392.151 645.359 392.063C645.627 391.976 645.874 391.834 646.084 391.646C646.294 391.457 646.461 391.227 646.577 390.97C646.692 390.713 646.752 390.434 646.752 390.153V390.048C646.752 389.259 647.066 388.502 647.624 387.944C648.183 387.387 648.94 387.073 649.729 387.073H649.834C650.117 387.073 650.396 387.014 650.654 386.899C650.913 386.784 651.144 386.616 651.333 386.407C651.522 386.197 651.665 385.95 651.753 385.681C651.841 385.413 651.871 385.129 651.842 384.848C651.771 384.341 651.517 383.877 651.127 383.544C650.737 383.212 650.238 383.033 649.726 383.043V383.043Z" fill="#174268"/>
</g>
<g style="mix-blend-mode:overlay" opacity="0.59">
<path d="M268.622 349.07C267.397 349.07 266.221 348.584 265.354 347.718C264.488 346.851 264.001 345.677 264.001 344.452V344.452C264.018 343.651 263.74 342.872 263.22 342.262C262.7 341.653 261.975 341.255 261.181 341.146C260.743 341.1 260.3 341.147 259.882 341.284C259.463 341.42 259.078 341.643 258.751 341.938C258.424 342.233 258.163 342.593 257.984 342.995C257.805 343.397 257.712 343.832 257.712 344.272V344.452C257.712 345.676 257.225 346.851 256.358 347.717C255.492 348.583 254.316 349.07 253.091 349.07C252.289 349.053 251.51 349.331 250.9 349.85C250.29 350.37 249.892 351.095 249.782 351.888C249.737 352.326 249.784 352.768 249.921 353.187C250.057 353.605 250.28 353.99 250.575 354.317C250.87 354.643 251.23 354.904 251.633 355.083C252.035 355.262 252.47 355.354 252.911 355.354H253.091C254.316 355.355 255.492 355.842 256.358 356.708C257.225 357.574 257.712 358.748 257.712 359.973V359.973C257.695 360.774 257.973 361.553 258.493 362.162C259.013 362.772 259.739 363.169 260.532 363.279C260.97 363.324 261.413 363.277 261.831 363.141C262.25 363.004 262.635 362.781 262.962 362.487C263.289 362.192 263.55 361.832 263.729 361.43C263.908 361.028 264.001 360.593 264.001 360.153V359.986C264.001 358.757 264.489 357.578 265.359 356.709C266.229 355.839 267.409 355.351 268.639 355.351H268.806C269.246 355.351 269.681 355.259 270.083 355.08C270.486 354.901 270.846 354.64 271.141 354.313C271.435 353.986 271.658 353.601 271.794 353.183C271.931 352.765 271.978 352.323 271.932 351.885C271.822 351.092 271.424 350.367 270.814 349.848C270.203 349.329 269.423 349.052 268.622 349.07V349.07Z" fill="#174268"/>
</g>
<path d="M590.379 331.67C588.922 331.668 587.525 331.088 586.495 330.058C585.466 329.027 584.887 327.63 584.887 326.174C584.909 325.223 584.579 324.297 583.961 323.572C583.343 322.848 582.481 322.376 581.537 322.247C581.017 322.192 580.491 322.248 579.993 322.41C579.496 322.572 579.038 322.837 578.649 323.187C578.261 323.537 577.95 323.965 577.738 324.443C577.525 324.921 577.415 325.438 577.416 325.961V326.174C577.416 326.896 577.273 327.611 576.997 328.277C576.721 328.944 576.316 329.55 575.805 330.061C575.294 330.571 574.688 330.976 574.02 331.252C573.353 331.528 572.638 331.67 571.916 331.67V331.67C570.964 331.65 570.038 331.98 569.314 332.597C568.589 333.214 568.117 334.076 567.986 335.018C567.932 335.538 567.988 336.064 568.15 336.561C568.312 337.058 568.577 337.515 568.927 337.904C569.278 338.292 569.706 338.602 570.184 338.815C570.662 339.027 571.179 339.137 571.702 339.137H571.916C573.374 339.137 574.773 339.716 575.805 340.747C576.836 341.778 577.416 343.176 577.416 344.633C577.395 345.585 577.725 346.51 578.342 347.235C578.96 347.959 579.823 348.431 580.766 348.561C581.286 348.615 581.812 348.559 582.309 348.397C582.807 348.235 583.265 347.97 583.653 347.62C584.042 347.27 584.352 346.842 584.565 346.364C584.777 345.886 584.887 345.369 584.887 344.847V344.653C584.888 343.193 585.469 341.792 586.502 340.759C587.536 339.726 588.937 339.146 590.399 339.145H590.592C591.116 339.145 591.633 339.036 592.111 338.823C592.589 338.611 593.017 338.3 593.367 337.912C593.718 337.524 593.983 337.066 594.145 336.569C594.307 336.072 594.363 335.547 594.309 335.026C594.18 334.083 593.709 333.219 592.984 332.6C592.259 331.981 591.332 331.65 590.379 331.67V331.67Z" fill="white"/>
</svg>
