<svg width="335" height="382" viewBox="0 0 335 382" fill="none" xmlns="http://www.w3.org/2000/svg">
<path d="M300 360.7H48C30.3 360.7 16 346.4 16 328.7V58C16 40.3 30.3 26 48 26H300C317.7 26 332 40.3 332 58V328.7C332 346.4 317.7 360.7 300 360.7Z" fill="#A0D4A1"/>
<path d="M300 345.699H48C30.3 345.699 16 331.399 16 313.699V328.699C16 346.399 30.3 360.699 48 360.699H300C317.7 360.699 332 346.399 332 328.699V313.699C332 331.399 317.7 345.699 300 345.699Z" fill="#A0D4A1"/>
<path d="M300 360.7H48C30.3 360.7 16 346.4 16 328.7V58C16 40.3 30.3 26 48 26H300C317.7 26 332 40.3 332 58V328.7C332 346.4 317.7 360.7 300 360.7Z" stroke="#5F30E2" stroke-width="6" stroke-miterlimit="10" stroke-linecap="round" stroke-linejoin="round"/>
<path opacity="0.2" d="M287 378.1H35C17.3 378.1 3 363.8 3 346.1V45C3 27.3 17.3 13 35 13H287C304.7 13 319 27.3 319 45V346.1C319 363.8 304.7 378.1 287 378.1Z" fill="#241228" stroke="#241228" stroke-width="6" stroke-miterlimit="10" stroke-linecap="round" stroke-linejoin="round"/>
<path d="M300 337.7H48C30.3 337.7 16 323.4 16 305.7V35C16 17.3 30.3 3 48 3H300C317.7 3 332 17.3 332 35V305.7C332 323.4 317.7 337.7 300 337.7Z" fill="#F7F4FF"/>
<path d="M300 337.7H48C30.3 337.7 16 323.4 16 305.7V35C16 17.3 30.3 3 48 3H300C317.7 3 332 17.3 332 35V305.7C332 323.4 317.7 337.7 300 337.7Z" fill="#F7F4FF"/>
<path d="M34.7 305.7V35C34.7 17.3 49 3 66.7 3H48C30.3 3 16 17.3 16 35V305.7C16 323.4 30.3 337.7 48 337.7H66.7C49 337.7 34.7 323.4 34.7 305.7Z" fill="#A0D4A1"/>
<path d="M300 3H281.3C299 3 313.3 17.3 313.3 35V305.7C313.3 323.4 299 337.7 281.3 337.7H300C317.7 337.7 332 323.4 332 305.7V35C332 17.3 317.7 3 300 3Z" fill="#A0D4A1"/>
<path d="M300 337.7H48C30.3 337.7 16 323.4 16 305.7V35C16 17.3 30.3 3 48 3H300C317.7 3 332 17.3 332 35V305.7C332 323.4 317.7 337.7 300 337.7Z" stroke="#5F30E2" stroke-width="6" stroke-miterlimit="10" stroke-linecap="round" stroke-linejoin="round"/>
<path d="M286 108.699H62C57.6 108.699 54 105.099 54 100.699V48.6992C54 44.2992 57.6 40.6992 62 40.6992H286C290.4 40.6992 294 44.2992 294 48.6992V100.699C294 105.099 290.4 108.699 286 108.699Z" fill="#A0D4A1"/>
<path d="M257.3 57.2008L255.4 55.2008L257.3 53.3008H272L273.9 54.9008L271.9 57.2008H257.3Z" fill="#5F30E2"/>
<path opacity="0.2" d="M252.9 72.4008V57.7008L254.8 55.8008L256.7 57.7008V72.4008L254.8 74.3008L252.9 72.4008Z" fill="#5F30E2"/>
<path d="M272.5 72.4023V57.7023L274.4 55.4023L276.3 57.7023V72.4023L274.4 74.3023L272.5 72.4023Z" fill="#5F30E2"/>
<path opacity="0.2" d="M257.3 76.7023L255.4 74.8023L257.3 72.9023H271.9L273.9 74.8023L271.9 76.7023H257.3Z" fill="#5F30E2"/>
<path opacity="0.2" d="M252.9 92.2992V77.5992L254.8 75.6992L256.7 77.5992V92.2992L254.8 94.1992L252.9 92.2992Z" fill="#5F30E2"/>
<path d="M272.5 92.3023V77.6023L274.4 75.4023L276.3 77.6023V92.3023L274.4 94.2023L272.5 92.3023Z" fill="#5F30E2"/>
<path opacity="0.2" d="M257.3 96.7008L255.4 94.7008L257.3 92.8008H271.9L273.9 94.7008L271.9 96.7008H257.3Z" fill="#5F30E2"/>
<path d="M222.7 57.2008L220.7 55.2008L222.7 53.3008H237.3L239.2 54.9008L237.3 57.2008H222.7Z" fill="#5F30E2"/>
<path opacity="0.2" d="M218.3 72.4008V57.7008L220.2 55.8008L222.1 57.7008V72.4008L220.2 74.3008L218.3 72.4008Z" fill="#5F30E2"/>
<path d="M237.9 72.4023V57.7023L239.8 55.4023L241.7 57.7023V72.4023L239.8 74.3023L237.9 72.4023Z" fill="#5F30E2"/>
<path d="M222.7 76.7023L220.7 74.8023L222.7 72.9023H237.3L239.2 74.8023L237.3 76.7023H222.7Z" fill="#5F30E2"/>
<path opacity="0.2" d="M218.3 92.2992V77.5992L220.2 75.6992L222.1 77.5992V92.2992L220.2 94.1992L218.3 92.2992Z" fill="#5F30E2"/>
<path d="M237.9 92.3023V77.6023L239.8 75.4023L241.7 77.6023V92.3023L239.8 94.2023L237.9 92.3023Z" fill="#5F30E2"/>
<path d="M222.7 96.7008L220.7 94.7008L222.7 92.8008H237.3L239.2 94.7008L237.3 96.7008H222.7Z" fill="#5F30E2"/>
<g opacity="0.2">
<path opacity="0.2" d="M153.2 57.2008L151.3 55.2008L153.2 53.3008H167.9L169.8 54.9008L167.9 57.2008H153.2Z" fill="#5F30E2"/>
<path opacity="0.2" d="M148.8 72.4008V57.7008L150.8 55.8008L152.7 57.7008V72.4008L150.8 74.3008L148.8 72.4008Z" fill="#5F30E2"/>
<path opacity="0.2" d="M168.4 72.4023V57.7023L170.3 55.4023L172.3 57.7023V72.4023L170.3 74.3023L168.4 72.4023Z" fill="#5F30E2"/>
<path opacity="0.2" d="M153.2 76.7023L151.3 74.8023L153.2 72.9023H167.9L169.8 74.8023L167.9 76.7023H153.2Z" fill="#5F30E2"/>
<path opacity="0.2" d="M148.8 92.2992V77.5992L150.8 75.6992L152.7 77.5992V92.2992L150.8 94.1992L148.8 92.2992Z" fill="#5F30E2"/>
<path opacity="0.2" d="M168.4 92.3023V77.6023L170.3 75.4023L172.3 77.6023V92.3023L170.3 94.2023L168.4 92.3023Z" fill="#5F30E2"/>
<path opacity="0.2" d="M153.2 96.7008L151.3 94.7008L153.2 92.8008H167.9L169.8 94.7008L167.9 96.7008H153.2Z" fill="#5F30E2"/>
</g>
<g opacity="0.2">
<path opacity="0.2" d="M187.9 57.2008L186 55.2008L187.9 53.3008H202.6L204.5 54.9008L202.5 57.2008H187.9Z" fill="#5F30E2"/>
<path opacity="0.2" d="M183.5 72.4008V57.7008L185.4 55.8008L187.4 57.7008V72.4008L185.4 74.3008L183.5 72.4008Z" fill="#5F30E2"/>
<path opacity="0.2" d="M203.1 72.4023V57.7023L205 55.4023L207 57.7023V72.4023L205 74.3023L203.1 72.4023Z" fill="#5F30E2"/>
<path opacity="0.2" d="M187.9 76.7023L186 74.8023L187.9 72.9023H202.6L204.5 74.8023L202.6 76.7023H187.9Z" fill="#5F30E2"/>
<path opacity="0.2" d="M183.5 92.2992V77.5992L185.4 75.6992L187.4 77.5992V92.2992L185.4 94.1992L183.5 92.2992Z" fill="#5F30E2"/>
<path opacity="0.2" d="M203.1 92.3023V77.6023L205 75.4023L207 77.6023V92.3023L205 94.2023L203.1 92.3023Z" fill="#5F30E2"/>
<path opacity="0.2" d="M187.9 96.7008L186 94.7008L187.9 92.8008H202.6L204.5 94.7008L202.6 96.7008H187.9Z" fill="#5F30E2"/>
</g>
<g opacity="0.2">
<path opacity="0.2" d="M83.8999 57.2008L81.8999 55.2008L83.8999 53.3008H98.4999L100.4 54.9008L98.4999 57.2008H83.8999Z" fill="#5F30E2"/>
<path opacity="0.2" d="M79.5 72.4008V57.7008L81.4 55.8008L83.3 57.7008V72.4008L81.4 74.3008L79.5 72.4008Z" fill="#5F30E2"/>
<path opacity="0.2" d="M99.1001 72.4023V57.7023L101 55.4023L102.9 57.7023V72.4023L101 74.3023L99.1001 72.4023Z" fill="#5F30E2"/>
<path opacity="0.2" d="M83.8999 76.7023L81.8999 74.8023L83.8999 72.9023H98.4999L100.4 74.8023L98.4999 76.7023H83.8999Z" fill="#5F30E2"/>
<path opacity="0.2" d="M79.5 92.2992V77.5992L81.4 75.6992L83.3 77.5992V92.2992L81.4 94.1992L79.5 92.2992Z" fill="#5F30E2"/>
<path opacity="0.2" d="M99.1001 92.3023V77.6023L101 75.4023L102.9 77.6023V92.3023L101 94.2023L99.1001 92.3023Z" fill="#5F30E2"/>
<path opacity="0.2" d="M83.8999 96.7008L81.8999 94.7008L83.8999 92.8008H98.4999L100.4 94.7008L98.4999 96.7008H83.8999Z" fill="#5F30E2"/>
</g>
<g opacity="0.2">
<path opacity="0.2" d="M118.5 57.2008L116.6 55.2008L118.5 53.3008H133.2L135.1 54.9008L133.2 57.2008H118.5Z" fill="#5F30E2"/>
<path opacity="0.2" d="M114.2 72.4008V57.7008L116.1 55.8008L118 57.7008V72.4008L116.1 74.3008L114.2 72.4008Z" fill="#5F30E2"/>
<path opacity="0.2" d="M133.7 72.4023V57.7023L135.7 55.4023L137.6 57.7023V72.4023L135.7 74.3023L133.7 72.4023Z" fill="#5F30E2"/>
<path opacity="0.2" d="M118.5 76.7023L116.6 74.8023L118.5 72.9023H133.2L135.1 74.8023L133.2 76.7023H118.5Z" fill="#5F30E2"/>
<path opacity="0.2" d="M114.2 92.2992V77.5992L116.1 75.6992L118 77.5992V92.2992L116.1 94.1992L114.2 92.2992Z" fill="#5F30E2"/>
<path opacity="0.2" d="M133.7 92.3023V77.6023L135.7 75.4023L137.6 77.6023V92.3023L135.7 94.2023L133.7 92.3023Z" fill="#5F30E2"/>
<path opacity="0.2" d="M118.5 96.7008L116.6 94.7008L118.5 92.8008H133.2L135.1 94.7008L133.2 96.7008H118.5Z" fill="#5F30E2"/>
</g>
<path opacity="0.43" d="M286 62.6992H62C57.6 62.6992 54 59.0992 54 54.6992V48.6992C54 44.2992 57.6 40.6992 62 40.6992H286C290.4 40.6992 294 44.2992 294 48.6992V54.6992C294 59.0992 290.4 62.6992 286 62.6992Z" fill="#D2FCFB"/>
<path d="M286 108.699H62C57.6 108.699 54 105.099 54 100.699V48.6992C54 44.2992 57.6 40.6992 62 40.6992H286C290.4 40.6992 294 44.2992 294 48.6992V100.699C294 105.099 290.4 108.699 286 108.699Z" stroke="#5F30E2" stroke-width="6" stroke-miterlimit="10" stroke-linecap="round" stroke-linejoin="round"/>
<path d="M103 209.5H55C50.6 209.5 47 205.9 47 201.5V153.5C47 149.1 50.6 145.5 55 145.5H103C107.4 145.5 111 149.1 111 153.5V201.5C111 206 107.4 209.5 103 209.5Z" fill="#A0D4A1" stroke="#A0D4A1" stroke-width="6" stroke-miterlimit="10"/>
<path d="M191.6 209.5H143.6C139.2 209.5 135.6 205.9 135.6 201.5V153.5C135.6 149.1 139.2 145.5 143.6 145.5H191.6C196 145.5 199.6 149.1 199.6 153.5V201.5C199.6 206 196 209.5 191.6 209.5Z" fill="#A0D4A1" stroke="#A0D4A1" stroke-width="6" stroke-miterlimit="10"/>
<path d="M103 298H55C50.6 298 47 294.4 47 290V242C47 237.6 50.6 234 55 234H103C107.4 234 111 237.6 111 242V290C111 294.5 107.4 298 103 298Z" fill="#A0D4A1" stroke="#A0D4A1" stroke-width="6" stroke-miterlimit="10"/>
<path d="M191.6 298H143.6C139.2 298 135.6 294.4 135.6 290V242C135.6 237.6 139.2 234 143.6 234H191.6C196 234 199.6 237.6 199.6 242V290C199.6 294.5 196 298 191.6 298Z" fill="#A0D4A1" stroke="#A0D4A1" stroke-width="6" stroke-miterlimit="10"/>
<path d="M279.6 298H231.6C227.2 298 223.6 294.4 223.6 290V153.5C223.6 149.1 227.2 145.5 231.6 145.5H279.6C284 145.5 287.6 149.1 287.6 153.5V290C287.6 294.5 284 298 279.6 298Z" fill="#A0D4A1" stroke="#A0D4A1" stroke-width="6" stroke-miterlimit="10"/>
<path d="M198 203.5H150C145.6 203.5 142 199.9 142 195.5V147.5C142 143.1 145.6 139.5 150 139.5H198C202.4 139.5 206 143.1 206 147.5V195.5C206 200 202.4 203.5 198 203.5Z" fill="#FBFAFE"/>
<path d="M286 291.5H238C233.6 291.5 230 287.9 230 283.5V147.5C230 143.1 233.6 139.5 238 139.5H286C290.4 139.5 294 143.1 294 147.5V283.5C294 288 290.4 291.5 286 291.5Z" fill="#FBFAFE"/>
<path d="M241.9 284.5C239.8 284.5 238 282.8 238 280.6V139.5C233.6 139.5 230 143.1 230 147.5V283.5C230 287.9 233.6 291.5 238 291.5H286C290.1 291.5 293.4 288.4 293.9 284.5H241.9Z" fill="#A0D4A1"/>
<path d="M286 291.5H238C233.6 291.5 230 287.9 230 283.5V147.5C230 143.1 233.6 139.5 238 139.5H286C290.4 139.5 294 143.1 294 147.5V283.5C294 288 290.4 291.5 286 291.5Z" stroke="#5F30E2" stroke-width="6" stroke-miterlimit="10" stroke-linecap="round" stroke-linejoin="round"/>
<path d="M276.4 202.699H247.6V209.899H276.4V202.699Z" fill="#5F30E2"/>
<path d="M276.4 213.5H247.6V220.7H276.4V213.5Z" fill="#5F30E2"/>
<path d="M273.4 148.199H278.2C281.9 148.199 284.9 151.199 284.9 154.899V174.599" stroke="white" stroke-width="3" stroke-miterlimit="10" stroke-linecap="round" stroke-linejoin="round"/>
<path d="M153.9 196.5C151.8 196.5 150 194.8 150 192.6V139.5C145.6 139.5 142 143.1 142 147.5V195.5C142 199.9 145.6 203.5 150 203.5H198C202.1 203.5 205.4 200.4 205.9 196.5H153.9Z" fill="#A0D4A1"/>
<path d="M198 203.5H150C145.6 203.5 142 199.9 142 195.5V147.5C142 143.1 145.6 139.5 150 139.5H198C202.4 139.5 206 143.1 206 147.5V195.5C206 200 202.4 203.5 198 203.5Z" stroke="#5F30E2" stroke-width="6" stroke-miterlimit="10" stroke-linecap="round" stroke-linejoin="round"/>
<path d="M186.5 168.398H161.4V174.698H186.5V168.398Z" fill="#5F30E2"/>
<path d="M190.2 148.199H192.4C194.9 148.199 197 150.299 197 152.799V159.699" stroke="white" stroke-width="3" stroke-miterlimit="10" stroke-linecap="round" stroke-linejoin="round"/>
<path d="M110 203.5H62C57.6 203.5 54 199.9 54 195.5V147.5C54 143.1 57.6 139.5 62 139.5H110C114.4 139.5 118 143.1 118 147.5V195.5C118 200 114.4 203.5 110 203.5Z" fill="#FBFAFE"/>
<path d="M65.9 196.5C63.8 196.5 62 194.8 62 192.6V139.5C57.6 139.5 54 143.1 54 147.5V195.5C54 199.9 57.6 203.5 62 203.5H110C114.1 203.5 117.4 200.4 117.9 196.5H65.9Z" fill="#A0D4A1"/>
<path d="M110 203.5H62C57.6 203.5 54 199.9 54 195.5V147.5C54 143.1 57.6 139.5 62 139.5H110C114.4 139.5 118 143.1 118 147.5V195.5C118 200 114.4 203.5 110 203.5Z" stroke="#5F30E2" stroke-width="6" stroke-miterlimit="10" stroke-linecap="round" stroke-linejoin="round"/>
<path d="M97.1 168.402H72V174.702H97.1V168.402Z" fill="#5F30E2"/>
<path d="M87.6758 184.112L87.6758 159.012L81.3758 159.012L81.3758 184.112L87.6758 184.112Z" fill="#5F30E2"/>
<path d="M101.7 148.199H103.9C106.4 148.199 108.5 150.299 108.5 152.799V159.699" stroke="white" stroke-width="3" stroke-miterlimit="10" stroke-linecap="round" stroke-linejoin="round"/>
<path d="M110 291.5H62C57.6 291.5 54 287.9 54 283.5V235.5C54 231.1 57.6 227.5 62 227.5H110C114.4 227.5 118 231.1 118 235.5V283.5C118 288 114.4 291.5 110 291.5Z" fill="#FBFAFE"/>
<path d="M65.9 284.5C63.8 284.5 62 282.8 62 280.6V227.5C57.6 227.5 54 231.1 54 235.5V283.5C54 287.9 57.6 291.5 62 291.5H110C114.1 291.5 117.4 288.4 117.9 284.5H65.9Z" fill="#A0D4A1"/>
<path d="M110 291.5H62C57.6 291.5 54 287.9 54 283.5V235.5C54 231.1 57.6 227.5 62 227.5H110C114.4 227.5 118 231.1 118 235.5V283.5C118 288 114.4 291.5 110 291.5Z" stroke="#5F30E2" stroke-width="6" stroke-miterlimit="10" stroke-linecap="round" stroke-linejoin="round"/>
<path d="M97.06 266.158L79.3118 248.41L74.857 252.865L92.6053 270.613L97.06 266.158Z" fill="#5F30E2"/>
<path d="M79.3778 270.608L97.126 252.859L92.6713 248.405L74.923 266.153L79.3778 270.608Z" fill="#5F30E2"/>
<path d="M101.7 236.898H103.9C106.4 236.898 108.5 238.998 108.5 241.498V248.398" stroke="white" stroke-width="3" stroke-miterlimit="10" stroke-linecap="round" stroke-linejoin="round"/>
<path d="M198 291.5H150C145.6 291.5 142 287.9 142 283.5V235.5C142 231.1 145.6 227.5 150 227.5H198C202.4 227.5 206 231.1 206 235.5V283.5C206 288 202.4 291.5 198 291.5Z" fill="#FBFAFE"/>
<path d="M153.9 284.5C151.8 284.5 150 282.8 150 280.6V227.5C145.6 227.5 142 231.1 142 235.5V283.5C142 287.9 145.6 291.5 150 291.5H198C202.1 291.5 205.4 288.4 205.9 284.5H153.9Z" fill="#A0D4A1"/>
<path d="M198 291.5H150C145.6 291.5 142 287.9 142 283.5V235.5C142 231.1 145.6 227.5 150 227.5H198C202.4 227.5 206 231.1 206 235.5V283.5C206 288 202.4 291.5 198 291.5Z" stroke="#5F30E2" stroke-width="6" stroke-miterlimit="10" stroke-linecap="round" stroke-linejoin="round"/>
<path d="M186.5 256.398H161.4V262.698H186.5V256.398Z" fill="#5F30E2"/>
<path d="M177.164 272.077L177.164 265.777L170.864 265.777L170.864 272.077L177.164 272.077Z" fill="#5F30E2"/>
<path d="M177.107 253.222L177.107 246.922L170.807 246.922L170.807 253.222L177.107 253.222Z" fill="#5F30E2"/>
<path d="M190.2 236.898H192.4C194.9 236.898 197 238.998 197 241.498V248.398" stroke="white" stroke-width="3" stroke-miterlimit="10" stroke-linecap="round" stroke-linejoin="round"/>
</svg>
