<svg width="674" height="578" viewBox="0 0 674 578" fill="none" xmlns="http://www.w3.org/2000/svg">
<path fill-rule="evenodd" clip-rule="evenodd" d="M195.851 389.564C105.08 410.724 53.1469 381.18 40.0499 300.934C20.4043 180.563 86.9545 54.1057 178.268 41.9832C269.582 29.8608 307.968 64.4404 372.147 107.864C436.326 151.288 622.342 253.46 643.475 270.8C664.609 288.141 709.827 355.902 619.383 398.822C559.086 427.436 484.076 422.047 394.352 382.655C362.811 368.865 334.088 361.567 308.184 360.762C282.279 359.957 244.835 369.557 195.851 389.564Z" fill="#F7F4FF"/>
<path d="M299.319 236.746C307.477 242.071 310.758 248.959 309.16 257.411C301.519 268.865 297.698 278.783 297.698 287.166C297.698 295.549 297.123 306.453 295.973 319.879L232.467 321.22L232.333 321.139C230.635 321.172 228.967 321.198 227.327 321.22C213.193 321.404 200.653 323.275 200.061 323.367C195.433 324.085 187.093 315.499 184.779 312.59C181.059 307.916 179.292 302.385 178.506 296.364C177.764 290.685 178.81 285.405 180.863 280.344C183.262 274.431 187.017 269.312 191.778 264.804C196.998 260.019 202.62 256.112 208.922 253.231C209.167 253.119 213.69 250.893 213.907 250.922C214.052 250.942 221.283 253.258 231.34 257.956C242.754 249.843 255.099 241.258 268.377 232.202C280.847 229.906 291.16 231.421 299.319 236.746Z" fill="#FBFAFE"/>
<path fill-rule="evenodd" clip-rule="evenodd" d="M217.144 374.958C227.129 377.014 233.149 373.096 235.203 363.203C238.285 348.363 219.668 351.015 213.971 343.378C208.274 335.741 220.911 334.21 235.203 338.794C249.509 338.167 253.638 338.986 254.459 335.041C255.281 331.096 247.828 328.61 227.921 329.261C208.014 329.911 210.942 329.938 212.456 346.571C213.466 357.659 215.029 367.121 217.144 374.958Z" fill="#FBFAFE"/>
<path d="M465.314 406.65C457.64 400.302 452.234 396.308 449.337 393.755C442.418 387.656 435.331 381.751 428.35 375.722C426.915 374.482 425.521 373.148 424.341 371.672C422.859 369.819 423.196 368.54 425.536 367.638C427.383 366.925 429.4 366.598 431.371 366.283C437.248 365.344 443.135 364.466 449.026 363.622C451.614 363.251 454.224 363.033 456.82 362.711C457.284 362.653 457.726 362.421 458.178 362.27C457.954 361.905 457.782 361.491 457.496 361.183C455.223 358.728 452.929 356.293 450.64 353.853C450.438 353.638 450.225 353.435 450.017 353.226C450.342 353.148 450.664 353.043 450.993 352.994C457.025 352.104 463.056 351.208 469.091 350.34C473.053 349.77 477.015 349.18 480.99 348.713C485.058 348.235 489.138 347.847 493.22 347.51C496.871 347.208 500.536 347.082 504.186 346.778C506.525 346.583 508.841 346.122 511.18 345.933C514.104 345.696 517.043 345.659 519.971 345.458C523.628 345.208 527.277 344.84 530.934 344.596C534.009 344.391 537.093 344.335 540.167 344.127C542.647 343.96 545.114 343.594 547.595 343.444C550.018 343.298 552.451 343.314 554.88 343.257C561.169 343.11 567.457 342.93 573.747 342.826C577.595 342.763 581.477 342.524 585.282 342.934C587.266 343.148 589.534 344.173 590.949 345.569C594.523 349.097 597.691 353.04 601.013 356.824C603.049 359.144 605.09 361.461 607.094 363.809C611.319 368.758 615.512 373.734 619.74 378.68C621.053 380.216 622.459 381.673 623.777 383.205C624.155 383.644 624.377 384.218 624.67 384.731C624.254 384.39 623.015 383.33 623.427 383.705C664.215 420.812 492.448 428.701 465.314 406.65Z" fill="#FBFAFE"/>
<path d="M0.699913 269.539C0.83896 265.718 0.95717 261.897 1.10552 258.076C1.15345 256.842 1.29305 255.612 1.36925 254.378C2.00202 244.136 3.21898 233.957 5.84027 224.027C7.93206 216.103 10.6942 208.395 14.0512 200.866C17.8805 192.279 22.5362 184.203 27.9005 176.525C30.6335 172.613 33.6186 168.843 36.7948 165.277C40.6163 160.987 44.5426 156.739 48.8252 152.918C53.7145 148.556 58.9688 144.58 64.2452 140.678C65.42 139.809 67.4968 139.385 68.8987 139.748C71.3605 140.385 71.7165 142.525 69.8334 144.159C65.5576 147.87 63.523 152.608 63.2096 158.109C63.0366 161.148 63.3212 164.213 63.1525 167.252C62.5964 177.272 65.5221 186.494 69.855 195.292C73.9973 203.703 80.029 210.63 88.6839 214.676C93.6499 216.998 98.9606 218.628 104.19 220.346C108.733 221.838 113.388 222.99 117.979 224.339C122.483 225.664 126.919 226.865 131.692 225.273C134.14 224.457 135.977 226.647 135.039 229.019C131.494 237.992 128.473 247.304 122.246 254.869C118.51 259.407 114.189 263.607 109.565 267.251C102.778 272.6 94.9739 276.414 87.1785 280.171C79.575 283.835 72.1428 287.854 64.5057 291.445C55.9022 295.49 47.1835 299.298 38.4589 303.081C31.4203 306.134 24.3147 309.036 17.2019 311.915C15.5011 312.604 13.6793 313.086 11.8667 313.387C10.0506 313.688 6.06074 310.84 5.34797 308.958C3.53917 304.181 2.30963 299.269 1.80187 294.179C1.49285 291.08 1.07693 287.993 0.598653 284.901C0.488281 284.681 0.488281 284.462 0.598652 284.133C0.782603 279.896 0.859754 275.768 0.911005 271.641C0.912414 271.527 0.635441 271.41 0.488281 271.295C0.488281 270.783 0.488281 270.271 0.488281 269.649C0.561846 269.539 0.699816 269.541 0.699913 269.539Z" fill="#FBFAFE"/>
<path fill-rule="evenodd" clip-rule="evenodd" d="M295.213 319.743L428.863 316.338H434.345C442.337 322.291 451.105 324.856 460.65 324.034C474.967 322.801 487.609 306.999 490.561 284.968C490.996 283.25 492.052 282.838 493.727 283.73C495.572 287.326 498.845 288.895 503.546 288.436C505.588 288.216 506.724 288.693 507.876 290.909C509.028 293.125 515.121 295.912 518.94 293.675C522.759 291.438 540.365 262.921 540.365 258.122C540.365 253.324 541.352 242.844 542.129 242.167C542.906 241.49 544.368 242.039 547.206 241.14C550.043 240.241 552.472 241.136 561.569 217.254C570.667 193.373 584.587 157.672 586.069 132.673C587.552 107.675 569.894 116.51 561.569 126.942C553.244 137.374 530.038 164.234 508.56 178.82C505.932 180.783 503.787 181.706 502.124 181.588C501.128 175.38 497.045 173.067 489.878 174.649C487.092 175.149 484.812 172.947 483.038 168.042C478.443 142.578 467.967 124.152 451.61 112.764C427.076 95.6826 385.27 85.921 375.211 121.636C368.505 145.446 372.537 174.373 387.306 208.417L381.157 213.739C356.961 222.109 337.196 232.442 321.859 244.736C298.855 263.179 298.415 281.168 297.195 296.007C296.381 305.899 295.72 313.811 295.213 319.743Z" fill="#FBFAFE"/>
<path d="M245.758 216.914C245.963 214.98 246.056 213.033 246.28 211.101C246.292 210.997 247.274 210.775 247.557 210.969C250.187 212.776 252.789 214.628 255.338 216.549C256.029 217.069 256.083 217.587 256.397 216.225C256.887 214.096 259.915 213.502 261.729 215.015C265.888 218.483 267.987 223.148 269.509 228.22C270.83 232.619 270.307 237.091 270.435 241.536C270.518 244.389 273.19 246.541 275.994 246.656C278.068 246.741 280.249 247.65 282.114 248.679C286.628 251.169 289.53 255.097 290.956 260.045C292.492 265.374 291.063 270.118 287.974 274.545C285.165 278.572 282.607 282.79 278.531 285.743C276.275 287.376 273.677 288.731 271.912 290.794C270.016 293.01 267.84 294.454 265.258 295.45C258.898 297.904 251.949 294.722 248.835 289.419C245.546 282.423 233.805 288.124 229.256 277.803C226.96 274.397 226.066 271.541 226.561 271.256C227.166 270.907 226.33 270.026 225.26 268.902C220.588 263.995 216.438 258.68 213.599 252.457C213.151 251.475 212.689 250.462 212.493 249.414C212.373 248.771 212.552 247.852 212.969 247.408C213.231 247.129 214.276 247.329 214.804 247.618C215.596 248.05 216.223 248.774 216.954 249.33C218.2 250.277 218.892 249.874 218.554 248.397C217.595 244.199 218.477 240.214 219.953 236.363C220.749 234.287 222.045 232.392 223.247 230.499C223.362 230.319 224.518 230.591 225.021 230.916C225.955 231.52 226.763 232.318 227.624 233.035C227.681 231.887 227.7 230.736 227.812 229.594C227.879 228.916 228.046 228.237 228.251 227.584C229.282 224.315 229.835 224.15 232.564 226.2C232.93 226.475 233.368 226.654 233.772 226.877C233.828 226.461 233.901 226.046 233.936 225.628C234.237 222.036 233.518 218.776 230.891 216.108C230.86 216.076 231.43 215.139 231.758 215.113C235.542 214.816 239.326 214.659 242.787 216.68C243.494 217.093 244.2 217.509 245.016 218.034C245.345 217.735 245.713 217.342 245.758 216.914Z" fill="#FBFAFE"/>
<path fill-rule="evenodd" clip-rule="evenodd" d="M301.861 84.7545C290.688 94.0147 285.622 107.421 286.661 124.973C288.22 151.302 318.849 170.059 333.664 162.119C348.48 154.18 364.839 142.614 366.792 117.995C367.622 141.422 370.078 152.824 338.492 169.813C306.907 186.802 273.887 160.441 269.111 149.575C264.335 138.71 252.838 114.723 276.173 86.8954C279.367 83.2151 287.929 82.5014 301.861 84.7545Z" fill="#FBFAFE"/>
<path fill-rule="evenodd" clip-rule="evenodd" d="M568.072 392.803C570.775 392.507 573.265 392.27 575.736 391.903C581.35 391.07 586.951 390.153 592.563 389.309C595.903 388.807 599.293 388.563 602.585 387.852C604.895 387.354 606.988 387.678 609.115 388.378C609.457 388.491 609.72 388.847 610.019 389.09C609.66 389.291 609.317 389.625 608.939 389.673C604.005 390.295 599.057 390.815 594.13 391.488C589.176 392.165 584.246 393.023 579.296 393.73C575.846 394.224 572.377 394.574 568.922 395.035C567.122 395.275 565.34 395.663 563.54 395.903C560.99 396.242 558.426 396.469 555.877 396.812C552.887 397.215 549.91 397.715 546.921 398.128C544.518 398.461 542.103 398.703 539.699 399.031C536.637 399.449 533.584 399.925 530.523 400.354C528.265 400.67 526.003 400.956 523.742 401.245C521.36 401.548 518.969 401.786 516.597 402.155C515.162 402.378 513.841 402.367 513.415 400.716C513.026 399.209 513.795 398.029 515.262 397.704C517.271 397.259 519.333 397.016 521.385 396.822C523.821 396.592 526.27 396.493 528.714 396.362C531.723 396.199 534.738 396.116 537.743 395.899C540.94 395.668 544.128 395.301 547.323 395.03C551.08 394.712 554.845 394.479 558.598 394.117C560.549 393.929 562.48 393.535 564.422 393.251C565.562 393.084 566.708 392.951 568.072 392.803Z" fill="#A0D4A1"/>
<path fill-rule="evenodd" clip-rule="evenodd" d="M509.443 371.99C512.147 371.844 514.634 371.741 517.112 371.54C519.745 371.327 522.367 370.972 525 370.768C527.956 370.539 530.923 370.446 533.88 370.226C537.234 369.976 540.581 369.624 543.934 369.367C546.414 369.176 548.903 369.107 551.382 368.909C554.492 368.66 557.592 368.301 560.702 368.053C563.181 367.854 565.671 367.791 568.15 367.593C571.426 367.331 574.692 366.844 577.971 366.734C581.713 366.609 585.47 365.444 589.209 366.734C589.654 366.888 590.059 367.159 590.482 367.375C590.08 367.451 589.68 367.556 589.274 367.599C586.437 367.9 583.595 368.156 580.763 368.489C577.322 368.893 573.894 369.422 570.448 369.774C567.928 370.031 565.381 370.014 562.858 370.254C559.399 370.583 555.956 371.08 552.499 371.428C549.99 371.681 547.466 371.787 544.952 371.995C541.672 372.267 538.395 372.565 535.119 372.871C532.133 373.149 529.147 373.428 526.167 373.752C522.36 374.165 518.564 374.671 514.754 375.048C511.139 375.405 507.509 375.604 503.893 375.954C501.378 376.197 498.882 376.659 496.365 376.856C495.382 376.933 494.287 376.72 493.387 376.32C492.743 376.034 492.336 375.216 491.824 374.636C492.475 374.193 493.094 373.425 493.781 373.36C497.953 372.961 502.142 372.736 506.323 372.418C507.295 372.345 508.257 372.137 509.443 371.99Z" fill="#A0D4A1"/>
<path fill-rule="evenodd" clip-rule="evenodd" d="M279.505 427.325C279.278 427.506 279.16 427.645 279.046 427.642C278.013 427.612 276.981 427.557 275.949 427.509C276.935 426.829 277.836 425.783 278.922 425.534C283.197 424.555 287.047 422.829 290.614 420.283C295.273 416.957 298.151 412.596 299.198 407.023C299.359 406.164 299.118 405.779 298.082 405.785C296.603 405.793 295.12 405.551 293.643 405.383C290.753 405.056 288.452 403.013 288.198 400.576C288.035 399.013 290.381 395.74 292.114 394.896C296.146 392.932 300.626 396.81 301.771 400.168C302.232 401.521 302.452 401.03 303.06 400.474C305.938 397.844 306.88 394.467 306.651 390.759C306.406 386.795 304.661 383.607 301.222 381.377C300.03 380.604 299.573 379.504 300.497 378.099C301.504 376.567 304.3 376.464 305.391 377.818C306.868 379.65 308.163 381.76 308.978 383.954C310.954 389.276 310.448 394.449 307.124 399.211C306.886 399.551 306.69 399.945 306.384 400.211C303.774 402.476 302.368 405.296 301.307 408.617C298.161 418.469 290.94 424.285 281.151 427.197C280.679 427.338 280.129 427.215 279.505 427.325ZM292.82 397.529C290.93 398.647 290.415 401.859 292.203 402.418C294.269 403.063 296.656 402.707 298.904 402.729C299 402.73 299.162 402.164 299.193 401.853C299.486 398.833 296.653 396.748 292.82 397.529Z" fill="#A0D4A1"/>
<path fill-rule="evenodd" clip-rule="evenodd" d="M543.21 381.622C549.447 381.03 555.46 380.392 561.481 379.861C565.748 379.485 570.031 379.294 574.301 378.943C576.935 378.727 579.56 378.379 582.186 378.067C585.812 377.635 589.438 376.832 593.056 376.873C595.12 376.897 597.52 377.567 598.926 379.657C599.035 379.819 599.157 379.971 599.273 380.128C599.001 380.182 598.709 380.329 598.459 380.276C593.741 379.277 589.1 380.244 584.417 380.676C581.153 380.977 577.835 380.618 574.55 380.766C571.252 380.915 567.967 381.338 564.675 381.619C561.04 381.929 557.398 382.169 553.768 382.528C551.818 382.721 549.892 383.154 547.944 383.386C545.05 383.729 542.141 383.949 539.247 384.297C535.938 384.694 532.625 385.092 529.338 385.639C525.43 386.289 521.558 387.153 517.653 387.823C513.784 388.486 509.909 389.194 506.007 389.537C504.229 389.694 502.348 389.14 500.571 388.683C499.205 388.332 499.515 387.369 500.385 386.738C501.088 386.228 501.949 385.787 502.792 385.655C505.331 385.257 507.895 385.019 510.451 384.732C513.152 384.428 515.851 384.092 518.558 383.853C522.411 383.513 526.275 383.291 530.127 382.939C532.468 382.725 534.792 382.324 537.131 382.078C539.078 381.872 541.036 381.77 543.21 381.622Z" fill="#A0D4A1"/>
<path fill-rule="evenodd" clip-rule="evenodd" d="M501.847 363.269C506.992 362.682 511.914 362.063 516.843 361.519C520.046 361.165 523.266 360.962 526.469 360.61C528.341 360.405 530.192 360.019 532.058 359.752C533.34 359.569 534.633 359.467 535.917 359.302C539.846 358.799 543.767 358.224 547.703 357.788C551.706 357.344 555.728 357.071 559.734 356.65C563.403 356.265 567.054 355.664 570.73 355.403C572.05 355.309 573.444 355.854 574.755 356.263C575.192 356.4 575.476 357.023 575.83 357.424C575.329 357.589 574.835 357.865 574.324 357.902C571.463 358.108 568.594 358.211 565.735 358.436C562.716 358.675 559.702 358.985 556.691 359.313C554.384 359.565 552.087 359.915 549.781 360.18C547.015 360.498 544.237 360.716 541.477 361.08C537.427 361.615 533.392 362.26 529.345 362.824C524.963 363.434 520.565 363.94 516.193 364.61C512.416 365.189 508.67 365.966 504.901 366.597C499.946 367.426 494.979 368.175 490.025 369.008C488.215 369.312 487.117 368.281 486.953 366.843C486.805 365.541 487.952 365.067 489.417 364.969C493.265 364.713 497.093 364.157 500.925 363.694C501.172 363.665 501.393 363.416 501.847 363.269Z" fill="#A0D4A1"/>
<path fill-rule="evenodd" clip-rule="evenodd" d="M559.326 409.42C554.526 410.02 549.945 410.606 545.368 411.226C543.419 411.489 541.481 411.995 539.533 412.02C538.9 412.028 537.642 410.727 537.74 410.253C537.939 409.292 538.763 407.859 539.516 407.728C542.723 407.171 545.999 407.03 549.247 406.715C552.179 406.431 555.106 406.106 558.037 405.822C561.286 405.507 564.536 405.204 567.787 404.922C571.429 404.605 575.071 404.297 578.715 404.025C581.212 403.838 583.717 403.765 586.212 403.555C589.146 403.308 592.069 402.932 595.002 402.677C597.349 402.474 599.71 402.424 602.055 402.201C604.474 401.972 606.882 401.613 609.296 401.321C609.587 401.286 609.907 401.246 610.177 401.329C611.11 401.616 612.026 401.956 612.949 402.275C612.136 402.556 611.341 402.983 610.506 403.093C605.565 403.742 600.611 404.299 595.666 404.924C592.376 405.34 589.098 405.862 585.805 406.256C582.784 406.616 579.745 406.825 576.723 407.187C575.132 407.377 573.573 407.846 571.981 408.022C568.594 408.396 565.194 408.646 561.802 408.98C561.044 409.055 560.299 409.269 559.326 409.42Z" fill="#A0D4A1"/>
<path fill-rule="evenodd" clip-rule="evenodd" d="M191.778 264.804C196.998 260.019 202.62 256.112 208.922 253.231C209.167 253.119 209.417 252.848 209.634 252.877C210.581 253.007 211.516 253.221 212.456 253.404C211.776 253.869 211.143 254.434 210.409 254.782C203.117 258.238 196.326 262.431 190.801 268.438C185.431 274.276 181.582 280.828 180.733 289.007C179.952 296.526 180.906 303.559 185.159 309.901C187.442 313.304 190.524 315.845 194.269 317.531C194.567 317.665 194.847 317.838 195.135 317.992C194.801 318.06 194.468 318.141 194.131 318.194C189.503 318.912 187.093 315.499 184.779 312.59C181.059 307.916 179.292 302.384 178.506 296.364C177.764 290.685 178.81 285.405 180.863 280.344C183.262 274.43 187.017 269.312 191.778 264.804Z" fill="#5F30E2"/>
<path fill-rule="evenodd" clip-rule="evenodd" d="M481.333 361.95C480.547 360.22 481.686 358.304 483.495 358.321C486.585 358.35 489.675 358.557 492.763 358.713C495.127 358.832 497.489 358.988 499.852 359.127C500.136 359.143 500.495 359.055 500.692 359.188C501.349 359.631 501.948 360.153 502.57 360.645C501.971 360.94 501.389 361.444 500.769 361.491C498.854 361.633 496.908 361.771 495.005 361.599C491.636 361.293 488.451 362.05 485.339 363.003C483.646 363.521 482.577 362.981 481.333 361.95Z" fill="#A0D4A1"/>
<path fill-rule="evenodd" clip-rule="evenodd" d="M35.0177 219.415C34.5771 222.09 34.0892 224.538 33.7128 227.003C33.4743 228.565 33.421 230.155 33.2507 231.728C32.9729 234.296 32.4846 236.856 32.41 239.428C32.2295 245.657 32.2862 251.893 32.1533 258.124C32.025 264.134 33.1832 269.95 34.5841 275.739C34.8562 276.864 34.9386 278.189 35.6056 279.027C36.6293 280.315 35.6788 280.939 34.9601 281.136C34.2736 281.325 32.934 280.988 32.6587 280.471C31.9044 279.053 31.3934 277.451 31.0841 275.864C30.3007 271.844 29.3509 267.814 29.0754 263.748C28.7025 258.245 28.961 252.702 28.8319 247.18C28.6754 240.486 29.6616 233.913 30.5813 227.314C32.0992 216.421 34.2696 205.681 37.7118 195.228C38.1274 193.966 39.0604 192.747 40.0537 191.833C41.2672 190.716 43.1364 191.737 43.4039 193.422C43.7202 195.415 42.8119 196.941 41.7165 198.448C38.419 202.985 36.7704 208.158 35.8994 213.624C35.6036 215.481 35.3115 217.338 35.0177 219.415Z" fill="#A0D4A1"/>
<path fill-rule="evenodd" clip-rule="evenodd" d="M57.2532 266.915C57.0979 268.282 59.5594 269.923 56.815 270.44C56.0729 270.58 54.4491 269.097 54.1077 268.091C53.0734 265.046 52.0723 261.901 51.7943 258.738C51.4104 254.367 51.698 249.944 51.698 245.544C51.698 245.033 51.698 244.523 51.698 244.012C51.698 237.084 51.7296 230.156 51.6768 223.229C51.6628 221.392 51.2332 219.553 51.2869 217.723C51.3263 216.377 51.6056 214.933 52.2252 213.74C52.6679 212.888 53.8118 211.944 54.7187 211.87C55.3419 211.819 56.5921 213.132 56.6937 213.933C56.9596 216.033 56.8526 218.193 56.6956 220.315C56.5737 221.964 55.9949 223.584 55.8954 225.231C55.647 229.347 55.5386 233.471 55.4058 237.593C55.2339 242.929 54.7476 248.282 55.0458 253.596C55.2923 257.987 56.4816 262.331 57.2532 266.915Z" fill="#A0D4A1"/>
<path fill-rule="evenodd" clip-rule="evenodd" d="M78.2576 258.026C74.0875 251.578 70.9793 244.769 69.0344 237.46C68.6422 235.986 68.983 234.117 69.5358 232.649C69.8013 231.944 71.6458 231.152 72.243 231.466C73.053 231.893 73.6979 233.304 73.8097 234.36C74.2413 238.437 74.5192 242.474 75.8639 246.441C77.4979 251.262 80.3006 255.286 83.0151 259.419C83.58 260.279 85.27 261.129 84.078 262.22C82.8904 263.307 81.6834 262.047 80.7878 261.048C79.9459 260.11 79.1697 259.109 78.2576 258.026Z" fill="#A0D4A1"/>
<path fill-rule="evenodd" clip-rule="evenodd" d="M97.3961 244.211C94.8881 241.77 92.3769 239.546 90.1314 237.066C88.9635 235.776 89.1824 234.137 90.5862 232.906C91.9861 231.679 92.8619 232.824 93.6683 233.758C96.7194 237.292 99.7278 240.866 102.739 244.437C102.909 244.639 103.09 245.149 103.047 245.178C102.555 245.52 101.918 246.148 101.515 246.025C100.135 245.603 98.8342 244.91 97.3961 244.211Z" fill="#A0D4A1"/>
<path fill-rule="evenodd" clip-rule="evenodd" d="M229.519 540.874C235.19 542.293 240.663 543.636 246.067 545.203C247.058 545.49 247.762 546.688 248.599 547.465C247.425 547.539 246.176 547.901 245.089 547.64C239.477 546.296 233.857 544.948 228.336 543.301C222.919 541.685 217.618 539.712 212.269 537.886C212.014 537.799 211.802 537.602 211.557 537.48C210.248 536.825 208.853 536.16 209.885 534.403C210.836 532.782 212.316 532.821 213.782 533.65C215.93 534.864 217.909 536.397 220.147 537.415C223.102 538.76 226.238 539.738 229.519 540.874Z" fill="#A0D4A1"/>
<path fill-rule="evenodd" clip-rule="evenodd" d="M236.925 524.173C239.23 525.504 241.441 526.688 243.601 527.962C244.06 528.232 244.333 528.83 244.691 529.277C243.926 529.582 242.994 530.338 242.422 530.12C237.838 528.371 233.308 526.471 228.79 524.55C226.307 523.494 223.853 522.361 221.434 521.164C220.08 520.495 218.537 519.793 219.709 517.72C220.441 516.426 222.176 516.105 223.791 516.986C228.126 519.354 232.472 521.703 236.925 524.173Z" fill="#A0D4A1"/>
<path fill-rule="evenodd" clip-rule="evenodd" d="M224.181 499.6C224.091 496.418 226.131 495.073 228.78 496.644C233.284 499.316 237.673 502.186 242.073 505.031C243.385 505.879 244.625 506.861 245.793 507.9C246.23 508.289 246.369 509.016 246.644 509.588C245.882 509.574 245.014 509.794 244.374 509.505C240.607 507.804 236.879 506.011 233.164 504.195C230.188 502.74 227.248 501.21 224.181 499.6Z" fill="#A0D4A1"/>
<path fill-rule="evenodd" clip-rule="evenodd" d="M239.451 477.436C243.321 477.487 245.373 480.061 247.583 482.339C248.218 482.993 248.732 483.811 249.113 484.638C249.491 485.457 250.002 486.577 248.952 487.132C248.479 487.382 247.433 486.887 246.801 486.493C244.986 485.361 243.276 484.069 241.469 482.925C240.82 482.514 239.913 482.475 239.301 482.031C238.409 481.383 237.677 480.522 236.877 479.751C237.663 478.979 238.45 478.208 239.451 477.436Z" fill="#A0D4A1"/>
<path fill-rule="evenodd" clip-rule="evenodd" d="M251.825 414.574C255.018 421.199 257.577 428.033 258.431 435.402C258.889 439.354 259.413 443.302 259.726 447.267C260.01 450.866 260.229 454.489 260.148 458.094C260.052 462.407 259.587 466.711 259.322 471.022C259.137 474.019 259.108 477.028 258.854 480.019C258.496 484.225 257.924 488.414 257.577 492.621C257.314 495.807 257.139 499.009 257.146 502.204C257.154 505.84 257.415 509.475 257.552 513.11C257.708 517.259 257.357 521.5 258.109 525.537C259.234 531.577 260.776 537.596 262.778 543.404C265.721 551.944 270.814 559.366 276.432 566.353C279.902 570.67 283.906 574.502 289.546 575.989C289.619 576.009 289.682 576.688 289.537 576.815C287.457 578.634 284.869 577.894 282.675 577.601C277.769 576.946 272.917 575.787 268.098 574.609C255.853 571.614 243.625 568.549 231.417 565.405C225.47 563.874 219.587 562.09 213.664 560.462C212.793 560.222 211.669 559.825 210.985 560.16C207.531 561.853 204.863 559.993 202.325 558.272C196.762 554.501 193.606 549.024 191.97 542.589C189.712 533.711 191.527 525.239 194.803 517.027C196.963 511.613 199.539 506.355 202.126 501.124C204.751 495.816 208.047 490.909 212.042 486.522C213.392 485.04 215.033 483.826 216.499 482.446C218.511 480.552 218.616 477.955 218.782 475.48C218.974 472.613 218.54 469.677 218.951 466.855C220.35 457.264 224.581 448.654 229.031 440.224C231.25 436.021 234.068 432.027 237.198 428.449C239.519 425.795 242.572 423.646 246.168 422.627C247.27 422.315 247.582 422.062 246.76 420.687C245.57 418.696 243.896 416.383 246 413.719C248.518 411.199 250.335 411.482 251.825 414.574ZM255.171 434.573C255.085 434.659 254.941 434.733 254.922 434.832C254.76 435.674 254.74 436.565 254.452 437.358C253.18 440.866 252.196 444.544 250.435 447.795C246.903 454.315 242.395 460.187 237.07 465.385C232.427 469.917 227.717 474.381 223.113 478.952C220.488 481.558 217.787 484.14 215.526 487.048C211.9 491.714 208.089 496.361 205.313 501.531C202.088 507.536 199.671 514.015 197.336 520.446C195.87 524.485 194.876 528.767 194.261 533.026C193.602 537.602 194.484 542.167 196.553 546.338C198.079 549.413 200.227 551.962 203.746 553.07C207.955 554.396 212.087 555.962 216.285 557.321C225.602 560.336 234.887 563.468 244.286 566.203C251.324 568.251 258.501 569.833 265.652 571.466C269.702 572.391 273.821 573.017 277.918 573.721C278.242 573.777 278.642 573.388 279.007 573.206C278.824 572.946 278.665 572.665 278.453 572.431C276.957 570.772 275.289 569.24 273.976 567.448C270.361 562.515 266.4 557.745 263.475 552.417C258.284 542.96 254.805 532.821 254.025 521.915C253.784 518.558 253.446 515.207 253.152 511.413C253.152 507.202 252.983 502.983 253.204 498.784C253.394 495.184 254.042 491.609 254.47 488.021C254.779 485.429 254.883 482.797 255.391 480.246C256.363 475.368 255.905 473.4 251.758 470.618C249.829 469.325 247.406 468.078 247.313 465.37C247.273 464.224 248.191 462.864 249.057 461.978C249.319 461.71 251.169 462.456 251.772 463.175C253.137 464.803 254.169 466.709 255.364 468.484C255.556 468.77 255.887 468.963 256.154 469.198C256.327 468.903 256.626 468.619 256.653 468.311C256.839 466.246 257.094 464.176 257.082 462.109C257.066 459.452 256.802 456.799 256.678 454.142C256.513 450.582 256.396 447.019 256.228 443.458C256.109 440.923 255.966 438.389 255.769 435.859C255.734 435.418 255.379 435.001 255.171 434.573ZM246.11 425.504C241.393 427.13 238.148 430.595 235.595 434.602C230.5 442.598 226.444 451.149 223.795 460.264C222.561 464.51 222.036 468.974 223.688 473.336C223.785 473.592 224.464 473.912 224.513 473.86C230.83 467.185 237.175 460.534 243.38 453.756C249.712 446.839 252.104 438.586 250.921 429.338C250.384 425.142 250.087 425.036 246.11 425.504ZM585.282 342.934C587.267 343.148 589.534 344.173 590.949 345.569C594.523 349.098 597.691 353.04 601.013 356.824C603.05 359.144 605.09 361.462 607.095 363.81C611.32 368.758 615.512 373.734 619.741 378.68C621.054 380.216 622.459 381.673 623.778 383.205C624.156 383.644 624.377 384.218 624.671 384.731C624.255 384.391 623.806 384.084 623.428 383.705C613.437 373.702 603.486 363.66 593.452 353.702C590.166 350.441 586.433 347.682 581.925 346.396C577.176 345.042 572.336 344.581 567.358 345.397C564.852 345.808 562.219 345.384 559.649 345.487C553.93 345.715 548.216 346.092 542.495 346.302C539.144 346.425 535.78 346.23 532.431 346.385C528.848 346.551 525.275 346.956 521.698 347.263C518.409 347.546 515.117 347.811 511.831 348.132C509.228 348.386 506.635 348.744 504.032 349.001C500.724 349.328 497.401 349.524 494.101 349.916C491.304 350.248 488.533 350.798 485.746 351.216C482.646 351.681 479.537 352.085 476.437 352.553C471.664 353.272 466.895 354.014 462.133 354.796C461.956 354.825 461.664 355.514 461.765 355.659C462.646 356.93 463.554 358.19 464.55 359.373C469.523 365.278 474.562 371.127 479.507 377.056C485.114 383.778 490.542 390.652 496.244 397.29C500.246 401.948 504.19 406.754 509.839 409.625C510.02 409.717 510.181 409.848 510.351 409.96C510.145 409.995 509.916 410.106 509.736 410.054C506.286 409.041 502.686 408.626 500.167 405.363C495.515 399.34 490.506 393.595 485.722 387.673C479.803 380.346 474.175 372.768 467.142 366.424C466.569 365.907 465.971 365.371 465.291 365.032C463.785 364.281 462.4 364.029 461.225 365.81C458.886 369.358 456.334 372.763 453.998 376.312C452.439 378.68 452.945 379.841 455.763 381.758C463.185 386.806 471.245 390.401 479.869 392.851C483.46 393.871 487.021 395.164 489.573 398.187C489.753 398.401 489.947 398.605 490.135 398.813C489.831 398.784 489.507 398.815 489.228 398.717C477.615 394.61 465.988 390.541 454.414 386.325C452.511 385.632 450.761 384.406 449.1 383.205C448.04 382.438 448.09 381.289 448.782 380.055C451.161 375.819 453.435 371.524 455.727 367.239C455.883 366.948 455.95 366.276 455.896 366.257C455.312 366.057 454.667 365.766 454.093 365.854C451.69 366.219 449.269 366.564 446.922 367.177C441.624 368.561 436.364 370.088 431.1 371.599C430.792 371.687 430.591 372.148 430.34 372.436C431.672 373.475 433.003 374.515 434.445 375.665C440.023 380.52 445.495 385.258 450.956 390.009C453.881 392.554 456.787 395.12 459.703 397.676C459.822 397.781 459.947 397.881 460.069 397.983C459.793 398.028 459.494 398.168 459.246 398.105C455.705 397.21 452.235 396.308 449.338 393.755C442.419 387.657 435.331 381.751 428.351 375.722C426.916 374.482 425.522 373.149 424.341 371.672C422.859 369.819 423.197 368.54 425.537 367.638C427.383 366.926 429.401 366.599 431.372 366.283C437.248 365.344 443.135 364.466 449.026 363.622C451.615 363.251 454.225 363.034 456.82 362.711C457.284 362.653 457.726 362.422 458.179 362.27C457.954 361.905 457.782 361.492 457.497 361.183C455.224 358.728 452.93 356.293 450.64 353.853C450.439 353.638 450.225 353.435 450.017 353.227C450.342 353.148 450.664 353.043 450.994 352.994C457.025 352.104 463.056 351.208 469.091 350.34C473.054 349.77 477.015 349.18 480.99 348.713C485.058 348.235 489.138 347.847 493.22 347.51C496.871 347.208 500.536 347.082 504.187 346.778C506.525 346.583 508.842 346.122 511.181 345.933C514.104 345.697 517.044 345.659 519.971 345.458C523.628 345.208 527.277 344.841 530.935 344.596C534.009 344.391 537.093 344.335 540.168 344.127C542.647 343.96 545.115 343.594 547.595 343.444C550.019 343.298 552.452 343.314 554.881 343.257C561.17 343.11 567.458 342.93 573.747 342.826C577.596 342.763 581.477 342.524 585.282 342.934ZM219.478 328.089C221.156 328.264 222.871 328.036 224.561 328.137C228.682 328.381 232.795 328.759 236.916 328.99C240.752 329.205 244.606 329.161 248.431 329.486C252.347 329.818 254.692 331.453 254.441 336.147C254.214 340.38 254.137 344.621 253.987 348.859C253.847 352.802 253.693 356.745 253.556 360.688C253.536 361.271 253.557 361.858 253.594 362.44C253.627 362.945 253.71 363.447 253.771 363.95C253.626 363.951 253.371 363.994 253.352 363.945C253.145 363.401 252.877 362.853 252.811 362.285C252.582 360.296 252.433 358.297 252.242 356.303C251.957 353.328 251.668 350.353 251.368 347.38C251.217 345.876 251.044 344.374 250.867 342.873C250.757 341.94 250.651 341.005 250.485 340.082C250.415 339.688 250.198 339.322 250.048 338.943C249.739 339.118 249.369 339.232 249.132 339.478C246.241 342.482 244.265 345.985 243.507 350.154C243.424 350.611 243.148 351.031 242.962 351.469C242.808 351.082 242.681 350.681 242.496 350.31C239.119 343.553 233.8 339.064 226.536 337.529C223.216 336.828 219.633 337.425 216.169 337.403C214.425 337.392 214.136 338.394 214.288 339.883C214.618 343.123 214.867 346.371 215.176 349.613C215.598 354.025 216.051 358.434 216.479 362.845C216.78 365.94 217.025 369.042 217.377 372.131C217.476 373 217.872 373.833 218.12 374.685C218.236 375.084 218.324 375.492 218.425 375.895C217.983 375.587 217.262 375.363 217.144 374.957C216.546 372.912 216.107 370.82 215.608 368.744C215.029 366.335 214.446 363.927 213.864 361.297C213.283 357.194 212.483 353.33 212.172 349.426C211.734 343.908 210.89 338.329 212.119 332.835C212.815 329.725 216.364 327.765 219.478 328.089ZM207.651 338.93C208.558 339.251 209.243 340.219 210.025 340.904C209.485 341.531 209.036 342.285 208.387 342.759C206.967 343.796 205.273 344.501 203.998 345.682C200.969 348.487 202.402 354.062 205.546 355.535C206.996 356.214 208.444 356.905 209.844 357.682C210.351 357.962 210.716 358.506 211.145 358.93C210.623 358.943 210.1 358.957 209.577 358.971C206.222 359.058 203.705 357.507 201.825 354.809C198.993 350.744 200.496 346.769 203.831 343.588C204.145 343.289 204.43 342.957 204.751 342.665C205.165 342.29 205.602 341.941 206.029 341.58C205.199 341.474 204.284 341.086 203.554 341.312C200.832 342.158 199.286 344.432 198.46 346.922C195.621 355.47 202.331 362.394 209.945 361.503C210.749 361.409 211.618 361.881 212.456 362.091C212.255 362.217 212.068 362.392 211.849 362.464C205.474 364.542 200.043 362.186 196.964 356.028C196.752 355.603 196.461 355.218 196.206 354.596C194.733 347.045 197.88 341.413 204.784 339.162C205.689 338.867 206.817 338.636 207.651 338.93ZM215.413 330.36C214.062 330.67 213.587 332.129 214.303 333.425C215.281 335.198 216.79 335.265 218.61 335.085C221.481 334.801 224.405 334.579 227.266 334.823C230.894 335.133 234.464 336.124 238.091 336.466C241.112 336.752 244.18 336.525 247.446 336.304C248.722 336.23 249.997 336.135 251.274 336.088C252.808 336.032 253.685 334.803 252.859 333.489C252.351 332.682 251.305 331.842 250.414 331.731C246.685 331.265 242.927 330.992 239.173 330.8C236.518 330.665 233.846 330.881 231.191 330.749C227.171 330.55 223.162 330.13 219.143 329.922C217.907 329.859 216.63 330.08 215.413 330.36ZM414.359 314.393C418.799 314.481 423.228 315.199 427.66 315.659C427.99 315.693 428.347 315.797 428.623 315.977C429.201 316.355 429.734 316.805 430.285 317.225C429.581 317.295 428.878 317.382 428.173 317.431C423.752 317.734 419.333 318.055 414.91 318.299C414.175 318.339 413.412 317.867 412.677 317.906C408.107 318.151 403.543 318.513 398.973 318.742C397.944 318.794 396.889 318.302 395.861 318.355C391.437 318.583 387.02 318.95 382.596 319.19C381.788 319.234 380.953 318.756 380.144 318.799C375.574 319.04 371.01 319.401 366.44 319.635C365.485 319.684 364.503 319.197 363.548 319.247C359.124 319.478 354.707 319.846 350.283 320.081C349.402 320.128 348.493 319.646 347.611 319.691C343.041 319.929 338.477 320.287 333.907 320.528C333.098 320.571 332.263 320.094 331.454 320.137C326.884 320.378 322.32 320.73 317.75 320.975C317.015 321.014 316.253 320.542 315.518 320.582C310.948 320.827 306.384 321.189 301.813 321.418C300.785 321.47 299.73 320.978 298.702 321.031C294.278 321.259 289.861 321.626 285.437 321.866C284.629 321.91 283.793 321.432 282.985 321.475C278.415 321.716 273.851 322.074 269.281 322.312C268.399 322.357 267.49 321.875 266.608 321.922C262.111 322.158 257.621 322.521 253.124 322.757C252.242 322.804 251.334 322.322 250.452 322.367C245.882 322.605 241.318 322.966 236.748 323.203C235.866 323.249 234.957 322.767 234.076 322.814C229.652 323.049 225.234 323.41 220.811 323.65C220.003 323.694 219.167 323.216 218.358 323.259C213.788 323.5 209.224 323.849 204.654 324.098C203.992 324.134 203.302 323.664 202.642 323.704C198.873 323.935 195.111 324.288 191.342 324.524C188.777 324.684 186.195 324.615 183.636 324.837C179.981 325.154 176.318 325.503 172.7 326.103C169.871 326.573 167.128 327.594 164.297 328.042C163.499 328.168 162.323 327.304 161.724 326.56C161.471 326.245 162.041 324.797 162.61 324.33C164.939 322.413 167.743 322.088 170.864 322.339C172.806 322.191 174.529 322.051 176.251 321.891C179.379 321.601 182.5 321.207 185.634 321.024C189.769 320.783 193.913 320.566 198.053 320.587C205.002 320.622 211.951 320.95 218.9 320.969C224.065 320.984 229.232 320.713 234.397 320.553C238.757 320.417 243.117 320.255 247.477 320.11C252.056 319.958 256.636 319.815 261.216 319.663C265.576 319.518 269.938 319.413 274.295 319.205C279.476 318.959 284.651 318.587 289.832 318.354C290.935 318.305 292.059 318.786 293.164 318.745C299.736 318.502 306.305 318.169 312.876 317.887C314.071 317.836 315.274 317.948 316.466 317.867C320.376 317.603 324.281 317.246 328.192 317.017C329.072 316.965 329.983 317.455 330.864 317.404C334.849 317.174 338.826 316.809 342.81 316.569C343.544 316.525 344.309 317.005 345.042 316.96C348.954 316.721 352.858 316.354 356.769 316.125C357.649 316.073 358.56 316.563 359.441 316.512C363.426 316.282 367.403 315.909 371.387 315.679C372.268 315.628 373.179 316.118 374.059 316.066C377.897 315.838 381.727 315.458 385.566 315.234C386.519 315.179 387.504 315.675 388.457 315.619C392.296 315.395 396.126 315.027 399.964 314.784C400.624 314.743 401.316 315.217 401.977 315.177C406.107 314.932 410.239 314.311 414.359 314.393ZM414.285 95.8186C423.965 96.714 433.084 99.8155 441.479 104.607C446.412 107.424 451 110.906 455.493 114.407C462.463 119.838 467.938 126.643 472.666 134.063C476.191 139.597 479.274 145.376 481.104 151.669C482.768 157.389 484.257 163.205 485.186 169.079C485.857 173.321 485.46 177.728 485.585 182.06C485.712 186.487 485.248 190.854 484.776 195.258C483.626 206.009 481.608 216.54 478.588 226.929C477.277 231.436 478.223 236.101 479.083 240.665C479.835 244.663 481.222 248.399 483.351 251.874C483.607 252.293 483.587 252.88 483.695 253.389C483.149 253.354 482.575 253.417 482.063 253.267C478.372 252.189 477.176 249.179 476.295 245.884C475.664 243.519 475.093 241.106 474.129 238.871C473.026 236.314 472.598 236.557 470.178 237.762C465.195 240.243 460.129 242.599 454.958 244.656C447.952 247.443 440.585 248.887 433.132 250.054C429.087 250.688 425.001 251.921 421.954 254.874C420.538 256.246 419.441 258.195 418.837 260.085C418.081 262.452 417.909 264.946 419.315 267.395C420.149 268.847 421.026 269.093 422.413 268.711C429.145 266.86 435.829 264.804 442.625 263.225C447.844 262.013 453.225 261.505 458.497 260.493C463.968 259.444 469.477 259.187 475.019 259.211C475.436 259.213 475.852 259.323 476.269 259.382C475.892 259.469 475.516 259.564 475.137 259.642C469.985 260.696 464.829 261.73 459.682 262.805C455.017 263.779 450.365 264.814 445.701 265.791C440.488 266.883 435.257 267.891 430.056 269.036C427.518 269.595 424.98 270.24 422.534 271.103C419.12 272.307 418.047 274.425 417.859 278.296C417.648 282.653 418.401 286.731 419.449 290.775C421.331 298.034 424.556 304.652 429.771 310.25C434.155 314.955 439.097 318.766 445.382 320.389C448.771 321.265 452.313 321.816 455.808 321.949C460.166 322.114 464.403 321.298 468.535 319.561C473.714 317.385 477.714 313.963 480.682 309.386C483.942 304.357 486.087 298.797 486.861 292.84C487.502 287.896 488.172 282.903 488.133 277.937C488.078 270.776 486.594 263.788 483.824 257.121C483.652 256.706 482.98 256.122 484.3 256.084C487.794 255.983 491.26 259.166 491.306 262.795C491.348 266.116 491.459 269.444 491.283 272.756C490.965 278.756 497.375 286.601 502.657 287.954C503.812 288.25 503.916 287.841 503.634 287.244C500.414 280.431 502.39 273.77 504.303 267.187C507.996 254.477 513.059 242.263 518.128 230.049C523.086 218.106 527.845 206.08 532.659 194.077C536.741 183.896 540.759 173.689 544.839 163.507C548.767 153.703 552.738 143.915 556.695 134.122C556.822 133.808 557.029 133.527 557.153 133.212C557.388 132.616 557.59 132.007 557.806 131.404C557.19 131.819 556.429 132.118 555.982 132.669C550.695 139.19 545.773 146.037 540.115 152.219C534.069 158.825 527.504 164.991 520.854 171.009C516.104 175.308 510.844 179.049 505.801 183.026C505.329 183.398 504.784 183.678 504.273 184.001C504.322 183.406 504.43 182.809 504.41 182.217C504.256 177.671 508.477 177.263 511.016 175.278C514.84 172.289 518.814 169.48 522.509 166.344C529.395 160.501 534.876 153.369 540.46 146.344C541.969 144.445 543.585 142.63 545.263 140.666C550.158 135.352 554.764 129.97 559.781 124.998C564.18 120.639 569.07 116.827 575.246 115.033C578.001 114.233 583.007 116.069 584.859 118.972C586.792 122.002 587.561 125.323 587.552 128.935C587.532 136.432 586.005 143.695 584.42 150.955C582.691 158.877 581.014 166.813 579.088 174.688C577.958 179.308 576.63 183.91 574.966 188.363C571.008 198.955 566.99 209.533 562.614 219.958C560.124 225.89 557.046 231.599 553.914 237.234C552.178 240.358 549.614 242.739 545.488 242.551C543.798 242.474 542.712 244.441 542.479 246.841C542.14 250.33 541.853 253.851 541.133 257.273C539.675 264.201 536.567 270.5 532.842 276.468C530.028 280.977 526.899 285.291 523.994 289.746C521.982 292.832 519.317 295.321 515.668 295.514C513.381 295.635 511.003 294.186 508.683 293.391C508.305 293.261 507.972 292.91 507.697 292.594C506.559 291.293 505.685 289.371 504.266 288.82C502.94 288.305 501.01 289.603 499.413 289.442C496.683 289.168 494.401 287.753 492.732 285.473C492.407 285.028 492.037 283.994 491.682 285.694C490.721 290.307 489.503 294.874 488.204 299.408C485.836 307.669 481.453 314.773 474.755 320.181C470.603 323.533 465.818 325.754 460.214 326.061C454.529 326.373 449.433 324.833 444.347 322.573C437.148 319.374 430.822 315.014 424.911 309.84C416.432 302.418 410.003 293.525 405.591 283.319C403.122 277.609 401.674 271.443 400.002 265.417C398.318 259.345 396.199 253.521 392.714 248.197C389.557 243.372 387.254 238.097 386.381 232.385C386.09 230.481 386.738 228.363 387.257 226.423C388.291 222.562 388.861 218.664 387.988 214.754C387.553 212.806 386.361 211.038 385.67 209.132C382.9 201.484 379.986 193.878 377.531 186.129C375.838 180.786 374.667 175.262 373.541 169.762C372.82 166.241 372.595 162.618 372.168 159.038C371.856 156.426 371.474 153.818 371.306 151.196C371.064 147.429 371.115 143.641 370.809 139.881C370.414 135.032 371.133 130.229 372.327 125.671C373.494 121.213 375.773 116.986 377.958 112.864C380.489 108.089 383.955 103.989 388.643 101.086C392.83 98.4933 397.299 96.5673 402.267 96.2029C406.265 95.9096 410.323 95.4521 414.285 95.8186ZM382.422 212.845C382.144 213.303 381.976 213.963 381.569 214.187C379.189 215.503 376.808 216.84 374.325 217.938C370.111 219.802 365.822 221.493 361.345 223.257C354.347 226.373 347.43 229.222 340.831 232.68C334.258 236.124 328.147 240.351 322.441 245.188C314.09 252.268 307.352 260.577 302.998 270.607C301.22 274.706 300.001 279.196 299.407 283.627C298.621 289.488 298.717 295.466 298.4 301.393C298.134 306.367 297.839 311.339 297.515 316.31C297.392 318.185 295.934 316.794 295.168 317.134C295.108 317.161 294.472 316.406 294.51 316.06C294.878 312.754 295.541 309.468 295.712 306.155C295.929 301.979 295.731 297.783 295.772 293.596C295.849 285.572 297.379 277.868 300.717 270.525C303.826 263.688 308.018 257.631 312.994 252.026C320.505 243.566 329.496 237.092 339.299 231.637C348.572 226.478 358.184 222.071 368.135 218.379C372.451 216.778 376.654 214.869 380.92 213.128C381.382 212.939 381.919 212.935 382.422 212.845ZM500.137 309.953C503.949 310.49 507.744 311.155 511.552 311.726C513.875 312.075 516.202 312.51 518.539 312.613C521.964 312.764 525.401 312.595 528.831 312.671C531.345 312.727 533.856 312.941 536.366 313.116C538.144 313.24 539.918 313.52 541.696 313.549C545.811 313.614 549.929 313.614 554.044 313.561C563.685 313.436 573.326 313.165 582.967 313.179C585.431 313.183 587.893 314.03 590.357 314.484C590.5 314.51 590.709 314.422 590.789 314.498C591.352 315.034 591.89 315.6 592.436 316.157C591.723 316.212 591.01 316.313 590.297 316.315C585.421 316.329 580.544 316.365 575.669 316.301C573.744 316.277 571.824 315.931 569.898 315.879C562.83 315.687 555.761 315.544 548.692 315.412C546.169 315.365 543.644 315.405 540.899 315.405C537.739 315.405 534.797 315.46 531.859 315.392C527.362 315.288 522.867 315.025 518.37 314.965C512.687 314.888 506.998 315.054 501.318 314.898C498.658 314.825 496 314.309 493.362 313.864C491.888 313.616 491.544 312.249 492.033 311.138C492.371 310.372 493.501 309.567 494.312 309.525C496.243 309.426 498.207 309.682 500.137 309.953ZM387.306 217.902C387.149 217.989 386.945 218.039 386.843 218.168C383.633 222.223 380.063 226.054 377.323 230.405C373.641 236.251 370.601 242.511 368.782 249.241C367.799 252.879 367.089 256.591 366.234 260.264C365.673 262.673 364.402 264.663 362.321 265.998C359.556 267.77 356.627 269.294 353.903 271.123C347.122 275.679 342.826 282.128 340.322 289.779C338.922 294.06 338.039 298.442 338.849 303.028C339.342 305.815 339.547 308.653 339.855 311.471C339.904 311.92 339.811 312.384 339.784 312.841C339.189 312.787 338.308 312.958 338.053 312.636C337.354 311.753 336.598 310.711 336.439 309.646C335.963 306.468 335.775 303.248 335.443 300.047C335.374 299.38 335.174 298.726 335.034 298.066C334.441 298.725 333.762 299.326 333.269 300.052C329.976 304.903 326.735 309.789 323.436 314.635C323.194 314.99 322.629 315.124 322.215 315.361C322.108 314.621 321.671 313.709 321.952 313.17C322.997 311.172 324.139 309.192 325.497 307.395C328.675 303.192 332.278 299.282 335.166 294.897C337.07 292.006 338.101 288.523 339.392 285.254C340.713 281.908 342.8 279.169 345.498 276.839C348.901 273.9 352.289 270.942 355.793 267.883C358.175 265.359 360.722 263.144 362.649 260.482C365.191 256.97 366.095 252.69 367.123 248.522C369.299 239.706 373.173 231.714 378.892 224.635C380.316 222.872 381.666 221.021 383.29 219.459C384.173 218.61 385.555 218.273 386.728 217.74C386.867 217.677 387.11 217.843 387.306 217.902ZM68.8987 139.748C71.3605 140.385 71.7165 142.525 69.8334 144.16C65.5576 147.87 63.523 152.608 63.2096 158.109C63.0366 161.148 63.3212 164.213 63.1525 167.252C62.5964 177.272 65.5221 186.494 69.855 195.292C73.9973 203.703 80.029 210.63 88.6839 214.677C93.6499 216.998 98.9606 218.628 104.19 220.346C108.733 221.838 113.388 222.99 117.979 224.34C122.483 225.664 126.919 226.865 131.692 225.273C134.14 224.457 135.977 226.647 135.039 229.019C131.494 237.992 128.473 247.304 122.246 254.869C118.51 259.407 114.189 263.607 109.565 267.251C102.778 272.6 94.9739 276.414 87.1785 280.171C79.575 283.835 72.1428 287.854 64.5057 291.445C55.9022 295.49 47.1835 299.298 38.4589 303.081C31.4203 306.134 24.3147 309.036 17.2019 311.915C15.5011 312.604 13.6793 313.086 11.8667 313.387C10.0506 313.688 6.06074 310.84 5.34797 308.958C3.53917 304.181 2.30963 299.269 1.80187 294.179C1.49285 291.081 1.07693 287.993 0.598653 284.901C0.488281 284.681 0.488281 284.462 0.598652 284.133C0.782603 279.896 0.859754 275.768 0.911005 271.641C0.912414 271.527 0.635441 271.41 0.488281 271.295V269.649C0.561846 269.539 0.699816 269.542 0.699913 269.539C0.83896 265.718 0.95717 261.897 1.10552 258.077C1.15345 256.842 1.29305 255.612 1.36925 254.378C2.00202 244.136 3.21898 233.957 5.84027 224.027C7.93206 216.103 10.6942 208.395 14.0512 200.867C17.8805 192.279 22.5362 184.203 27.9005 176.525C30.6335 172.613 33.6186 168.843 36.7948 165.277C40.6163 160.987 44.5426 156.739 48.8252 152.918C53.7145 148.556 58.9688 144.58 64.2452 140.678C65.42 139.809 67.4968 139.386 68.8987 139.748ZM62.4827 145.769C62.2348 145.88 61.9545 145.949 61.7437 146.109C55.1097 151.137 48.5157 156.217 43.0222 162.526C39.6096 166.446 36.1211 170.311 32.8992 174.382C25.0686 184.277 19.0088 195.182 14.3949 207.215C14.2383 207.663 14.0565 208.105 13.9288 208.561C11.9462 215.644 9.84846 222.699 8.04939 229.828C7.25128 232.99 7.02215 236.3 6.60343 239.551C6.14264 243.129 5.62944 246.708 5.38547 250.303C5.18448 253.265 5.45526 256.257 5.31426 259.226C5.13912 262.913 4.62918 266.587 4.5056 270.275C4.4221 272.767 4.82422 275.27 4.88554 277.772C4.95962 280.793 4.84666 283.82 4.92071 286.842C4.98144 289.32 5.04089 291.816 5.38456 294.265C5.80539 297.264 6.5551 300.216 7.10258 303.199C7.89311 307.507 9.66276 309.174 13.8803 309.479C16.8363 309.693 19.0829 307.946 19.4967 305.177C19.547 304.841 20.0769 304.255 20.1458 304.287C23.8723 306.036 27.1069 304.274 30.3727 302.889C37.3122 299.944 44.2828 297.066 51.1527 293.968C61.3744 289.358 71.5539 284.652 81.6833 279.845C86.4224 277.596 91.0765 275.145 95.6385 272.557C104.542 267.508 112.681 261.52 119.272 253.558C124.381 247.386 127.539 240.371 129.369 232.694C129.716 231.236 129.204 229.97 127.461 229.596C122.736 228.581 118.022 227.514 113.29 226.534C103.672 224.543 94.3741 221.769 85.7301 216.914C74.6309 210.679 67.5208 201.263 63.251 189.632C61.2254 184.114 59.5985 178.396 59.6405 172.387C59.6721 167.876 59.2749 163.325 59.7556 158.864C60.2 154.742 61.5624 150.718 62.5039 146.647C62.5678 146.37 62.493 146.062 62.4827 145.769ZM247.557 210.969C250.188 212.776 252.79 214.628 255.339 216.548C256.03 217.069 256.084 217.586 256.397 216.225C256.887 214.096 259.915 213.502 261.729 215.014C265.888 218.483 267.988 223.148 269.51 228.22C270.83 232.619 270.307 237.091 270.435 241.536C270.518 244.389 273.19 246.54 275.995 246.655C278.068 246.74 280.249 247.65 282.114 248.679C286.628 251.169 289.53 255.097 290.957 260.045C292.492 265.374 291.063 270.118 287.975 274.545C285.166 278.572 282.608 282.79 278.531 285.742C276.276 287.376 273.678 288.731 271.912 290.794C270.016 293.009 267.84 294.454 265.258 295.45C258.899 297.904 251.95 294.721 248.835 289.419C246.03 284.641 239.274 285.691 236.656 289.563C235.514 291.252 235.2 293.483 234.346 295.394C233.823 296.567 234.331 296.389 235.115 296.272C239.002 295.694 242.893 295.142 246.783 294.592C246.983 294.564 247.197 294.642 247.405 294.67C247.251 294.788 247.108 294.927 246.941 295.021C243.083 297.201 238.906 298.432 234.54 298.954C231.231 299.348 227.848 299.98 224.587 299.646C222.016 299.383 219.401 298.106 217.13 296.739C214.453 295.127 213.649 292.389 213.701 289.19C213.801 282.979 216.184 277.738 220.118 273.194C221.251 271.886 223.252 271.335 224.844 270.418C225.449 270.069 226.33 270.025 225.26 268.902C220.588 263.994 216.439 258.68 213.6 252.457C213.151 251.475 212.689 250.462 212.493 249.414C212.373 248.771 212.552 247.852 212.969 247.408C213.232 247.129 214.276 247.329 214.804 247.618C215.596 248.05 216.224 248.774 216.954 249.33C218.201 250.277 218.892 249.874 218.555 248.397C217.595 244.199 218.477 240.214 219.954 236.363C220.75 234.286 222.045 232.391 223.248 230.499C223.362 230.319 224.519 230.591 225.022 230.916C225.955 231.52 226.764 232.318 227.624 233.034C227.682 231.887 227.7 230.736 227.812 229.594C227.879 228.916 228.046 228.236 228.252 227.584C229.283 224.315 229.835 224.15 232.564 226.199C232.93 226.474 233.368 226.654 233.773 226.877L233.891 226.045C233.909 225.906 233.925 225.768 233.937 225.628C234.238 222.035 233.519 218.775 230.892 216.108C230.861 216.076 231.431 215.138 231.759 215.113C235.542 214.815 239.326 214.659 242.787 216.68C243.494 217.093 244.2 217.509 245.017 218.034C245.346 217.735 245.714 217.342 245.759 216.914C245.963 214.98 246.056 213.033 246.28 211.101C246.292 210.997 247.274 210.775 247.557 210.969ZM222.35 273.534C222.265 273.694 222.21 273.883 222.09 274.01C217.785 278.554 215.778 283.952 215.937 290.212C216.024 293.611 217.836 296.115 221.236 296.735C223.396 297.129 225.638 297.112 227.846 297.172C228.113 297.179 228.548 296.556 228.65 296.16C229.301 293.631 229.255 290.812 231.965 288.874C232.721 288.581 233.478 288.29 234.233 287.994C234.576 287.859 235.185 287.737 235.2 287.567C235.231 287.206 235.059 286.647 234.781 286.475C234.04 286.017 233.228 285.511 232.393 285.395C228.542 284.86 225.81 282.831 224.243 279.337C223.497 277.676 223.092 275.862 222.533 274.117C222.471 273.923 222.411 273.728 222.35 273.534ZM232.623 290.411C232.331 291.519 231.996 292.618 231.787 293.741C231.753 293.928 232.343 294.469 232.515 294.417C233.214 294.204 233.438 290.845 232.623 290.411ZM248.587 213.36C248.823 214.166 249.156 214.959 249.274 215.783C249.543 217.651 249.382 219.438 247.547 220.538C246.08 221.418 244.981 220.361 243.983 219.589C241.718 217.836 239.041 217.608 236.382 217.274C234.93 217.092 234.863 217.689 235.338 218.94C236.036 220.778 236.905 222.731 236.85 224.611C236.816 225.79 235.309 227.006 234.304 228.053C233.367 229.03 232.469 228.568 231.727 227.604C231.613 227.456 231.247 227.503 230.997 227.46C231.015 227.856 230.963 228.271 231.061 228.646C231.642 230.879 230.809 233.037 228.468 234.321C226.846 235.21 225.704 233.854 224.719 232.804C223.978 232.014 223.91 232.494 223.596 233.095C220.86 238.33 220.547 243.805 221.999 249.432C222.36 250.831 221.717 251.527 220.562 251.474C219.217 251.412 217.898 250.883 216.556 250.614C215.935 250.489 215.286 250.499 214.65 250.447C214.823 251.06 214.903 251.719 215.183 252.277C217.504 256.895 220.489 261.073 224.363 264.468C226.648 266.471 228.05 268.227 227.982 271.682C227.892 276.195 230.294 279.885 234.459 282.339C237.777 284.293 241.305 283.885 244.805 284.006C246.597 284.067 247.899 284.686 248.965 286.106L249.389 286.673C251.574 289.606 253.736 292.526 257.649 293.551C262.06 294.706 266.093 294.244 269.494 291.135C270.202 290.488 270.209 288.94 270.24 287.799C270.246 287.592 268.81 287.226 268.017 287.137C264.849 286.783 261.664 287.587 258.465 286.722C253.946 285.499 249.794 283.698 246.37 280.438C245.724 279.823 245.181 279.1 244.59 278.428C245.631 278.673 246.675 278.91 247.712 279.17C247.972 279.235 248.268 279.311 248.454 279.483C253.296 283.945 258.978 285.889 265.546 285.371C272.211 284.845 275.644 281.346 275.988 275.496C276.343 269.455 275.176 263.605 272.397 258.128C271.995 257.336 271.999 256.237 272.096 255.309C272.473 251.707 273.377 248.07 269.51 245.508C268.86 245.077 268.68 243.637 268.635 242.647C268.504 239.711 267.579 238.616 264.714 238.35C262.966 238.187 261.987 237.141 261.588 235.501C261.472 235.025 261.478 234.52 261.428 234.028C260.962 234.448 260.372 234.789 260.053 235.3C258.432 237.895 256.014 239.499 253.472 241.052C252.184 241.838 251.769 241.748 251.449 240.292C251.299 239.606 250.742 239.01 250.37 238.373C250.011 238.883 249.639 239.385 249.297 239.906C248.845 240.593 248.527 241.407 247.958 241.973C245.929 243.991 243.879 245.999 241.692 247.837C241.216 248.237 239.787 248.245 239.425 247.852C238.948 247.334 239.012 246.246 238.989 245.398C238.966 244.556 239.174 243.708 239.179 242.862C239.181 242.531 238.919 241.932 238.75 241.922C238.388 241.9 237.828 242.077 237.663 242.358L236.803 243.807C235.943 245.258 235.098 246.72 234.406 248.25C232.553 252.348 231.794 256.701 231.692 261.198C231.677 261.832 231.002 262.513 230.494 263.037C230.32 263.217 229.422 263.083 229.368 262.92C229.13 262.211 228.945 261.429 228.995 260.69C229.074 259.519 229.377 258.365 229.549 257.198C230.589 250.155 233.638 244.165 238.9 239.346C239.093 239.17 239.767 239.157 239.778 239.196C240.256 240.829 240.702 242.472 241.105 244.126C241.196 244.499 241.112 244.915 241.109 245.312C241.461 245.151 241.856 245.047 242.161 244.821C245.489 242.358 248.153 239.324 250.063 235.627C250.524 234.736 251.168 233.941 251.728 233.101L252.709 234.889C253.035 235.486 253.357 236.085 253.664 236.691C253.782 236.924 253.596 237.309 253.709 237.548C253.794 237.725 254.286 237.925 254.341 237.868C256.042 236.112 257.675 234.29 259.402 232.561C260.064 231.898 261.311 230.807 261.626 231C262.653 231.628 263.407 232.732 264.184 233.718C264.361 233.944 264.075 234.514 264.239 234.777C264.54 235.257 265.181 236.052 265.393 235.97C266.46 235.557 267.533 235.017 268.394 234.277C268.738 233.982 268.545 233.059 268.378 232.202C267.492 226.601 265.281 221.649 261.244 217.591C260.99 217.336 260.728 217.088 260.469 216.837C260.4 217.175 260.331 217.512 260.262 217.849C259.877 219.708 257.876 220.828 256.432 219.702C254.61 218.282 253.165 216.387 251.424 214.849C250.646 214.162 249.543 213.845 248.587 213.36ZM402.799 259.239C402.643 259.394 402.379 259.532 402.351 259.708C402.248 260.337 402.095 261 402.194 261.613C402.737 264.966 403.42 268.298 403.922 271.657C404.799 277.515 406.266 283.202 409.292 288.33C410.365 290.148 412.108 291.577 413.569 293.161C413.735 293.341 414.06 293.375 414.311 293.477C414.3 293.322 414.306 293.163 414.276 293.012C413.922 291.181 413.783 289.274 413.161 287.537C411.679 283.396 409.969 279.336 408.13 275.024C407.027 272.037 405.861 269.071 404.842 266.055C404.141 263.98 403.646 261.835 403.05 259.724C403.002 259.552 402.885 259.4 402.799 259.239ZM520.853 249.399C520.844 249.6 520.426 249.766 520.232 249.979C519.703 250.559 519.086 251.092 518.691 251.754C514.346 259.047 512.062 267.076 510.294 275.283C509.825 277.462 509.408 279.651 508.966 282.274C508.819 283.531 508.523 284.792 508.564 286.042C508.612 287.495 508.598 289.123 509.238 290.351C511.031 293.793 515.842 293.695 518.794 291.882C521.525 290.205 522.838 287.5 524.317 284.947C526.839 280.595 528.944 275.998 531.564 271.709C535.127 265.877 538.641 260.068 540.248 253.333C540.731 251.307 539.698 249.925 537.536 249.987C532.446 250.134 527.499 249.131 522.545 248.202C520.88 247.889 520.919 247.803 520.853 249.399ZM274.678 248.487C273.799 252.275 274.362 255.891 275.452 259.465C277.041 264.673 278.773 269.841 278.241 275.406C277.869 279.301 276.12 282.376 272.775 284.525C272.26 284.855 272.03 285.628 271.668 286.196C272.346 286.337 273.028 286.599 273.699 286.574C274.112 286.558 274.559 286.156 274.905 285.835C277.38 283.535 280.154 281.461 282.202 278.824C284.261 276.172 285.592 272.953 287.461 269.763C287.89 267.724 288.396 265.696 288.731 263.641C289.482 259.03 287.174 254.593 282.966 253.026C280.212 252 277.195 251.618 276.025 248.273C275.834 247.727 275.121 246.579 274.678 248.487ZM141.421 148.465C146.798 149.104 152.213 150.101 157.372 151.716C162.901 153.447 167.745 156.741 171.666 161.081C177.011 166.998 180.498 173.873 182.047 181.771C182.703 185.115 182.91 188.434 182.846 191.795C182.806 193.929 182.586 196.059 182.425 198.189C182.08 202.745 183.223 207.079 184.354 211.419C185.512 215.866 185.09 220.322 184.682 224.837C184.079 231.508 181.57 237.543 178.847 243.479C177.095 247.3 174.721 250.846 172.51 254.444C170.639 257.487 168.6 260.428 166.526 263.524C163.728 267.927 160.998 272.195 158.372 276.527C157.215 278.437 156.273 280.477 155.228 282.454C155.1 282.696 154.973 282.953 154.785 283.145C154.137 283.809 153.462 284.447 152.796 285.095C152.734 284.148 152.36 283.089 152.657 282.274C155.037 275.753 158.703 269.934 162.68 264.285C167.494 257.446 172.609 250.791 176.023 243.071C178.266 237.999 180.035 232.78 180.66 227.241C181.022 224.032 181.428 220.812 181.502 217.59C181.576 214.391 181.262 211.183 181.099 207.979C181.09 207.82 180.814 207.529 180.799 207.538C180.441 207.743 180.029 207.919 179.771 208.222C178.401 209.836 177.094 211.502 175.722 213.114C172.237 217.211 167.994 219.967 162.639 221.16C157.349 222.338 152.902 220.798 149.143 217.35C144.381 212.981 144.452 207.638 147.729 202.58C150.727 197.953 155.071 195.499 160.658 194.714C166.12 193.946 171.079 195.463 176.038 197.081C177.87 197.679 178.999 198.322 179.086 195.729C179.185 192.794 179.003 189.82 179.423 186.933C179.962 183.22 178.668 179.979 177.621 176.609C175.55 169.94 171.548 164.72 166.194 160.305C162.086 156.917 157.478 154.588 152.453 153.223C147.265 151.814 142 151.168 136.481 151.728C127.541 152.635 119.772 156.057 112.713 161.291C107.712 164.999 103.821 169.8 100.372 174.965C99.8583 175.735 99.0098 176.281 98.319 176.934C97.4558 177.749 96.3046 177.984 95.6884 177.03C95.2204 176.306 95.0505 174.762 95.5082 174.173L96.5722 172.801C98.7044 170.054 100.879 167.309 103.412 164.971C106.515 162.107 110.072 159.696 113.595 157.333C119.484 153.383 125.936 150.726 132.99 149.646C135.807 149.215 138.697 148.142 141.421 148.465ZM226.145 276.69C226.111 276.969 226.019 277.254 226.052 277.525C226.35 280.044 228 281.713 229.868 283.109C230.493 283.576 231.587 283.413 232.467 283.538C232.003 282.823 231.569 282.086 231.064 281.401C230.764 280.994 230.352 280.669 229.991 279.868C228.915 278.937 227.843 278.002 226.761 277.08C226.578 276.924 226.351 276.819 226.145 276.69ZM572.993 120.541C570.637 122.501 568.295 124.485 566.06 126.578C562.392 130.011 560.069 134.403 558.149 138.903C554.11 148.365 550.377 157.957 546.555 167.51C540.922 181.589 535.322 195.681 529.707 210.207C529.413 210.672 529.035 211.105 528.837 211.608C525.267 220.68 521.731 229.765 518.161 238.837C515.409 245.829 512.49 252.759 509.888 259.806C507.481 266.323 505.924 273.086 505.017 279.979C504.93 280.644 505.155 281.349 505.235 282.035C505.302 281.452 505.278 280.837 505.468 280.296C505.595 279.933 506.179 279.724 506.296 279.362C508.533 272.447 510.587 265.469 512.988 258.612C514.64 253.892 516.717 249.315 518.695 244.714C519.619 242.565 520.444 242.357 522.52 243.384C523.922 244.079 525.35 244.728 526.721 245.48C528.888 246.668 531.183 247.119 533.632 246.902C535.378 246.747 537.561 244.732 537.603 242.857C537.644 241.024 536.83 239.553 534.705 239.359C533.376 239.238 532.016 239.304 530.716 239.051C529.757 238.864 528.872 238.299 527.954 237.903C528.552 237.446 529.108 236.91 529.765 236.56C530.171 236.344 530.729 236.41 531.219 236.354C534.506 235.974 537.294 237.546 540.182 238.671C545.384 240.697 548.316 240.311 550.959 236.841C552.379 234.977 553.331 232.716 554.27 230.538C558.532 220.654 563.055 210.863 566.83 200.796C570.736 190.38 574.375 179.814 577.235 169.077C580.312 157.526 583.683 145.959 584.278 133.887C584.442 130.562 584.157 127.344 583.206 124.062C581.675 118.777 576.687 117.467 572.993 120.541ZM392.145 226.344C391.957 226.705 391.718 227.05 391.589 227.431C389.937 232.327 390.196 237.229 392.482 241.762C394.877 246.508 397.809 250.986 400.533 255.565C400.649 255.759 401.034 255.795 401.294 255.904C401.378 255.551 401.611 255.154 401.522 254.851C400.742 252.178 399.854 249.535 399.124 246.849C398.974 246.295 399.138 245.37 399.524 245.026C400.097 244.516 401.057 244.023 401.749 244.138C403.747 244.472 405.406 246.846 405.603 249.216C405.928 253.13 406.043 257.076 406.634 260.95C407.586 267.181 410.044 272.951 412.773 278.598C412.921 278.904 413.209 279.142 413.432 279.411C413.651 279.062 413.972 278.74 414.069 278.36C414.411 277.03 414.474 275.595 415.007 274.354C416.883 269.984 416.852 265.783 414.556 261.551C413.3 259.235 412.322 256.768 410.999 254.15C410.065 251.463 409.621 248.447 408.083 246.163C405.71 242.641 402.512 239.681 399.803 236.37C397.412 233.448 395.21 230.372 392.924 227.364L392.145 226.344ZM266.887 268.056C267.39 268.916 267.778 269.713 268.416 270.18C270.812 271.931 270.544 276.647 268.185 278.101C267.657 278.426 266.746 278.152 266.011 278.154C266.011 277.558 265.828 276.888 266.041 276.377C267.534 272.785 265.984 269.842 262.072 268.899C261.459 268.752 260.903 268.379 260.32 268.111C260.855 267.782 261.38 267.433 261.929 267.129C262.516 266.803 263.125 266.516 263.726 266.216C265.99 265.087 266.352 265.273 266.887 268.056ZM270.848 249.272C271.203 251.316 271.094 253.525 270.727 255.581C270.441 257.185 266.233 258.067 263.946 257.77C261.529 257.456 260.042 256.014 258.54 254.476C257.232 253.136 255.741 252.083 253.894 252.828C252.02 253.584 251.949 255.446 252.037 257.427C251.512 260.912 250.499 263.732 247.456 265.795C243.427 268.527 238.786 266.525 236.976 263.215C236.771 262.841 236.408 262.552 236.119 262.223C235.9 262.545 235.612 262.84 235.473 263.192C234.385 265.941 233.204 268.661 232.303 271.47C231.742 273.221 232.542 274.017 234.331 273.999C235.527 273.987 236.724 273.977 237.919 274.01C238.232 274.018 238.541 274.191 238.851 274.288C238.679 274.58 238.573 275.033 238.322 275.137C237.193 275.601 235.856 276.534 234.901 276.257C232.393 275.53 230.196 274.157 230.053 271.05C229.82 265.989 232.537 262.169 235.427 258.446C238.718 254.206 243.576 252.71 248.474 251.322C254.626 249.58 260.776 247.83 266.93 246.094C268.211 245.732 270.498 247.253 270.848 249.272ZM247.32 253.209C245.126 254.08 242.957 255.039 240.859 256.118C237.239 257.982 236.859 261.278 239.873 263.891C243.008 266.609 247.033 265.688 248.217 261.804C248.88 259.627 249.023 257.293 249.4 254.593C249.502 252.958 248.472 252.752 247.32 253.209ZM256.413 254.828C256.606 254.905 256.793 255.004 256.992 255.055C259.97 255.814 262.286 260.663 260.871 263.289C260.591 263.808 260.018 264.161 259.581 264.591C259.472 264.163 259.35 263.738 259.256 263.307C258.976 262.03 258.707 260.751 258.331 259.367C257.652 257.973 257.071 256.686 256.506 255.391C256.432 255.223 256.442 255.017 256.413 254.828ZM265.668 247.441C263.199 248.303 260.824 249.433 257.97 250.451C257.897 250.782 257.662 251.185 257.775 251.433C259.198 254.554 264.543 256.754 267.745 255.578C269.634 254.885 270.68 252.491 270.057 250.284C269.626 248.754 267.092 246.945 265.668 247.441ZM492.594 171.86C496.847 172.274 500.242 174.132 502.831 177.793C504.253 179.805 503.172 181.472 502.838 183.161C501.632 189.251 500.176 195.29 498.793 201.344C497.655 206.328 496.495 211.308 495.33 216.286C493.778 222.92 492.218 229.552 490.647 236.181C489.516 240.951 488.372 245.717 487.205 250.478C487.084 250.976 486.774 251.426 486.551 251.899C486.345 251.402 485.926 250.887 485.966 250.413C486.289 246.655 486.615 242.893 487.105 239.155C487.62 235.221 488.249 231.299 488.952 227.395C489.79 222.736 490.672 218.081 491.691 213.46C494 202.997 496.982 192.734 500.392 182.584C501.747 178.552 497.898 175.89 494.784 175.96C492.795 176.004 491.077 176.459 489.25 176.905C488.948 176.979 488.472 176.31 488.077 175.765C488.077 175.401 488.031 175.234 488.084 175.112C488.508 174.149 486.97 172.383 489.236 172.172C490.357 172.068 491.494 171.753 492.594 171.86ZM274.404 230.42C277.073 230.46 279.741 230.815 282.407 230.79C286.221 230.753 289.86 231.565 293.266 233.066C296.262 234.386 299.029 236.212 302.007 237.923C305.481 241.017 308.126 244.477 309.143 248.91C309.276 249.492 308.635 250.247 308.353 250.922C307.897 250.516 307.155 250.181 307.029 249.692C304.608 240.308 297.791 235.741 288.889 233.451C284.025 232.199 279.105 232.508 274.168 232.948C273.529 233.005 272.097 233.85 272.043 232.165C271.994 230.617 273.303 230.403 274.404 230.42ZM401.292 98.9233C392.622 100.154 386.209 105.13 381.349 112.274C376.052 120.06 374.28 128.909 374.048 138.003C373.882 144.495 374.658 151.031 375.304 157.518C375.787 162.365 376.473 167.224 377.538 171.974C378.88 177.96 380.729 183.832 382.308 189.767C384.948 199.69 388.273 209.381 392.488 218.745C396.98 228.726 402.886 237.768 411.185 245.081C413.863 247.441 416.969 249.147 420.581 249.505C425.079 249.952 429.448 249.105 433.75 247.789C442.953 244.973 452.251 242.444 461.362 239.361C469.681 236.546 474.863 230.509 476.71 221.937C478.096 215.509 479.265 209.025 480.233 202.522C481.058 196.988 481.727 191.404 481.96 185.821C482.139 181.551 481.58 177.245 481.255 172.962C481.008 169.698 480.612 166.445 480.282 162.748C479.209 156.251 477.264 150.033 474.702 143.953C470.809 134.716 465.446 126.588 458.195 119.574C450.291 111.929 440.845 107.065 430.572 103.72C424.774 101.832 418.774 100.443 412.769 99.3486C409.03 98.6673 405.033 98.3924 401.292 98.9233ZM143.103 158.376C142.845 158.779 142.615 159.204 142.325 159.581C136.93 166.597 131.218 173.394 126.208 180.674C120.296 189.264 115.357 198.465 111.522 208.37C110.029 211.475 108.662 214.478 107.253 217.462C106.507 219.042 104.957 218.843 103.9 218.335C102.756 217.783 102.897 216.617 103.582 215.39C109.229 205.285 114.648 195.05 120.425 185.021C123.969 178.869 127.797 172.85 131.932 167.085C134.144 164 137.264 161.564 140.012 158.874C140.377 158.517 140.947 158.264 141.456 158.188C141.983 158.108 142.552 158.302 143.103 158.376ZM157.578 198.713C151.528 200.317 148.522 204.746 149.046 210.569C149.376 214.239 150.828 216.589 154.308 217.578C158.296 218.713 162.278 218.193 166.033 216.683C171.42 214.517 175.827 211.241 177.163 204.668C177.303 202.897 176.794 201.602 175.216 200.449C169.624 196.361 163.722 197.083 157.578 198.713ZM283.68 83.4195C283.533 83.6025 283.385 83.6758 283.238 83.8588C282.765 84.0721 282.179 84.0323 281.837 84.3C273.284 90.982 267.92 99.7113 265.101 110.083C263.763 115.008 263.156 120.032 263.378 125.099C263.768 134.015 266.567 142.165 271.638 149.581C277.179 157.683 284.541 163.646 293.33 167.829C298.367 170.227 303.713 171.952 309.375 172.254C311.923 172.39 314.531 171.971 317.03 172.342C321.832 173.057 326.3 171.765 330.736 170.474C339.668 167.876 347.528 163.387 354.262 156.9C359.23 152.114 363.526 146.911 366.363 140.599C366.419 140.475 366.488 140.357 366.551 140.237C366.636 140.4 366.811 140.576 366.791 140.726C366.368 143.93 366.573 147.174 364.295 150.034C357.242 158.885 349.062 166.342 338.464 170.672C333.93 172.525 329.089 173.715 324.301 174.842C321.421 175.52 318.366 175.809 315.404 175.731C307.909 175.534 300.679 173.952 293.761 170.975C286.375 167.797 279.908 163.333 274.397 157.536C267.988 150.794 263.514 142.946 261.624 133.822C260.871 130.188 260.272 126.432 260.323 122.741C260.483 111.21 263.872 100.579 270.587 91.1398C272.416 88.5678 274.877 86.4307 277.11 84.1535C278.162 83.0803 282.835 82.5628 283.68 83.4195ZM293.103 83.5308C293.214 83.5437 293.311 83.6794 293.415 83.7579C293.224 83.826 293.035 83.9019 292.841 83.9611C285.316 86.2586 279.955 91.1992 276.374 98.0399C274.179 102.232 272.99 106.788 272.32 111.54C270.958 121.199 273.188 130.092 277.825 138.38C283.554 148.62 291.656 156.412 302.87 160.447C306.446 161.733 310.143 163.115 313.874 163.452C322.834 164.261 331.44 162.655 339.417 158.166C345.363 154.819 350.25 150.34 354.632 145.141C359.715 139.11 362.606 132.081 364.404 124.569C365.034 121.935 364.763 119.087 364.928 116.338C364.959 115.823 365.102 115.315 365.194 114.804C365.796 115.115 366.726 115.279 366.943 115.763C367.715 117.49 368.906 119.394 368.728 121.105C368.363 124.621 367.481 128.147 366.339 131.507C363.373 140.228 358.135 147.504 351.335 153.629C345.009 159.328 337.716 163.309 329.417 165.307C326.607 165.984 323.764 166.761 320.904 166.926C318.256 167.079 315.541 166.616 312.898 166.17C309.377 165.577 305.78 165.083 302.42 163.94C293.141 160.784 285.358 155.421 279.082 147.731C274.068 141.588 271.172 134.608 269.783 126.953C268.148 117.946 269.613 109.22 272.945 100.794C275.2 95.0932 278.488 90.041 282.993 85.8299C283.334 85.5113 283.522 85.0284 283.781 84.402C283.928 84.1088 284.074 84.0355 284.22 83.9622C287.108 82.3143 290.119 83.1838 293.103 83.5308ZM623.828 162.074C626.846 162.107 629.858 162.517 632.875 162.753C636.547 163.041 640.216 163.403 643.895 163.545C647.413 163.68 650.947 163.488 654.467 163.611C656.201 163.671 657.969 163.978 659.617 164.468C660.179 164.635 660.424 165.706 660.813 166.363C660.277 166.522 659.752 166.727 659.203 166.829C658.567 166.948 657.911 166.977 657.153 166.943C649.834 166.705 642.626 166.515 635.417 166.459C632.497 166.436 629.575 166.812 626.655 166.795C625.223 166.787 623.789 166.319 622.366 166.018C620.883 165.703 620.44 164.472 620.993 163.574C621.467 162.802 622.854 162.064 623.828 162.074ZM314.833 89.6177C316.483 97.485 318.011 105.379 319.629 113.254C320.459 117.297 319.473 118.975 315.996 120.937C311.403 123.531 306.959 126.42 302.569 129.367C300.37 130.842 298.565 131.356 297.361 130.19C296.224 129.089 296.037 128.119 297.554 127.086C302.303 123.854 307.073 120.644 311.664 117.187C312.664 116.434 313.564 114.637 313.461 113.414C313.085 108.947 312.288 104.515 311.6 100.078C311.313 98.2269 310.901 96.3959 310.546 94.3342C310.376 92.5154 309.889 90.8601 310.153 89.3418C310.318 88.3901 311.517 87.0907 312.421 86.9278C314.023 86.6388 314.565 88.3366 314.833 89.6177ZM617.522 71.2352C617.79 71.515 617.937 72.2773 617.748 72.5555C616.844 73.89 615.805 75.1347 614.703 76.5212C611.149 81.3662 607.75 86.134 604.21 90.7968C603.747 91.4074 602.247 91.9893 601.774 91.7011C600.572 90.9682 601.655 90.1862 602.153 89.3556C605.461 83.8434 608.663 78.2684 611.942 72.7388C613.452 70.1926 615.906 69.5461 617.522 71.2352ZM516.706 0.0017438C517.286 0.050229 517.936 0.749197 518.327 1.32578C519.76 3.44117 519.007 5.81903 518.721 8.01671C518.224 11.8512 517.322 15.6309 516.62 19.4393C516.293 21.218 516.035 23.01 515.746 25.0162C515.167 28.0012 514.537 30.7561 514.021 33.5326C513.082 38.576 512.243 43.6385 511.3 48.681C510.513 52.8875 509.663 57.0823 508.794 61.2725C507.369 68.1521 505.953 75.0345 504.429 81.8916C504.01 83.773 502.545 84.4777 501.343 83.5775C500.938 83.2739 500.534 82.4959 500.63 82.0454C502.878 71.5565 505.287 61.1025 507.467 50.5997C509.071 42.8777 510.217 35.0565 511.889 27.3514C513.482 20.011 514.302 12.6521 514.067 5.14057C514.027 3.8413 514.636 2.46909 515.164 1.22695C515.404 0.664236 516.212 -0.0396504 516.706 0.0017438ZM397.648 52.0917C398.071 52.8062 398.505 53.5137 398.934 54.4488C399.649 58.2489 400.387 61.8198 401.07 65.402C401.414 67.2075 401.679 69.0307 401.937 70.8525C402.001 71.3051 401.899 71.7835 401.873 72.25C401.243 72.1442 400.225 72.2516 400.047 71.8969C399.129 70.0698 398.302 68.1671 397.68 66.2085C396.968 63.9648 396.67 61.5683 395.866 59.3685C395.426 58.1647 394.228 57.2879 393.531 56.1564C392.928 55.1778 392.219 54.0575 392.19 52.9813C392.171 52.2906 393.205 51.1303 393.937 50.9534C395.218 50.644 396.741 50.5584 397.648 52.0917Z" fill="#5F30E2"/>
<path d="M251.546 271.359C254.151 270.661 256.037 269.25 255.758 268.209C255.479 267.167 253.14 266.888 250.535 267.587C247.929 268.285 246.044 269.695 246.323 270.737C246.602 271.779 248.94 272.057 251.546 271.359Z" fill="#A0D4A1"/>
<path fill-rule="evenodd" clip-rule="evenodd" d="M269.478 262.89C271.338 262.192 272.411 260.782 272.027 259.74C271.667 258.698 270.291 258.419 268.799 259.117C267.161 259.815 265.701 261.225 265.692 262.267C265.707 263.309 267.472 263.587 269.478 262.89Z" fill="#A0D4A1"/>
</svg>
