<svg width="483" height="670" viewBox="0 0 483 670" fill="none" xmlns="http://www.w3.org/2000/svg">
<path fill-rule="evenodd" clip-rule="evenodd" d="M63.5177 180.469C80.8455 165.352 104.046 159.422 125.362 150.798C187.03 125.847 235.458 76.6982 292.941 43.2139C321.388 26.6434 355.263 13.7023 386.769 23.2501C408.696 29.895 426.934 47.6588 434.154 69.4029C447.786 110.455 423.12 153.013 409.282 193.996C382.875 272.203 396.272 358.967 425.355 436.22C431.715 453.113 438.85 469.9 441.82 487.705C448.723 529.088 431.618 572.26 402.633 602.594C373.648 632.927 334.012 651.451 293.212 661.23C243.206 673.216 190.286 672.846 140.453 660.16C115.199 653.732 90.3672 643.976 69.8925 627.856C49.4178 611.736 33.5812 588.684 29.8974 562.887C24.3503 524.04 46.177 486.685 50.0256 447.633C51.7382 430.255 49.8557 412.744 47.845 395.398C44.8616 369.663 41.5922 343.961 38.0376 318.298C34.6877 294.114 31.0764 269.672 33.5056 245.378C35.9348 221.083 45.1195 196.519 63.5177 180.469" fill="#F7F4FF"/>
<path d="M287.371 495.161C287.682 499.188 287.889 503.363 286.469 507.144C283.986 513.75 277.248 517.584 270.999 520.864C234.304 540.126 197.2 559.086 157.739 571.748C155.983 568.893 146.791 553.135 153.375 547.501C167.612 535.319 241.5 485.931 241.5 485.931C241.5 485.931 233.004 469.463 237.773 464.633C246.932 455.359 273.821 453.869 279.692 455.065C283.619 455.864 287.132 492.064 287.371 495.161Z" fill="#FBFAFE"/>
<path fill-rule="evenodd" clip-rule="evenodd" d="M173.933 542.712C173.933 542.712 175.259 545.619 179.433 545.619C183.607 545.619 191.441 529.543 195.674 521.002C199.953 512.371 199.701 512.271 207.247 494.051C214.792 475.83 199.882 448.508 199.882 448.508C199.882 448.508 175.497 445.259 171.351 448.508C164.854 453.599 169.001 486.109 169.001 486.109L173.933 542.712Z" fill="#FBFAFE"/>
<path d="M290.852 278.453C278.231 273.911 261.619 271.994 249.835 265.588C250.317 265.521 247.315 256.981 250.08 248.227C253.164 238.463 369.477 295.505 376.043 301.938C376.734 302.615 392.896 321.299 386.677 322.559C382.898 323.325 380.484 320.738 366.739 313.185C352.993 305.632 355.274 318.653 352.993 318.956C351.019 319.217 350.245 315.923 350.273 316.396C333.614 299.544 313.148 286.476 290.852 278.453Z" fill="#FBFAFE"/>
<path fill-rule="evenodd" clip-rule="evenodd" d="M354.227 106.626C358.532 113.431 359.534 117.706 360.63 125.685C354.166 130.941 279.855 178.148 226.008 199.75L227.01 199.674C236.114 198.945 242.858 197.345 244.706 195.107C253.908 229.315 253.7 266.005 244.112 300.107C242.763 304.905 248.362 308.447 253.055 310.276L253.296 310.369C286.559 323.004 318.138 340.059 346.944 360.945C330.409 368.878 315.263 379.697 302.395 392.765L301.027 394.167C296.472 398.862 291.911 403.721 285.994 406.438C279.486 409.426 270.694 408.947 266.4 403.216L274.201 417.638C257.023 427.753 237.663 434.14 217.84 436.24L216.796 436.346C214.669 436.555 212.345 436.667 210.588 435.451C209.329 434.578 208.583 433.168 207.916 431.779L181.671 376.689C176.889 366.623 172.218 356.367 170.408 345.388C166.483 321.571 175.414 297.14 171.8 273.274C167.931 247.726 149.417 227.193 138.416 203.812C134.18 194.81 127.938 181.665 133.177 167.372C138.416 153.079 197.831 154.821 244.112 142.624C303.874 126.875 353.462 105.418 354.227 106.626Z" fill="#FBFAFE"/>
<ellipse cx="186.661" cy="113.034" rx="35.3604" ry="42.7238" fill="#FBFAFE"/>
<path d="M234.799 246.572C233.62 251.672 227.445 254.922 222.545 253.08C221.893 252.835 221.601 252.093 221.387 251.431C218.581 242.726 216.728 233.714 215.872 224.609C215.717 222.96 215.598 221.265 216.07 219.677C217.096 216.222 221.193 214.024 224.639 215.08C226.988 215.799 228.798 217.752 229.903 219.946C231.008 222.139 231.501 224.581 231.982 226.989C232.778 230.964 233.573 234.939 234.368 238.914C234.874 241.441 235.379 244.061 234.799 246.572" fill="#FBFAFE"/>
<path d="M211.64 465.796C210.868 465.332 204.839 451.107 207.537 449.477C218.846 442.646 307.188 409.829 317.536 403.758C327.884 397.686 315.354 390.504 316.019 385.825C317.071 378.424 339.854 372.959 339.904 369.204C354.738 378.86 368.829 387.895 378.997 402.383C382.786 407.781 386.657 418.373 382.979 423.848C380.8 427.089 375.222 428.715 371.498 429.892C341.615 439.338 205.77 475.212 211.64 465.796Z" fill="#FBFAFE"/>
<path d="M158.801 578.428C156.298 599.309 150.925 619.844 142.882 639.275C141.416 642.816 139.677 646.539 136.399 648.524C133.122 650.51 127.906 649.666 126.723 646.021C117.55 617.758 113.007 587.998 113.328 558.286C113.341 557.08 113.378 555.813 113.99 554.774C114.921 553.192 116.877 552.597 118.658 552.158C127.778 549.914 137.065 548.356 146.418 547.501C147.455 547.993 144.446 573.747 158.801 578.428Z" fill="#FBFAFE"/>
<circle cx="394" cy="146.5" r="49" fill="#A0D4A1"/>
<path fill-rule="evenodd" clip-rule="evenodd" d="M362.504 103.439C363.911 109.652 366.142 115.87 371.371 114.917C378.165 113.679 364.29 111.227 456.149 102.713C457.199 102.616 455.356 100.576 454.44 100.053C449.612 97.2982 444.521 94.9622 439.287 93.0906C430.795 90.0542 361.699 99.8835 362.504 103.439Z" fill="#FBFAFE"/>
<path fill-rule="evenodd" clip-rule="evenodd" d="M350.273 316.396C333.613 299.544 313.148 286.476 290.851 278.453C278.231 273.911 264.948 270.923 253.164 264.517C254.175 264.378 255.095 263.693 255.518 262.764C288.08 273.948 321.801 285.831 346.396 309.926C348.235 311.728 350.123 313.825 350.273 316.396V316.396Z" fill="#5F30E2"/>
<path fill-rule="evenodd" clip-rule="evenodd" d="M253.01 227.626C257.974 229.463 261.838 233.351 265.904 236.739C288.217 255.331 319.191 260.341 342.51 277.652C340.387 277.093 338.369 276.2 336.362 275.31C315.094 265.879 293.786 256.428 273.559 244.934C265.683 240.458 257.684 235.386 253.01 227.626L253.01 227.626Z" fill="#5F30E2"/>
<path fill-rule="evenodd" clip-rule="evenodd" d="M148.931 102.172C146.749 93.5168 144.858 84.3507 147.302 75.7664C149.746 67.1821 157.955 59.5835 166.782 60.9045C172.762 61.7994 178.611 59.0919 184.108 56.5472L184.334 56.4425C191.486 53.1326 199.054 50.008 206.929 50.3059C214.804 50.6037 223.049 55.2679 225.046 62.8913C225.905 66.1702 225.556 69.629 225.201 73L222.246 101.063C221.068 112.245 219.692 123.973 213.208 133.159C206.723 142.345 193.323 147.688 183.876 141.59C182.575 145.238 185.462 149.305 189.073 150.704C192.685 152.103 196.721 151.557 200.55 150.975C245.695 144.116 292.236 134.252 328.611 106.648C327.904 101.872 330.413 96.7813 334.632 94.432C334.761 94.3601 334.894 94.2856 335.031 94.2092C337.819 92.6513 342.087 90.2656 345 90.8716C348.392 91.5772 350.779 94.9327 352.976 98.0219C353.524 98.7921 354.06 99.5458 354.597 100.238C359.227 106.204 360.766 113.933 362.17 121.354C362.613 123.697 362.405 127.021 360.041 127.335C373.082 127.555 386.102 129.02 398.866 131.703L401.884 123.687C394.041 111.324 372.269 112.458 365.753 125.568C363.759 123.189 366.951 119.981 369.707 118.551C369.523 118.646 369.528 118.637 369.702 118.543C365.538 111.07 362.471 102.987 360.629 94.6328C362.299 98.2455 364.07 101.2 365.841 104.155C367.612 107.11 369.383 110.065 371.053 113.678C384.371 107.517 398.334 106.189 412.93 104.802L413.365 104.76C407.617 106.911 404.106 113.779 405.729 119.697C412.604 119.553 419.423 117.381 425.114 113.523C421.514 111.805 418.756 108.414 417.806 104.54C424.637 107.99 429.434 111.765 426.828 114.807C423.186 119.057 409.408 122.085 404.654 122.67L401.969 132.523C413.49 135.73 424.396 141.131 433.93 148.35C439.947 152.907 445.497 162.243 439.698 167.074L476.086 167.599C478.477 167.633 481.86 169.206 480.689 171.291L324.334 171.372C322.181 171.373 319.263 168.953 321.176 167.964C329.924 168.433 338.718 168.046 347.39 166.808C343.911 159.14 342.736 150.443 344.057 142.126C346.055 129.544 339.832 116.045 328.967 109.392C281.296 143.36 220.331 151.084 162.104 157.091C155.035 157.821 147.466 158.749 142.13 163.443C136.563 168.339 134.725 176.457 135.705 183.805C136.685 191.153 140.08 197.934 143.578 204.471C145.622 208.291 147.728 212.116 149.842 215.954C163.007 239.86 176.454 264.278 176.859 291.261C176.965 298.265 176.169 305.253 175.374 312.235C174.38 320.96 173.387 329.675 174.157 338.396C175.454 353.094 181.662 366.847 187.782 380.273L209.323 427.535C210.152 429.353 211.054 431.261 212.7 432.394C215.438 434.278 219.139 433.376 222.318 432.406L258.247 421.434C261.771 420.358 265.954 418.509 266.245 414.835C266.406 412.811 265.248 410.945 264.137 409.246L254.219 394.088L276.83 402.712C278.424 403.321 280.104 403.939 281.794 403.704C283.878 403.415 285.548 401.898 287.09 400.467C303.429 385.296 321.279 371.754 340.291 360.107C310.59 337.819 276.848 320.932 241.205 310.517C249.251 273.556 249.466 234.91 241.833 197.862L191.5 213.865C191.258 220.027 192.818 226.051 194.372 232.054L194.372 232.054L194.373 232.055L194.373 232.055C194.783 233.639 195.193 235.223 195.569 236.807C197.371 244.391 198.351 252.672 195.064 259.741C191.777 266.809 182.827 271.695 175.891 268.136C184.144 270.84 192.951 263.527 195.147 255.124C197.342 246.722 194.858 237.886 192.389 229.561L187.181 212.001C242.992 195.436 295.681 168.414 341.7 132.756C314.048 159.678 279.161 177.72 244.706 195.106C253.908 229.315 253.7 266.004 244.112 300.106C242.739 304.987 248.557 308.568 253.296 310.368C286.558 323.003 318.138 340.058 346.944 360.944C330.409 368.878 315.262 379.696 302.395 392.765C301.742 393.428 301.091 394.099 300.44 394.772C296.077 399.275 291.657 403.837 285.994 406.437C279.486 409.426 270.694 408.946 266.399 403.215L274.201 417.638C256.721 427.93 236.983 434.362 216.796 436.346C214.669 436.555 212.345 436.667 210.588 435.45C209.245 434.52 208.486 432.977 207.783 431.501L182.515 378.463C177.448 367.826 172.324 357.012 170.408 345.387C168.424 333.346 169.981 321.147 171.539 308.945C173.062 297.011 174.587 285.073 172.8 273.274C170.258 256.492 161.398 241.874 152.499 227.192C147.85 219.522 143.191 211.835 139.416 203.812C135.18 194.809 131.992 184.823 133.601 175.005C135.211 165.187 142.827 155.81 152.741 154.975C150.242 142.545 151.23 129.432 155.562 117.516C155.701 130.27 155.068 143.032 153.667 155.709L186.396 152.784L177.103 137.972C188.875 146.515 206.738 139.163 214.17 126.66C221.601 114.157 221.392 98.6885 220.452 84.1739C210.88 90.0366 198.399 90.8463 188.15 86.2694C183.392 84.1446 177.598 87.0061 174.688 91.3288C171.778 95.6515 171.044 101.032 170.388 106.202C168.121 105.339 167.585 102.913 167.028 100.388C166.637 98.6147 166.235 96.7929 165.215 95.4291C161.576 90.5611 152.914 95.8292 153.132 101.903C153.351 107.977 158.531 112.571 163.45 116.141C156.314 118.858 150.797 109.576 148.931 102.172ZM347.594 95.9142C346.661 94.8287 345.558 93.7106 344.136 93.5469C342.57 93.3667 341.149 94.3934 339.908 95.3655L335.314 98.9659C333.744 100.196 332.129 101.479 331.195 103.241C330.261 105.003 330.194 107.389 331.581 108.822C336.331 113.731 341.153 118.741 344.229 124.84C347.305 130.939 348.421 138.408 345.521 144.593C344.018 147.798 345.956 151.813 348.989 153.64C352.021 155.468 355.781 155.571 359.303 155.206C365.74 154.539 371.945 152.502 378.091 150.479L390.818 146.289C395.229 144.837 398.334 140.142 397.943 135.514C398.512 134.558 397.078 133.686 395.983 133.487C387.732 131.986 379.409 130.877 371.053 130.163C363.259 129.498 354.638 129.424 348.584 134.378C351.201 129.838 355.639 126.384 360.682 124.964C359.218 114.296 354.615 104.079 347.594 95.9142ZM396.529 146.582C400.711 148.014 403.616 151.834 405.617 155.776C406.334 157.189 406.971 158.646 407.608 160.102L407.609 160.103C408.747 162.707 409.884 165.308 411.478 167.653C418.164 167.905 424.862 167.857 431.544 167.509C433.321 167.416 435.139 167.293 436.771 166.585C438.404 165.878 439.841 164.465 440.088 162.703C440.145 162.294 440.139 161.877 440.132 161.46C440.122 160.848 440.112 160.238 440.306 159.663C440.368 159.479 440.448 159.287 440.53 159.094C440.823 158.392 441.13 157.66 440.631 157.167C430.284 146.939 417.307 139.393 403.299 135.459C402.504 135.236 401.566 135.051 400.925 135.571C400.565 135.864 400.386 136.319 400.223 136.754L396.529 146.582ZM352.205 167.363L381.033 167.453C382.878 167.458 384.106 165.614 384.983 163.991L393.634 147.978C388.661 148.936 383.907 150.698 379.149 152.462C376.249 153.537 373.346 154.613 370.391 155.508C362.589 157.87 353.838 158.88 346.517 155.294C346.628 158.713 347.993 162.077 350.297 164.606C349.674 164.846 349.325 165.632 349.566 166.254C349.933 167.204 351.187 167.36 352.205 167.363ZM385.448 167.348C390.884 166.824 396.36 166.999 401.818 167.175L407.934 167.372C406.179 161.714 403.469 156.354 399.953 151.586C399.282 150.676 398.53 149.747 397.477 149.333C396.423 148.92 394.998 149.241 394.569 150.288C392.119 156.265 389.057 161.991 385.448 167.348ZM400.531 119.326C401.009 119.567 401.551 119.805 402.063 119.648C402.815 119.418 403.073 118.503 403.212 117.729L404.702 109.477C404.784 109.019 404.858 108.509 404.603 108.119C404.202 107.504 403.264 107.583 402.601 107.899C402.432 107.98 402.265 108.072 402.098 108.164C401.609 108.433 401.12 108.703 400.573 108.695C396.61 108.632 392.635 109.52 389.076 111.263C392.468 114.496 396.342 117.223 400.531 119.326ZM217.554 97.5961L211.143 100.522C210.628 100.757 210.024 100.992 209.519 100.736C208.874 100.409 208.831 99.4339 209.249 98.8443C209.668 98.2546 210.377 97.9576 211.049 97.6892L213.842 96.5728C214.561 96.2856 215.318 95.9929 216.086 96.0903C216.854 96.1877 217.612 96.8244 217.554 97.5961ZM195.189 103.966C196.145 103.896 197.11 102.945 196.749 102.058L192.892 101.248C189.65 100.568 185.85 100.025 183.393 102.247C182.596 102.968 182.071 104.335 182.875 105.049C185.416 102.777 189.239 102.049 192.437 103.227C192.621 103.295 192.805 103.369 192.989 103.443L192.989 103.443C193.706 103.731 194.429 104.021 195.189 103.966ZM206.073 106.53L205.334 105.244C205.002 105.069 204.544 105.202 204.357 105.527C203.02 109.532 203.643 114.141 205.995 117.647C206.575 118.511 205.571 119.73 204.531 119.725C203.491 119.72 202.621 118.96 201.918 118.193C201.102 119.551 202.509 121.458 204.093 121.44C205.677 121.422 206.974 119.982 207.302 118.432C207.63 116.882 207.195 115.273 206.622 113.796C206.48 113.429 206.328 113.064 206.176 112.699L206.176 112.698C205.718 111.596 205.259 110.492 205.05 109.32C204.861 108.257 205.057 106.895 206.073 106.53ZM179.11 123.972C178.661 121.865 178.556 119.048 180.546 118.223C182.027 117.61 183.744 118.702 184.492 120.119C185.06 121.198 185.242 122.416 185.423 123.631C185.48 124.013 185.537 124.395 185.606 124.772C185.893 126.348 186.512 128.021 187.901 128.819C192.148 131.257 197.044 132.553 201.941 132.534C197.199 134.619 191.795 132.164 187.21 129.754L176.768 124.267C176.09 123.911 175.297 123.178 175.712 122.535C176.909 122.836 178.06 123.322 179.11 123.972ZM182.23 122.568C182.465 123.61 182.528 124.69 182.415 125.752C183.295 125.886 184.129 126.302 184.766 126.922C184.541 124.577 183.942 122.267 182.998 120.107C182.48 118.922 180.463 119.377 180 120.585C179.536 121.794 180.113 123.138 180.771 124.252C180.805 123.451 181.442 122.716 182.23 122.568ZM189.22 323.819C206.322 321.503 223.892 319.034 238.926 310.56C239.577 310.194 240.286 309.315 239.708 308.842C223.044 316.926 204.737 321.604 186.238 322.505C186.253 323.742 187.995 323.985 189.22 323.819ZM204.88 496.017C205.834 493.948 206.581 491.784 207.106 489.567L193.881 486.617C194.15 485.522 195.643 485.392 196.76 485.541C200.411 486.029 204.005 486.933 207.452 488.229L209.911 477.983C210.434 477.698 211.081 477.651 211.64 477.856C209.954 487.276 207.273 496.517 203.655 505.376C203.129 506.663 202.279 508.155 200.889 508.144C200.79 507.325 200.923 506.48 201.268 505.731C197.937 505.924 194.225 505.994 191.726 503.785C195.003 503.361 198.354 503.505 201.583 504.209C202.896 502.192 203.905 499.977 204.565 497.663C200.732 497.478 196.931 496.628 193.382 495.164C193.746 494.11 195.225 494.122 196.319 494.337L204.88 496.017ZM132.553 643.803C125.456 617.086 121.103 589.642 119.584 562.04C119.452 559.642 119.434 556.969 121.043 555.186C122.153 582.741 126.051 610.183 132.66 636.956C133.222 639.234 133.766 641.795 132.553 643.803ZM142.586 595.77C146.396 594.91 150.417 594.999 154.186 596.026L155.891 589.417C151.252 589.039 146.662 588.073 142.264 586.55C146.955 585.677 151.913 586.295 156.246 588.293C155.505 584.849 156.482 581.079 158.801 578.428C156.298 599.309 150.925 619.844 142.882 639.275C141.416 642.816 139.677 646.539 136.399 648.524C133.122 650.51 127.906 649.666 126.723 646.021C117.55 617.758 113.007 587.998 113.328 558.286C113.341 557.08 113.378 555.813 113.99 554.774C114.921 553.192 116.877 552.597 118.658 552.158C127.778 549.914 137.065 548.356 146.418 547.501C147.455 547.993 146.093 549.412 144.965 549.624L114.667 555.325C114.987 585.623 119.601 615.872 128.327 644.887C128.667 646.016 129.065 647.22 130.012 647.922C132.453 649.734 135.597 646.83 137.144 644.213C144.224 632.23 149.225 619.023 151.857 605.357C148.64 606.777 144.747 606.552 141.715 604.771C145.152 603.858 148.816 603.812 152.274 604.641L153.994 598.478L142.586 595.77ZM317.536 396.99C317.544 396.085 317.147 395.225 316.673 394.455C315.448 392.464 313.638 390.839 311.527 389.835C310.607 391.258 311.86 393.032 312.893 394.376C313.925 395.719 314.624 397.995 313.149 398.828L288.483 412.77C287.667 413.231 286.739 414.236 287.37 414.93C293.039 414.219 298.103 411.161 302.973 408.174L313.832 401.513C315.571 400.447 317.519 399.03 317.536 396.99ZM224.129 320.85C224.79 320.662 224.022 319.706 223.338 319.634C222.655 319.562 221.699 318.934 222.218 318.485L225.097 318.6C226.353 319.124 225.938 321.233 224.702 321.805C223.467 322.377 222.023 321.932 220.738 321.481C220.581 323.071 218.853 324.313 217.296 323.953C215.739 323.594 214.729 321.722 215.284 320.223C216.187 319.447 217.539 319.236 218.635 319.701C218.742 320.167 218.262 320.311 217.742 320.467C217.441 320.557 217.126 320.651 216.903 320.814C216 321.472 217.309 323.003 218.357 322.613C219.404 322.223 219.821 320.991 220.106 319.911C221.295 320.654 222.734 320.99 224.129 320.85ZM194.581 107.631C196.309 107.364 197.062 110.018 196.124 111.492C195.324 112.749 193.621 113.54 192.289 112.872C191.905 111.431 192.224 109.82 193.127 108.633C193.493 108.153 193.985 107.723 194.581 107.631ZM213.643 109.835C215.335 108.902 214.724 106.356 213.888 104.614C211.546 104.91 210.045 107.937 211.225 109.98C212.036 110.128 212.921 110.233 213.643 109.835ZM207.537 449.476L218.514 444.48C219.41 441.83 218.365 438.649 216.072 437.047C216.006 438.922 216.415 440.813 217.249 442.494C212.514 444.783 207.644 446.792 202.672 448.508C205.429 455.154 207.45 462.105 208.686 469.194C215.322 469.413 221.981 468.905 228.506 467.681L236.172 484.305L204.969 507.509C194.543 515.263 189.557 528.159 185.079 540.356C189.048 536.712 191.186 531.601 193.315 526.513C195.656 520.917 197.985 515.349 202.725 511.793L234.482 487.968C235.631 487.106 236.855 486.135 237.203 484.742C237.529 483.435 237.001 482.083 236.483 480.84L230.735 467.054C247.367 464.52 263.772 460.503 279.692 455.064L283.845 493.905C284.386 498.96 284.828 504.464 282.085 508.744C280.113 511.82 276.806 513.735 273.613 515.512C236.508 536.169 197.808 553.96 157.972 568.674L150.567 549.471C157.667 544.216 165.044 539.334 172.658 534.854C172.606 537.542 172.591 540.382 173.933 542.711C175.274 545.041 178.491 546.513 180.744 545.047C183.259 543.41 182.916 539.693 182.325 536.751C176.704 508.729 175.804 480.003 174.922 451.436C172.687 481.46 174.882 511.811 181.415 541.201C181.858 543.193 178.776 544.386 177.12 543.194C175.463 542.002 175.045 539.754 174.77 537.732C171.049 510.403 169.387 482.794 169.802 455.217C169.83 453.354 170.001 451.218 171.496 450.107C172.481 449.375 173.79 449.299 175.016 449.251L200.92 448.237C191.987 446.94 182.896 446.741 173.915 447.648C172.458 447.795 170.903 448.015 169.815 448.994C168.392 450.274 168.222 452.409 168.164 454.322C167.421 478.549 168.757 502.84 172.152 526.839C172.769 531.207 169.444 535.208 165.708 537.554C164.138 538.54 162.462 539.352 160.788 540.162C158.479 541.28 156.173 542.396 154.154 543.967C150.672 546.675 148.169 551.509 150.055 555.497L157.739 571.747C197.2 559.085 234.304 540.125 270.999 520.864C277.247 517.584 283.986 513.75 286.468 507.143C287.889 503.362 287.682 499.188 287.371 495.16C286.318 481.501 284.3 467.916 281.339 454.54C311.555 446.222 341.615 437.337 371.498 427.892C375.222 426.715 379.225 425.325 381.403 422.083C385.082 416.609 381.66 409.263 377.871 403.865C367.702 389.377 354.738 376.859 339.904 367.204C339.855 370.959 343.282 373.693 346.282 375.952C356.776 383.852 366.04 393.383 373.638 404.097C376.865 408.648 379.737 415.108 376.168 419.396C374.567 421.32 372.059 422.187 369.68 422.965C317.34 440.061 264.21 454.735 210.515 466.923L207.537 449.476ZM448.317 317.839C449.485 320.106 451.303 322.861 453.795 322.321C448.521 311.457 441.078 301.653 432.031 293.653L458.018 270.227L455.636 310.404C455.466 313.277 455.324 316.299 456.591 318.883C459.02 318.08 459.446 314.885 459.464 312.327C459.78 266.078 467.658 219.888 482.69 176.149C481.12 173.925 477.975 173.672 475.252 173.659C462.848 173.6 450.451 174.165 438.055 174.731C424.209 175.363 410.364 175.994 396.51 175.755C389.892 175.641 383.257 175.329 376.623 175.017C358.814 174.18 341.004 173.343 323.488 176.328C323.223 176.373 322.949 176.423 322.728 176.575C322.056 177.038 322.256 178.063 322.527 178.832C333.34 209.447 340.795 241.246 344.716 273.477C345.284 278.148 349.415 281.449 353.219 284.219L368.348 295.234C370.498 296.799 374.199 298.001 375.221 295.546C375.949 293.797 378.155 293.05 380.016 293.407C381.877 293.764 383.454 294.961 384.906 296.178C393.387 303.291 400.182 312.401 404.581 322.559L429.493 295.556C437.338 301.441 443.826 309.122 448.317 317.839ZM391.801 196.344C404.712 196.616 417.67 192.09 427.604 183.839C429.094 182.601 430.526 181.275 431.707 179.741C432.74 178.4 434.516 176.741 435.776 177.869C434.567 182.832 434.379 188.042 435.227 193.08C435.871 196.902 432.47 200.083 429.408 202.458L420.141 209.649C417.827 211.444 415.451 213.272 412.661 214.163C409.872 215.053 406.54 214.828 404.385 212.846L388.306 198.057C387.092 196.941 385.846 195.78 385.178 194.272C384.638 193.053 384.518 191.694 384.43 190.363C384.153 186.184 384.123 181.988 384.339 177.805C389.262 178.732 394.317 178.584 399.324 178.433L412.242 178.042C413.114 178.015 414.003 177.991 414.841 178.236C415.616 178.462 416.306 178.908 416.984 179.348L424.741 184.382C422.721 184.236 421.168 185.649 419.6 187.077L419.599 187.077C418.908 187.706 418.213 188.338 417.474 188.84C415.947 189.879 414.127 190.382 412.333 190.825C409.478 191.529 406.595 192.123 403.694 192.603C398.158 193.52 392.449 194.019 386.964 192.835C386.379 195.067 389.494 196.296 391.801 196.344ZM374.104 245.551C374.946 244.901 375.845 244.227 376.901 244.099C377.975 243.97 379.026 244.428 379.992 244.916C390.317 250.129 397.764 259.547 404.866 268.675C397.513 272.652 390.86 277.919 385.301 284.164L385.168 284.314C384.267 285.328 383.341 286.371 382.104 286.916C380.807 287.488 379.054 287.313 378.273 286.129C371.855 276.389 363.768 267.751 354.471 260.705L374.104 245.551ZM381.331 240.396C388.904 234.455 396.73 228.837 404.782 223.564C405.605 223.025 406.475 222.473 407.455 222.387C408.524 222.292 409.555 222.765 410.506 223.261C419.558 227.983 426.826 236.033 430.601 245.519C422.292 250.505 414.836 256.909 408.654 264.371C407.952 265.219 406.599 266.101 405.932 265.225C398.856 255.927 390.563 247.557 381.331 240.396ZM441.827 254.763C446.631 259.044 451.809 262.906 457.282 266.29C446.855 273.009 437.616 281.566 430.118 291.448C424.785 283.249 418.251 275.833 410.79 269.509C410.421 269.196 410.024 268.84 409.958 268.361C409.884 267.825 410.248 267.338 410.595 266.923C417.819 258.285 426.722 251.056 436.659 245.76C436.372 249.341 439.144 252.373 441.827 254.763ZM350.264 177.916C352.255 177.841 354.524 177.903 355.841 179.397C362.782 187.272 372.281 192.855 382.537 195.09C375.668 201.963 367.885 207.923 359.457 212.761C358.091 213.545 356.43 212.504 355.221 211.494C344.245 202.321 334.474 191.707 326.24 180.01C334.208 178.92 342.228 178.221 350.264 177.916ZM384.759 291.923C389.338 283.717 396.837 277.178 405.59 273.759C408.521 272.614 411.589 274.915 413.817 277.136C418.642 281.945 423.06 287.162 427.01 292.712C427.23 293.02 427.456 293.352 427.478 293.73C427.526 294.567 426.624 295.091 425.879 295.475C421.453 297.753 418.482 301.799 415.489 305.875L415.489 305.876C413.18 309.02 410.858 312.181 407.846 314.563C407.546 314.8 407.218 315.038 406.837 315.074C406.197 315.134 405.663 314.621 405.228 314.149L384.759 291.923ZM437.392 201.085C444.419 208.661 452.619 215.147 461.611 220.239C452.495 226.057 444.145 233.073 436.843 241.048C435.791 242.197 433.977 240.871 433.015 239.646C426.725 231.633 419.198 224.593 410.783 218.852C420.382 215.17 428.898 208.71 435.029 200.457C435.588 199.705 436.755 200.397 437.392 201.085ZM407.377 219.076C396.719 223.024 387.113 229.774 379.786 238.463C374.171 230.014 366.219 223.438 358.386 216.991C367.815 212.203 376.575 206.1 384.332 198.913C391.488 206.205 399.199 212.952 407.377 219.076ZM461.63 182.346C464.914 180.044 468.364 177.674 472.337 177.132C474.475 176.84 476.645 177.098 478.786 177.37C473.675 191.146 469.53 205.28 466.391 219.634C456.942 213.882 448.125 207.095 440.148 199.432C439.92 199.214 439.683 198.978 439.608 198.671C439.448 198.018 440.07 197.459 440.621 197.073L461.63 182.346ZM353.472 258.237C351.855 255.918 349.672 253.998 347.165 252.691L347.084 252.649L346.997 252.604C346.445 252.319 345.878 252.027 345.507 251.534C345.188 251.112 345.047 250.587 344.913 250.076C343.764 245.703 342.606 241.166 343.373 236.711C344.389 230.814 348.585 226.035 352.713 221.704C353.221 221.171 353.774 220.613 354.494 220.453C355.258 220.282 356.04 220.597 356.749 220.932C365.259 224.947 371.578 232.447 376.964 240.163C367.905 244.315 359.807 250.546 353.472 258.237ZM439.278 246.208C439.784 242.353 442.418 239.134 445.192 236.409C450.995 230.709 457.908 226.142 465.429 223.041L459.008 263.774C451.246 259.466 444.455 253.42 439.278 246.208ZM351.267 259.998C351.426 260.669 350.859 261.273 350.343 261.73L347.849 263.938C347.946 264.541 348.816 264.627 349.364 264.356C349.529 264.275 349.689 264.175 349.848 264.075C350.219 263.844 350.588 263.613 351.015 263.616C351.412 263.619 351.775 263.829 352.114 264.036C361.972 270.041 370.333 278.483 376.243 288.398C376.614 289.022 376.988 289.692 376.979 290.418C376.967 291.463 376.182 292.317 375.446 293.06C373.786 294.736 371.071 296.47 369.351 294.856C363.772 289.622 357.543 285.081 350.852 281.37C349.403 280.566 349.019 278.693 348.787 277.052L345.717 255.31C347.52 256.387 349.193 257.68 350.689 259.153C350.936 259.396 351.188 259.661 351.267 259.998ZM332.436 193.481C339.621 201.101 347.059 208.483 354.734 215.611C349.558 220.559 344.219 225.75 341.731 232.465L331.187 193.028C331.643 192.973 332.121 193.146 332.436 193.481ZM437.745 190.063C437.407 185.82 437.15 181.232 439.442 177.645L464.328 178.272L438.261 196.548L437.745 190.063ZM381.843 193.02L376.954 190.864L377.071 189.542C376.338 190.199 375.491 189.596 374.591 188.955C373.788 188.383 372.942 187.78 372.095 188.014C371.893 188.07 371.666 188.158 371.436 188.247C370.714 188.525 369.966 188.814 369.881 188.162C369.847 187.897 370.03 187.659 370.202 187.455L376.384 180.144C377.112 179.284 377.9 178.382 378.978 178.053C380.055 177.724 381.475 178.266 381.643 179.38C382.324 183.89 382.391 188.492 381.843 193.02ZM372.602 178.508C373.034 178.024 373.937 178.111 374.268 178.669C373.131 181.581 371.09 184.133 368.499 185.881C367.755 186.383 366.431 186.615 366.234 185.74C365.999 184.699 364.784 184.48 363.657 184.277L363.657 184.277C363.418 184.234 363.184 184.192 362.963 184.143C360.486 183.591 358.744 180.82 359.32 178.349C361.942 177.068 364.983 177.074 367.901 177.106C369.589 177.124 371.492 177.237 372.602 178.508ZM429.56 178.794C428.638 179.386 427.991 180.391 427.835 181.475C424.74 181.504 421.657 180.167 419.563 177.888C421.733 177.468 424.054 177.883 425.946 179.027C426.78 177.946 428.594 177.829 429.56 178.794ZM456.218 103.233C453.564 98.5853 438.834 91.4792 428.137 89.2927C405.58 84.6816 381.813 86.131 359.983 93.4489C377.989 84.911 399.66 83.7905 420.231 85.8311C438.664 87.6595 464.033 103.484 457.782 104.89C452.547 106.068 431.034 104.89 419.563 102.124C425.684 100.324 438.427 101.804 447.158 102.818C452.688 103.461 456.608 103.916 456.218 103.233Z" fill="#5F30E2"/>
<path fill-rule="evenodd" clip-rule="evenodd" d="M135.569 587.513C136.271 589.004 136.566 590.684 136.414 592.325C134.801 591.126 133.319 589.751 132.004 588.231C130.723 589.301 129.149 590.016 127.501 590.278C127.334 588.584 128.346 586.838 129.898 586.14C127.911 585.469 125.48 584.066 125.946 582.022C127.862 582.042 129.774 582.385 131.577 583.033C131.56 581.254 132.468 579.492 133.928 578.475C134.348 580.36 134.767 582.246 135.187 584.131C136.29 584.605 137.448 584.949 138.631 585.154C137.991 586.315 136.855 587.191 135.569 587.513L135.569 587.513Z" fill="#A0D4A1"/>
<path fill-rule="evenodd" clip-rule="evenodd" d="M187.684 488.519C185.907 488.035 184.301 486.944 183.195 485.471C182.02 486.354 180.56 486.851 179.09 486.866C179.519 485.729 180.179 484.68 181.017 483.8C179.724 482.65 178.534 481.384 177.466 480.022C179.251 478.72 182.267 481.751 183.72 480.086C184.169 479.572 184.186 478.823 184.423 478.183C184.66 477.543 185.414 476.947 185.977 477.333C186.658 478.542 186.941 479.972 186.772 481.349C187.764 481.664 188.756 481.978 189.747 482.293C189.712 483.448 188.391 484.366 187.296 483.998C187.425 485.505 187.555 487.012 187.684 488.519H187.684Z" fill="#A0D4A1"/>
<path fill-rule="evenodd" clip-rule="evenodd" d="M365.121 300.043C366.114 299.176 367.652 299.856 368.739 300.603C376.064 305.636 381.67 312.739 387.157 319.731C387.696 320.417 388.266 321.213 388.135 322.076C388.004 322.939 386.698 323.508 386.247 322.761C381.493 314.872 375.138 307.952 367.681 302.545C366.706 301.838 365.674 301.114 365.121 300.043L365.121 300.043Z" fill="#5F30E2"/>
<path fill-rule="evenodd" clip-rule="evenodd" d="M182.23 122.569C182.465 123.61 182.528 124.691 182.415 125.753C183.295 125.887 184.129 126.303 184.766 126.923C184.541 124.577 183.942 122.268 182.998 120.108C182.48 118.922 180.463 119.378 180 120.586C179.536 121.794 180.113 123.139 180.771 124.253C180.805 123.452 181.442 122.717 182.23 122.569Z" fill="#A0D4A1"/>
<path fill-rule="evenodd" clip-rule="evenodd" d="M381.066 319.972C374.407 316.193 367.454 312.934 360.289 310.233C358.713 309.639 356.753 310.37 355.951 311.851C354.954 311.124 355.542 309.372 356.679 308.894C357.816 308.416 359.114 308.792 360.282 309.187C366.515 311.292 372.588 313.871 378.432 316.893C379.705 317.552 381.152 318.541 381.066 319.972H381.066Z" fill="#5F30E2"/>
<path fill-rule="evenodd" clip-rule="evenodd" d="M351.712 298.868C353.838 304.77 354.636 311.147 354.03 317.391C353.963 318.077 353.683 318.951 352.993 318.955C352.197 318.96 352.005 317.854 352.059 317.059C352.51 310.513 351.649 303.879 349.542 297.665C350.104 296.795 351.361 297.893 351.712 298.868H351.712Z" fill="#5F30E2"/>
<path fill-rule="evenodd" clip-rule="evenodd" d="M384.611 313.185C381.183 309.172 377.755 305.159 374.327 301.146C373.917 300.665 373.49 299.969 373.863 299.458C378.377 303.189 382.072 307.907 384.611 313.185Z" fill="#5F30E2"/>
<path fill-rule="evenodd" clip-rule="evenodd" d="M0.759681 317.524C0.20665 317.188 -0.0994727 316.49 0.0291988 315.856C0.388895 315.482 1.06821 315.492 1.41664 315.877C1.74962 316.495 1.43606 317.37 0.786041 317.636L0.759681 317.524Z" fill="#5F30E2"/>
<path fill-rule="evenodd" clip-rule="evenodd" d="M366.778 1.32592C366.372 1.38761 365.965 1.44929 365.558 1.51098C365.335 1.14089 365.249 0.690395 365.319 0.264075C365.672 0.0349282 366.114 -0.0510248 366.526 0.0296172C366.757 0.377711 366.839 0.821291 366.748 1.22886L366.778 1.32592Z" fill="#5F30E2"/>
<path fill-rule="evenodd" clip-rule="evenodd" d="M234.799 246.572C233.62 251.672 227.445 254.922 222.545 253.08C221.893 252.835 221.601 252.093 221.387 251.431C218.581 242.726 216.728 233.714 215.872 224.609C215.717 222.96 215.598 221.265 216.07 219.677C217.096 216.222 221.193 214.024 224.639 215.08C226.988 215.799 228.798 217.752 229.903 219.946C231.008 222.139 231.501 224.581 231.982 226.989C232.778 230.964 233.573 234.939 234.368 238.914C234.874 241.441 235.379 244.061 234.799 246.572M223.762 251.377C224.531 252.043 225.654 252.138 226.656 251.958C230.949 251.187 233.305 246.245 233.164 241.886C233.024 237.527 231.15 233.433 230.198 229.177C229.534 226.213 229.282 223.06 227.699 220.468C226.116 217.876 222.557 216.125 219.987 217.743C217.393 219.377 217.418 223.11 217.831 226.148C218.881 233.866 220.463 241.512 222.563 249.014C222.804 249.877 223.084 250.789 223.762 251.377Z" fill="#A0D4A1"/>
<path fill-rule="evenodd" clip-rule="evenodd" d="M229.572 247.016C228.666 247.598 227.394 247.209 226.655 246.426C225.916 245.643 225.585 244.569 225.293 243.533C223.558 237.387 222.355 231.092 221.703 224.74C221.613 223.869 221.54 222.955 221.878 222.147C222.217 221.34 223.107 220.693 223.95 220.932C224.771 221.166 225.173 222.071 225.459 222.876C227.823 229.528 229.505 236.422 230.469 243.416C230.648 244.714 230.675 246.308 229.572 247.016M223.106 222.087C223.271 229.729 224.698 237.343 227.311 244.526C227.61 245.348 228.442 246.34 229.142 245.816C228.642 237.621 226.582 229.524 223.106 222.087Z" fill="#A0D4A1"/>
<path fill-rule="evenodd" clip-rule="evenodd" d="M401.884 123.687L398.866 131.704C398.187 131.561 397.387 131.386 396.486 131.19C388.338 129.411 371.882 125.82 360.683 127.397C349.857 128.921 344.987 136.271 344.057 142.126C342.736 150.443 343.91 159.14 347.39 166.808C346.084 166.994 347.539 167.135 350.911 167.238C351.331 167.335 351.788 167.362 352.205 167.363L358.666 167.383C371.79 167.538 393.524 167.5 411.312 167.405C411.367 167.488 411.422 167.571 411.478 167.653C418.164 167.906 424.862 167.858 431.544 167.509C432.543 167.457 433.554 167.395 434.539 167.225C439.726 167.165 442.033 167.108 439.698 167.074C445.497 162.243 439.947 152.907 433.93 148.35C424.396 141.131 413.49 135.73 401.969 132.523L404.654 122.67C412.809 121.667 420.755 118.988 427.852 114.848C429.937 119.604 433.923 112.679 417.806 104.54C418.756 108.414 421.514 111.805 425.114 113.523C419.423 117.381 412.603 119.553 405.729 119.697C404.106 113.779 407.617 106.911 413.365 104.76C403.606 104.76 382.472 110.603 371.536 116.403C365.643 119.528 365.054 124.735 365.753 125.568C372.269 112.458 394.041 111.324 401.884 123.687ZM434.539 167.225C435.306 167.093 436.056 166.895 436.771 166.586C438.403 165.878 439.841 164.465 440.088 162.703C440.145 162.294 440.138 161.877 440.132 161.461C440.122 160.848 440.112 160.238 440.306 159.663C440.368 159.479 440.448 159.288 440.529 159.094C440.823 158.392 441.13 157.66 440.631 157.168C430.284 146.939 417.306 139.393 403.299 135.459C402.504 135.236 401.565 135.051 400.925 135.571C400.564 135.864 400.386 136.319 400.223 136.754L396.529 146.582C400.711 148.014 403.616 151.834 405.617 155.776C406.334 157.189 406.972 158.647 407.608 160.103L407.608 160.103C408.707 162.616 409.805 165.126 411.312 167.405C420.821 167.355 429.203 167.288 434.539 167.225ZM358.666 167.383L381.033 167.453C382.877 167.459 384.106 165.614 384.983 163.992L393.633 147.978C388.661 148.936 383.907 150.698 379.149 152.462C376.248 153.537 373.346 154.613 370.391 155.508C362.589 157.87 353.838 158.88 346.517 155.294C346.628 158.713 347.993 162.078 350.296 164.606C349.673 164.846 349.325 165.632 349.566 166.255C349.782 166.815 350.308 167.098 350.911 167.238C352.892 167.298 355.534 167.346 358.666 167.383ZM348.988 153.641C345.956 151.813 344.017 147.798 345.52 144.593C351.746 131.316 356.442 128.916 371.053 130.163C379.409 130.877 387.732 131.986 395.983 133.487C397.078 133.686 398.512 134.558 397.943 135.514C398.334 140.142 395.229 144.837 390.818 146.29L378.091 150.479C371.944 152.502 365.739 154.539 359.303 155.206C355.781 155.571 352.021 155.468 348.988 153.641ZM385.448 167.348C390.883 166.824 396.36 166.999 401.818 167.175L407.934 167.372C406.179 161.714 403.469 156.354 399.953 151.586C399.282 150.676 398.53 149.747 397.477 149.334C396.423 148.92 394.998 149.242 394.569 150.289C392.119 156.265 389.057 161.991 385.448 167.348ZM402.062 119.648C401.55 119.805 401.009 119.567 400.53 119.327C396.342 117.224 392.468 114.496 389.075 111.263C392.635 109.52 396.61 108.633 400.572 108.695C401.119 108.703 401.609 108.433 402.097 108.164C402.265 108.072 402.432 107.98 402.601 107.899C403.264 107.583 404.202 107.504 404.603 108.12C404.857 108.509 404.784 109.019 404.702 109.477L403.212 117.729C403.072 118.504 402.815 119.418 402.062 119.648Z" fill="#FBFAFE"/>
</svg>
