<svg width="412" height="198" viewBox="0 0 412 198" fill="none" xmlns="http://www.w3.org/2000/svg">
<path d="M25.3488 195.654C2.61568 174.66 -8.33205 138.747 16.203 114.61C22.2745 108.643 29.6228 104.197 37.4827 101.028C37.7951 100.914 38.103 100.788 38.4154 100.674" stroke="#CCDDE2" stroke-width="4.23"/>
<path d="M170.685 17.5387C193.531 19.4855 202.251 29.8311 213.185 43.432C214.091 44.5594 214.965 45.6958 215.825 46.8322C225.604 59.7314 232.926 80.0512 252.698 77.5248C268.146 75.5463 281.371 65.7848 295.212 59.4642C318.026 49.0508 345.468 38.7641 369.994 49.7978C396.281 61.6194 409.235 93.8514 409.742 121.04C410.235 148.373 398.636 183.321 372.036 195.654" stroke="#CCDDE2" stroke-width="4.23"/>
<path d="M186.373 70.9462C186.065 83.1255 181.966 94.9055 174.646 104.645C174.63 104.661 174.616 104.679 174.606 104.699C173.913 105.447 173.207 106.194 172.487 106.913C160.88 118.566 145.106 125.109 128.66 125.092H128.492C119.093 125.092 109.698 125.123 100.312 125.123C92.9051 125.123 85.4119 125.576 78.0772 124.503C75.7183 124.164 73.4907 123.417 71.0775 123.525C61.8774 123.951 55.5569 132.657 51.1968 139.698C51.1394 139.789 51.062 139.867 50.9705 139.924C50.9378 139.844 50.9224 139.757 50.9252 139.671C51.5047 129.058 49.2047 118.083 43.9119 108.838C43.8168 108.657 43.7172 108.485 43.6176 108.317C40.6702 103.337 36.7447 99.0581 34.2183 93.8287C25.3269 75.3414 26.7026 53.5584 37.8492 36.3366C48.9958 19.1148 68.3049 8.939 88.8121 9.47952L129.153 10.5661C161.626 11.4421 187.242 38.4732 186.373 70.9462Z" fill="#774FE6"/>
<path fill-rule="evenodd" clip-rule="evenodd" d="M190.633 63.1044C190.656 78.4576 184.956 93.2682 174.646 104.645C174.63 104.661 174.616 104.679 174.606 104.7C173.913 105.447 173.207 106.194 172.487 106.913C160.88 118.566 145.106 125.109 128.66 125.092H128.492C119.093 125.092 109.698 125.124 100.312 125.124C92.9051 125.124 85.4119 125.576 78.0772 124.503C75.7183 124.164 73.4907 123.417 71.0775 123.525C61.8774 123.951 55.5569 132.657 51.1968 139.698C51.1394 139.789 51.062 139.867 50.9705 139.924C50.7593 140.056 50.4924 140.062 50.2764 139.937C50.0603 139.813 49.9303 139.58 49.9382 139.331C50.2506 128.125 47.5114 116.643 41.6708 107.045C41.5712 106.864 41.458 106.678 41.3448 106.511C38.0985 101.358 33.8516 96.9573 31.0445 91.5242C21.131 72.308 21.9473 49.3148 33.1984 30.85C44.4494 12.3852 64.5092 1.11751 86.1318 1.11707H128.66C145.098 1.11827 160.863 7.64988 172.485 19.2749C184.108 30.8999 190.636 46.666 190.633 63.1044V63.1044Z" stroke="black" stroke-width="2"/>
<rect x="107.398" y="30.1163" width="56.7399" height="69.0912" rx="23.78" fill="#D7E8F0"/>
<circle cx="136.085" cy="44.9216" r="4.36461" fill="white"/>
<path d="M123.892 64.6619C123.892 57.928 129.351 52.4691 136.085 52.4691C142.819 52.4691 148.278 57.928 148.278 64.6619H123.892Z" fill="white"/>
<rect x="119.446" y="75.0709" width="32.6395" height="13.8137" rx="6.90685" fill="#774FE6"/>
<path d="M89.7041 52.1522H55.4347" stroke="white" stroke-width="4.23" stroke-linecap="round" stroke-linejoin="round"/>
<path d="M89.7041 60.166H55.4347" stroke="white" stroke-width="4.23" stroke-linecap="round" stroke-linejoin="round"/>
<path d="M89.7041 67.3196H55.4347" stroke="white" stroke-width="4.23" stroke-linecap="round" stroke-linejoin="round"/>
<path d="M89.7041 75.3335H55.4347" stroke="white" stroke-width="4.23" stroke-linecap="round" stroke-linejoin="round"/>
<path d="M89.7041 44.9986H55.4347" stroke="white" stroke-width="4.23" stroke-linecap="round" stroke-linejoin="round"/>
<path d="M89.7041 82.4916H55.4347" stroke="white" stroke-width="4.23" stroke-linecap="round" stroke-linejoin="round"/>
<path d="M99.2799 134.5C99.2799 134.5 83.4107 132.965 85.1267 116.843C86.8426 100.72 89.9621 101.449 104.215 94.7433C104.215 94.7433 115.855 94.689 119.102 98.1798C122.348 101.671 124.232 94.7569 124.232 94.7569C124.232 94.7569 139.399 75.6776 158.333 79.689C177.268 83.7005 143.555 98.8861 143.555 98.8861C143.555 98.8861 121.8 99.1849 127.428 107.258C127.428 107.258 130.701 113.329 128.818 118.386C126.935 123.444 126.957 131.557 125.712 131.793C124.467 132.028 105.89 136.076 105.89 136.076L99.2799 134.5Z" fill="white"/>
<path d="M247.559 195.659H203.478C188.734 195.681 174.586 189.84 164.151 179.423C164.148 180.499 164.034 181.571 163.812 182.624V153.258C149.324 136.338 132.445 144.945 130.176 146.218C129.171 136.605 128.284 129.013 128.284 129.013C128.284 129.013 125.843 108.394 144.95 100.847C145.104 100.779 145.258 100.72 145.403 100.665C154.345 97.2923 162.444 98.9585 169.204 102.273C169.317 102.341 169.431 102.386 169.544 102.454C176.684 106.04 182.284 111.432 185.744 114.579C186.11 114.9 186.45 115.213 186.771 115.484C190.33 118.59 199.612 127.763 210.039 135.157L210.211 135.283C217.871 140.685 226.139 145.131 233.197 145.511C233.211 145.538 251.086 163.518 247.559 195.659Z" fill="#2E2E2E"/>
<path d="M243.946 142.885C239.839 144.511 236.312 145.425 232.885 145.538C231.092 145.597 229.299 145.421 227.551 145.013C222.413 143.886 217.025 140.78 209.894 135.293L209.726 135.166C203.573 130.453 196.143 123.974 186.454 115.493C186.133 115.213 185.793 114.9 185.427 114.588C184.48 113.768 183.507 112.922 182.52 112.048C178.437 108.39 173.978 105.174 169.218 102.454C169.105 102.386 168.991 102.341 168.878 102.273C168.425 102.006 167.95 101.766 167.484 101.526C166.435 100.985 165.351 100.517 164.237 100.127C161.51 99.1512 158.64 98.6327 155.744 98.5918L153.964 98.6371C131.023 99.3117 125.97 104.645 125.97 104.645C128.304 107.829 129.737 111.582 130.117 115.511C128.225 115.204 126.337 115.792 126.011 117.884C125.617 120.451 125.024 122.805 122.638 124.318C121.183 125.168 119.464 125.444 117.816 125.092C117.816 125.092 117.784 125.092 117.771 125.092C117.291 124.951 116.824 124.838 116.412 124.752C116.229 124.709 116.049 124.653 115.874 124.585C111.065 122.833 108.258 123.512 109.173 128.66C110.246 134.713 102.345 135.505 97.1384 134.573C87.9519 130.439 85.4391 114.312 92.7195 104.378C92.9051 104.125 93.1134 103.857 93.3262 103.586C93.539 103.314 93.7789 103.065 93.9917 102.812C94.5352 102.221 95.1143 101.665 95.7258 101.145C95.9386 100.964 96.1514 100.779 96.3732 100.611C96.5951 100.444 96.912 100.199 97.1791 100.004C97.4392 99.7974 97.713 99.6084 97.9986 99.4384C102.978 96.1631 109.083 95.0762 114.887 96.4321C117.203 97.2549 119.377 98.4309 121.334 99.9184C121.334 99.9184 121.515 99.6377 121.882 99.1306C122.733 99.6345 123.553 100.191 124.336 100.797C124.336 100.797 138.122 79.7705 158.116 80.0105C159.727 80.0245 161.332 80.2143 162.902 80.5765C178.495 86.0911 189.076 105.958 198.615 109.005C199.339 109.236 200.073 109.429 200.816 109.585C208.196 111.165 216.45 109.444 223.775 108.978C228.602 108.67 233.555 108.783 238.223 110.078C238.802 110.237 239.396 110.431 239.975 110.644H240.002C246.522 112.985 252.942 118.178 254.536 125.078C256.324 132.725 250.506 139.879 243.946 142.885Z" fill="#774FE6"/>
<path d="M380.793 80.7213C380.392 82.3506 379.268 83.7068 377.741 84.4023L365.041 90.4557L336.753 100.828L339.469 91.3883C340.313 90.1517 341.515 89.2035 342.915 88.6718L367.486 79.2589L373.521 76.9045C375.993 76.0043 378.756 76.9653 380.136 79.2046C380.432 79.6734 380.653 80.185 380.793 80.7213Z" fill="#774FE6"/>
<path d="M367.499 76.565L373.544 74.188C376.335 73.1652 379.436 74.5309 380.565 77.2806C381.695 80.0303 380.45 83.1811 377.745 84.4158L365.046 90.4647L346.165 181.922C343.984 190.025 336.637 195.657 328.245 195.659H203.139C188.394 195.681 174.247 189.84 163.812 179.423" stroke="black" stroke-width="2"/>
<path d="M323.881 134.265L323.487 135.351C316.319 154.499 315.5 165.686 315.5 165.686" stroke="black" stroke-width="2"/>
<path d="M133.518 183.127L127.944 126.264C127.935 115.231 134.485 105.249 144.61 100.865C151.943 97.6104 160.357 97.8602 167.484 101.544C167.936 101.784 168.412 102.024 168.878 102.291C168.991 102.363 169.105 102.404 169.218 102.472C173.974 105.19 178.43 108.402 182.511 112.057C183.498 112.931 184.471 113.777 185.418 114.597C185.784 114.918 186.124 115.231 186.445 115.502C196.125 123.983 203.564 130.443 209.717 135.175L209.885 135.302C219.506 142.695 225.944 145.756 232.871 145.529C237.245 145.389 241.804 143.922 247.473 141.409C268.639 132.01 304.213 138.149 316.433 161.67" stroke="black" stroke-width="2"/>
<path d="M147.544 195.632C147.843 195.632 148.124 195.659 148.404 195.659C156.906 195.659 163.798 188.767 163.798 180.265V136.411" stroke="black" stroke-width="2"/>
<path d="M130.104 115.511C128.451 98.8181 108.856 89.3645 94.9968 98.5238C94.7705 98.6506 94.5441 98.8046 94.3358 98.9766L94.1638 99.1034C93.8966 99.3026 93.6295 99.5018 93.3624 99.7101C92.5108 100.382 91.713 101.119 90.9763 101.915C90.7499 102.169 90.5236 102.436 90.3108 102.689C90.098 102.943 89.8897 103.228 89.7041 103.482" stroke="black" stroke-width="2"/>
<path d="M97.1701 134.532C99.7287 137.083 102.743 139.132 106.058 140.572C119.351 145.932 125.803 135.804 125.803 135.804" stroke="black" stroke-width="2"/>
<path d="M240.265 144.257C240.672 144.112 241.084 143.972 241.478 143.845L241.605 143.804C241.711 143.773 241.816 143.735 241.917 143.691C242.266 143.578 242.606 143.451 242.959 143.311L243.624 143.044C250.312 140.114 256.356 132.857 254.554 125.074C252.806 117.558 245.34 112.061 238.255 110.078C233.587 108.783 228.633 108.67 223.807 108.978C215.734 109.485 206.548 111.532 198.634 109.005C187.586 105.478 175.126 79.3766 155.132 79.1231C135.139 78.8695 121.334 99.9138 121.334 99.9138" stroke="black" stroke-width="2"/>
<path d="M125.966 104.654C125.966 104.654 130.104 99.049 154.566 98.5963" stroke="black" stroke-width="2"/>
<path d="M323.487 135.351L335.621 101.245L336.567 98.5782L339.6 90.0437C339.832 89.3944 340.16 88.7838 340.574 88.2326C341.419 86.9975 342.621 86.0498 344.019 85.5161L367.499 76.5559" stroke="black" stroke-width="2"/>
<path d="M311.946 79.1231L305.539 89.7765L288.819 112.27L286.591 102.037C286.626 100.551 287.109 99.1102 287.977 97.9036L302.624 77.4705L304.204 75.4965C305.765 73.3737 308.606 72.6463 310.995 73.7579C311.614 74.0426 312.17 74.4456 312.634 74.9441C312.969 76.3732 312.721 77.8767 311.946 79.1231Z" fill="#774FE6"/>
<path d="M325.859 128.714L305.548 89.7765L311.946 79.1186C313.094 77.276 313.06 74.9329 311.86 73.124C311.302 72.2764 310.518 71.602 309.596 71.1772C307.211 70.0692 304.375 70.7875 302.805 72.8976L301.22 74.8898" stroke="black" stroke-width="2"/>
<path d="M301.206 74.8898L286.56 95.3048C285.7 96.5208 285.227 97.9676 285.201 99.4566C285.167 100.149 285.232 100.843 285.396 101.517L287.569 110.305L288.248 113.057L295.601 142.804" stroke="black" stroke-width="2"/>
<path d="M94.9923 98.5148C81.6631 106.782 83.1889 128.85 94.209 133.703C98.4197 135.56 110.508 136.012 109.15 128.614C108.245 123.485 111.047 122.805 115.86 124.539C124.186 127.555 125.948 119.496 125.948 118.939" stroke="black" stroke-width="2"/>
<path d="M123.331 138.489L128.777 140.11" stroke="black" stroke-width="2"/>
<path d="M80.3682 163.748L75.1524 174.511C74.3955 176.069 72.5507 176.761 70.9553 176.086C70.0979 175.724 69.4371 175.011 69.1401 174.129C68.8432 173.247 68.9387 172.28 69.4023 171.473L70.4165 169.702C70.4485 169.611 70.4863 169.522 70.5297 169.435L71.2315 168.018L77.1989 155.993C78.6672 152.997 81.5554 150.951 84.8686 150.56H85.0044" stroke="black" stroke-width="2"/>
<path d="M91.9045 162.906L84.2076 165.134C83.3304 165.389 82.388 165.284 81.5879 164.843C80.7879 164.402 80.196 163.662 79.9426 162.784C79.688 161.907 79.7926 160.964 80.2333 160.164C80.6741 159.364 81.4149 158.773 82.2924 158.519L93.213 155.35" stroke="black" stroke-width="2"/>
<path d="M85.9688 164.613C86.2585 165.782 86.078 167.017 85.4663 168.054C84.0265 170.413 80.3818 171.224 77.5339 170.744" stroke="black" stroke-width="2"/>
<path d="M71.2224 168.018C68.2433 165.985 67.6366 162.232 68.5557 158.931C72.2955 145.271 87.9021 148.518 98.2567 150.917C104.428 152.383 110.481 154.307 116.367 156.672C121.239 158.619 126.006 161.231 131.254 161.951" stroke="black" stroke-width="2"/>
<path d="M85.4708 168.059C85.4708 168.059 86.5438 168.439 88.3775 169.159C96.3101 172.276 103.858 176.296 110.871 181.139C114.316 183.511 118.758 185.119 123.756 186.192" stroke="black" stroke-width="2"/>
<path d="M132.526 175.955C129.178 175.385 125.871 177.165 124.503 180.274C121.637 186.16 125.64 193.128 132.114 194.124C137.507 195 142.952 195.513 148.413 195.659" stroke="black" stroke-width="2"/>
<path d="M130.19 146.426L129.936 146.372C129.936 146.372 130.018 146.317 130.19 146.218C130.176 146.285 130.19 146.372 130.19 146.426Z" fill="#2E2E2E"/>
<path fill-rule="evenodd" clip-rule="evenodd" d="M42.4404 179.641C42.8241 177.621 44.7722 176.295 46.7914 176.679L109.486 188.593C111.505 188.977 112.831 190.925 112.447 192.944V192.944C112.064 194.964 110.116 196.29 108.096 195.906L45.4018 183.992C43.3825 183.608 42.0566 181.66 42.4404 179.641V179.641Z" stroke="black" stroke-width="2"/>
<path d="M52.528 185.35V195.659" stroke="black" stroke-width="2"/>
<path d="M4.76178 195.659H389.526" stroke="black" stroke-width="2"/>
</svg>
