<svg width="538" height="451" viewBox="0 0 538 451" fill="none" xmlns="http://www.w3.org/2000/svg">
<path d="M363.808 105.004L407.916 51.8204L452.024 105.004V310.957" stroke="#CCDDE2" stroke-width="4.01"/>
<g opacity="0.81">
<path fill-rule="evenodd" clip-rule="evenodd" d="M423.863 113.892H435.715V125.744H423.863V113.892Z" stroke="#CCDDE2" stroke-width="4.01"/>
<path fill-rule="evenodd" clip-rule="evenodd" d="M401.449 113.892H413.301V125.744H401.449V113.892Z" stroke="#CCDDE2" stroke-width="4.01"/>
<path fill-rule="evenodd" clip-rule="evenodd" d="M379.042 113.892H390.894V125.744H379.042V113.892Z" stroke="#CCDDE2" stroke-width="4.01"/>
</g>
<g opacity="0.46">
<path fill-rule="evenodd" clip-rule="evenodd" d="M423.863 141.422H435.715V153.274H423.863V141.422Z" stroke="#CCDDE2" stroke-width="4.01"/>
<path fill-rule="evenodd" clip-rule="evenodd" d="M401.449 141.422H413.301V153.274H401.449V141.422Z" stroke="#CCDDE2" stroke-width="4.01"/>
<path fill-rule="evenodd" clip-rule="evenodd" d="M379.042 141.422H390.894V153.274H379.042V141.422Z" stroke="#CCDDE2" stroke-width="4.01"/>
</g>
<g opacity="0.25">
<path fill-rule="evenodd" clip-rule="evenodd" d="M423.863 170.115H435.715V181.967H423.863V170.115Z" stroke="#CCDDE2" stroke-width="4.01"/>
<path fill-rule="evenodd" clip-rule="evenodd" d="M401.449 170.115H413.301V181.967H401.449V170.115Z" stroke="#CCDDE2" stroke-width="4.01"/>
<path fill-rule="evenodd" clip-rule="evenodd" d="M379.042 170.115H390.894V181.967H379.042V170.115Z" stroke="#CCDDE2" stroke-width="4.01"/>
</g>
<g opacity="0.25">
<path fill-rule="evenodd" clip-rule="evenodd" d="M423.863 194.767H435.715V206.62H423.863V194.767Z" stroke="#CCDDE2" stroke-width="4.01"/>
<path fill-rule="evenodd" clip-rule="evenodd" d="M401.449 194.767H413.301V206.62H401.449V194.767Z" stroke="#CCDDE2" stroke-width="4.01"/>
<path fill-rule="evenodd" clip-rule="evenodd" d="M379.042 194.767H390.894V206.62H379.042V194.767Z" stroke="#CCDDE2" stroke-width="4.01"/>
</g>
<path d="M468.435 278.675V28.8015H582.904V311.435" stroke="#CCDDE2" stroke-width="4.01"/>
<path fill-rule="evenodd" clip-rule="evenodd" d="M479.81 51.8204V66.4425H494.432V39.605H479.81V51.8204ZM482.21 42.0051H492.025V51.8204H482.21V42.0051ZM492.025 54.2271H482.21V64.0155H492.025V54.2271Z" fill="#D7E8F0"/>
<path fill-rule="evenodd" clip-rule="evenodd" d="M505.598 51.8204V66.4425H520.214V39.605H505.598V51.8204ZM507.998 42.0051H517.814V51.8204H507.998V42.0051ZM517.814 54.2271H507.998V64.0155H517.814V54.2271Z" fill="#D7E8F0"/>
<path fill-rule="evenodd" clip-rule="evenodd" d="M530.674 51.8204V66.4425H545.29V39.605H530.674V51.8204ZM533.074 42.0051H542.89V51.8204H533.074V42.0051ZM542.89 54.2271H533.074V64.0155H542.89V54.2271Z" fill="#D7E8F0"/>
<path fill-rule="evenodd" clip-rule="evenodd" d="M479.81 87.9218V102.544H494.432V75.7065H479.81V87.9218ZM482.21 78.1065H492.025V87.9218H482.21V78.1065ZM492.025 90.3218H482.21V100.144H492.025V90.3218Z" fill="#D7E8F0"/>
<path fill-rule="evenodd" clip-rule="evenodd" d="M505.598 87.9218V102.544H520.214V75.7065H505.598V87.9218ZM507.998 78.1065H517.814V87.9218H507.998V78.1065ZM517.814 90.3218H507.998V100.144H517.814V90.3218Z" fill="#D7E8F0"/>
<path fill-rule="evenodd" clip-rule="evenodd" d="M530.674 87.9218V102.544H545.29V75.7065H530.674V87.9218ZM533.074 78.1065H542.89V87.9218H533.074V78.1065ZM542.89 90.3218H533.074V100.144H542.89V90.3218Z" fill="#D7E8F0"/>
<path fill-rule="evenodd" clip-rule="evenodd" d="M479.81 124.023V138.639H494.432V111.808H479.81V124.023ZM482.21 114.208H492.025V124.023H482.21V114.208ZM492.025 126.43H482.21V136.245H492.025V126.43Z" fill="#D7E8F0"/>
<path fill-rule="evenodd" clip-rule="evenodd" d="M505.598 124.023V138.639H520.214V111.808H505.598V124.023ZM507.998 114.208H517.814V124.023H507.998V114.208ZM517.814 126.43H507.998V136.245H517.814V126.43Z" fill="#D7E8F0"/>
<path fill-rule="evenodd" clip-rule="evenodd" d="M530.674 124.023V138.639H545.29V111.808H530.674V124.023ZM533.074 114.208H542.89V124.023H533.074V114.208ZM542.89 126.43H533.074V136.245H542.89V126.43Z" fill="#D7E8F0"/>
<path fill-rule="evenodd" clip-rule="evenodd" d="M479.81 160.152V174.767H494.432V147.909H479.81V160.152ZM482.21 150.336H492.025V160.152H482.21V150.336ZM492.025 162.552H482.21V172.367H492.025V162.552Z" fill="#D7E8F0"/>
<path fill-rule="evenodd" clip-rule="evenodd" d="M505.598 160.152V174.767H520.214V147.909H505.598V160.152ZM507.998 150.336H517.814V160.152H507.998V150.336ZM517.814 162.552H507.998V172.367H517.814V162.552Z" fill="#D7E8F0"/>
<path fill-rule="evenodd" clip-rule="evenodd" d="M530.674 160.152V174.767H545.29V147.909H530.674V160.152ZM533.074 150.336H542.89V160.152H533.074V150.336ZM542.89 162.552H533.074V172.367H542.89V162.552Z" fill="#D7E8F0"/>
<path fill-rule="evenodd" clip-rule="evenodd" d="M479.81 196.226V210.848H494.432V184.011H479.81V196.226ZM482.21 186.418H492.025V196.226H482.21V186.418ZM492.025 198.633H482.21V208.448H492.025V198.633Z" fill="#D7E8F0"/>
<path fill-rule="evenodd" clip-rule="evenodd" d="M505.598 196.226V210.848H520.214V184.011H505.598V196.226ZM507.998 186.418H517.814V196.226H507.998V186.418ZM517.814 198.633H507.998V208.448H517.814V198.633Z" fill="#D7E8F0"/>
<path fill-rule="evenodd" clip-rule="evenodd" d="M530.674 196.226V210.848H545.29V184.011H530.674V196.226ZM533.074 186.418H542.89V196.226H533.074V186.418ZM542.89 198.633H533.074V208.448H542.89V198.633Z" fill="#D7E8F0"/>
<path d="M206.427 311.509V198.371C206.426 182.598 200.914 167.322 190.844 155.183C187.248 150.85 181.91 148.342 176.279 148.342C170.648 148.342 165.309 150.85 161.714 155.183C151.643 167.322 146.131 182.598 146.13 198.371V311.717" stroke="#CCDDE2" stroke-width="4.01"/>
<g opacity="0.81">
<path fill-rule="evenodd" clip-rule="evenodd" d="M165.384 188.132H157.283V180.031H165.384V188.132Z" stroke="#CCDDE2" stroke-width="4.01"/>
<path fill-rule="evenodd" clip-rule="evenodd" d="M180.692 188.132H172.591V180.031H180.692V188.132Z" stroke="#CCDDE2" stroke-width="4.01"/>
<path fill-rule="evenodd" clip-rule="evenodd" d="M196.007 188.132H187.906V180.031H196.007V188.132Z" stroke="#CCDDE2" stroke-width="4.01"/>
</g>
<g opacity="0.46">
<path fill-rule="evenodd" clip-rule="evenodd" d="M165.384 206.949H157.283V198.848H165.384V206.949Z" stroke="#CCDDE2" stroke-width="4.01"/>
<path fill-rule="evenodd" clip-rule="evenodd" d="M180.692 206.949H172.591V198.848H180.692V206.949Z" stroke="#CCDDE2" stroke-width="4.01"/>
<path fill-rule="evenodd" clip-rule="evenodd" d="M196.007 206.949H187.906V198.848H196.007V206.949Z" stroke="#CCDDE2" stroke-width="4.01"/>
</g>
<g opacity="0.25">
<path fill-rule="evenodd" clip-rule="evenodd" d="M165.384 226.559H157.283V218.458H165.384V226.559Z" stroke="#CCDDE2" stroke-width="4.01"/>
<path fill-rule="evenodd" clip-rule="evenodd" d="M180.692 226.559H172.591V218.458H180.692V226.559Z" stroke="#CCDDE2" stroke-width="4.01"/>
<path fill-rule="evenodd" clip-rule="evenodd" d="M196.007 226.559H187.906V218.458H196.007V226.559Z" stroke="#CCDDE2" stroke-width="4.01"/>
</g>
<g opacity="0.25">
<path fill-rule="evenodd" clip-rule="evenodd" d="M165.384 243.407H157.283V235.306H165.384V243.407Z" stroke="#CCDDE2" stroke-width="4.01"/>
<path fill-rule="evenodd" clip-rule="evenodd" d="M180.692 243.407H172.591V235.306H180.692V243.407Z" stroke="#CCDDE2" stroke-width="4.01"/>
<path fill-rule="evenodd" clip-rule="evenodd" d="M196.007 243.407H187.906V235.306H196.007V243.407Z" stroke="#CCDDE2" stroke-width="4.01"/>
</g>
<path d="M56.6833 312.026V121.879H134.923V311.757" stroke="#CCDDE2" stroke-width="4.01"/>
<path fill-rule="evenodd" clip-rule="evenodd" d="M127.145 137.61V147.6H117.155V129.26H127.145V137.61ZM125.498 130.887H118.795V137.61H125.518L125.498 130.887ZM118.795 139.237H125.498L125.518 145.96H118.795V139.237Z" fill="#D7E8F0"/>
<path fill-rule="evenodd" clip-rule="evenodd" d="M109.518 137.61V147.6H99.5277V129.26H109.518V137.61ZM107.877 130.887H101.155V137.61H107.877V130.887ZM101.155 139.237H107.877V145.96H101.155V139.237Z" fill="#D7E8F0"/>
<path fill-rule="evenodd" clip-rule="evenodd" d="M92.3814 137.61V147.6H82.3914V129.26H92.3814V137.61ZM90.7411 130.887H84.0183V137.61H90.7411V130.887ZM84.0183 139.237H90.7411V145.96H84.0183V139.237Z" fill="#D7E8F0"/>
<path fill-rule="evenodd" clip-rule="evenodd" d="M76.2467 129.26V147.6H66.2566V129.26H76.2467ZM67.897 145.96H74.6198V139.237H67.897V145.96ZM74.6198 137.61H67.897V130.887H74.6198V137.61Z" fill="#D7E8F0"/>
<path fill-rule="evenodd" clip-rule="evenodd" d="M127.145 162.283V172.253H117.155V153.94H127.145V162.283ZM125.498 155.56H118.795V162.283H125.518L125.498 155.56ZM118.795 163.91H125.498L125.518 170.632H118.795V163.91Z" fill="#D7E8F0"/>
<path fill-rule="evenodd" clip-rule="evenodd" d="M109.518 162.283V172.253H99.5277V153.94H109.518V162.283ZM107.877 155.56H101.155V162.283H107.877V155.56ZM101.155 163.91H107.877V170.632H101.155V163.91Z" fill="#D7E8F0"/>
<path fill-rule="evenodd" clip-rule="evenodd" d="M92.3814 162.283V172.253H82.3914V153.94H92.3814V162.283ZM90.7411 155.56H84.0183V162.283H90.7411V155.56ZM84.0183 163.91H90.7411V170.632H84.0183V163.91Z" fill="#D7E8F0"/>
<path fill-rule="evenodd" clip-rule="evenodd" d="M76.2467 162.283V172.253H66.2566V153.94H76.2467V162.283ZM74.6063 155.56H67.8835V162.283H74.6063V155.56ZM67.8835 163.91H74.6063V170.632H67.8835V163.91Z" fill="#D7E8F0"/>
<path fill-rule="evenodd" clip-rule="evenodd" d="M127.145 186.962V196.952H117.155V178.612H127.145V186.962ZM125.498 180.239H118.795V186.962H125.518L125.498 180.239ZM118.795 188.589H125.498L125.518 195.312H118.795V188.589Z" fill="#D7E8F0"/>
<path fill-rule="evenodd" clip-rule="evenodd" d="M109.518 186.962V196.952H99.5277V178.612H109.518V186.962ZM107.877 180.239H101.155V186.962H107.877V180.239ZM101.155 188.589H107.877V195.312H101.155V188.589Z" fill="#D7E8F0"/>
<path fill-rule="evenodd" clip-rule="evenodd" d="M92.3814 186.962V196.952H82.3914V178.612H92.3814V186.962ZM90.7411 180.239H84.0183V186.962H90.7411V180.239ZM84.0183 188.589H90.7411V195.312H84.0183V188.589Z" fill="#D7E8F0"/>
<path fill-rule="evenodd" clip-rule="evenodd" d="M76.2467 186.962V196.952H66.2566V178.612H76.2467V186.962ZM74.6063 180.239H67.8835V186.962H74.6063V180.239ZM67.8835 188.589H74.6063V195.312H67.8835V188.589Z" fill="#D7E8F0"/>
<path fill-rule="evenodd" clip-rule="evenodd" d="M127.145 211.635V221.625H117.155V203.285H127.145V211.635ZM125.498 204.912H118.795V211.635H125.518L125.498 204.912ZM118.795 213.262H125.518V219.984H118.795V213.262Z" fill="#D7E8F0"/>
<path fill-rule="evenodd" clip-rule="evenodd" d="M109.518 211.635V221.625H99.5277V203.285H109.518V211.635ZM107.877 204.912H101.155V211.635H107.877V204.912ZM101.155 213.262H107.877V219.984H101.155V213.262Z" fill="#D7E8F0"/>
<path fill-rule="evenodd" clip-rule="evenodd" d="M92.3814 211.635V221.625H82.3914V203.285H92.3814V211.635ZM90.7411 204.912H84.0183V211.635H90.7411V204.912ZM84.0183 213.262H90.7411V219.984H84.0183V213.262Z" fill="#D7E8F0"/>
<path fill-rule="evenodd" clip-rule="evenodd" d="M76.2467 211.635V221.625H66.2566V203.285H76.2467V211.635ZM74.6063 204.912H67.8835V211.635H74.6063V204.912ZM67.8835 213.262H74.6063V219.984H67.8835V213.262Z" fill="#D7E8F0"/>
<path fill-rule="evenodd" clip-rule="evenodd" d="M127.145 236.307V246.298H117.155V227.958H127.145V236.307ZM125.498 229.585H118.795V236.307H125.518L125.498 229.585ZM118.795 237.934H125.498L125.518 244.657H118.795V237.934Z" fill="#D7E8F0"/>
<path fill-rule="evenodd" clip-rule="evenodd" d="M109.518 236.307V246.298H99.5277V227.958H109.518V236.307ZM107.877 229.585H101.155V236.307H107.877V229.585ZM101.155 237.934H107.877V244.657H101.155V237.934Z" fill="#D7E8F0"/>
<path fill-rule="evenodd" clip-rule="evenodd" d="M92.3814 236.307V246.298H82.3914V227.958H92.3814V236.307ZM90.7411 229.585H84.0183V236.307H90.7411V229.585ZM84.0183 237.934H90.7411V244.657H84.0183V237.934Z" fill="#D7E8F0"/>
<path fill-rule="evenodd" clip-rule="evenodd" d="M76.2467 236.307V246.298H66.2566V227.958H76.2467V236.307ZM74.6063 229.585H67.8835V236.307H74.6063V229.585ZM67.8835 237.934H74.6063V244.657H67.8835V237.934Z" fill="#D7E8F0"/>
<path d="M260.014 104.386C260.014 104.386 258.112 130.269 229.439 127.875C229.439 127.875 239.483 153.63 246.69 158.189L282.899 181.107L291.571 140.561L260.014 104.386Z" fill="#2E2E2E"/>
<path d="M229.318 201.833L153.445 311.704L69.7726 311.993V310.46C69.7768 303.036 75.5293 296.884 82.9358 296.382L106.022 294.843L173.344 173.308C179.771 161.342 190.916 152.615 204.075 149.245C217.233 145.875 231.201 148.17 242.589 155.573L243.167 155.95L281.917 180.448L254.421 246.708L219.51 216.079" fill="white"/>
<path d="M485.921 265.827C478.936 285.27 466.156 288.423 451.211 287.421C443.392 277.175 434.128 263.219 426.639 252.792C417.935 240.623 409.218 228.473 400.487 216.341C398.262 213.221 396.037 210.122 393.765 207.003V253.746C393.772 256.159 393.613 258.569 393.287 260.96C350.705 297.35 289.884 251.689 281.588 245.094C280.963 244.617 280.653 244.348 280.653 244.348C276.68 215.554 280.969 193.779 281.884 177.315C283.134 155.318 287.208 148.326 290.825 141.563L292.324 137.771C295.134 132.534 295.013 131.23 295.39 130.981L295.275 130.02C295.275 130.02 296.734 128.38 296.734 128.339C304.95 114.779 311.276 103.465 324.876 95.3102C320.17 98.7791 316.916 107.183 321.904 111.774C327.706 117.119 335.606 110.799 340.365 107.068C346.448 102.476 351.786 96.9725 356.191 90.7521C357.582 88.7353 359.33 86.5907 359.061 84.0293C368.917 83.8881 377.253 87.3907 387.418 93.2664C400.272 100.709 410.518 111.936 417.509 125.059L485.921 265.827Z" fill="#2E2E2E"/>
<path d="M363.102 57.4675V57.6557C363.102 65.8241 356.48 72.4459 348.312 72.4459C345.798 72.4572 343.325 71.8106 341.138 70.5702C340.509 70.2435 339.911 69.861 339.35 69.4274C338.884 69.0464 338.634 68.4619 338.679 67.8619C338.725 67.2618 339.061 66.7218 339.579 66.4155C342.611 64.5869 345.461 61.9247 346.483 58.6171C346.795 57.6017 346.9 56.5342 346.792 55.4775C346.611 52.7306 344.979 50.2888 342.51 49.0707C342.129 48.926 341.731 48.8289 341.327 48.7816C340.184 48.5934 338.637 48.6136 338.288 49.4539C340.091 45.4471 340.523 40.9579 339.518 36.6806C338.892 34.0265 337.669 31.5501 335.942 29.4401C335.992 30.9804 335.353 32.4631 334.199 33.4838C333.044 34.5045 331.494 34.9569 329.972 34.7175C324.13 34.0453 323.484 28.3578 323.484 28.3578C323.484 28.3578 323.444 28.4183 323.444 28.4586C320.365 34.6167 312.903 34.1797 307.807 30.9124C306.001 29.7907 304.457 28.2962 303.276 26.5292C302.294 19.8736 308.203 14.0113 314.482 13.6147C314.96 9.48015 318.348 5.2784 322.462 5.2784C325.375 5.27011 328.061 6.84636 329.474 9.39275C329.583 9.58846 329.679 9.79051 329.763 9.9978C331.632 7.71205 334.59 5.29184 337.521 5.29184C341.732 5.29796 345.476 7.96882 346.853 11.9474C346.853 11.6516 349.542 10.697 349.804 10.6029C350.896 10.2856 352.029 10.1315 353.165 10.1457C357.193 10.2512 360.89 12.3963 362.981 15.8399C363.084 16.4303 363.134 17.0288 363.129 17.6282C363.13 19.4199 362.709 21.1867 361.898 22.7846C362.821 23.1272 363.67 23.6429 364.399 24.3039C365.967 25.6739 366.933 27.6058 367.088 29.6822V30.3074C367.091 31.8768 366.623 33.4109 365.744 34.7108C366.711 35.0769 367.626 35.5673 368.467 36.1697C370.971 37.9745 372.662 40.6949 373.173 43.7395C373.285 44.4059 373.342 45.0806 373.341 45.7564C373.34 51.6725 368.965 56.6767 363.102 57.4675Z" fill="#774FE6"/>
<path d="M363.102 57.4675V57.6557C363.102 65.8241 356.48 72.4459 348.312 72.4459C345.798 72.4572 343.325 71.8106 341.138 70.5702C344.17 68.7416 347.021 66.0794 348.043 62.7785C348.782 60.2827 348.32 57.5851 346.792 55.4775C346.611 52.7306 344.979 50.2888 342.51 49.0707C342.129 48.926 341.731 48.8289 341.327 48.7816C342.056 44.6586 341.421 40.4102 339.518 36.6806C338.892 34.0265 337.669 31.5501 335.942 29.4401C335.992 30.9804 335.353 32.4631 334.199 33.4838C333.044 34.5045 331.494 34.9569 329.972 34.7175C324.13 34.0453 323.484 28.3578 323.484 28.3578C323.484 28.3578 323.444 28.4183 323.444 28.4586C320.365 34.6167 312.903 34.1797 307.807 30.9124C306.001 29.7907 304.457 28.2962 303.276 26.5292C302.294 19.8736 308.203 14.0113 314.482 13.6147C314.96 9.48015 318.348 5.2784 322.462 5.2784C325.375 5.27011 328.061 6.84636 329.474 9.39275C329.583 9.58846 329.679 9.79051 329.763 9.9978C331.632 7.71205 334.59 5.29184 337.521 5.29184C341.732 5.29796 345.476 7.96882 346.853 11.9474C346.853 11.6516 349.542 10.697 349.804 10.6029C350.896 10.2856 352.029 10.1315 353.165 10.1457C357.193 10.2512 360.89 12.3963 362.981 15.8399C363.084 16.4303 363.134 17.0288 363.129 17.6282C363.13 19.4199 362.709 21.1867 361.898 22.7846C362.821 23.1272 363.67 23.6429 364.399 24.3039C364.201 25.2216 363.885 26.1097 363.458 26.946C364.904 27.4941 366.166 28.4376 367.102 29.6687V30.2939C367.105 31.8633 366.636 33.3974 365.757 34.6974C366.724 35.0634 367.64 35.5538 368.48 36.1562C368.254 37.114 367.86 38.0244 367.317 38.8453C369.777 39.7557 371.857 41.471 373.22 43.7126C373.332 44.379 373.389 45.0537 373.388 45.7295C373.397 51.6715 368.994 56.6969 363.102 57.4675Z" fill="#774FE6"/>
<path d="M324.916 449.326H229.318V447.477C229.313 439.881 235.32 433.642 242.912 433.359L265.473 432.425H318.745L324.916 449.326Z" fill="#774FE6"/>
<path d="M153.445 311.704L69.7726 311.495V309.646C69.7675 302.047 75.7786 295.807 83.3728 295.529L105.935 294.608L164.618 295.542L153.445 311.704Z" fill="#774FE6"/>
<path d="M291.921 311.226H336.291C365.203 311.147 389.586 289.665 393.307 260.994C393.633 258.601 393.792 256.188 393.785 253.773V207.016" stroke="black" stroke-width="2"/>
<path d="M308.035 244.187L282.025 245.081H281.588L265.164 245.41C261.546 245.483 257.943 245.908 254.408 246.681C225.089 253.02 206.353 282.399 212.612 311.468C213.534 315.8 214.979 320.003 216.914 323.986L265.473 432.425L242.912 433.339C235.32 433.621 229.313 439.86 229.318 447.457V449.306H324.916L318.745 432.425L274.32 311.058" stroke="black" stroke-width="2"/>
<path d="M229.318 201.86L153.445 311.704" stroke="black" stroke-width="2"/>
<path d="M254.394 246.708L219.483 216.079" stroke="black" stroke-width="2"/>
<path d="M327.895 311.186L327.666 310.978" stroke="black" stroke-width="2"/>
<path d="M243.14 155.95L220.478 109.522" stroke="black" stroke-width="2"/>
<path d="M518.6 311.058C518.6 311.099 518.641 311.119 518.661 311.166H499.474" stroke="black" stroke-width="2"/>
<path d="M297.077 311.267C297.077 311.166 297.017 311.058 296.996 310.978" stroke="black" stroke-width="2"/>
<path d="M359.068 84.6411C366.192 84.4512 373.263 85.9051 379.734 88.8899C394.824 95.9157 407.384 107.417 415.708 121.832C424.878 137.825 432.3 155.083 440.448 171.58C450.657 192.313 460.88 213.038 471.117 233.753C476.047 243.752 480.977 253.753 485.907 263.757L496.368 284.94C498.518 288.48 501.547 291.402 505.161 293.424C508.773 295.438 512.838 296.498 516.973 296.503C525.432 296.502 533.123 301.41 536.684 309.082L537.599 311.058H512.368" stroke="black" stroke-width="2"/>
<path d="M282.032 245.094C279.067 226.082 279.692 206.942 281.191 187.823C283.88 153.651 294.274 119.411 322.14 97.3068C322.859 96.7354 323.585 96.1707 324.338 95.6463" stroke="black" stroke-width="2"/>
<path d="M350.994 130.02C350.47 150.148 367.646 170.545 367.646 170.545C367.646 170.545 367.687 170.585 367.687 170.606C376.4 182.707 385.099 194.843 393.785 207.016C396.03 210.136 398.255 213.235 400.507 216.347C409.243 228.493 417.96 240.644 426.659 252.798C434.095 263.259 441.106 274.237 448.925 284.523C450.942 287.159 452.999 289.74 455.164 292.255C457.927 295.482 460.777 299.159 464.146 301.761C467.514 304.362 471.42 306.789 474.902 309.532C477.82 311.981 480.318 314.89 482.297 318.144C484.462 321.842 484.69 326.023 486.539 329.721C489.78 336.255 497.786 335.173 500.529 328.934C504.334 320.282 496.018 301.572 496.018 301.572" stroke="black" stroke-width="2"/>
<path d="M605.526 311.166H499.474" stroke="black" stroke-width="2"/>
<path d="M281.89 180.448L243.167 155.95L242.589 155.573C231.201 148.17 217.233 145.875 204.075 149.245C190.916 152.615 179.771 161.342 173.344 173.308L106.022 294.843L82.9224 296.382C75.5159 296.884 69.7634 303.036 69.7592 310.46V311.993" stroke="black" stroke-width="2"/>
<path d="M210.851 73.051C214.051 73.6762 215.261 73.4678 217.573 73.9249C217.937 73.9814 218.294 73.7911 218.449 73.4579C218.605 73.1247 218.522 72.7288 218.246 72.4862L210.595 65.0912C208.5 63.3065 207.053 60.8791 206.481 58.1869L206.413 57.9179C206.95 56.0552 208.456 54.6312 210.346 54.2002C211.972 53.9368 213.64 54.1516 215.146 54.8187C217.641 55.8003 220.988 56.6742 224.175 57.77C228.582 59.3235 232.285 62.4083 234.609 66.4626L234.905 66.987C244.064 82.9033 254.543 98.0222 266.233 112.184L291.107 142.753" stroke="black" stroke-width="2"/>
<path d="M214.824 112.655C211.897 112.655 209.312 110.746 208.451 107.949L202.05 88.2176L196.403 69.5753L189.042 45.5749C188.463 43.6867 188.832 41.635 190.033 40.0671C191.234 38.4992 193.118 37.6083 195.092 37.6756C197.67 37.751 199.922 39.4382 200.719 41.8908L210.864 73.051L221.184 103.915C221.845 105.95 221.491 108.178 220.233 109.907C218.974 111.637 216.963 112.659 214.824 112.655Z" fill="#774FE6"/>
<path fill-rule="evenodd" clip-rule="evenodd" d="M214.824 112.655C211.897 112.655 209.312 110.746 208.451 107.949L202.05 88.2176L196.403 69.5753L189.042 45.5749C188.463 43.6867 188.832 41.635 190.033 40.0671C191.234 38.4992 193.118 37.6083 195.092 37.6756C197.67 37.751 199.922 39.4382 200.719 41.8908L210.864 73.051L221.184 103.915C221.845 105.95 221.491 108.178 220.233 109.907C218.974 111.637 216.963 112.659 214.824 112.655V112.655Z" stroke="black" stroke-width="2"/>
<path d="M188.665 82.4494V82.4494C187.066 82.3849 185.517 81.8724 184.195 80.9704C182.736 79.8872 181.778 78.2599 181.539 76.4591C181.3 74.6582 181.799 72.8371 182.924 71.4106C183.925 70.1764 185.274 69.2721 186.796 68.8156C188.744 68.1763 190.85 68.2047 192.78 68.8963C194.834 69.7864 196.516 71.3617 197.539 73.3535" stroke="black" stroke-width="2"/>
<path d="M192.638 95.2765C191.032 95.2619 189.462 94.796 188.107 93.932C186.622 92.8851 185.624 91.2817 185.341 89.4872C185.057 87.6926 185.512 85.8596 186.601 84.4058C187.575 83.1459 188.906 82.2088 190.42 81.7167C192.347 81.0295 194.448 81.0058 196.39 81.6494C198.319 82.3217 200.222 83.5184 201.156 85.2999" stroke="black" stroke-width="2"/>
<path d="M204.847 96.89C202.47 93.7383 198.229 92.6502 194.628 94.2681C193.296 94.8409 192.166 95.7983 191.381 97.0177C190.509 98.4189 190.239 100.113 190.634 101.716C191.029 103.319 192.055 104.694 193.479 105.529L194.393 106.02C194.393 106.02 199.879 108.225 209.029 109.28" stroke="black" stroke-width="2"/>
<path d="M265.917 311.287H297.077C307.309 311.247 317.602 311.226 327.894 311.206C378.853 311.078 430 310.998 476.468 310.978" stroke="black" stroke-width="2"/>
<path d="M499.407 310.957H537.565C560.423 310.998 581.021 311.058 598.487 311.146" stroke="black" stroke-width="2"/>
<path d="M0.473999 312.268C1.69755 312.268 95.6823 311.852 212.598 311.495" stroke="black" stroke-width="2"/>
<path d="M359.068 84.036C359.337 86.6176 357.589 88.7823 356.197 90.7588C351.793 96.9792 346.455 102.483 340.372 107.075C335.612 110.779 327.713 117.099 321.911 111.781C316.923 107.189 320.143 98.7858 324.883 95.3169L324.943 95.2765" stroke="black" stroke-width="2"/>
<path d="M312.486 39.8807C312.486 39.8807 320.916 40.6941 322.261 47.948" stroke="black" stroke-width="2"/>
<path d="M308.56 61.0306C306.6 61.3446 304.598 61.2784 302.664 60.8356C301.923 60.6537 301.32 60.1185 301.051 59.4049C300.782 58.6913 300.883 57.8911 301.319 57.2658C303.336 54.4355 305.353 51.6388 307.578 48.9766C307.922 48.6413 308.156 48.2102 308.251 47.7396C308.251 47.7396 308.163 38.8723 310.496 32.2772" stroke="black" stroke-width="2"/>
<ellipse cx="314.177" cy="47.2912" rx="2.60172" ry="2.2118" transform="rotate(-78.13 314.177 47.2912)" fill="black"/>
<path d="M359.068 84.6411C355.969 75.6527 354.544 71.061 354.544 71.061" stroke="black" stroke-width="2" stroke-linecap="round" stroke-linejoin="round"/>
<path d="M324.95 81.636L324.903 112.655" stroke="black" stroke-width="2"/>
<path d="M305.467 61.2256C305.467 61.2256 307.632 79.0679 316.291 82.4495C324.95 85.831 333.548 75.3972 333.548 75.3972" stroke="black" stroke-width="2" stroke-linecap="round" stroke-linejoin="round"/>
<path d="M307.242 69.34C309.522 70.935 312.452 71.2713 315.034 70.2341" stroke="black" stroke-width="2" stroke-linecap="round" stroke-linejoin="round"/>
<path d="M328.957 9.14404C328.959 7.77391 328.602 6.4271 327.921 5.23809C326.107 2.09704 322.42 0.552876 318.909 1.46394C315.398 2.375 312.927 5.51726 312.869 9.14404" stroke="black" stroke-width="2" stroke-linecap="round"/>
<path d="M324.513 20.9896C324.497 17.0499 322.534 13.3731 319.269 11.1676C311.202 5.73558 299.578 14.0315 301.884 23.3829C302.691 26.6435 305.037 29.1511 307.8 30.9192C312.889 34.1865 320.358 34.6369 323.424 28.4721L323.471 28.3712C323.471 28.3712 324.143 34.0453 329.958 34.731C331.481 34.965 333.028 34.511 334.182 33.4917C335.337 32.4723 335.979 30.993 335.935 29.4536C340.554 35.0537 341.239 42.8992 338.295 49.4539C338.826 48.2707 341.73 48.7346 342.517 49.0842C346.026 50.6372 347.599 55.054 346.496 58.6171C345.468 61.9382 342.617 64.5802 339.599 66.429C339.08 66.7325 338.743 67.2708 338.696 67.8701C338.649 68.4693 338.898 69.0536 339.364 69.4341C343.836 72.8322 349.847 73.4039 354.879 70.9097C359.912 68.4155 363.097 63.2859 363.102 57.6692V57.481C368.486 56.807 372.716 52.5475 373.353 47.1588C373.99 41.7701 370.87 36.6418 365.791 34.731C366.67 33.4311 367.139 31.897 367.135 30.3276C367.135 25.8721 363.524 22.2602 359.068 22.2602" stroke="black" stroke-width="2" stroke-linecap="round" stroke-linejoin="round"/>
<path d="M328.957 4.99608C330.765 2.50192 332.661 1.11702 335.969 1.11702C340.186 1.11997 343.935 3.80235 345.3 7.79276C345.212 7.52385 347.989 6.52887 348.265 6.4482C349.357 6.13244 350.489 5.97843 351.626 5.99105C357.959 6.1663 363.033 11.2937 363.142 17.6282C363.141 19.4195 362.719 21.1856 361.912 22.7846" stroke="black" stroke-width="2" stroke-linecap="square" stroke-linejoin="round"/>
<path d="M363.102 57.4675V57.6558C363.102 65.8241 356.48 72.4459 348.312 72.4459C345.798 72.4572 343.325 71.8106 341.138 70.5703C340.509 70.2435 339.911 69.861 339.35 69.4274C338.884 69.0465 338.634 68.462 338.679 67.8619C338.725 67.2618 339.061 66.7218 339.579 66.4156C342.611 64.587 345.461 61.9247 346.483 58.6171C346.795 57.6017 346.9 56.5342 346.792 55.4776C346.611 52.7306 344.979 50.2888 342.51 49.0707C342.129 48.926 341.732 48.8289 341.327 48.7817C340.184 48.5934 338.638 48.6136 338.288 49.4539C340.091 45.4471 340.523 40.9579 339.518 36.6806C338.892 34.0265 337.669 31.5501 335.942 29.4402C335.993 30.9805 335.353 32.4631 334.199 33.4838C333.044 34.5045 331.494 34.9569 329.972 34.7176C324.13 34.0453 323.484 28.3578 323.484 28.3578C323.484 28.3578 323.444 28.4183 323.444 28.4586C320.365 34.6167 312.903 34.1797 307.807 30.9125C306.002 29.7907 304.457 28.2963 303.276 26.5292C302.294 19.8736 308.203 14.0113 314.483 13.6147C314.96 9.48017 318.348 5.27842 322.463 5.27842C325.375 5.27013 328.061 6.84638 329.474 9.39278C329.583 9.58848 329.679 9.79053 329.764 9.99783C331.632 7.71207 334.59 5.29187 337.522 5.29187C341.732 5.29798 345.476 7.96884 346.853 11.9474C346.853 11.6516 349.542 10.697 349.804 10.6029C350.896 10.2856 352.029 10.1315 353.166 10.1457C357.193 10.2513 360.89 12.3963 362.981 15.8399C363.084 16.4303 363.134 17.0289 363.129 17.6282C363.13 19.4199 362.709 21.1867 361.898 22.7846C362.821 23.1272 363.67 23.6429 364.399 24.3039C365.967 25.6739 366.933 27.6058 367.088 29.6822V30.3074C367.092 31.8768 366.623 33.4109 365.744 34.7108C366.711 35.0769 367.626 35.5673 368.467 36.1697C370.971 37.9746 372.662 40.6949 373.173 43.7396C373.285 44.4059 373.342 45.0806 373.341 45.7564C373.34 51.6725 368.965 56.6767 363.102 57.4675Z" fill="#774FE6"/>
<path d="M363.102 57.4675V57.6558C363.102 65.8241 356.48 72.4459 348.312 72.4459C345.798 72.4572 343.325 71.8106 341.138 70.5703C344.17 68.7417 347.021 66.0794 348.043 62.7785C348.782 60.2827 348.32 57.5851 346.792 55.4776C346.611 52.7306 344.979 50.2888 342.51 49.0707C342.129 48.926 341.732 48.8289 341.327 48.7817C342.056 44.6586 341.421 40.4102 339.518 36.6806C338.892 34.0265 337.669 31.5501 335.942 29.4402C335.993 30.9805 335.353 32.4631 334.199 33.4838C333.044 34.5045 331.494 34.9569 329.972 34.7176C324.13 34.0453 323.484 28.3578 323.484 28.3578C323.484 28.3578 323.444 28.4183 323.444 28.4586C320.365 34.6167 312.903 34.1797 307.807 30.9125C306.002 29.7907 304.457 28.2963 303.276 26.5292C302.294 19.8736 308.203 14.0113 314.483 13.6147C314.96 9.48017 318.348 5.27842 322.463 5.27842C325.375 5.27013 328.061 6.84638 329.474 9.39278C329.583 9.58848 329.679 9.79053 329.764 9.99783C331.632 7.71207 334.59 5.29187 337.522 5.29187C341.732 5.29798 345.476 7.96884 346.853 11.9474C346.853 11.6516 349.542 10.697 349.804 10.6029C350.896 10.2856 352.029 10.1315 353.166 10.1457C357.193 10.2513 360.89 12.3963 362.981 15.8399C363.084 16.4303 363.134 17.0289 363.129 17.6282C363.13 19.4199 362.709 21.1867 361.898 22.7846C362.821 23.1272 363.67 23.6429 364.399 24.3039C364.201 25.2216 363.885 26.1097 363.458 26.946C364.904 27.4942 366.167 28.4376 367.102 29.6687V30.294C367.105 31.8633 366.637 33.3974 365.757 34.6974C366.724 35.0634 367.64 35.5539 368.48 36.1562C368.254 37.1141 367.86 38.0244 367.317 38.8454C369.777 39.7557 371.857 41.471 373.22 43.7127C373.332 44.379 373.389 45.0537 373.388 45.7295C373.397 51.6716 368.994 56.6969 363.102 57.4675Z" fill="#774FE6"/>
<path d="M312.486 39.8807C312.486 39.8807 320.916 40.6941 322.261 47.948" stroke="black" stroke-width="2"/>
<path d="M308.56 61.0306C306.6 61.3446 304.598 61.2784 302.664 60.8356C301.923 60.6537 301.32 60.1185 301.051 59.4049C300.782 58.6913 300.883 57.8911 301.319 57.2658C303.336 54.4355 305.353 51.6388 307.578 48.9766C307.922 48.6413 308.156 48.2102 308.251 47.7396C308.251 47.7396 308.163 38.8722 310.496 32.2772" stroke="black" stroke-width="2"/>
<ellipse cx="314.177" cy="47.2912" rx="2.60172" ry="2.2118" transform="rotate(-78.13 314.177 47.2912)" fill="black"/>
<path d="M359.068 84.6411C355.969 75.6527 354.544 71.061 354.544 71.061" stroke="black" stroke-width="2" stroke-linecap="round" stroke-linejoin="round"/>
<path d="M324.95 81.636L324.903 112.655" stroke="black" stroke-width="2"/>
<path d="M305.467 61.2256C305.467 61.2256 307.632 79.0679 316.291 82.4495C324.95 85.831 333.548 75.3972 333.548 75.3972" stroke="black" stroke-width="2" stroke-linecap="round" stroke-linejoin="round"/>
<path d="M307.242 69.34C309.522 70.935 312.452 71.2713 315.034 70.2341" stroke="black" stroke-width="2" stroke-linecap="round" stroke-linejoin="round"/>
<path d="M328.957 9.14404C328.959 7.77391 328.602 6.4271 327.921 5.23809C326.107 2.09704 322.42 0.552876 318.909 1.46394C315.398 2.375 312.927 5.51726 312.869 9.14404" stroke="black" stroke-width="2" stroke-linecap="round"/>
<path d="M324.513 20.9896C324.497 17.0499 322.534 13.3731 319.269 11.1676C311.202 5.73558 299.578 14.0315 301.884 23.3829C302.691 26.6435 305.037 29.1511 307.8 30.9192C312.889 34.1865 320.358 34.6369 323.424 28.4721L323.471 28.3712C323.471 28.3712 324.143 34.0453 329.958 34.731C331.481 34.965 333.028 34.511 334.182 33.4917C335.337 32.4723 335.979 30.993 335.935 29.4536C340.554 35.0537 341.239 42.8992 338.295 49.4539C338.826 48.2707 341.73 48.7346 342.517 49.0842C346.026 50.6372 347.599 55.054 346.496 58.6171C345.468 61.9382 342.617 64.5802 339.599 66.429C339.08 66.7325 338.743 67.2708 338.696 67.8701C338.649 68.4693 338.898 69.0536 339.364 69.4341C343.836 72.8322 349.847 73.4039 354.879 70.9097C359.912 68.4155 363.097 63.2859 363.102 57.6692V57.481C368.486 56.807 372.716 52.5475 373.353 47.1588C373.99 41.7701 370.87 36.6418 365.791 34.731C366.67 33.4311 367.139 31.897 367.135 30.3276C367.135 25.8721 363.524 22.2602 359.068 22.2602" stroke="black" stroke-width="2" stroke-linecap="round" stroke-linejoin="round"/>
<path d="M328.957 4.99608C330.765 2.50192 332.661 1.11702 335.969 1.11702C340.186 1.11997 343.935 3.80235 345.3 7.79276C345.212 7.52385 347.989 6.52887 348.265 6.4482C349.357 6.13244 350.489 5.97843 351.626 5.99105C357.959 6.1663 363.033 11.2937 363.142 17.6282C363.141 19.4195 362.719 21.1856 361.912 22.7846" stroke="black" stroke-width="2" stroke-linecap="square" stroke-linejoin="round"/>
</svg>
