<svg width="412" height="473" viewBox="0 0 412 473" fill="none" xmlns="http://www.w3.org/2000/svg">
<path d="M390 423H114V27H390C399.9 27 408 34.8 408 44.7V404.7C408 414.7 399.9 423 390 423Z" fill="#A0D4A1" stroke="#A0D4A1" stroke-width="8" stroke-miterlimit="10" stroke-linecap="round" stroke-linejoin="round"/>
<path d="M351 431H337C334.2 431 332 428.8 332 426V24C332 21.2 334.2 19 337 19H351C353.8 19 356 21.2 356 24V426C356 428.8 353.8 431 351 431Z" fill="#A0D4A1" stroke="#A0D4A1" stroke-width="8" stroke-miterlimit="10" stroke-linecap="round" stroke-linejoin="round"/>
<path d="M175 468.7L145 452V423H175V468.7Z" fill="#A0D4A1" stroke="#A0D4A1" stroke-width="8" stroke-miterlimit="10" stroke-linecap="round" stroke-linejoin="round"/>
<path d="M380 408H104V12H380C389.9 12 398 19.8 398 29.7V389.7C398 399.7 389.9 408 380 408Z" fill="#FBFAFE"/>
<mask id="mask0_449_14914" style="mask-type:alpha" maskUnits="userSpaceOnUse" x="104" y="14" width="294" height="396">
<path d="M380 410H104V14H380C389.9 14 398 21.8 398 31.7V391.7C398 401.7 389.9 410 380 410Z" fill="white"/>
</mask>
<g mask="url(#mask0_449_14914)">
<path opacity="0.11" d="M78.3996 712.598C77.9996 712.598 77.5996 712.498 77.2996 712.198C76.6996 711.598 76.6996 710.698 77.2996 710.098L421.7 365.798C422.3 365.198 423.2 365.198 423.8 365.798C424.4 366.398 424.4 367.298 423.8 367.898L79.4996 712.198C79.1996 712.498 78.7996 712.598 78.3996 712.598Z" fill="#5F30E2"/>
<path opacity="0.11" d="M78.3996 698.598C77.9996 698.598 77.5996 698.498 77.2996 698.198C76.6996 697.598 76.6996 696.698 77.2996 696.098L421.7 351.798C422.3 351.198 423.2 351.198 423.8 351.798C424.4 352.398 424.4 353.298 423.8 353.898L79.4996 698.198C79.1996 698.498 78.7996 698.598 78.3996 698.598Z" fill="#5F30E2"/>
<path opacity="0.11" d="M78.3996 684.598C77.9996 684.598 77.5996 684.498 77.2996 684.198C76.6996 683.598 76.6996 682.698 77.2996 682.098L421.7 337.798C422.3 337.198 423.2 337.198 423.8 337.798C424.4 338.398 424.4 339.298 423.8 339.898L79.4996 684.198C79.1996 684.498 78.7996 684.598 78.3996 684.598Z" fill="#5F30E2"/>
<path opacity="0.11" d="M78.3996 670.598C77.9996 670.598 77.5996 670.498 77.2996 670.198C76.6996 669.598 76.6996 668.698 77.2996 668.098L421.7 323.798C422.3 323.198 423.2 323.198 423.8 323.798C424.4 324.398 424.4 325.298 423.8 325.898L79.4996 670.198C79.1996 670.498 78.7996 670.598 78.3996 670.598Z" fill="#5F30E2"/>
<path opacity="0.11" d="M78.3996 656.598C77.9996 656.598 77.5996 656.498 77.2996 656.198C76.6996 655.598 76.6996 654.698 77.2996 654.098L421.7 309.798C422.3 309.198 423.2 309.198 423.8 309.798C424.4 310.398 424.4 311.298 423.8 311.898L79.4996 656.198C79.1996 656.498 78.7996 656.598 78.3996 656.598Z" fill="#5F30E2"/>
<path opacity="0.11" d="M78.3996 642.598C77.9996 642.598 77.5996 642.498 77.2996 642.198C76.6996 641.598 76.6996 640.698 77.2996 640.098L421.7 295.798C422.3 295.198 423.2 295.198 423.8 295.798C424.4 296.398 424.4 297.298 423.8 297.898L79.4996 642.198C79.1996 642.498 78.7996 642.598 78.3996 642.598Z" fill="#5F30E2"/>
<path opacity="0.11" d="M78.3996 628.598C77.9996 628.598 77.5996 628.498 77.2996 628.198C76.6996 627.598 76.6996 626.698 77.2996 626.098L421.7 281.798C422.3 281.198 423.2 281.198 423.8 281.798C424.4 282.398 424.4 283.298 423.8 283.898L79.4996 628.198C79.1996 628.498 78.7996 628.598 78.3996 628.598Z" fill="#5F30E2"/>
<path opacity="0.11" d="M78.3996 614.598C77.9996 614.598 77.5996 614.498 77.2996 614.198C76.6996 613.598 76.6996 612.698 77.2996 612.098L421.7 267.798C422.3 267.198 423.2 267.198 423.8 267.798C424.4 268.398 424.4 269.298 423.8 269.898L79.4996 614.198C79.1996 614.498 78.7996 614.598 78.3996 614.598Z" fill="#5F30E2"/>
<path opacity="0.11" d="M78.3996 600.598C77.9996 600.598 77.5996 600.498 77.2996 600.198C76.6996 599.598 76.6996 598.698 77.2996 598.098L421.7 253.798C422.3 253.198 423.2 253.198 423.8 253.798C424.4 254.398 424.4 255.298 423.8 255.898L79.4996 600.198C79.1996 600.498 78.7996 600.598 78.3996 600.598Z" fill="#5F30E2"/>
<path opacity="0.11" d="M78.3996 586.598C77.9996 586.598 77.5996 586.498 77.2996 586.198C76.6996 585.598 76.6996 584.698 77.2996 584.098L421.7 239.798C422.3 239.198 423.2 239.198 423.8 239.798C424.4 240.398 424.4 241.298 423.8 241.898L79.4996 586.198C79.1996 586.498 78.7996 586.598 78.3996 586.598Z" fill="#5F30E2"/>
<path opacity="0.11" d="M78.3996 572.598C77.9996 572.598 77.5996 572.498 77.2996 572.198C76.6996 571.598 76.6996 570.698 77.2996 570.098L421.7 225.798C422.3 225.198 423.2 225.198 423.8 225.798C424.4 226.398 424.4 227.298 423.8 227.898L79.4996 572.198C79.1996 572.498 78.7996 572.598 78.3996 572.598Z" fill="#5F30E2"/>
<path opacity="0.11" d="M78.3996 558.598C77.9996 558.598 77.5996 558.498 77.2996 558.198C76.6996 557.598 76.6996 556.698 77.2996 556.098L421.7 211.798C422.3 211.198 423.2 211.198 423.8 211.798C424.4 212.398 424.4 213.298 423.8 213.898L79.4996 558.198C79.1996 558.498 78.7996 558.598 78.3996 558.598Z" fill="#5F30E2"/>
<path opacity="0.11" d="M78.3996 544.598C77.9996 544.598 77.5996 544.498 77.2996 544.198C76.6996 543.598 76.6996 542.698 77.2996 542.098L421.7 197.798C422.3 197.198 423.2 197.198 423.8 197.798C424.4 198.398 424.4 199.298 423.8 199.898L79.4996 544.198C79.1996 544.498 78.7996 544.598 78.3996 544.598Z" fill="#5F30E2"/>
<path opacity="0.11" d="M78.3996 530.598C77.9996 530.598 77.5996 530.498 77.2996 530.198C76.6996 529.598 76.6996 528.698 77.2996 528.098L421.7 183.798C422.3 183.198 423.2 183.198 423.8 183.798C424.4 184.398 424.4 185.298 423.8 185.898L79.4996 530.198C79.1996 530.498 78.7996 530.598 78.3996 530.598Z" fill="#5F30E2"/>
<path opacity="0.11" d="M78.3996 516.598C77.9996 516.598 77.5996 516.498 77.2996 516.198C76.6996 515.598 76.6996 514.698 77.2996 514.098L421.7 169.798C422.3 169.198 423.2 169.198 423.8 169.798C424.4 170.398 424.4 171.298 423.8 171.898L79.4996 516.198C79.1996 516.498 78.7996 516.598 78.3996 516.598Z" fill="#5F30E2"/>
<path opacity="0.11" d="M78.3996 502.598C77.9996 502.598 77.5996 502.498 77.2996 502.198C76.6996 501.598 76.6996 500.698 77.2996 500.098L421.7 155.798C422.3 155.198 423.2 155.198 423.8 155.798C424.4 156.398 424.4 157.298 423.8 157.898L79.4996 502.198C79.1996 502.498 78.7996 502.598 78.3996 502.598Z" fill="#5F30E2"/>
<path opacity="0.11" d="M78.3996 488.598C77.9996 488.598 77.5996 488.498 77.2996 488.198C76.6996 487.598 76.6996 486.698 77.2996 486.098L421.7 141.798C422.3 141.198 423.2 141.198 423.8 141.798C424.4 142.398 424.4 143.298 423.8 143.898L79.4996 488.198C79.1996 488.498 78.7996 488.598 78.3996 488.598Z" fill="#5F30E2"/>
<path opacity="0.11" d="M78.3996 474.598C77.9996 474.598 77.5996 474.498 77.2996 474.198C76.6996 473.598 76.6996 472.698 77.2996 472.098L421.7 127.798C422.3 127.198 423.2 127.198 423.8 127.798C424.4 128.398 424.4 129.298 423.8 129.898L79.4996 474.198C79.1996 474.498 78.7996 474.598 78.3996 474.598Z" fill="#5F30E2"/>
<path opacity="0.11" d="M78.3996 460.598C77.9996 460.598 77.5996 460.498 77.2996 460.198C76.6996 459.598 76.6996 458.698 77.2996 458.098L421.7 113.798C422.3 113.198 423.2 113.198 423.8 113.798C424.4 114.398 424.4 115.298 423.8 115.898L79.4996 460.198C79.1996 460.498 78.7996 460.598 78.3996 460.598Z" fill="#5F30E2"/>
<path opacity="0.11" d="M78.3996 446.598C77.9996 446.598 77.5996 446.498 77.2996 446.198C76.6996 445.598 76.6996 444.698 77.2996 444.098L421.7 99.7977C422.3 99.1977 423.2 99.1977 423.8 99.7977C424.4 100.398 424.4 101.298 423.8 101.898L79.4996 446.198C79.1996 446.498 78.7996 446.598 78.3996 446.598Z" fill="#5F30E2"/>
<path opacity="0.11" d="M78.3996 432.598C77.9996 432.598 77.5996 432.498 77.2996 432.198C76.6996 431.598 76.6996 430.698 77.2996 430.098L421.7 85.7977C422.3 85.1977 423.2 85.1977 423.8 85.7977C424.4 86.3977 424.4 87.2977 423.8 87.8977L79.4996 432.198C79.1996 432.498 78.7996 432.598 78.3996 432.598Z" fill="#5F30E2"/>
<path opacity="0.11" d="M78.3996 418.598C77.9996 418.598 77.5996 418.498 77.2996 418.198C76.6996 417.598 76.6996 416.698 77.2996 416.098L421.7 71.7977C422.3 71.1977 423.2 71.1977 423.8 71.7977C424.4 72.3977 424.4 73.2977 423.8 73.8977L79.4996 418.198C79.1996 418.498 78.7996 418.598 78.3996 418.598Z" fill="#5F30E2"/>
<path opacity="0.11" d="M78.3996 404.598C77.9996 404.598 77.5996 404.498 77.2996 404.198C76.6996 403.598 76.6996 402.698 77.2996 402.098L421.7 57.7977C422.3 57.1977 423.2 57.1977 423.8 57.7977C424.4 58.3977 424.4 59.2977 423.8 59.8977L79.4996 404.198C79.1996 404.498 78.7996 404.598 78.3996 404.598Z" fill="#5F30E2"/>
<path opacity="0.11" d="M78.3996 390.598C77.9996 390.598 77.5996 390.498 77.2996 390.198C76.6996 389.598 76.6996 388.698 77.2996 388.098L421.7 43.7977C422.3 43.1977 423.2 43.1977 423.8 43.7977C424.4 44.3977 424.4 45.2977 423.8 45.8977L79.4996 390.198C79.1996 390.498 78.7996 390.598 78.3996 390.598Z" fill="#5F30E2"/>
<path opacity="0.11" d="M78.3996 376.598C77.9996 376.598 77.5996 376.498 77.2996 376.198C76.6996 375.598 76.6996 374.698 77.2996 374.098L421.7 29.7977C422.3 29.1977 423.2 29.1977 423.8 29.7977C424.4 30.3977 424.4 31.2977 423.8 31.8977L79.4996 376.198C79.1996 376.498 78.7996 376.598 78.3996 376.598Z" fill="#5F30E2"/>
<path opacity="0.11" d="M78.3996 362.598C77.9996 362.598 77.5996 362.498 77.2996 362.198C76.6996 361.598 76.6996 360.698 77.2996 360.098L421.7 15.7977C422.3 15.1977 423.2 15.1977 423.8 15.7977C424.4 16.3977 424.4 17.2977 423.8 17.8977L79.4996 362.198C79.1996 362.498 78.7996 362.598 78.3996 362.598Z" fill="#5F30E2"/>
<path opacity="0.11" d="M78.3996 348.598C77.9996 348.598 77.5996 348.498 77.2996 348.198C76.6996 347.598 76.6996 346.698 77.2996 346.098L421.7 1.79766C422.3 1.19766 423.2 1.19766 423.8 1.79766C424.4 2.39766 424.4 3.29766 423.8 3.89766L79.4996 348.198C79.1996 348.498 78.7996 348.598 78.3996 348.598Z" fill="#5F30E2"/>
<path opacity="0.11" d="M78.3996 334.598C77.9996 334.598 77.5996 334.498 77.2996 334.198C76.6996 333.598 76.6996 332.698 77.2996 332.098L421.7 -12.2023C422.3 -12.8023 423.2 -12.8023 423.8 -12.2023C424.4 -11.6023 424.4 -10.7023 423.8 -10.1023L79.4996 334.198C79.1996 334.498 78.7996 334.598 78.3996 334.598Z" fill="#5F30E2"/>
<path opacity="0.11" d="M78.3996 320.598C77.9996 320.598 77.5996 320.498 77.2996 320.198C76.6996 319.598 76.6996 318.698 77.2996 318.098L421.7 -26.2023C422.3 -26.8023 423.2 -26.8023 423.8 -26.2023C424.4 -25.6023 424.4 -24.7024 423.8 -24.1024L79.4996 320.198C79.1996 320.498 78.7996 320.598 78.3996 320.598Z" fill="#5F30E2"/>
<path opacity="0.11" d="M78.3996 306.598C77.9996 306.598 77.5996 306.498 77.2996 306.198C76.6996 305.598 76.6996 304.698 77.2996 304.098L421.7 -40.2023C422.3 -40.8023 423.2 -40.8023 423.8 -40.2023C424.4 -39.6023 424.4 -38.7024 423.8 -38.1024L79.4996 306.198C79.1996 306.498 78.7996 306.598 78.3996 306.598Z" fill="#5F30E2"/>
<path opacity="0.11" d="M78.3996 292.598C77.9996 292.598 77.5996 292.498 77.2996 292.198C76.6996 291.598 76.6996 290.698 77.2996 290.098L421.7 -54.2023C422.3 -54.8023 423.2 -54.8023 423.8 -54.2023C424.4 -53.6023 424.4 -52.7024 423.8 -52.1024L79.4996 292.198C79.1996 292.498 78.7996 292.598 78.3996 292.598Z" fill="#5F30E2"/>
<path opacity="0.11" d="M78.3996 278.598C77.9996 278.598 77.5996 278.498 77.2996 278.198C76.6996 277.598 76.6996 276.698 77.2996 276.098L421.7 -68.2023C422.3 -68.8023 423.2 -68.8023 423.8 -68.2023C424.4 -67.6023 424.4 -66.7024 423.8 -66.1024L79.4996 278.198C79.1996 278.498 78.7996 278.598 78.3996 278.598Z" fill="#5F30E2"/>
<path opacity="0.11" d="M78.3996 264.598C77.9996 264.598 77.5996 264.498 77.2996 264.198C76.6996 263.598 76.6996 262.698 77.2996 262.098L421.7 -82.2023C422.3 -82.8023 423.2 -82.8023 423.8 -82.2023C424.4 -81.6023 424.4 -80.7024 423.8 -80.1024L79.4996 264.198C79.1996 264.498 78.7996 264.598 78.3996 264.598Z" fill="#5F30E2"/>
<path opacity="0.11" d="M78.3996 250.598C77.9996 250.598 77.5996 250.498 77.2996 250.198C76.6996 249.598 76.6996 248.698 77.2996 248.098L421.7 -96.2023C422.3 -96.8023 423.2 -96.8023 423.8 -96.2023C424.4 -95.6023 424.4 -94.7024 423.8 -94.1024L79.4996 250.198C79.1996 250.498 78.7996 250.598 78.3996 250.598Z" fill="#5F30E2"/>
<path opacity="0.11" d="M78.3996 236.598C77.9996 236.598 77.5996 236.498 77.2996 236.198C76.6996 235.598 76.6996 234.698 77.2996 234.098L421.7 -110.202C422.3 -110.802 423.2 -110.802 423.8 -110.202C424.4 -109.602 424.4 -108.702 423.8 -108.102L79.4996 236.198C79.1996 236.498 78.7996 236.598 78.3996 236.598Z" fill="#5F30E2"/>
<path opacity="0.11" d="M78.3996 222.598C77.9996 222.598 77.5996 222.498 77.2996 222.198C76.6996 221.598 76.6996 220.698 77.2996 220.098L421.7 -124.202C422.3 -124.802 423.2 -124.802 423.8 -124.202C424.4 -123.602 424.4 -122.702 423.8 -122.102L79.4996 222.198C79.1996 222.498 78.7996 222.598 78.3996 222.598Z" fill="#5F30E2"/>
<path opacity="0.11" d="M78.3996 208.598C77.9996 208.598 77.5996 208.498 77.2996 208.198C76.6996 207.598 76.6996 206.698 77.2996 206.098L421.7 -138.202C422.3 -138.802 423.2 -138.802 423.8 -138.202C424.4 -137.602 424.4 -136.702 423.8 -136.102L79.4996 208.198C79.1996 208.498 78.7996 208.598 78.3996 208.598Z" fill="#5F30E2"/>
<path opacity="0.11" d="M78.3996 194.6C77.9996 194.6 77.5996 194.5 77.2996 194.2C76.6996 193.6 76.6996 192.7 77.2996 192.1L421.7 -152.3C422.3 -152.9 423.2 -152.9 423.8 -152.3C424.4 -151.7 424.4 -150.8 423.8 -150.2L79.4996 194.2C79.1996 194.5 78.7996 194.6 78.3996 194.6Z" fill="#5F30E2"/>
<path opacity="0.11" d="M78.3996 180.6C77.9996 180.6 77.5996 180.5 77.2996 180.2C76.6996 179.6 76.6996 178.7 77.2996 178.1L421.7 -166.3C422.3 -166.9 423.2 -166.9 423.8 -166.3C424.4 -165.7 424.4 -164.8 423.8 -164.2L79.4996 180.2C79.1996 180.5 78.7996 180.6 78.3996 180.6Z" fill="#5F30E2"/>
<path opacity="0.11" d="M78.3996 166.598C77.9996 166.598 77.5996 166.498 77.2996 166.198C76.6996 165.598 76.6996 164.698 77.2996 164.098L421.7 -180.402C422.3 -181.002 423.2 -181.002 423.8 -180.402C424.4 -179.802 424.4 -178.902 423.8 -178.302L79.4996 166.198C79.1996 166.498 78.7996 166.598 78.3996 166.598Z" fill="#5F30E2"/>
<path opacity="0.11" d="M78.3996 152.598C77.9996 152.598 77.5996 152.498 77.2996 152.198C76.6996 151.598 76.6996 150.698 77.2996 150.098L421.7 -194.402C422.3 -195.002 423.2 -195.002 423.8 -194.402C424.4 -193.802 424.4 -192.902 423.8 -192.302L79.4996 152.198C79.1996 152.498 78.7996 152.598 78.3996 152.598Z" fill="#5F30E2"/>
<path opacity="0.11" d="M78.3996 138.598C77.9996 138.598 77.5996 138.498 77.2996 138.198C76.6996 137.598 76.6996 136.698 77.2996 136.098L421.7 -208.402C422.3 -209.002 423.2 -209.002 423.8 -208.402C424.4 -207.802 424.4 -206.902 423.8 -206.302L79.4996 138.198C79.1996 138.498 78.7996 138.598 78.3996 138.598Z" fill="#5F30E2"/>
<path opacity="0.11" d="M78.3996 124.598C77.9996 124.598 77.5996 124.498 77.2996 124.198C76.6996 123.598 76.6996 122.698 77.2996 122.098L421.7 -222.402C422.3 -223.002 423.2 -223.002 423.8 -222.402C424.4 -221.802 424.4 -220.902 423.8 -220.302L79.4996 124.198C79.1996 124.498 78.7996 124.598 78.3996 124.598Z" fill="#5F30E2"/>
<path opacity="0.11" d="M78.3996 110.598C77.9996 110.598 77.5996 110.498 77.2996 110.198C76.6996 109.598 76.6996 108.698 77.2996 108.098L421.7 -236.402C422.3 -237.002 423.2 -237.002 423.8 -236.402C424.4 -235.802 424.4 -234.902 423.8 -234.302L79.4996 110.198C79.1996 110.498 78.7996 110.598 78.3996 110.598Z" fill="#5F30E2"/>
<path opacity="0.11" d="M78.3996 96.5984C77.9996 96.5984 77.5996 96.4985 77.2996 96.1985C76.6996 95.5985 76.6996 94.6984 77.2996 94.0984L421.7 -250.402C422.3 -251.002 423.2 -251.002 423.8 -250.402C424.4 -249.802 424.4 -248.902 423.8 -248.302L79.4996 96.1985C79.1996 96.4985 78.7996 96.5984 78.3996 96.5984Z" fill="#5F30E2"/>
<path opacity="0.11" d="M78.3996 82.5984C77.9996 82.5984 77.5996 82.4985 77.2996 82.1985C76.6996 81.5985 76.6996 80.6984 77.2996 80.0984L421.7 -264.402C422.3 -265.002 423.2 -265.002 423.8 -264.402C424.4 -263.802 424.4 -262.902 423.8 -262.302L79.4996 82.1985C79.1996 82.4985 78.7996 82.5984 78.3996 82.5984Z" fill="#5F30E2"/>
<path opacity="0.11" d="M78.3996 68.5984C77.9996 68.5984 77.5996 68.4985 77.2996 68.1985C76.6996 67.5985 76.6996 66.6984 77.2996 66.0984L390.1 -246.902C390.7 -247.502 391.6 -247.502 392.2 -246.902C392.8 -246.302 392.8 -245.402 392.2 -244.802L79.4996 68.1985C79.1996 68.4985 78.7996 68.5984 78.3996 68.5984Z" fill="#5F30E2"/>
<path opacity="0.11" d="M78.3996 54.5984C77.9996 54.5984 77.5996 54.4985 77.2996 54.1985C76.6996 53.5985 76.6996 52.6984 77.2996 52.0984L370.7 -241.402C371.3 -242.002 372.2 -242.002 372.8 -241.402C373.4 -240.802 373.4 -239.902 372.8 -239.302L79.4996 54.1985C79.1996 54.4985 78.7996 54.5984 78.3996 54.5984Z" fill="#5F30E2"/>
</g>
<path d="M357 12H333V408H357V12Z" fill="#FBFAFE"/>
<path opacity="0.3" d="M121 12H104V408H121V12Z" fill="#F7F4FF"/>
<path d="M380 408H104V12H380C389.9 12 398 19.8 398 29.7V389.7C398 399.7 389.9 408 380 408Z" stroke="#5F30E2" stroke-width="8" stroke-miterlimit="10" stroke-linecap="round" stroke-linejoin="round"/>
<path d="M138 12H104V408H138V12Z" stroke="#5F30E2" stroke-width="8" stroke-miterlimit="10" stroke-linecap="round" stroke-linejoin="round"/>
<path d="M398 126H104V238H398V126Z" fill="#A0D4A1"/>
<path d="M235.2 160.399C235.2 162.499 234.8 164.199 234 165.499C233.2 166.799 232.3 167.799 231.3 168.599C229.8 169.799 227.8 170.299 225.1 170.299H214V149.699H222.6C223.9 149.699 225 149.799 225.9 149.899C226.8 149.999 227.6 150.199 228.4 150.499C229.2 150.799 229.8 150.999 230.3 151.299C230.8 151.599 231.3 151.899 231.7 152.299C232.4 152.899 233 153.599 233.5 154.299C234 154.999 234.5 155.999 234.8 156.999C235.1 158.099 235.2 159.199 235.2 160.399ZM228.9 160.199C228.9 158.499 228.6 157.199 227.9 156.299C227.3 155.399 226.5 154.699 225.6 154.399C224.7 154.099 223.8 153.899 222.9 153.899H220.3V166.099H222.9C224.5 166.099 225.9 165.699 227.1 164.899C228.3 164.099 228.9 162.599 228.9 160.199Z" fill="#F7F4FF"/>
<path d="M261.1 160.001C261.1 161.901 260.7 163.701 259.8 165.301C258.9 166.901 257.6 168.201 255.8 169.101C254 170.001 251.9 170.501 249.4 170.501C246.9 170.501 244.7 170.001 242.9 169.001C241.1 168.001 239.8 166.701 239 165.101C238.1 163.501 237.7 161.801 237.7 159.901C237.7 158.001 238.1 156.301 239 154.701C239.9 153.101 241.2 151.801 242.9 150.801C244.7 149.801 246.8 149.301 249.4 149.301C251.3 149.301 253 149.601 254.5 150.101C256 150.601 257.2 151.401 258.2 152.401C259.2 153.401 259.9 154.501 260.4 155.801C260.9 157.101 261.1 158.601 261.1 160.001ZM254.8 160.001C254.8 159.201 254.7 158.501 254.5 157.901C254.3 157.301 253.9 156.701 253.5 156.201C253 155.701 252.5 155.401 251.8 155.101C251.1 154.801 250.4 154.701 249.5 154.701C247.8 154.701 246.5 155.201 245.6 156.201C244.7 157.201 244.2 158.401 244.2 160.001C244.2 161.601 244.7 162.801 245.6 163.801C246.6 164.801 247.9 165.301 249.5 165.301C250.6 165.301 251.6 165.101 252.4 164.601C253.2 164.101 253.8 163.501 254.2 162.701C254.5 162.001 254.8 161.101 254.8 160.001Z" fill="#F7F4FF"/>
<path d="M282.9 154.801H275.4V170.401H269.2V154.801H261.7V149.801H283L282.9 154.801Z" fill="#F7F4FF"/>
<path d="M233.5 193.4C233.1 193.6 232.7 193.7 232.4 193.8C232.1 193.9 231.8 194 231.5 194.1C231.2 194.2 230.8 194.3 230.2 194.4C229.3 194.6 228.3 194.8 227.4 194.9C226.5 195 225.5 195.1 224.4 195.1C222.3 195.1 220.4 194.7 218.6 194C216.8 193.2 215.4 192.1 214.3 190.5C213.2 188.9 212.7 186.9 212.7 184.6C212.7 183.1 213 181.6 213.5 180.2C214 178.8 214.9 177.6 216 176.7C216.9 176 217.9 175.4 218.8 175C219.8 174.6 220.7 174.4 221.6 174.2C222.5 174.1 223.5 174 224.6 174C226.4 174 227.9 174.1 229.1 174.4C230.3 174.7 231.6 175 233 175.5V180.4C232.1 179.9 231.1 179.4 230 179C229 178.6 227.7 178.5 226.1 178.5C224.3 178.5 222.9 178.8 221.8 179.5C220.7 180.2 220 181 219.6 181.9C219.2 182.8 219 183.8 219 184.6C219 185.6 219.2 186.6 219.7 187.5C220.2 188.4 220.9 189.1 221.9 189.6C222.9 190.1 224.1 190.4 225.4 190.4C226.2 190.4 227 190.3 227.9 190.1V187.7H225.1V183.6H233.3V193.4H233.5Z" fill="#F7F4FF"/>
<path d="M258.3 194.899H251.6L250 191.199C249.4 189.899 248.9 188.899 248.4 188.299C247.9 187.699 247.5 187.299 247 187.099C246.5 186.899 246 186.799 245.3 186.799H244.6V194.799H238.4V174.199H249C250.7 174.199 252.1 174.499 253.2 175.199C254.3 175.899 255.1 176.699 255.6 177.699C256.1 178.699 256.3 179.599 256.3 180.499C256.3 181.499 256.1 182.399 255.7 183.099C255.3 183.799 254.9 184.299 254.4 184.699C254 184.999 253.5 185.299 252.9 185.599C253.6 185.999 254.1 186.399 254.5 186.999C254.9 187.599 255.5 188.599 256.3 190.199L258.3 194.899ZM249.9 180.799C249.9 179.799 249.6 179.199 249 178.799C248.4 178.399 247.4 178.199 246 178.199H244.7V183.199H246C247.5 183.199 248.6 182.999 249.1 182.699C249.6 182.399 249.9 181.699 249.9 180.799Z" fill="#F7F4FF"/>
<path d="M267.3 194.901H261.1V174.301H267.3V194.901Z" fill="#F7F4FF"/>
<path d="M293.7 184.899C293.7 186.999 293.3 188.699 292.5 189.999C291.7 191.299 290.8 192.299 289.8 193.099C288.3 194.299 286.3 194.799 283.6 194.799H272.5V174.199H281.1C282.4 174.199 283.5 174.299 284.4 174.399C285.3 174.499 286.1 174.699 286.9 174.999C287.7 175.299 288.3 175.499 288.8 175.799C289.3 176.099 289.8 176.399 290.2 176.799C290.9 177.399 291.5 178.099 292 178.799C292.5 179.499 293 180.499 293.3 181.499C293.5 182.599 293.7 183.699 293.7 184.899ZM287.4 184.699C287.4 182.999 287.1 181.699 286.4 180.799C285.8 179.899 285 179.199 284.1 178.899C283.2 178.599 282.3 178.399 281.4 178.399H278.8V190.599H281.4C283 190.599 284.4 190.199 285.6 189.399C286.8 188.599 287.4 187.099 287.4 184.699Z" fill="#F7F4FF"/>
<path d="M232.9 213.499C232.9 215.299 232.3 216.699 231.1 217.699C229.9 218.799 228.2 219.299 226 219.299H214.1V198.699H224C225.3 198.699 226.4 198.799 227.4 199.099C228.4 199.299 229.1 199.699 229.7 200.099C230.3 200.499 230.7 200.999 231 201.599C231.3 202.199 231.4 202.799 231.4 203.499C231.4 204.299 231.3 204.899 231 205.599C230.7 206.299 230.3 206.799 229.9 207.199C229.5 207.599 229 207.899 228.6 208.099C230 208.699 231.1 209.399 231.8 210.199C232.5 210.999 232.9 212.199 232.9 213.499ZM225.6 204.699C225.6 203.699 225.3 203.099 224.6 202.699C223.9 202.299 222.9 202.199 221.5 202.199H220.2V207.099H221.5C222.9 207.099 223.9 206.899 224.6 206.599C225.3 206.399 225.6 205.699 225.6 204.699ZM226.6 213.299C226.6 211.499 225.3 210.699 222.8 210.699H220.3V215.999H222.8C225.4 215.899 226.6 214.999 226.6 213.299Z" fill="#F7F4FF"/>
<path d="M258.9 209.102C258.9 211.002 258.5 212.802 257.6 214.402C256.7 216.002 255.4 217.302 253.6 218.202C251.8 219.102 249.7 219.602 247.2 219.602C244.7 219.602 242.5 219.102 240.7 218.102C238.9 217.102 237.6 215.802 236.8 214.202C235.9 212.602 235.5 210.902 235.5 209.002C235.5 207.102 235.9 205.402 236.8 203.802C237.7 202.202 239 200.902 240.7 199.902C242.5 198.902 244.6 198.402 247.2 198.402C249.1 198.402 250.8 198.702 252.3 199.202C253.8 199.702 255 200.502 256 201.502C257 202.502 257.7 203.602 258.2 204.902C258.7 206.202 258.9 207.602 258.9 209.102ZM252.5 209.102C252.5 208.302 252.4 207.602 252.2 207.002C252 206.402 251.6 205.802 251.2 205.302C250.7 204.802 250.2 204.502 249.5 204.202C248.8 203.902 248.1 203.802 247.2 203.802C245.5 203.802 244.2 204.302 243.3 205.302C242.4 206.302 241.9 207.502 241.9 209.102C241.9 210.702 242.4 211.902 243.3 212.902C244.3 213.902 245.6 214.402 247.2 214.402C248.3 214.402 249.3 214.202 250.1 213.702C250.9 213.202 251.5 212.602 251.9 211.802C252.3 211.002 252.5 210.102 252.5 209.102Z" fill="#F7F4FF"/>
<path d="M284.7 209.102C284.7 211.002 284.3 212.802 283.4 214.402C282.5 216.002 281.2 217.302 279.4 218.202C277.6 219.102 275.5 219.602 273 219.602C270.5 219.602 268.3 219.102 266.5 218.102C264.7 217.102 263.4 215.802 262.6 214.202C261.7 212.602 261.3 210.902 261.3 209.002C261.3 207.102 261.7 205.402 262.6 203.802C263.5 202.202 264.8 200.902 266.5 199.902C268.3 198.902 270.4 198.402 273 198.402C274.9 198.402 276.6 198.702 278.1 199.202C279.6 199.702 280.8 200.502 281.8 201.502C282.8 202.502 283.5 203.602 284 204.902C284.5 206.202 284.7 207.602 284.7 209.102ZM278.4 209.102C278.4 208.302 278.3 207.602 278.1 207.002C277.9 206.402 277.5 205.802 277.1 205.302C276.6 204.802 276.1 204.502 275.4 204.202C274.7 203.902 274 203.802 273.1 203.802C271.4 203.802 270.1 204.302 269.2 205.302C268.3 206.302 267.8 207.502 267.8 209.102C267.8 210.702 268.3 211.902 269.2 212.902C270.2 213.902 271.5 214.402 273.1 214.402C274.2 214.402 275.2 214.202 276 213.702C276.8 213.202 277.4 212.602 277.8 211.802C278.2 211.002 278.4 210.102 278.4 209.102Z" fill="#F7F4FF"/>
<path d="M310.2 219.401H302.6L294.7 209.801V219.401H288.5V198.801H294.7V208.001L302.2 198.801H308.9L301.2 208.401L310.2 219.401Z" fill="#F7F4FF"/>
<path opacity="0.6" d="M138 126V238" stroke="#F7F4FF" stroke-width="8" stroke-miterlimit="10"/>
<path d="M121 126H104V238H121V126Z" fill="#F7F4FF"/>
<path opacity="0.61" d="M357 126H340V238H357V126Z" fill="#F7F4FF"/>
<path d="M398 126H104V238H398V126Z" stroke="#5F30E2" stroke-width="8" stroke-miterlimit="10" stroke-linecap="round" stroke-linejoin="round"/>
<path d="M340.2 416H327.9C324.7 416 322.1 413.4 322.1 410.2V9.79999C322.1 6.59999 324.7 4 327.9 4H340.2C343.4 4 346 6.59999 346 9.79999V410.1C346 413.4 343.4 416 340.2 416Z" fill="#F7F4FF"/>
<path d="M340.2 416H327.9C324.7 416 322.1 413.4 322.1 410.2V9.79999C322.1 6.59999 324.7 4 327.9 4H340.2C343.4 4 346 6.59999 346 9.79999V410.1C346 413.4 343.4 416 340.2 416Z" stroke="#5F30E2" stroke-width="8" stroke-miterlimit="10" stroke-linecap="round" stroke-linejoin="round"/>
<path d="M165 453.7L135 437V408H165V453.7Z" fill="#F7F4FF"/>
<path opacity="0.62" d="M165 408H135V419.3H165V408Z" fill="#F7F4FF"/>
<path d="M165 453.7L135 437V408H165V453.7Z" stroke="#5F30E2" stroke-width="8" stroke-miterlimit="10" stroke-linecap="round" stroke-linejoin="round"/>
<path d="M45 96H13V247H45V96Z" fill="#A0D4A1" stroke="#A0D4A1" stroke-width="8" stroke-miterlimit="10" stroke-linecap="round" stroke-linejoin="round"/>
<path d="M45.4002 349C34.6002 349 23.7002 349 12.9002 349C10.8002 327 10.8002 304 12.9002 281C23.7002 281 34.6002 281 45.4002 281C47.5002 304 47.5002 327 45.4002 349Z" fill="#A0D4A1" stroke="#A0D4A1" stroke-width="8" stroke-miterlimit="10" stroke-linecap="round" stroke-linejoin="round"/>
<path d="M45.4004 281C34.6004 281 23.7004 281 12.9004 281C19.6004 271 19.6004 258 12.9004 247C23.7004 247 34.6004 247 45.4004 247C38.7004 258 38.7004 271 45.4004 281Z" fill="#A0D4A1" stroke="#A0D4A1" stroke-width="8" stroke-miterlimit="10" stroke-linecap="round" stroke-linejoin="round"/>
<path d="M33.3004 396C38.7004 380 45.2004 365 45.4004 349H12.9004C13.1004 365 19.6004 380 25.0004 396H33.3004Z" fill="#A0D4A1" stroke="#A0D4A1" stroke-width="8" stroke-miterlimit="10" stroke-linecap="round" stroke-linejoin="round"/>
<path d="M33 396H25V402H33V396Z" fill="#A0D4A1" stroke="#A0D4A1" stroke-width="8" stroke-miterlimit="10" stroke-linecap="round" stroke-linejoin="round"/>
<path d="M29 403V416" stroke="#A0D4A1" stroke-width="8" stroke-miterlimit="10" stroke-linecap="round" stroke-linejoin="round"/>
<path d="M41 74H17V96H41V74Z" fill="#A0D4A1" stroke="#A0D4A1" stroke-width="8" stroke-miterlimit="10" stroke-linecap="round" stroke-linejoin="round"/>
<path d="M38 74H20V48.3C20 44.8 23.2 42 26.7 42H31.7C35.2 42 38 44.8 38 48.3V74Z" fill="#A0D4A1" stroke="#A0D4A1" stroke-width="8" stroke-miterlimit="10" stroke-linecap="round" stroke-linejoin="round"/>
<path d="M56 110H25V128H56V110Z" fill="#A0D4A1" stroke="#A0D4A1" stroke-width="8" stroke-miterlimit="10" stroke-linecap="round" stroke-linejoin="round"/>
<path d="M56 189.3L45 174.8V128H56V189.3Z" fill="#A0D4A1" stroke="#A0D4A1" stroke-width="8" stroke-miterlimit="10" stroke-linecap="round" stroke-linejoin="round"/>
<path d="M38.4004 276C27.6004 276 16.7004 276 5.90039 276C12.6004 266 12.6004 253 5.90039 242C16.7004 242 27.6004 242 38.4004 242C31.7004 253 31.7004 266 38.4004 276Z" fill="#5F30E2"/>
<path d="M38 91H6V242H38V91Z" fill="#FBFAFE"/>
<path d="M38 91H6V242H38V91Z" fill="#FBFAFE"/>
<path opacity="0.64" d="M16 91H6V242H16V91Z" fill="#FBFAFE"/>
<path opacity="0.3" d="M38 91H29V242H38V91Z" fill="#FBFAFE"/>
<path d="M38 91H6V242H38V91Z" stroke="#5F30E2" stroke-width="8" stroke-miterlimit="10" stroke-linecap="round" stroke-linejoin="round"/>
<path d="M38.4002 344C27.6002 344 16.7002 344 5.9002 344C3.8002 322 3.8002 299 5.9002 276C16.7002 276 27.6002 276 38.4002 276C40.5002 299 40.5002 322 38.4002 344Z" fill="#F7F4FF"/>
<path d="M38.4002 344C27.6002 344 16.7002 344 5.9002 344C3.8002 322 3.8002 299 5.9002 276C16.7002 276 27.6002 276 38.4002 276C40.5002 299 40.5002 322 38.4002 344Z" fill="#FBFAFE"/>
<path opacity="0.3" d="M38.3996 276C35.7996 276 33.1996 276 30.5996 276C32.6996 299 32.6996 322 30.5996 344C33.1996 344 35.7996 344 38.3996 344C40.4996 322 40.4996 299 38.3996 276Z" fill="#FBFAFE"/>
<path opacity="0.73" d="M17.4 343C15.8 343 14.3 343 12.7 343C10.6 321.3 10.6 298.7 12.6 276C14.2 276 15.8 276 17.4 276C15.4 298.7 15.4 321.3 17.4 343Z" fill="#F7F4FF"/>
<path d="M38.4002 344C27.6002 344 16.7002 344 5.9002 344C3.8002 322 3.8002 299 5.9002 276C16.7002 276 27.6002 276 38.4002 276C40.5002 299 40.5002 322 38.4002 344Z" stroke="#5F30E2" stroke-width="8" stroke-miterlimit="10" stroke-linecap="round" stroke-linejoin="round"/>
<path d="M40 300H4V321H40V300Z" stroke="#5F30E2" stroke-width="8" stroke-miterlimit="10" stroke-linecap="round" stroke-linejoin="round"/>
<path d="M38.4004 276C27.6004 276 16.7004 276 5.90039 276C12.6004 266 12.6004 253 5.90039 242C16.7004 242 27.6004 242 38.4004 242C31.7004 253 31.7004 266 38.4004 276Z" stroke="#5F30E2" stroke-width="8" stroke-miterlimit="10" stroke-linecap="round" stroke-linejoin="round"/>
<path d="M26.3004 391C31.7004 375 38.2004 360 38.4004 344H5.90039C6.10039 360 12.6004 375 18.0004 391H26.3004Z" fill="#F7F4FF"/>
<path d="M38.4004 344C38.4004 344.3 38.4004 344.7 38.4004 345H17.0004C17.1004 360.7 19.9004 375.7 23.2004 391H18.0004C12.6004 375 6.10039 360 5.90039 344H38.4004Z" fill="white"/>
<path d="M26.3004 391C31.7004 375 38.2004 360 38.4004 344H5.90039C6.10039 360 12.6004 375 18.0004 391H26.3004Z" stroke="#5F30E2" stroke-width="8" stroke-miterlimit="10" stroke-linecap="round" stroke-linejoin="round"/>
<path d="M26 391H18V397H26V391Z" stroke="#5F30E2" stroke-width="8" stroke-miterlimit="10" stroke-linecap="round" stroke-linejoin="round"/>
<path d="M22 398V411" stroke="#5F30E2" stroke-width="8" stroke-miterlimit="10" stroke-linecap="round" stroke-linejoin="round"/>
<path d="M34 69H10V91H34V69Z" stroke="#5F30E2" stroke-width="8" stroke-miterlimit="10" stroke-linecap="round" stroke-linejoin="round"/>
<path d="M34 69H10V91H34V69Z" fill="#5F30E2"/>
<path d="M31 69H13V43.3C13 39.8 16.2 37 19.7 37H24.7C28.2 37 31 39.8 31 43.3V69Z" fill="#F7F4FF"/>
<path d="M31 69H13V43.3C13 39.8 16.2 37 19.7 37H24.7C28.2 37 31 39.8 31 43.3V69Z" stroke="#5F30E2" stroke-width="8" stroke-miterlimit="10" stroke-linecap="round" stroke-linejoin="round"/>
<path d="M49 105H18V123H49V105Z" fill="#F7F4FF"/>
<path d="M49 105H18V123H49V105Z" stroke="#5F30E2" stroke-width="8" stroke-miterlimit="10" stroke-linecap="round" stroke-linejoin="round"/>
<path d="M49 184.3L38 169.8V123H49V184.3Z" fill="#F7F4FF"/>
<path d="M49 184.3L38 169.8V123H49V184.3Z" stroke="#5F30E2" stroke-width="8" stroke-miterlimit="10" stroke-linecap="round" stroke-linejoin="round"/>
</svg>
