<svg width="672" height="604" viewBox="0 0 672 604" fill="none" xmlns="http://www.w3.org/2000/svg">
<path d="M69.6 600.5H549.6" stroke="#5F30E2" stroke-width="6" stroke-miterlimit="10" stroke-linecap="round" stroke-linejoin="round"/>
<path d="M576.6 600.5H626" stroke="#5F30E2" stroke-width="6" stroke-miterlimit="10" stroke-linecap="round" stroke-linejoin="round"/>
<path d="M15.1 600.5H49.8" stroke="#5F30E2" stroke-width="6" stroke-miterlimit="10" stroke-linecap="round" stroke-linejoin="round"/>
<path d="M643.4 600.5H652" stroke="#5F30E2" stroke-width="6" stroke-miterlimit="10" stroke-linecap="round" stroke-linejoin="round"/>
<path d="M352.4 277.098H328.2C327 277.098 326.1 276.098 326.1 274.998V223.998C326.1 222.798 327.1 221.898 328.2 221.898H352.4C353.6 221.898 354.5 222.898 354.5 223.998V274.998C354.5 276.098 353.6 277.098 352.4 277.098Z" fill="#5F30E2"/>
<path d="M352.4 277.098H328.2C327 277.098 326.1 276.098 326.1 274.998V223.998C326.1 222.798 327.1 221.898 328.2 221.898H352.4C353.6 221.898 354.5 222.898 354.5 223.998V274.998C354.5 276.098 353.6 277.098 352.4 277.098Z" stroke="#5F30E2" stroke-width="6" stroke-miterlimit="10" stroke-linecap="round" stroke-linejoin="round"/>
<path d="M384 244.098H296.6C287.2 244.098 279.5 236.498 279.5 226.998V216.698C279.5 207.298 287.1 199.598 296.6 199.598H384C393.4 199.598 401.1 207.198 401.1 216.698V226.998C401 236.398 393.4 244.098 384 244.098Z" fill="#A0D4A1"/>
<path d="M384 234.799H296.6C287.2 234.799 279.5 227.199 279.5 217.699V226.999C279.5 236.399 287.1 244.099 296.6 244.099H384C393.4 244.099 401.1 236.499 401.1 226.999V217.699C401 227.199 393.4 234.799 384 234.799Z" fill="#A0D4A1"/>
<path d="M384 199.699H296.6C287.2 199.699 279.5 207.299 279.5 216.799V226.999C279.5 227.199 279.5 227.299 279.5 227.499C279.8 218.299 287.3 210.999 296.5 210.999H384C393.2 210.999 400.7 218.399 401 227.499C401 227.299 401 227.199 401 226.999V216.699C401 207.299 393.4 199.699 384 199.699Z" fill="#A0D4A1"/>
<path d="M384 244.098H296.6C287.2 244.098 279.5 236.498 279.5 226.998V216.698C279.5 207.298 287.1 199.598 296.6 199.598H384C393.4 199.598 401.1 207.198 401.1 216.698V226.998C401 236.398 393.4 244.098 384 244.098Z" stroke="#5F30E2" stroke-width="6" stroke-miterlimit="10" stroke-linecap="round" stroke-linejoin="round"/>
<path d="M437.298 278.738L421.71 269.738L405.71 297.45L421.298 306.45L437.298 278.738Z" fill="#5F30E2"/>
<path d="M437.298 278.738L421.71 269.738L405.71 297.45L421.298 306.45L437.298 278.738Z" stroke="#5F30E2" stroke-width="6" stroke-miterlimit="10" stroke-linecap="round" stroke-linejoin="round"/>
<path d="M441 280.899L418 267.599C413.2 264.799 411.6 258.799 414.4 253.999L415.2 252.599C418 247.799 424 246.199 428.8 248.999L451.8 262.299C456.6 265.099 458.2 271.099 455.4 275.899L454.6 277.299C451.9 281.999 445.8 283.699 441 280.899Z" fill="#F7F4FF"/>
<path d="M441 280.899L418 267.599C413.2 264.799 411.6 258.799 414.4 253.999L415.2 252.599C418 247.799 424 246.199 428.8 248.999L451.8 262.299C456.6 265.099 458.2 271.099 455.4 275.899L454.6 277.299C451.9 281.999 445.8 283.699 441 280.899Z" fill="#F7F4FF"/>
<path d="M413.3 259.299L414.1 257.899C416.9 253.099 422.9 251.499 427.7 254.299L450.7 267.599C453.4 269.199 455.1 271.799 455.6 274.599C458.1 269.899 456.5 263.899 451.8 261.199L428.8 247.899C424 245.099 417.9 246.799 415.2 251.499L414.4 252.899C413.2 254.999 412.8 257.299 413.2 259.499C413.2 259.499 413.2 259.399 413.3 259.299Z" fill="#FBFAFE"/>
<path d="M441 280.899L418 267.599C413.2 264.799 411.6 258.799 414.4 253.999L415.2 252.599C418 247.799 424 246.199 428.8 248.999L451.8 262.299C456.6 265.099 458.2 271.099 455.4 275.899L454.6 277.299C451.9 281.999 445.8 283.699 441 280.899Z" stroke="#5F30E2" stroke-width="6" stroke-miterlimit="10" stroke-linecap="round" stroke-linejoin="round"/>
<path d="M260.737 306.539L276.325 297.539L260.325 269.827L244.737 278.827L260.737 306.539Z" fill="#5F30E2"/>
<path d="M260.737 306.539L276.325 297.539L260.325 269.827L244.737 278.827L260.737 306.539Z" stroke="#5F30E2" stroke-width="6" stroke-miterlimit="10" stroke-linecap="round" stroke-linejoin="round"/>
<path d="M241 280.899L264 267.599C268.8 264.799 270.4 258.799 267.6 253.999L266.8 252.599C264 247.799 258 246.199 253.2 248.999L230.2 262.299C225.4 265.099 223.8 271.099 226.6 275.899L227.4 277.299C230.1 281.999 236.2 283.699 241 280.899Z" fill="#F7F4FF"/>
<path d="M241 280.899L264 267.599C268.8 264.799 270.4 258.799 267.6 253.999L266.8 252.599C264 247.799 258 246.199 253.2 248.999L230.2 262.299C225.4 265.099 223.8 271.099 226.6 275.899L227.4 277.299C230.1 281.999 236.2 283.699 241 280.899Z" fill="#F7F4FF"/>
<path d="M230.6 268.599L253.6 255.299C258.4 252.499 264.5 254.199 267.2 258.899L268 260.299C268.2 260.699 268.4 261.199 268.6 261.599C269.3 259.099 269 256.399 267.6 253.999L266.8 252.599C264 247.799 258 246.199 253.2 248.999L230.2 262.299C225.9 264.799 224.1 270.099 225.9 274.599C226.6 272.199 228.2 269.999 230.6 268.599Z" fill="#FBFAFE"/>
<path d="M241 280.899L264 267.599C268.8 264.799 270.4 258.799 267.6 253.999L266.8 252.599C264 247.799 258 246.199 253.2 248.999L230.2 262.299C225.4 265.099 223.8 271.099 226.6 275.899L227.4 277.299C230.1 281.999 236.2 283.699 241 280.899Z" stroke="#5F30E2" stroke-width="6" stroke-miterlimit="10" stroke-linecap="round" stroke-linejoin="round"/>
<path d="M385.1 200V244.1" stroke="#5F30E2" stroke-width="6" stroke-miterlimit="10" stroke-linecap="round" stroke-linejoin="round"/>
<path d="M367.1 200V244.1" stroke="#5F30E2" stroke-width="6" stroke-miterlimit="10" stroke-linecap="round" stroke-linejoin="round"/>
<path d="M349.1 200V244.1" stroke="#5F30E2" stroke-width="6" stroke-miterlimit="10" stroke-linecap="round" stroke-linejoin="round"/>
<path d="M331.1 200V244.1" stroke="#5F30E2" stroke-width="6" stroke-miterlimit="10" stroke-linecap="round" stroke-linejoin="round"/>
<path d="M313.1 200V244.1" stroke="#5F30E2" stroke-width="6" stroke-miterlimit="10" stroke-linecap="round" stroke-linejoin="round"/>
<path d="M295.1 200V244.1" stroke="#5F30E2" stroke-width="6" stroke-miterlimit="10" stroke-linecap="round" stroke-linejoin="round"/>
<path d="M340.3 600.498C432.366 600.498 507 525.863 507 433.798C507 341.732 432.366 267.098 340.3 267.098C248.234 267.098 173.6 341.732 173.6 433.798C173.6 525.863 248.234 600.498 340.3 600.498Z" fill="#F7F4FF"/>
<path d="M340.3 587.199C250.5 587.199 177.3 516.199 173.8 427.199C173.7 429.399 173.7 431.599 173.7 433.899C173.7 525.999 248.3 600.599 340.4 600.599C432.5 600.599 507.1 525.999 507.1 433.899C507.1 431.699 507 429.399 507 427.199C503.3 516.099 430.1 587.199 340.3 587.199Z" fill="#A0D4A1"/>
<path d="M340.3 277.999C430.5 277.999 504 349.699 506.9 439.299C507 437.499 507 435.699 507 433.899C507 341.799 432.4 267.199 340.3 267.199C248.2 267.199 173.6 341.799 173.6 433.899C173.6 435.699 173.6 437.499 173.7 439.299C176.6 349.699 250 277.999 340.3 277.999Z" fill="#FBFAFE"/>
<path d="M340.3 565.6C413.091 565.6 472.1 506.591 472.1 433.8C472.1 361.009 413.091 302 340.3 302C267.509 302 208.5 361.009 208.5 433.8C208.5 506.591 267.509 565.6 340.3 565.6Z" fill="#FBFAFE"/>
<path d="M340.3 549.299C270.3 549.299 213 494.699 208.8 425.699C208.6 428.399 208.5 431.099 208.5 433.799C208.5 506.599 267.5 565.599 340.3 565.599C413.1 565.599 472.1 506.599 472.1 433.799C472.1 431.099 472 428.399 471.8 425.699C467.6 494.699 410.3 549.299 340.3 549.299Z" fill="#FFF4EE"/>
<path d="M340.3 318.9C410.2 318.9 467.4 373.4 471.8 442.2C472 439.4 472.1 436.6 472.1 433.8C472.1 361 413.1 302 340.3 302C267.5 302 208.5 361 208.5 433.8C208.5 436.6 208.6 439.4 208.8 442.2C213.2 373.4 270.4 318.9 340.3 318.9Z" fill="#A0D4A1"/>
<path d="M341 431.098V480.698" stroke="#5F30E2" stroke-width="13" stroke-miterlimit="10" stroke-linecap="round" stroke-linejoin="round"/>
<path d="M341 431.1V357.5" stroke="#5F30E2" stroke-width="13" stroke-miterlimit="10" stroke-linecap="round" stroke-linejoin="round"/>
<path d="M340.3 565.6C413.091 565.6 472.1 506.591 472.1 433.8C472.1 361.009 413.091 302 340.3 302C267.509 302 208.5 361.009 208.5 433.8C208.5 506.591 267.509 565.6 340.3 565.6Z" stroke="#5F30E2" stroke-width="6" stroke-miterlimit="10" stroke-linecap="round" stroke-linejoin="round"/>
<path d="M341 305.898V331.998" stroke="#5F30E2" stroke-width="10" stroke-miterlimit="10" stroke-linecap="round" stroke-linejoin="round"/>
<path d="M341 535.699V561.799" stroke="#5F30E2" stroke-width="10" stroke-miterlimit="10" stroke-linecap="round" stroke-linejoin="round"/>
<path d="M468.9 433.797H442.9" stroke="#5F30E2" stroke-width="10" stroke-miterlimit="10" stroke-linecap="round" stroke-linejoin="round"/>
<path d="M239.1 433.797H213.1" stroke="#5F30E2" stroke-width="10" stroke-miterlimit="10" stroke-linecap="round" stroke-linejoin="round"/>
<path d="M433.8 341L424.1 350.8" stroke="#5F30E2" stroke-width="6" stroke-miterlimit="10" stroke-linecap="round" stroke-linejoin="round"/>
<path d="M257.9 516.898L247.5 527.398" stroke="#5F30E2" stroke-width="6" stroke-miterlimit="10" stroke-linecap="round" stroke-linejoin="round"/>
<path d="M433.8 526.598L424.1 516.898" stroke="#5F30E2" stroke-width="6" stroke-miterlimit="10" stroke-linecap="round" stroke-linejoin="round"/>
<path d="M257.9 350.797L247.5 340.297" stroke="#5F30E2" stroke-width="6" stroke-miterlimit="10" stroke-linecap="round" stroke-linejoin="round"/>
<path d="M341 444.598C348.456 444.598 354.5 438.554 354.5 431.098C354.5 423.642 348.456 417.598 341 417.598C333.544 417.598 327.5 423.642 327.5 431.098C327.5 438.554 333.544 444.598 341 444.598Z" fill="#FBFAFE"/>
<path d="M341 444.598C348.456 444.598 354.5 438.554 354.5 431.098C354.5 423.642 348.456 417.598 341 417.598C333.544 417.598 327.5 423.642 327.5 431.098C327.5 438.554 333.544 444.598 341 444.598Z" stroke="#5F30E2" stroke-width="9" stroke-miterlimit="10" stroke-linecap="round" stroke-linejoin="round"/>
<path d="M341 489.998C346.136 489.998 350.3 485.835 350.3 480.698C350.3 475.562 346.136 471.398 341 471.398C335.864 471.398 331.7 475.562 331.7 480.698C331.7 485.835 335.864 489.998 341 489.998Z" fill="#FBFAFE"/>
<path d="M341 489.998C346.136 489.998 350.3 485.835 350.3 480.698C350.3 475.562 346.136 471.398 341 471.398C335.864 471.398 331.7 475.562 331.7 480.698C331.7 485.835 335.864 489.998 341 489.998Z" stroke="#5F30E2" stroke-width="6" stroke-miterlimit="10" stroke-linecap="round" stroke-linejoin="round"/>
<path d="M340.3 600.498C432.366 600.498 507 525.863 507 433.798C507 341.732 432.366 267.098 340.3 267.098C248.234 267.098 173.6 341.732 173.6 433.798C173.6 525.863 248.234 600.498 340.3 600.498Z" stroke="#5F30E2" stroke-width="6" stroke-miterlimit="10" stroke-linecap="round" stroke-linejoin="round"/>
<path d="M361.4 108.097C336.1 110.497 310.6 110.497 285.3 108.097C275.5 107.197 267.6 101.297 265.9 93.4969C261.5 73.0969 261.5 53.5969 265.9 33.1969C267.6 25.4969 275.5 19.5969 285.3 18.5969C310.6 16.1969 336.1 16.1969 361.4 18.5969C371.2 19.4969 379.1 25.3969 380.8 33.1969C385.2 53.5969 385.2 73.0969 380.8 93.4969C379.2 101.297 371.2 107.197 361.4 108.097Z" fill="white"/>
<path d="M361.4 108.097C336.1 110.497 310.6 110.497 285.3 108.097C275.5 107.197 267.6 101.297 265.9 93.4969C261.5 73.0969 261.5 53.5969 265.9 33.1969C267.6 25.4969 275.5 19.5969 285.3 18.5969C310.6 16.1969 336.1 16.1969 361.4 18.5969C371.2 19.4969 379.1 25.3969 380.8 33.1969C385.2 53.5969 385.2 73.0969 380.8 93.4969C379.2 101.297 371.2 107.197 361.4 108.097Z" stroke="#5F30E2" stroke-width="6" stroke-miterlimit="10" stroke-linecap="round" stroke-linejoin="round"/>
<path d="M318.6 44.0983L343.8 57.6983C348.5 60.2983 348.5 66.5983 343.8 69.1983L318.6 82.7982C313.9 85.3982 308 82.1983 308 77.0983V49.8982C307.9 44.6982 313.9 41.4983 318.6 44.0983Z" stroke="#5F30E2" stroke-width="6" stroke-miterlimit="10" stroke-linecap="round" stroke-linejoin="round"/>
<path d="M76.8999 319.798C76.8999 319.798 31.8 326.698 24.3 319.098C12 306.698 32.8999 301.598 31.3999 289.698C28.1999 264.798 29.7 236.798 39.6 224.298C39.7 224.198 39.7999 224.098 39.8999 223.898C51.7999 209.198 73.6 206.398 88.8 217.698C88.9 217.798 89.1 217.898 89.2 217.998C101.9 227.698 110.3 254.398 113.5 279.298C115 291.198 136.5 290.998 127.7 305.998C122.3 315.198 76.8999 319.798 76.8999 319.798Z" fill="white"/>
<path d="M76.8999 319.798C76.8999 319.798 31.8 326.698 24.3 319.098C12 306.698 32.8999 301.598 31.3999 289.698C28.1999 264.798 29.7 236.798 39.6 224.298C39.7 224.198 39.7999 224.098 39.8999 223.898C51.7999 209.198 73.6 206.398 88.8 217.698C88.9 217.798 89.1 217.898 89.2 217.998C101.9 227.698 110.3 254.398 113.5 279.298C115 291.198 136.5 290.998 127.7 305.998C122.3 315.198 76.8999 319.798 76.8999 319.798Z" stroke="#5F30E2" stroke-width="6" stroke-miterlimit="10" stroke-linecap="round" stroke-linejoin="round"/>
<path d="M98.7 281.699C99.6 288.599 102.7 293.699 106.2 297.499" stroke="#5F30E2" stroke-width="4" stroke-miterlimit="10" stroke-linecap="round" stroke-linejoin="round"/>
<path d="M81.2 232.398L81.3999 232.598C86.3999 236.398 92.9 250.298 96.8 269.998" stroke="#5F30E2" stroke-width="4" stroke-miterlimit="10" stroke-linecap="round" stroke-linejoin="round"/>
<path d="M90.3999 318.098C91.2999 325.398 86 332.098 78.6 332.998C71.2 333.898 64.3999 328.798 63.3999 321.498L90.3999 318.098Z" fill="white"/>
<path d="M90.3999 318.098C91.2999 325.398 86 332.098 78.6 332.998C71.2 333.898 64.3999 328.798 63.3999 321.498L90.3999 318.098Z" stroke="#5F30E2" stroke-width="6" stroke-miterlimit="10" stroke-linecap="round" stroke-linejoin="round"/>
<path d="M130.1 280.502L137.4 277.602" stroke="white" stroke-width="2" stroke-miterlimit="10" stroke-linecap="round" stroke-linejoin="round"/>
<path d="M123.3 276L125.9 267.5" stroke="white" stroke-width="2" stroke-miterlimit="10" stroke-linecap="round" stroke-linejoin="round"/>
<path d="M126.7 277.602L134.2 269.102" stroke="white" stroke-width="2" stroke-miterlimit="10" stroke-linecap="round" stroke-linejoin="round"/>
<path d="M383.8 16.5977L392.4 13.0977" stroke="white" stroke-width="2" stroke-miterlimit="10" stroke-linecap="round" stroke-linejoin="round"/>
<path d="M376 11.2984L378.9 1.39844" stroke="white" stroke-width="2" stroke-miterlimit="10" stroke-linecap="round" stroke-linejoin="round"/>
<path d="M379.9 13.0969L388.6 3.29688" stroke="white" stroke-width="2" stroke-miterlimit="10" stroke-linecap="round" stroke-linejoin="round"/>
<path d="M643.3 190.099L651.8 186.699" stroke="white" stroke-width="2" stroke-miterlimit="10" stroke-linecap="round" stroke-linejoin="round"/>
<path d="M635.4 184.898L638.4 174.898" stroke="white" stroke-width="2" stroke-miterlimit="10" stroke-linecap="round" stroke-linejoin="round"/>
<path d="M639.4 186.697L648.1 176.797" stroke="white" stroke-width="2" stroke-miterlimit="10" stroke-linecap="round" stroke-linejoin="round"/>
<path d="M17.8 295.298L15.9 287.398" stroke="white" stroke-width="2" stroke-miterlimit="10" stroke-linecap="round" stroke-linejoin="round"/>
<path d="M12.1001 301.598L1.80005 299.598" stroke="white" stroke-width="2" stroke-miterlimit="10" stroke-linecap="round" stroke-linejoin="round"/>
<path d="M14.2 298.298L6.70004 289.398" stroke="white" stroke-width="2" stroke-miterlimit="10" stroke-linecap="round" stroke-linejoin="round"/>
<path d="M621.6 293.598C595.5 294.798 569.3 294.798 543.1 293.598C534 293.198 526.7 285.698 526.7 276.598V217.998C526.7 208.798 533.9 201.398 543.1 200.998C569.2 199.798 595.4 199.798 621.6 200.998C630.7 201.398 638 208.898 638 217.998V276.598C638 285.698 630.7 293.198 621.6 293.598Z" fill="white"/>
<path d="M621.6 293.598C595.5 294.798 569.3 294.798 543.1 293.598C534 293.198 526.7 285.698 526.7 276.598V217.998C526.7 208.798 533.9 201.398 543.1 200.998C569.2 199.798 595.4 199.798 621.6 200.998C630.7 201.398 638 208.898 638 217.998V276.598C638 285.698 630.7 293.198 621.6 293.598Z" stroke="#5F30E2" stroke-width="6" stroke-miterlimit="10" stroke-linecap="round" stroke-linejoin="round"/>
<path d="M541.9 265.3L565.7 234.6L593.9 254.9L622.2 228" stroke="#5F30E2" stroke-width="6" stroke-miterlimit="10" stroke-linecap="round" stroke-linejoin="round"/>
<path d="M541.9 271.898C545.159 271.898 547.8 269.256 547.8 265.998C547.8 262.739 545.159 260.098 541.9 260.098C538.642 260.098 536 262.739 536 265.998C536 269.256 538.642 271.898 541.9 271.898Z" fill="white"/>
<path d="M541.9 271.898C545.159 271.898 547.8 269.256 547.8 265.998C547.8 262.739 545.159 260.098 541.9 260.098C538.642 260.098 536 262.739 536 265.998C536 269.256 538.642 271.898 541.9 271.898Z" stroke="#5F30E2" stroke-width="6" stroke-miterlimit="10" stroke-linecap="round" stroke-linejoin="round"/>
<path d="M566.2 241.4C569.9 241.4 572.9 238.4 572.9 234.7C572.9 231 569.9 228 566.2 228C562.5 228 559.5 231 559.5 234.7C559.5 238.4 562.5 241.4 566.2 241.4Z" fill="white"/>
<path d="M566.2 241.4C569.9 241.4 572.9 238.4 572.9 234.7C572.9 231 569.9 228 566.2 228C562.5 228 559.5 231 559.5 234.7C559.5 238.4 562.5 241.4 566.2 241.4Z" stroke="#5F30E2" stroke-width="6" stroke-miterlimit="10" stroke-linecap="round" stroke-linejoin="round"/>
<path d="M593.8 260.1C597.832 260.1 601.1 256.832 601.1 252.8C601.1 248.768 597.832 245.5 593.8 245.5C589.768 245.5 586.5 248.768 586.5 252.8C586.5 256.832 589.768 260.1 593.8 260.1Z" fill="white"/>
<path d="M593.8 260.1C597.832 260.1 601.1 256.832 601.1 252.8C601.1 248.768 597.832 245.5 593.8 245.5C589.768 245.5 586.5 248.768 586.5 252.8C586.5 256.832 589.768 260.1 593.8 260.1Z" stroke="#5F30E2" stroke-width="6" stroke-miterlimit="10" stroke-linecap="round" stroke-linejoin="round"/>
<path d="M623.4 233.698C627.432 233.698 630.7 230.429 630.7 226.398C630.7 222.366 627.432 219.098 623.4 219.098C619.368 219.098 616.1 222.366 616.1 226.398C616.1 230.429 619.368 233.698 623.4 233.698Z" fill="white"/>
<path d="M623.4 233.698C627.432 233.698 630.7 230.429 630.7 226.398C630.7 222.366 627.432 219.098 623.4 219.098C619.368 219.098 616.1 222.366 616.1 226.398C616.1 230.429 619.368 233.698 623.4 233.698Z" stroke="#5F30E2" stroke-width="6" stroke-miterlimit="10" stroke-linecap="round" stroke-linejoin="round"/>
<path d="M635.2 318.997C653.481 318.997 668.3 304.178 668.3 285.897C668.3 267.616 653.481 252.797 635.2 252.797C616.919 252.797 602.1 267.616 602.1 285.897C602.1 304.178 616.919 318.997 635.2 318.997Z" fill="white"/>
<path d="M635.2 318.997C653.481 318.997 668.3 304.178 668.3 285.897C668.3 267.616 653.481 252.797 635.2 252.797C616.919 252.797 602.1 267.616 602.1 285.897C602.1 304.178 616.919 318.997 635.2 318.997Z" fill="white"/>
<path d="M635.2 318.997C653.481 318.997 668.3 304.178 668.3 285.897C668.3 267.616 653.481 252.797 635.2 252.797C616.919 252.797 602.1 267.616 602.1 285.897C602.1 304.178 616.919 318.997 635.2 318.997Z" stroke="#5F30E2" stroke-width="6" stroke-miterlimit="10" stroke-linecap="round" stroke-linejoin="round"/>
<path d="M648.9 267.098C654.7 271.298 658.4 278.098 658.4 285.798C658.4 298.598 648 308.998 635.2 308.998C622.4 308.998 612 298.698 612 285.898C612 283.898 612.3 281.898 612.8 279.998" stroke="#5F30E2" stroke-width="5" stroke-miterlimit="10" stroke-linecap="round" stroke-linejoin="round"/>
<path d="M644.8 276.098C645.7 276.998 646.5 277.998 647.1 279.198C650.8 285.798 648.4 294.198 641.8 297.798C638.5 299.598 634.7 299.998 631.4 298.998" stroke="#5F30E2" stroke-width="5" stroke-miterlimit="10" stroke-linecap="round" stroke-linejoin="round"/>
<path d="M145.5 466.097C118.2 437.797 97.9 403.797 87.1 366.297" stroke="white" stroke-width="3" stroke-miterlimit="10" stroke-linecap="round" stroke-linejoin="round" stroke-dasharray="18 18"/>
<path d="M590.3 345.898C583.9 384.398 567.7 419.898 544.1 450.298" stroke="white" stroke-width="3" stroke-miterlimit="10" stroke-linecap="round" stroke-linejoin="round" stroke-dasharray="18 18"/>
<path d="M424.1 68.5C486.6 85.4 539.6 122.5 574.1 171.5" stroke="white" stroke-width="3" stroke-miterlimit="10" stroke-linecap="round" stroke-linejoin="round" stroke-dasharray="18 18"/>
<path d="M114.4 190.098C139 142.198 181.5 103.398 234.1 81.0977" stroke="white" stroke-width="3" stroke-miterlimit="10" stroke-linecap="round" stroke-linejoin="round" stroke-dasharray="18 18"/>
</svg>
