<svg width="798" height="708" viewBox="0 0 798 708" fill="none" xmlns="http://www.w3.org/2000/svg">
<g opacity="0.43">
<path d="M700.971 701.562H83.043L314.014 201.676H470L700.971 701.562Z" fill="url(#paint0_linear_449_15348)" style="mix-blend-mode:overlay"/>
</g>
<path fill-rule="evenodd" clip-rule="evenodd" d="M122.463 514.234C122.952 516.388 121.601 518.531 119.446 519.019L80.7817 527.785L73.4768 562.598C73.0232 564.761 70.9027 566.145 68.7407 565.692C66.5786 565.238 65.1937 563.118 65.6473 560.956L73.4793 523.63C73.8005 522.099 74.9844 520.896 76.5097 520.55L117.678 511.217C119.832 510.729 121.975 512.079 122.463 514.234Z" fill="#5F30E2"/>
<path d="M40.455 704.788H89.555C91.2583 704.788 92.9032 704.168 94.1814 703.042C95.4597 701.916 96.2837 700.363 96.499 698.673L109.614 595.773H20.4L33.516 698.673C33.7313 700.362 34.5545 701.915 35.8318 703.04C37.109 704.166 38.7526 704.787 40.455 704.788V704.788Z" fill="#F7F4FF"/>
<path d="M34.048 595.773L44.454 690.807C44.6681 692.762 45.5963 694.57 47.0606 695.882C48.525 697.195 50.4224 697.921 52.389 697.921H96.6L96.505 698.671C96.2897 700.361 95.4657 701.914 94.1874 703.04C92.9091 704.166 91.2643 704.786 89.561 704.786H40.461C38.7579 704.786 37.1133 704.165 35.8353 703.039C34.5572 701.914 33.7334 700.361 33.518 698.671L20.4 595.773H34.048Z" fill="#F7F4FF"/>
<path fill-rule="evenodd" clip-rule="evenodd" d="M18.1486 593.791C18.7181 593.144 19.5383 592.773 20.4 592.773H109.614C110.476 592.773 111.296 593.144 111.865 593.791C112.435 594.437 112.699 595.298 112.59 596.153L99.475 699.053C99.1673 701.466 97.9902 703.685 96.1641 705.293C94.338 706.901 91.9882 707.789 89.555 707.788H40.453C38.021 707.787 35.673 706.899 33.8483 705.291C32.0237 703.683 30.8476 701.465 30.5401 699.053L17.4241 596.153C17.3152 595.298 17.5791 594.437 18.1486 593.791ZM23.8067 598.773L36.492 698.294C36.615 699.259 37.0854 700.146 37.8153 700.789C38.5451 701.433 39.4843 701.788 40.4571 701.788H89.5551C90.5285 701.788 91.4684 701.434 92.1988 700.79C92.9292 700.147 93.4001 699.26 93.5231 698.294L106.207 598.773H23.8067Z" fill="#5F30E2"/>
<path d="M106.25 675.165L112.593 625.398H17.42L23.763 675.165H106.25Z" fill="#A0D4A1"/>
<path d="M106.25 675.165L112.593 625.398H17.42L23.763 675.165H106.25Z" fill="#4FB277"/>
<path d="M105.856 669.415L111.175 625.398H31.3669L36.2669 665.922C36.3835 666.886 36.8488 667.773 37.5749 668.416C38.301 669.06 39.2377 669.415 40.2079 669.415H105.856Z" fill="#A0D4A1"/>
<path fill-rule="evenodd" clip-rule="evenodd" d="M15.1686 623.416C15.7382 622.769 16.5583 622.398 17.4201 622.398H112.593C113.455 622.398 114.275 622.769 114.844 623.416C115.414 624.062 115.678 624.923 115.569 625.778L109.226 675.545C109.035 677.043 107.76 678.165 106.25 678.165H23.7631C22.2529 678.165 20.9781 677.043 20.7871 675.545L14.4441 625.778C14.3352 624.923 14.5991 624.062 15.1686 623.416ZM20.8267 628.398L26.405 672.165H103.608L109.186 628.398H20.8267Z" fill="#5F30E2"/>
<path d="M14.6679 595.773H115.346C121.421 595.773 126.346 590.849 126.346 584.773C126.346 578.698 121.421 573.773 115.346 573.773H14.6679C8.59281 573.773 3.66795 578.698 3.66795 584.773C3.66795 590.849 8.59281 595.773 14.6679 595.773Z" fill="#A0D4A1"/>
<path d="M14.6679 595.773H115.346C121.421 595.773 126.346 590.849 126.346 584.773C126.346 578.698 121.421 573.773 115.346 573.773H14.6679C8.59281 573.773 3.66795 578.698 3.66795 584.773C3.66795 590.849 8.59281 595.773 14.6679 595.773Z" fill="#4FB277"/>
<path d="M26.044 591.023H117.72C122.483 591.023 126.345 587.162 126.345 582.398C126.345 577.635 122.483 573.773 117.72 573.773H26.044C21.2805 573.773 17.419 577.635 17.419 582.398C17.419 587.162 21.2805 591.023 26.044 591.023Z" fill="#A0D4A1"/>
<path fill-rule="evenodd" clip-rule="evenodd" d="M115.346 592.773C119.764 592.773 123.346 589.192 123.346 584.773C123.346 580.355 119.764 576.773 115.346 576.773H14.6679C10.2497 576.773 6.66795 580.355 6.66795 584.773C6.66795 589.192 10.2497 592.773 14.6679 592.773H115.346ZM129.346 584.773C129.346 592.505 123.078 598.773 115.346 598.773H14.6679C6.93596 598.773 0.667938 592.505 0.667938 584.773C0.667938 577.041 6.93596 570.773 14.6679 570.773H115.346C123.078 570.773 129.346 577.041 129.346 584.773Z" fill="#5F30E2"/>
<path d="M25.006 573.773H105.006L103.423 561.773H26.59L25.006 573.773Z" fill="#A0D4A1"/>
<path d="M26.59 561.773H50.062L44.506 573.773H25.006L26.59 561.773Z" fill="#A0D4A1"/>
<path fill-rule="evenodd" clip-rule="evenodd" d="M23.6158 561.381C23.8128 559.889 25.0849 558.773 26.59 558.773H103.423C104.928 558.773 106.2 559.889 106.397 561.381L107.98 573.381C108.093 574.238 107.831 575.101 107.262 575.751C106.692 576.401 105.87 576.773 105.006 576.773H25.006C24.1419 576.773 23.3198 576.401 22.7501 575.751C22.1805 575.101 21.9187 574.238 22.0318 573.381L23.6158 561.381ZM29.22 564.773L28.428 570.773H101.584L100.793 564.773H29.22Z" fill="#5F30E2"/>
<path d="M197.7 435.852H535.478C540.017 435.852 544.369 437.655 547.579 440.864C550.788 444.073 552.591 448.426 552.591 452.965V675.852H180.591V452.964C180.591 448.426 182.394 444.074 185.602 440.865C188.811 437.656 193.162 435.853 197.7 435.852V435.852Z" fill="#F7F4FF"/>
<path fill-rule="evenodd" clip-rule="evenodd" d="M197.7 438.852C193.958 438.853 190.37 440.34 187.724 442.986C185.078 445.632 183.591 449.221 183.591 452.964C183.591 452.964 183.591 452.964 183.591 452.964V672.852H549.591V452.965C549.591 449.222 548.104 445.632 545.457 442.985C542.811 440.338 539.221 438.852 535.478 438.852H197.7C197.7 438.852 197.7 438.852 197.7 438.852ZM183.481 438.744C187.252 434.972 192.366 432.853 197.699 432.852H535.478C540.812 432.852 545.928 434.971 549.7 438.743C553.472 442.514 555.591 447.63 555.591 452.965V675.852C555.591 677.508 554.248 678.852 552.591 678.852H180.591C178.934 678.852 177.591 677.508 177.591 675.852V452.964C177.591 447.63 179.71 442.515 183.481 438.744Z" fill="#5F30E2"/>
<path d="M524.591 648.137V464.137H208.591V648.137H524.591Z" fill="#F7F4FF"/>
<path opacity="0.3" fill-rule="evenodd" clip-rule="evenodd" d="M389.007 618.781C389.007 617.124 390.35 615.781 392.007 615.781H444.007C445.664 615.781 447.007 617.124 447.007 618.781C447.007 620.438 445.664 621.781 444.007 621.781H392.007C390.35 621.781 389.007 620.438 389.007 618.781Z" fill="white"/>
<path opacity="0.3" d="M518.78 561.585C519.781 561.522 520.774 561.798 521.599 562.368C522.423 562.938 523.032 563.77 523.327 564.728V553.273C522.229 552.952 521.091 552.787 519.947 552.781H518.78C516.264 552.781 515.006 554.039 515.007 556.554V557.9C515.007 560.327 516.264 561.585 518.78 561.585Z" fill="white"/>
<path opacity="0.3" d="M523.327 616.496C523.027 617.449 522.416 618.275 521.592 618.84C520.767 619.406 519.778 619.679 518.78 619.616C516.264 619.616 515.006 620.873 515.007 623.388V624.736C515.007 627.251 516.265 628.508 518.78 628.509H519.947C521.091 628.504 522.229 628.338 523.327 628.017V616.496Z" fill="white"/>
<path fill-rule="evenodd" clip-rule="evenodd" d="M524.591 461.137C526.248 461.137 527.591 462.48 527.591 464.137V648.137C527.591 649.794 526.248 651.137 524.591 651.137H208.591C206.934 651.137 205.591 649.794 205.591 648.137V464.137C205.591 462.48 206.934 461.137 208.591 461.137H524.591ZM521.591 467.137H211.591V645.137H521.591V467.137Z" fill="#5F30E2"/>
<path d="M139.543 676H593.643C594.704 676 595.721 676.421 596.471 677.172C597.222 677.922 597.643 678.939 597.643 680V684.791C597.643 690.095 595.536 695.182 591.785 698.933C588.034 702.684 582.947 704.791 577.643 704.791H155.543C150.239 704.791 145.152 702.684 141.401 698.933C137.65 695.182 135.543 690.095 135.543 684.791V680C135.543 678.939 135.964 677.922 136.715 677.172C137.465 676.421 138.482 676 139.543 676Z" fill="#E5E5E5"/>
<path d="M577.639 695.786H155.539C150.743 695.783 146.108 694.055 142.48 690.918C138.852 687.781 136.474 683.444 135.778 678.699C135.627 679.116 135.548 679.556 135.543 679.999V684.79C135.543 690.095 137.65 695.182 141.401 698.932C145.152 702.683 150.239 704.79 155.543 704.79H577.643C582.947 704.79 588.034 702.683 591.785 698.932C595.536 695.182 597.643 690.095 597.643 684.79V679.999C597.638 679.556 597.559 679.116 597.408 678.699C596.712 683.446 594.332 687.784 590.703 690.921C587.073 694.058 582.436 695.785 577.639 695.786V695.786Z" fill="#CFD1D0"/>
<path fill-rule="evenodd" clip-rule="evenodd" d="M139.543 679C139.278 679 139.023 679.105 138.836 679.293C138.648 679.48 138.543 679.735 138.543 680V684.791C138.543 689.3 140.334 693.624 143.522 696.812C146.71 700 151.034 701.791 155.543 701.791H577.643C582.152 701.791 586.476 700 589.664 696.812C592.852 693.624 594.643 689.3 594.643 684.791V680C594.643 679.735 594.538 679.48 594.35 679.293C594.163 679.105 593.908 679 593.643 679H139.543ZM134.593 675.05C135.906 673.737 137.686 673 139.543 673H593.643C595.499 673 597.28 673.737 598.593 675.05C599.905 676.363 600.643 678.143 600.643 680V684.791C600.643 690.891 598.22 696.741 593.906 701.054C589.593 705.368 583.743 707.791 577.643 707.791H155.543C149.443 707.791 143.593 705.368 139.28 701.054C134.966 696.741 132.543 690.891 132.543 684.791V680C132.543 678.143 133.28 676.363 134.593 675.05Z" fill="#5F30E2"/>
<path d="M324.591 675.852H408.591C408.591 677.973 407.748 680.008 406.248 681.508C404.748 683.009 402.713 683.852 400.591 683.852H332.591C330.469 683.852 328.434 683.009 326.934 681.508C325.434 680.008 324.591 677.973 324.591 675.852Z" fill="#686B6D"/>
<path fill-rule="evenodd" clip-rule="evenodd" d="M322.591 675.852C322.591 674.747 323.486 673.852 324.591 673.852H408.591C409.696 673.852 410.591 674.747 410.591 675.852C410.591 678.504 409.537 681.047 407.662 682.923C405.787 684.798 403.243 685.852 400.591 685.852H332.591C329.939 685.852 327.395 684.798 325.52 682.923C323.645 681.047 322.591 678.504 322.591 675.852ZM326.934 677.852C327.23 678.687 327.71 679.455 328.348 680.094C329.474 681.219 331 681.852 332.591 681.852H400.591C402.182 681.852 403.708 681.219 404.834 680.094C405.473 679.455 405.952 678.687 406.248 677.852H326.934Z" fill="#5F30E2"/>
<path d="M365.804 457.617C370.222 457.617 373.804 454.035 373.804 449.617C373.804 445.199 370.222 441.617 365.804 441.617C361.386 441.617 357.804 445.199 357.804 449.617C357.804 454.035 361.386 457.617 365.804 457.617Z" fill="#686B6D"/>
<path fill-rule="evenodd" clip-rule="evenodd" d="M365.804 443.617C362.49 443.617 359.804 446.303 359.804 449.617C359.804 452.931 362.49 455.617 365.804 455.617C369.118 455.617 371.804 452.931 371.804 449.617C371.804 446.303 369.118 443.617 365.804 443.617ZM355.804 449.617C355.804 444.094 360.281 439.617 365.804 439.617C371.327 439.617 375.804 444.094 375.804 449.617C375.804 455.14 371.327 459.617 365.804 459.617C360.281 459.617 355.804 455.14 355.804 449.617Z" fill="#5F30E2"/>
<path d="M608.134 704.886C608.179 697.227 611.253 689.897 616.685 684.497C622.117 679.097 629.464 676.066 637.124 676.066C644.783 676.066 652.131 679.097 657.562 684.497C662.994 689.897 666.068 697.227 666.113 704.886H608.134Z" fill="#E5E5E5"/>
<path d="M637.124 695.73C641.27 695.77 645.376 694.921 649.166 693.242C652.957 691.563 656.344 689.091 659.1 685.994C656.381 682.827 653.009 680.286 649.216 678.543C645.423 676.801 641.298 675.898 637.123 675.898C632.949 675.898 628.824 676.801 625.031 678.543C621.238 680.286 617.866 682.827 615.147 685.994C617.903 689.092 621.29 691.563 625.081 693.242C628.872 694.922 632.978 695.77 637.124 695.73V695.73Z" fill="#CFD1D0"/>
<path fill-rule="evenodd" clip-rule="evenodd" d="M637.124 679.066C630.257 679.066 623.67 681.784 618.8 686.625C614.649 690.751 612.034 696.134 611.328 701.886H662.92C662.213 696.134 659.598 690.751 655.447 686.625C650.578 681.784 643.99 679.066 637.124 679.066ZM614.57 682.37C620.564 676.411 628.672 673.066 637.124 673.066C645.575 673.066 653.684 676.411 659.677 682.37C665.671 688.328 669.063 696.417 669.113 704.868C669.118 705.667 668.804 706.435 668.241 707.001C667.677 707.568 666.912 707.886 666.113 707.886H608.134C607.335 707.886 606.57 707.568 606.006 707.001C605.443 706.435 605.129 705.667 605.134 704.868C605.184 696.417 608.576 688.328 614.57 682.37Z" fill="#5F30E2"/>
<path opacity="0.14" d="M413.999 499.781H262.015C257.592 499.781 254.007 503.367 254.007 507.789V625.773C254.007 630.196 257.592 633.781 262.015 633.781H413.999C418.422 633.781 422.007 630.196 422.007 625.773V507.789C422.007 503.367 418.422 499.781 413.999 499.781Z" fill="#A0D4A1"/>
<path d="M406.166 492.781H254.182C249.759 492.781 246.174 496.367 246.174 500.789V618.773C246.174 623.196 249.759 626.781 254.182 626.781H406.166C410.589 626.781 414.174 623.196 414.174 618.773V500.789C414.174 496.367 410.589 492.781 406.166 492.781Z" fill="#A0D4A1"/>
<path fill-rule="evenodd" clip-rule="evenodd" d="M254.182 494.781C250.864 494.781 248.174 497.471 248.174 500.789V618.773C248.174 622.091 250.864 624.781 254.182 624.781H406.166C409.484 624.781 412.174 622.091 412.174 618.773V500.789C412.174 497.471 409.484 494.781 406.166 494.781H254.182ZM244.174 500.789C244.174 495.262 248.655 490.781 254.182 490.781H406.166C411.693 490.781 416.174 495.262 416.174 500.789V618.773C416.174 624.301 411.693 628.781 406.166 628.781H254.182C248.655 628.781 244.174 624.301 244.174 618.773V500.789Z" fill="#5F30E2"/>
<path d="M254.181 492.781H406.166C408.29 492.781 410.327 493.625 411.829 495.127C413.33 496.629 414.174 498.665 414.174 500.789V512.781H246.174V500.789C246.174 498.666 247.018 496.629 248.519 495.127C250.021 493.625 252.057 492.782 254.181 492.781Z" fill="#F7F4FF"/>
<path fill-rule="evenodd" clip-rule="evenodd" d="M254.181 494.781C252.588 494.782 251.06 495.415 249.933 496.541C248.807 497.668 248.174 499.196 248.174 500.789V510.781H412.174V500.789C412.174 499.196 411.541 497.668 410.414 496.541C409.288 495.414 407.759 494.781 406.166 494.781H254.181C254.181 494.781 254.181 494.781 254.181 494.781ZM247.105 493.713C248.981 491.836 251.527 490.782 254.181 490.781H406.166C408.82 490.781 411.366 491.836 413.243 493.713C415.12 495.589 416.174 498.135 416.174 500.789V512.781C416.174 513.886 415.279 514.781 414.174 514.781H246.174C245.07 514.781 244.174 513.886 244.174 512.781V500.789C244.174 498.135 245.228 495.59 247.105 493.713Z" fill="#5F30E2"/>
<path opacity="0.35" d="M260.507 505.906C262.233 505.906 263.632 504.507 263.632 502.781C263.632 501.055 262.233 499.656 260.507 499.656C258.781 499.656 257.382 501.055 257.382 502.781C257.382 504.507 258.781 505.906 260.507 505.906Z" fill="#5F30E2"/>
<path opacity="0.35" d="M270.34 505.906C272.066 505.906 273.465 504.507 273.465 502.781C273.465 501.055 272.066 499.656 270.34 499.656C268.614 499.656 267.215 501.055 267.215 502.781C267.215 504.507 268.614 505.906 270.34 505.906Z" fill="#5F30E2"/>
<path opacity="0.35" d="M279.674 505.906C281.4 505.906 282.799 504.507 282.799 502.781C282.799 501.055 281.4 499.656 279.674 499.656C277.948 499.656 276.549 501.055 276.549 502.781C276.549 504.507 277.948 505.906 279.674 505.906Z" fill="#5F30E2"/>
<path fill-rule="evenodd" clip-rule="evenodd" d="M265.007 521.281H254.007V518.281H265.007V521.281Z" fill="#A0D4A1"/>
<path fill-rule="evenodd" clip-rule="evenodd" d="M299.007 521.281H269.007V518.281H299.007V521.281Z" fill="#A0D4A1"/>
<path fill-rule="evenodd" clip-rule="evenodd" d="M299.007 529.281H254.007V526.281H299.007V529.281Z" fill="#F7F4FF"/>
<path fill-rule="evenodd" clip-rule="evenodd" d="M285.007 537.281H263.007V534.281H285.007V537.281Z" fill="#F7F4FF"/>
<path fill-rule="evenodd" clip-rule="evenodd" d="M313.007 537.281H289.007V534.281H313.007V537.281Z" fill="#F2F3F4"/>
<path fill-rule="evenodd" clip-rule="evenodd" d="M321.007 545.281H275.007V542.281H321.007V545.281Z" fill="#F2F3F4"/>
<path fill-rule="evenodd" clip-rule="evenodd" d="M309.007 553.281H275.007V550.281H309.007V553.281Z" fill="#FFA49F"/>
<path fill-rule="evenodd" clip-rule="evenodd" d="M313.007 561.281H263.007V558.281H313.007V561.281Z" fill="#F2F3F4"/>
<path fill-rule="evenodd" clip-rule="evenodd" d="M281.007 568.281H254.007V565.281H281.007V568.281Z" fill="#F7F4FF"/>
<path opacity="0.3" d="M486.643 605.522C486.643 601.57 485.115 598.786 482.061 597.079C479.905 595.911 479.007 595.012 479.007 592.947V589.447C479.007 587.022 480.085 586.483 481.971 585.225C485.115 583.878 486.643 581.004 486.643 576.692V569.056C486.643 562.948 488.888 558.456 492.122 556.57C494.541 554.845 497.417 553.876 500.386 553.785H501.554C504.069 553.785 505.326 555.043 505.327 557.558V558.9C505.327 561.325 504.069 562.583 501.554 562.583C498.054 562.583 496.344 565.098 496.344 570.218V579.65C496.433 581.94 495.863 584.207 494.7 586.182C493.538 588.157 491.832 589.756 489.787 590.789L488.978 591.058V591.238C489.9 591.51 490.756 591.969 491.493 592.586C493.739 593.932 496.344 597.077 496.344 602.556V613.066C496.344 618.096 498.051 620.612 501.554 620.612C504.069 620.612 505.326 621.869 505.327 624.384V625.732C505.327 628.247 504.069 629.505 501.554 629.505H500.386C497.417 629.415 494.541 628.445 492.122 626.72C488.888 624.834 486.643 620.253 486.643 614.234V605.522Z" fill="white"/>
<path fill-rule="evenodd" clip-rule="evenodd" d="M90.6424 650.573C91.234 650.094 92.091 650.133 92.6356 650.666L95.1356 653.11C95.7279 653.689 95.7387 654.639 95.1596 655.231C94.5805 655.823 93.6308 655.834 93.0384 655.255L91.4791 653.731C83.8079 659.572 74.4218 662.747 64.755 662.747C55.0871 662.747 45.7 659.572 38.0284 653.729L36.969 654.759C36.3753 655.337 35.4256 655.324 34.8479 654.73C34.2702 654.137 34.2832 653.187 34.8769 652.609L36.8769 650.663C37.4218 650.133 38.277 650.094 38.8675 650.573C46.1898 656.508 55.3293 659.747 64.755 659.747C74.1807 659.747 83.3201 656.508 90.6424 650.573Z" fill="#5F30E2"/>
<path fill-rule="evenodd" clip-rule="evenodd" d="M50.2552 639.514C51.3394 638.429 52.8098 637.82 54.343 637.82C55.8763 637.82 57.3467 638.429 58.4308 639.514C59.5149 640.598 60.124 642.068 60.124 643.601C60.124 644.43 59.4524 645.101 58.624 645.101C57.7956 645.101 57.124 644.43 57.124 643.601C57.124 642.864 56.831 642.156 56.3095 641.635C55.7879 641.113 55.0806 640.82 54.343 640.82C53.6055 640.82 52.8981 641.113 52.3765 641.635C51.855 642.156 51.562 642.864 51.562 643.601V647.522C51.562 648.351 50.8904 649.022 50.062 649.022C49.2336 649.022 48.562 648.351 48.562 647.522V643.601C48.562 642.068 49.1711 640.598 50.2552 639.514Z" fill="#5F30E2"/>
<path fill-rule="evenodd" clip-rule="evenodd" d="M75.6689 640.82C74.9314 640.82 74.224 641.113 73.7025 641.635C73.1809 642.156 72.8879 642.864 72.8879 643.601C72.8879 644.43 72.2164 645.101 71.3879 645.101C70.5595 645.101 69.8879 644.43 69.8879 643.601C69.8879 642.068 70.497 640.598 71.5812 639.514C72.6653 638.429 74.1357 637.82 75.6689 637.82C77.2022 637.82 78.6726 638.429 79.7567 639.514C80.8409 640.598 81.4499 642.068 81.4499 643.601V647.522C81.4499 648.351 80.7784 649.022 79.9499 649.022C79.1215 649.022 78.4499 648.351 78.4499 647.522V643.601C78.4499 642.864 78.1569 642.156 77.6354 641.635C77.1138 641.113 76.4065 640.82 75.6689 640.82Z" fill="#5F30E2"/>
<path d="M795.467 693.922L785.562 695.3L791.893 704.515L795.467 693.922Z" fill="#E5E5E5"/>
<path fill-rule="evenodd" clip-rule="evenodd" d="M797.007 692.646C797.449 693.18 797.584 693.905 797.362 694.561L793.788 705.154C793.546 705.872 792.919 706.391 792.169 706.496C791.418 706.6 790.674 706.272 790.245 705.647L783.914 696.432C783.521 695.861 783.452 695.127 783.732 694.493C784.012 693.859 784.6 693.414 785.286 693.319L795.191 691.941C795.878 691.845 796.565 692.112 797.007 692.646ZM789.043 696.835L791.277 700.086L792.537 696.349L789.043 696.835Z" fill="#5F30E2"/>
<path d="M767.641 574.887H689.841C684.815 574.887 680.741 578.961 680.741 583.987V695.787C680.741 700.813 684.815 704.887 689.841 704.887H767.641C772.667 704.887 776.741 700.813 776.741 695.787V583.987C776.741 578.961 772.667 574.887 767.641 574.887Z" fill="#E5E5E5"/>
<path d="M767.641 574.887H766.488C766.654 575.574 766.739 576.279 766.741 576.987V688.787C766.741 691.2 765.782 693.515 764.076 695.221C762.369 696.928 760.054 697.887 757.641 697.887H681C681.472 699.879 682.603 701.653 684.208 702.923C685.813 704.193 687.8 704.885 689.847 704.887H767.647C770.06 704.887 772.375 703.928 774.082 702.221C775.788 700.515 776.747 698.2 776.747 695.787V583.987C776.747 582.791 776.511 581.607 776.054 580.503C775.596 579.398 774.925 578.395 774.08 577.55C773.234 576.705 772.23 576.035 771.125 575.578C770.02 575.121 768.837 574.886 767.641 574.887V574.887Z" fill="#CFD1D0"/>
<path fill-rule="evenodd" clip-rule="evenodd" d="M689.841 577.887C686.472 577.887 683.741 580.618 683.741 583.987V695.787C683.741 699.156 686.472 701.887 689.841 701.887H767.641C771.01 701.887 773.741 699.156 773.741 695.787V583.987C773.741 580.618 771.01 577.887 767.641 577.887H689.841ZM677.741 583.987C677.741 577.304 683.158 571.887 689.841 571.887H767.641C774.324 571.887 779.741 577.304 779.741 583.987V695.787C779.741 702.469 774.324 707.887 767.641 707.887H689.841C683.158 707.887 677.741 702.469 677.741 695.787V583.987Z" fill="#5F30E2"/>
<path d="M744.741 567.344H736.741V564.344C736.741 562.222 735.898 560.187 734.398 558.687C732.898 557.187 730.863 556.344 728.741 556.344C726.619 556.344 724.585 557.187 723.084 558.687C721.584 560.187 720.741 562.222 720.741 564.344V567.344H712.741C710.619 567.344 708.585 568.187 707.084 569.687C705.584 571.187 704.741 573.222 704.741 575.344C704.741 577.465 705.584 579.5 707.084 581.001C708.585 582.501 710.619 583.344 712.741 583.344H744.741C746.863 583.344 748.898 582.501 750.398 581.001C751.898 579.5 752.741 577.465 752.741 575.344C752.741 573.222 751.898 571.187 750.398 569.687C748.898 568.187 746.863 567.344 744.741 567.344Z" fill="#F7F4FF"/>
<path d="M748.458 568.262C748.783 569.447 748.829 570.691 748.593 571.898C748.357 573.104 747.846 574.239 747.099 575.215C746.352 576.191 745.389 576.981 744.286 577.523C743.183 578.066 741.97 578.346 740.741 578.342H708.741C707.446 578.342 706.17 578.027 705.024 577.423C705.481 579.12 706.485 580.62 707.88 581.69C709.275 582.759 710.983 583.34 712.741 583.342H744.741C746.528 583.34 748.264 582.74 749.67 581.637C751.077 580.534 752.073 578.992 752.501 577.256C752.929 575.521 752.763 573.692 752.03 572.062C751.297 570.432 750.04 569.094 748.458 568.262Z" fill="#F7F4FF"/>
<path d="M732.741 559.342V562.342H736.479C736.2 561.261 735.698 560.251 735.006 559.376C734.313 558.502 733.445 557.781 732.458 557.262C732.644 557.94 732.739 558.639 732.741 559.342V559.342Z" fill="#F7F4FF"/>
<path fill-rule="evenodd" clip-rule="evenodd" d="M720.963 556.566C723.026 554.503 725.824 553.344 728.741 553.344C731.658 553.344 734.456 554.503 736.519 556.566C738.582 558.628 739.741 561.426 739.741 564.344H744.741C747.658 564.344 750.456 565.503 752.519 567.566C754.582 569.628 755.741 572.426 755.741 575.344C755.741 578.261 754.582 581.059 752.519 583.122C750.456 585.185 747.658 586.344 744.741 586.344H712.741C709.824 586.344 707.026 585.185 704.963 583.122C702.9 581.059 701.741 578.261 701.741 575.344C701.741 572.426 702.9 569.628 704.963 567.566C707.026 565.503 709.824 564.344 712.741 564.344H717.741C717.741 561.426 718.9 558.628 720.963 556.566ZM728.741 559.344C727.415 559.344 726.143 559.871 725.206 560.808C724.268 561.746 723.741 563.018 723.741 564.344V567.344C723.741 569.001 722.398 570.344 720.741 570.344H712.741C711.415 570.344 710.143 570.871 709.206 571.808C708.268 572.746 707.741 574.018 707.741 575.344C707.741 576.67 708.268 577.942 709.206 578.879C710.143 579.817 711.415 580.344 712.741 580.344H744.741C746.067 580.344 747.339 579.817 748.277 578.879C749.214 577.942 749.741 576.67 749.741 575.344C749.741 574.018 749.214 572.746 748.277 571.808C747.339 570.871 746.067 570.344 744.741 570.344H736.741C735.084 570.344 733.741 569.001 733.741 567.344V564.344C733.741 563.018 733.214 561.746 732.277 560.808C731.339 559.871 730.067 559.344 728.741 559.344Z" fill="#5F30E2"/>
<path d="M728.741 612.342C733.343 612.342 737.074 608.611 737.074 604.009C737.074 599.407 733.343 595.676 728.741 595.676C724.139 595.676 720.408 599.407 720.408 604.009C720.408 608.611 724.139 612.342 728.741 612.342Z" fill="#F7F4FF"/>
<path fill-rule="evenodd" clip-rule="evenodd" d="M728.741 598.676C725.796 598.676 723.408 601.063 723.408 604.009C723.408 606.954 725.796 609.342 728.741 609.342C731.686 609.342 734.074 606.954 734.074 604.009C734.074 601.063 731.686 598.676 728.741 598.676ZM717.408 604.009C717.408 597.75 722.482 592.676 728.741 592.676C735 592.676 740.074 597.75 740.074 604.009C740.074 610.268 735 615.342 728.741 615.342C722.482 615.342 717.408 610.268 717.408 604.009Z" fill="#5F30E2"/>
<path fill-rule="evenodd" clip-rule="evenodd" d="M693.964 629.676C693.964 628.019 695.307 626.676 696.964 626.676H716.964C718.621 626.676 719.964 628.019 719.964 629.676C719.964 631.333 718.621 632.676 716.964 632.676H696.964C695.307 632.676 693.964 631.333 693.964 629.676Z" fill="#5F30E2"/>
<path fill-rule="evenodd" clip-rule="evenodd" d="M693.964 656.844C693.964 655.187 695.307 653.844 696.964 653.844H716.964C718.621 653.844 719.964 655.187 719.964 656.844C719.964 658.501 718.621 659.844 716.964 659.844H696.964C695.307 659.844 693.964 658.501 693.964 656.844Z" fill="#5F30E2"/>
<path fill-rule="evenodd" clip-rule="evenodd" d="M693.964 684.008C693.964 682.351 695.307 681.008 696.964 681.008H716.964C718.621 681.008 719.964 682.351 719.964 684.008C719.964 685.665 718.621 687.008 716.964 687.008H696.964C695.307 687.008 693.964 685.665 693.964 684.008Z" fill="#5F30E2"/>
<path fill-rule="evenodd" clip-rule="evenodd" d="M752.595 622.611C753.258 623.494 753.081 624.748 752.198 625.411L736.594 637.141C735.711 637.805 734.457 637.627 733.793 636.745L728.579 629.81C727.916 628.927 728.093 627.673 728.976 627.009C729.859 626.345 731.113 626.523 731.777 627.406L735.789 632.742L749.794 622.214C750.677 621.55 751.931 621.728 752.595 622.611Z" fill="#F7F4FF"/>
<path fill-rule="evenodd" clip-rule="evenodd" d="M752.595 649.775C753.258 650.658 753.081 651.912 752.198 652.575L736.594 664.306C736.17 664.625 735.637 664.762 735.111 664.688C734.586 664.613 734.112 664.333 733.793 663.909L728.579 656.973C727.916 656.091 728.093 654.837 728.976 654.173C729.859 653.509 731.113 653.687 731.777 654.57L735.789 659.907L749.794 649.378C750.677 648.714 751.931 648.892 752.595 649.775Z" fill="#F7F4FF"/>
<path d="M786.644 630.532L776.74 631.91L785.561 695.299L795.465 693.921L786.644 630.532Z" fill="#A0D4A1"/>
<path fill-rule="evenodd" clip-rule="evenodd" d="M774.759 632.184C774.607 631.09 775.37 630.08 776.464 629.927L786.369 628.549C787.463 628.397 788.473 629.16 788.625 630.254L797.446 693.644C797.598 694.738 796.835 695.748 795.741 695.9L785.836 697.279C784.742 697.431 783.732 696.667 783.58 695.573L774.759 632.184ZM778.996 633.614L787.266 693.041L793.209 692.214L784.939 632.787L778.996 633.614Z" fill="#5F30E2"/>
<path d="M782.986 620.461L777.046 621.289L778.426 631.189L784.366 630.361L782.986 620.461Z" fill="#E5E5E5"/>
<path fill-rule="evenodd" clip-rule="evenodd" d="M775.066 621.566C774.913 620.472 775.676 619.462 776.77 619.31L782.71 618.482C783.803 618.33 784.813 619.092 784.966 620.186L786.346 630.086C786.498 631.179 785.735 632.19 784.642 632.342L778.702 633.17C777.608 633.322 776.598 632.559 776.446 631.466L775.066 621.566ZM779.302 622.994L780.13 628.934L782.11 628.658L781.282 622.718L779.302 622.994Z" fill="#5F30E2"/>
<path fill-rule="evenodd" clip-rule="evenodd" d="M786.132 634.089C786.29 632.996 787.304 632.238 788.397 632.396C790.82 632.746 792.45 633.428 793.562 634.472C794.464 635.321 794.91 636.375 795.12 636.871C795.155 636.954 795.183 637.021 795.206 637.069M786.132 634.089C785.974 635.183 786.732 636.197 787.825 636.355ZM787.825 636.355C789.819 636.643 790.54 637.122 790.822 637.387ZM790.822 637.387C791.066 637.616 791.137 637.777 791.318 638.184ZM791.318 638.184C791.389 638.343 791.476 638.539 791.596 638.791ZM795.429 643.251C795.074 645.068 794.746 646.864 795.213 649.161C795.599 651.051 796.309 652.859 797.31 654.507C797.883 655.451 797.582 656.681 796.638 657.255C795.694 657.828 794.464 657.527 793.891 656.583C792.651 654.542 791.772 652.302 791.294 649.962L791.293 649.96C790.656 646.826 791.138 644.352 791.503 642.485L791.503 642.485C791.89 640.5 792 639.639 791.596 638.791L791.596 638.791M795.429 643.251C795.444 643.171 795.46 643.09 795.477 643.007ZM795.477 643.007C795.806 641.341 796.226 639.208 795.206 637.069Z" fill="#5F30E2"/>
<path d="M392.007 227.582C405.262 227.582 416.007 216.837 416.007 203.582C416.007 190.327 405.262 179.582 392.007 179.582C378.752 179.582 368.007 190.327 368.007 203.582C368.007 216.837 378.752 227.582 392.007 227.582Z" fill="white"/>
<path d="M323.111 209C321.89 208.996 320.685 208.733 319.573 208.229C318.461 207.724 317.469 206.99 316.663 206.074C315.856 205.158 315.252 204.081 314.892 202.915C314.532 201.749 314.423 200.519 314.573 199.308C319.238 159.7 352.127 129 392.007 129C431.887 129 464.776 159.7 469.44 199.308C469.59 200.52 469.481 201.749 469.121 202.916C468.761 204.082 468.157 205.159 467.35 206.075C466.543 206.991 465.551 207.725 464.439 208.23C463.327 208.734 462.121 208.996 460.9 209H323.111Z" fill="#F7F4FF"/>
<path d="M404.007 129.944C403.749 129.903 403.488 129.874 403.229 129.836C402.32 129.702 401.406 129.581 400.487 129.479C400.069 129.432 399.65 129.394 399.23 129.354C398.468 129.282 397.705 129.217 396.941 129.173C396.497 129.147 396.056 129.114 395.611 129.093C394.416 129.037 393.211 129 392.011 129C390.811 129 389.611 129.036 388.423 129.093C387.874 129.119 387.329 129.162 386.783 129.199C386.193 129.24 385.603 129.282 385.016 129.337C384.296 129.402 383.58 129.48 382.866 129.566C382.517 129.608 382.166 129.655 381.822 129.702C345.798 134.525 317.495 164.538 314.31 201.951C314.231 202.845 314.338 203.746 314.626 204.597C314.914 205.447 315.375 206.229 315.98 206.891C316.586 207.554 317.322 208.084 318.144 208.447C318.965 208.81 319.852 208.998 320.75 209H463.268C464.158 209.003 465.039 208.821 465.856 208.466C466.672 208.112 467.407 207.592 468.012 206.94C468.618 206.287 469.082 205.517 469.376 204.676C469.669 203.836 469.785 202.944 469.717 202.056C466.629 165.22 439.2 135.518 404.007 129.944ZM341.031 186.929C344.433 174.568 350.78 163.216 359.53 153.846C368.28 144.476 379.172 137.368 391.271 133.129C403.381 137.359 414.284 144.464 423.044 153.835C431.804 163.206 438.159 174.562 441.565 186.929C441.997 188.527 442.055 190.204 441.733 191.828C441.412 193.452 440.72 194.981 439.711 196.294C438.702 197.607 437.404 198.67 435.918 199.399C434.431 200.129 432.797 200.505 431.141 200.5H351.456C349.8 200.506 348.165 200.129 346.679 199.4C345.192 198.67 343.894 197.608 342.885 196.295C341.876 194.981 341.184 193.453 340.862 191.829C340.541 190.204 340.599 188.527 341.031 186.929V186.929Z" fill="#F7F4FF"/>
<path d="M323.178 209C321.949 208.997 320.734 208.732 319.614 208.225C318.494 207.717 317.495 206.978 316.682 206.055C315.869 205.133 315.262 204.049 314.899 202.874C314.536 201.699 314.427 200.461 314.578 199.241C319.275 159.661 352.15 129 392.007 129C431.864 129 464.739 159.661 469.432 199.241C469.583 200.461 469.474 201.699 469.111 202.874C468.749 204.049 468.141 205.133 467.328 206.056C466.515 206.978 465.516 207.718 464.396 208.225C463.276 208.733 462.061 208.997 460.832 209H323.178Z" stroke="#5F30E2" stroke-width="6" stroke-linecap="round" stroke-linejoin="round"/>
<path d="M392.007 0V129" stroke="#5F30E2" stroke-width="6" stroke-linejoin="round"/>
<defs>
<linearGradient id="paint0_linear_449_15348" x1="392.007" y1="194.725" x2="392.007" y2="719.205" gradientUnits="userSpaceOnUse">
<stop stop-color="white"/>
<stop offset="0.093" stop-color="white" stop-opacity="0.864"/>
<stop offset="0.284" stop-color="white" stop-opacity="0.605"/>
<stop offset="0.466" stop-color="white" stop-opacity="0.389"/>
<stop offset="0.633" stop-color="white" stop-opacity="0.221"/>
<stop offset="0.784" stop-color="white" stop-opacity="0.1"/>
<stop offset="0.911" stop-color="white" stop-opacity="0.026"/>
<stop offset="1" stop-color="white" stop-opacity="0"/>
</linearGradient>
</defs>
</svg>
