<svg xmlns="http://www.w3.org/2000/svg" fill-rule="evenodd" stroke-linejoin="round"
        fill="#274c77"
        stroke-miterlimit="2" clip-rule="evenodd" viewBox="0 0 500 500">
        <path
                d="M240.5,265.662L240.5,284.901C193.195,289.665 156.212,329.654 156.212,378.212C156.212,429.975 198.237,472 250,472C301.763,472 343.788,429.975 343.788,378.212C343.788,329.654 306.805,289.665 259.5,284.901L259.5,265.662L332.572,215.073C335.135,213.299 336.665,210.38 336.665,207.263L336.665,37.5C336.665,32.253 332.412,28 327.165,28L172.835,28C167.588,28 163.335,32.253 163.335,37.5L163.335,207.263C163.335,210.38 164.865,213.299 167.428,215.073L240.5,265.662ZM250,303.425C291.276,303.425 324.788,336.936 324.788,378.212C324.788,419.489 291.276,453 250,453C208.724,453 175.212,419.489 175.212,378.212C175.212,336.936 208.724,303.425 250,303.425ZM258.374,338.291C256.72,335.204 253.502,333.277 250,333.277C246.498,333.277 243.28,335.204 241.626,338.291L231.717,356.789C231.717,356.789 211.063,360.497 211.063,360.497C207.616,361.115 204.789,363.581 203.706,366.912C202.624,370.242 203.462,373.899 205.887,376.425L220.418,391.565C220.418,391.565 217.561,412.354 217.561,412.354C217.085,415.824 218.556,419.274 221.389,421.333C224.222,423.392 227.959,423.724 231.111,422.199L250,413.058C250,413.058 268.889,422.199 268.889,422.199C272.041,423.724 275.778,423.392 278.611,421.333C281.444,419.274 282.915,415.824 282.439,412.354L279.582,391.565C279.582,391.565 294.113,376.425 294.113,376.425C296.538,373.899 297.376,370.242 296.294,366.912C295.211,363.581 292.384,361.115 288.937,360.497L268.283,356.789C268.283,356.789 258.374,338.291 258.374,338.291ZM250,362.896L253.705,369.813C255.076,372.373 257.543,374.165 260.401,374.678L268.124,376.064C268.124,376.064 262.691,381.726 262.691,381.726C260.68,383.821 259.738,386.72 260.133,389.597L261.201,397.371C261.201,397.371 254.138,393.953 254.138,393.953C251.524,392.688 248.476,392.688 245.862,393.953L238.799,397.371C238.799,397.371 239.867,389.597 239.867,389.597C240.262,386.72 239.32,383.821 237.309,381.726L231.876,376.064C231.876,376.064 239.599,374.678 239.599,374.678C242.457,374.165 244.924,372.373 246.295,369.813L250,362.896ZM264.837,238.858L264.837,90.5L235.163,90.5L235.163,238.858L250,249.13L264.837,238.858ZM216.163,225.705L216.163,90.5L182.335,90.5L182.335,202.285L216.163,225.705ZM317.665,90.5L283.837,90.5L283.837,225.705L317.665,202.285L317.665,90.5ZM182.335,71.5L182.335,47L317.665,47L317.665,71.5L182.335,71.5Z" />
</svg>