<svg id="SvgjsSvg1001" width="288" height="288" xmlns="http://www.w3.org/2000/svg" version="1.1" xmlns:xlink="http://www.w3.org/1999/xlink" xmlns:svgjs="http://svgjs.com/svgjs"><defs id="SvgjsDefs1002"></defs><g id="SvgjsG1008"><svg xmlns="http://www.w3.org/2000/svg" enable-background="new 0 0 64 64" viewBox="0 0 64 64" width="288" height="288"><path fill="#0f117a" d="M63.03,0H34.67c-0.53,0-0.97,0.44-0.97,0.97v28.36c0,0.53,0.44,0.97,0.97,0.97h28.36
		c0.53,0,0.97-0.44,0.97-0.97V0.97C64,0.44,63.56,0,63.03,0z M62.06,28.36H35.64V1.94h26.42V28.36z" class="color2b2f64 svgShape"></path><path fill="#4fe6b8" d="M35.64,1.94v26.42h26.42V1.94H35.64z M55.91,16.12H41.79c-0.53,0-0.97-0.43-0.97-0.97
		c0-0.53,0.44-0.97,0.97-0.97h14.12c0.53,0,0.97,0.44,0.97,0.97C56.88,15.69,56.45,16.12,55.91,16.12z" class="color4fbee6 svgShape"></path><path fill="#0f117a" d="M56.88 15.15c0 .54-.44.97-.97.97H41.79c-.53 0-.97-.43-.97-.97 0-.53.44-.97.97-.97h14.12C56.45 14.18 56.88 14.61 56.88 15.15zM29.33 0H.97C.44 0 0 .44 0 .97v28.36c0 .53.44.97.97.97h28.36c.53 0 .97-.44.97-.97V.97C30.3.44 29.87 0 29.33 0zM28.36 28.36H1.94V1.94h26.42V28.36z" class="color2b2f64 svgShape"></path><path fill="#ddf516" d="M1.94,1.94v26.42h26.42V1.94H1.94z M22.21,16.12h-6.09v6.09c0,0.53-0.43,0.97-0.97,0.97
		c-0.53,0-0.97-0.44-0.97-0.97v-6.09H8.09c-0.53,0-0.97-0.43-0.97-0.97c0-0.53,0.44-0.97,0.97-0.97h6.09V8.09
		c0-0.53,0.44-0.97,0.97-0.97c0.54,0,0.97,0.44,0.97,0.97v6.09h6.09c0.53,0,0.97,0.44,0.97,0.97
		C23.18,15.69,22.74,16.12,22.21,16.12z" class="colorf8af49 svgShape"></path><path fill="#0f117a" d="M23.18 15.15c0 .54-.44.97-.97.97h-6.09v6.09c0 .53-.43.97-.97.97-.53 0-.97-.44-.97-.97v-6.09H8.09c-.53 0-.97-.43-.97-.97 0-.53.44-.97.97-.97h6.09V8.09c0-.53.44-.97.97-.97.54 0 .97.44.97.97v6.09h6.09C22.74 14.18 23.18 14.61 23.18 15.15zM63.03 33.7H34.67c-.53 0-.97.44-.97.97v28.36c0 .53.44.97.97.97h28.36c.53 0 .97-.44.97-.97V34.67C64 34.13 63.56 33.7 63.03 33.7zM62.06 62.06H35.64V35.64h26.42V62.06z" class="color2b2f64 svgShape"></path><path fill="#12e2a3" d="M35.64,35.64v26.42h26.42V35.64H35.64z M55.91,52.57H41.79c-0.53,0-0.97-0.44-0.97-0.97
		c0-0.54,0.44-0.97,0.97-0.97h14.12c0.53,0,0.97,0.43,0.97,0.97C56.88,52.13,56.45,52.57,55.91,52.57z M55.91,47.08H41.79
		c-0.53,0-0.97-0.44-0.97-0.97c0-0.53,0.44-0.97,0.97-0.97h14.12c0.53,0,0.97,0.44,0.97,0.97C56.88,46.64,56.45,47.08,55.91,47.08z" class="color54bf9f svgShape"></path><path fill="#0f117a" d="M56.88 46.11c0 .53-.44.97-.97.97H41.79c-.53 0-.97-.44-.97-.97 0-.53.44-.97.97-.97h14.12C56.45 45.14 56.88 45.58 56.88 46.11zM56.88 51.6c0 .53-.44.97-.97.97H41.79c-.53 0-.97-.44-.97-.97 0-.54.44-.97.97-.97h14.12C56.45 50.63 56.88 51.05 56.88 51.6zM29.33 33.7H.97C.44 33.7 0 34.13 0 34.67v28.36C0 63.56.44 64 .97 64h28.36c.53 0 .97-.44.97-.97V34.67C30.3 34.13 29.87 33.7 29.33 33.7zM28.36 62.06H1.94V35.64h26.42V62.06z" class="color2b2f64 svgShape"></path><path fill="#e2f262" d="M1.94,35.64v26.42h26.42V35.64H1.94z M14.42,43.94h1.46c0.53,0,0.97,0.44,0.97,0.97
		c0,0.53-0.44,0.97-0.97,0.97h-1.46c-0.53,0-0.97-0.44-0.97-0.97C13.45,44.37,13.89,43.94,14.42,43.94z M15.88,53.76h-1.46
		c-0.53,0-0.97-0.44-0.97-0.97c0-0.53,0.44-0.97,0.97-0.97h1.46c0.53,0,0.97,0.44,0.97,0.97C16.85,53.32,16.42,53.76,15.88,53.76z
		 M22.21,49.82H8.09c-0.53,0-0.97-0.44-0.97-0.97c0-0.54,0.44-0.97,0.97-0.97h14.12c0.53,0,0.97,0.43,0.97,0.97
		C23.18,49.39,22.74,49.82,22.21,49.82z" class="colorf26e62 svgShape"></path><path fill="#38daa9" d="M35.64,1.94v26.42h26.42V1.94H35.64z M60.12,26.42H37.58V3.88h22.55V26.42z" class="color38a9da svgShape"></path><path fill="#daed3b" d="M1.94,1.94v26.42h26.42V1.94H1.94z M26.42,26.42H3.88V3.88h22.55V26.42z" class="colored9c3b svgShape"></path><path fill="#389168" d="M35.64,35.64v26.42h26.42V35.64H35.64z M60.12,60.12H37.58V37.58h22.55V60.12z" class="color3da57f svgShape"></path><path fill="#d2e15a" d="M1.94,35.64v26.42h26.42V35.64H1.94z M26.42,60.12H3.88V37.58h22.55V60.12z" class="colore15f5a svgShape"></path><path fill="#0f117a" d="M23.18 48.85c0 .53-.44.97-.97.97H8.09c-.53 0-.97-.44-.97-.97 0-.54.44-.97.97-.97h14.12C22.74 47.88 23.18 48.31 23.18 48.85zM16.85 44.91c0 .53-.44.97-.97.97h-1.46c-.53 0-.97-.44-.97-.97 0-.53.44-.97.97-.97h1.46C16.42 43.94 16.85 44.37 16.85 44.91zM16.85 52.79c0 .53-.44.97-.97.97h-1.46c-.53 0-.97-.44-.97-.97 0-.53.44-.97.97-.97h1.46C16.42 51.82 16.85 52.26 16.85 52.79z" class="color2b2f64 svgShape"></path></svg></g></svg>