<svg xmlns="http://www.w3.org/2000/svg" xmlns:xlink="http://www.w3.org/1999/xlink" viewBox="0 0 859.96 206.81"><defs><style>.cls-1{fill:#262626;}.cls-2{fill:url(#New_Gradient_Swatch_2);}.cls-3{fill:url(#New_Gradient_Swatch_2-2);}.cls-4{fill:url(#New_Gradient_Swatch_3);}.cls-5{fill:url(#New_Gradient_Swatch_3-2);}</style><linearGradient id="New_Gradient_Swatch_2" x1="136.22" y1="90.93" x2="33.56" y2="147.28" gradientTransform="translate(112.6 6.91) rotate(45)" gradientUnits="userSpaceOnUse"><stop offset="0" stop-color="#9176e2"/><stop offset="1" stop-color="#5f30e2"/></linearGradient><linearGradient id="New_Gradient_Swatch_2-2" x1="169.54" y1="81.82" x2="118.61" y2="127.25" gradientTransform="translate(122.27 -53.63) rotate(45)" xlink:href="#New_Gradient_Swatch_2"/><linearGradient id="New_Gradient_Swatch_3" x1="107.88" y1="86.87" x2="46.03" y2="32.7" gradientTransform="translate(-16.02 60.97) rotate(-45)" gradientUnits="userSpaceOnUse"><stop offset="0" stop-color="#a0d4a1"/><stop offset="1" stop-color="#56b259"/></linearGradient><linearGradient id="New_Gradient_Swatch_3-2" x1="140.52" y1="156.86" x2="105.88" y2="182.76" gradientTransform="translate(318.98 221.97) rotate(135)" xlink:href="#New_Gradient_Swatch_3"/></defs><g id="Layer_2" data-name="Layer 2"><g id="Layer_1-2" data-name="Layer 1"><path class="cls-1" d="M231.18,142.77l-19.92-29.93v29.93H190.41V64.06h20.85V93.41l18.26-29.35h24l-24.12,38.38,27.1,40.33Z"/><path class="cls-1" d="M332.06,64v79.59h-6.64l-40.48-39.21v38.48H264V63.28h6.74l40.34,39.06V64Z"/><path class="cls-1" d="M342.32,103.51c0-23.63,18.75-41.55,43.21-41.55s43.21,17.92,43.21,41.55c0,23.44-18.75,41.26-43.26,41.26S342.32,127,342.32,103.51Zm65.28-.14c0-12.16-9.57-21.54-22.07-21.54s-22.07,9.38-22.07,21.54S373,124.8,385.53,124.8,407.6,115.48,407.6,103.37Z"/><path class="cls-1" d="M427.86,64.06h22.61l10.89,36,16.11-35.89H479L495.15,100,506,64.06H528.6l-26.27,79.2h-5.77l-18.4-38.92-18.27,38.92h-5.71Z"/><path class="cls-1" d="M612.55,107.69c0,22.07-17,37.16-37.3,37.16A40.43,40.43,0,1,1,574.9,64c9.67.05,21.44,4.93,28.52,11.81l-5,7.38c-6.1-6.06-15.68-10.31-23.59-10.31a31.68,31.68,0,0,0-31.34,31.6c0,17.28,13.91,31.39,32.08,31.39,15.38,0,27.49-10.3,27.49-24.22a14.86,14.86,0,0,0-.05-1.56H574.81v-8h37.4A52.27,52.27,0,0,1,612.55,107.69Z"/><path class="cls-1" d="M625,65.06h8.89v78.71H625Z"/><path class="cls-1" d="M645.51,129.71l6.83-5c3.57,6.74,11.63,11.23,20,11.23,10.3,0,18.7-5.57,18.7-13.33,0-8.84-11.28-13.09-21.34-16.89-9.67-3.76-20.46-8.5-20.46-20.66s10.89-21.14,24.71-21.14c11.67,0,19.63,6.4,22.55,14.16l-6.68,4.49c-2.54-5.91-8.89-9.91-16-9.91-8.45,0-15.68,5.57-15.68,12.6,0,7.61,8.65,10.4,18.8,14.3,11.82,4.79,23,10.26,23,22.9,0,13.58-12.55,22.42-27.68,22.42C659.33,144.85,649.27,138.11,645.51,129.71Z"/><path class="cls-1" d="M760.35,73.85h-22.8v69.92h-8.89V73.85h-22.9V65.06h54.59Z"/><path class="cls-1" d="M771.14,65.06H780v78.71h-8.89Z"/><path class="cls-1" d="M792.48,104.47c0-22.12,18.36-40.53,40.43-40.53C843,64,852.83,68.67,860,75.85l-5.17,7C849.12,77,841.21,73,832.57,73c-15.82,0-31.1,13.67-31.1,31.5s15.13,31.39,31.25,31.39c8.88,0,16.45-4.2,22.11-9.76l5.13,7.12c-6.54,6.5-15.38,11.58-27,11.58C811.08,144.8,792.48,126.78,792.48,104.47Z"/><path class="cls-2" d="M69,67.93h0a0,0,0,0,1,0,0v100.8a42.08,42.08,0,0,1-42.08,42.08h0a0,0,0,0,1,0,0V110A42.08,42.08,0,0,1,69,67.93Z" transform="translate(-84.5 74.74) rotate(-45)"/><path class="cls-3" d="M146.91,68.91h0a0,0,0,0,1,0,0v61.66a42.08,42.08,0,0,1-42.08,42.08h0a0,0,0,0,1,0,0V111a42.08,42.08,0,0,1,42.08-42.08Z" transform="translate(-48.54 124.38) rotate(-45)"/><path class="cls-4" d="M44.54.4h0A42.08,42.08,0,0,1,86.62,42.49V99.25a0,0,0,0,1,0,0H44.54a0,0,0,0,1,0,0V.4A0,0,0,0,1,44.54.4Z" transform="translate(54.44 -31.78) rotate(45)"/><path class="cls-5" d="M92.48,156h0a42.08,42.08,0,0,1,42.08,42.08v0a0,0,0,0,1,0,0H92.48a0,0,0,0,1,0,0V156A0,0,0,0,1,92.48,156Z" transform="translate(68.59 382.51) rotate(-135)"/></g></g></svg>