<svg width="110" height="35" viewBox="0 0 110 35" fill="none" xmlns="http://www.w3.org/2000/svg">
<path d="M34.7088 32.5551V15.1932C34.7088 15.1932 33.5665 7.11184 26.7919 3.27178C26.7919 3.27178 20.0996 -1.44922 11.7746 1.43136C11.7746 1.43136 4.91878 3.43204 1.73558 10.072C1.73558 10.072 -1.52883 16.3925 0.919213 23.1938C0.919213 23.1938 3.44953 30.0747 9.81593 32.8746C9.81593 32.8746 16.0188 35.8348 22.6299 33.7545C22.6299 33.7545 27.6906 31.9947 29.4857 29.8338C29.4857 29.8338 29.5669 23.0325 22.1405 23.8328C22.1405 23.8328 18.0865 26.4599 14.0057 24.4864C14.0057 24.4864 10.5233 23.1393 9.59794 19.0856C9.59794 19.0856 8.83607 14.8716 11.8836 12.0444C11.8836 12.0444 14.2782 9.11043 18.9573 10.0176C18.9573 10.0176 23.2016 10.3905 24.8343 15.0318C24.8343 15.0318 25.4327 16.6858 25.3237 17.9124C25.3237 17.9124 25.2692 19.9393 24.8343 20.5259C24.8343 20.5259 24.5074 23.7207 27.6638 26.0702C27.6628 26.0712 30.9817 31.4616 34.7088 32.5551Z" fill="url(#paint0_linear_602_5283)"/>
<path d="M0.01099 17.5751C0.01099 17.5751 7.38075 17.7165 10.6046 21.477C10.6046 21.477 12.7876 25.2343 17.7478 25.1976C17.7478 25.1976 21.5625 25.1201 23.644 22.294C25.6582 19.559 25.2009 18.3398 25.3174 16.6931C25.3174 16.6931 25.4125 10.469 29.2656 6.63524C29.2656 6.63524 31.8462 3.61221 34.7441 2.37199L34.7099 18.9452C34.7099 18.9452 34.2547 24.1742 31.2756 27.6948C31.2756 27.6948 29.3159 31.4312 23.7263 33.4151C23.7263 33.4151 20.869 34.5412 17.7275 34.4951C17.7275 34.4951 13.6531 34.6742 9.81704 32.8736C9.81704 32.8736 6.03545 31.4605 3.28074 27.4141C3.28074 27.4141 0.964133 24.4194 0.357199 21.3492C0.35613 21.3502 -0.0734251 19.3998 0.01099 17.5751Z" fill="url(#paint1_linear_602_5283)"/>
<path d="M49.3526 21.2536C49.3526 22.2339 49.2321 23.1178 48.991 23.9053C48.75 24.6927 48.3884 25.3637 47.9063 25.9181C47.4322 26.4726 46.8376 26.8984 46.1224 27.1957C45.4073 27.493 44.5756 27.6417 43.6275 27.6417C43.1935 27.6417 42.7677 27.6136 42.3498 27.5573C41.932 27.5091 41.4941 27.4288 41.0361 27.3163C41.0602 26.9949 41.0883 26.6734 41.1204 26.352C41.1526 26.0306 41.1807 25.7092 41.2048 25.3878C41.2289 25.211 41.2972 25.0704 41.4097 24.9659C41.5302 24.8534 41.699 24.7972 41.9159 24.7972C42.0525 24.7972 42.2293 24.8253 42.4463 24.8816C42.6713 24.9378 42.9525 24.9659 43.29 24.9659C43.748 24.9659 44.1538 24.9017 44.5073 24.7731C44.8609 24.6365 45.1542 24.4236 45.3872 24.1343C45.6282 23.845 45.809 23.4714 45.9296 23.0134C46.0501 22.5473 46.1104 21.9848 46.1104 21.326V10.0203H49.3526V21.2536ZM57.6712 14.8897C58.5872 14.8897 59.4189 15.0383 60.1662 15.3356C60.9215 15.6329 61.5643 16.0548 62.0947 16.6012C62.633 17.1476 63.0468 17.8145 63.3361 18.602C63.6254 19.3894 63.77 20.2693 63.77 21.2416C63.77 22.2219 63.6254 23.1058 63.3361 23.8932C63.0468 24.6807 62.633 25.3516 62.0947 25.9061C61.5643 26.4605 60.9215 26.8864 60.1662 27.1837C59.4189 27.481 58.5872 27.6296 57.6712 27.6296C56.7472 27.6296 55.9075 27.481 55.1522 27.1837C54.3968 26.8864 53.75 26.4605 53.2116 25.9061C52.6813 25.3516 52.2675 24.6807 51.9702 23.8932C51.6809 23.1058 51.5363 22.2219 51.5363 21.2416C51.5363 20.2693 51.6809 19.3894 51.9702 18.602C52.2675 17.8145 52.6813 17.1476 53.2116 16.6012C53.75 16.0548 54.3968 15.6329 55.1522 15.3356C55.9075 15.0383 56.7472 14.8897 57.6712 14.8897ZM57.6712 25.3396C58.6997 25.3396 59.4591 24.9941 59.9492 24.303C60.4474 23.612 60.6965 22.5995 60.6965 21.2657C60.6965 19.9318 60.4474 18.9154 59.9492 18.2163C59.4591 17.5172 58.6997 17.1677 57.6712 17.1677C56.6266 17.1677 55.8512 17.5212 55.345 18.2283C54.8468 18.9274 54.5977 19.9399 54.5977 21.2657C54.5977 22.5915 54.8468 23.604 55.345 24.303C55.8512 24.9941 56.6266 25.3396 57.6712 25.3396ZM69.0183 24.2428C69.3558 24.6526 69.7214 24.9418 70.1151 25.1106C70.5169 25.2793 70.9388 25.3637 71.3807 25.3637C71.8387 25.3637 72.2485 25.2833 72.6101 25.1226C72.9797 24.9539 73.2931 24.6968 73.5502 24.3512C73.8074 23.9977 74.0042 23.5517 74.1408 23.0134C74.2774 22.467 74.3457 21.8161 74.3457 21.0608C74.3457 19.7028 74.1207 18.7225 73.6708 18.1199C73.2208 17.5092 72.5739 17.2038 71.7302 17.2038C71.1597 17.2038 70.6615 17.3364 70.2357 17.6016C69.8098 17.8587 69.404 18.2243 69.0183 18.6984V24.2428ZM69.0183 16.6012C69.5165 16.0789 70.0669 15.6651 70.6696 15.3597C71.2803 15.0464 71.9753 14.8897 72.7547 14.8897C73.4699 14.8897 74.1127 15.0303 74.6832 15.3115C75.2618 15.5928 75.7519 15.9985 76.1537 16.5289C76.5635 17.0512 76.8769 17.686 77.0938 18.4332C77.3108 19.1805 77.4192 20.0202 77.4192 20.9523C77.4192 21.9567 77.2947 22.8687 77.0456 23.6883C76.7965 24.5079 76.4389 25.211 75.9729 25.7976C75.5149 26.3761 74.9604 26.8261 74.3096 27.1475C73.6587 27.4689 72.9355 27.6296 72.14 27.6296C71.7543 27.6296 71.4048 27.5895 71.0914 27.5091C70.7781 27.4368 70.4888 27.3323 70.2236 27.1957C69.9585 27.0591 69.7134 26.8944 69.4884 26.7016C69.2714 26.5007 69.0625 26.2797 68.8616 26.0387L68.7291 26.8703C68.6808 27.0792 68.5965 27.2279 68.4759 27.3163C68.3634 27.4047 68.2068 27.4489 68.0059 27.4489H66.0412V9.53816H69.0183V16.6012Z" fill="#28293D"/>
<path d="M83.8708 24.1946L82.6775 21.0246C82.5811 20.7795 82.4827 20.4682 82.3822 20.0905C82.338 20.2794 82.2898 20.4541 82.2376 20.6148C82.1854 20.7715 82.1372 20.9101 82.093 21.0307L80.8997 24.1946H83.8708ZM86.5405 27.4489H85.4497C85.3252 27.4489 85.2247 27.4187 85.1484 27.3585C85.072 27.2942 85.0138 27.2158 84.9736 27.1234L84.2504 25.207H80.514L79.7908 27.1234C79.7587 27.2038 79.7025 27.2781 79.6221 27.3464C79.5418 27.4147 79.4413 27.4489 79.3208 27.4489H78.23L81.6711 18.7707H83.0994L86.5405 27.4489ZM90.9823 22.4167C90.9502 22.473 90.914 22.5132 90.8738 22.5373C90.8336 22.5614 90.7834 22.5734 90.7232 22.5734C90.6549 22.5734 90.5805 22.5533 90.5002 22.5132C90.4198 22.469 90.3254 22.4208 90.2169 22.3685C90.1085 22.3163 89.9799 22.2701 89.8312 22.2299C89.6866 22.1857 89.5159 22.1636 89.319 22.1636C89.1583 22.1636 89.0116 22.1837 88.8791 22.2239C88.7505 22.2601 88.64 22.3143 88.5476 22.3866C88.4592 22.4549 88.3909 22.5373 88.3427 22.6337C88.2945 22.7261 88.2704 22.8265 88.2704 22.935C88.2704 23.0797 88.3146 23.2002 88.403 23.2966C88.4914 23.393 88.6079 23.4774 88.7525 23.5497C88.8971 23.618 89.0619 23.6803 89.2467 23.7365C89.4315 23.7928 89.6203 23.8531 89.8132 23.9173C90.006 23.9816 90.1948 24.0559 90.3797 24.1403C90.5645 24.2247 90.7292 24.3291 90.8738 24.4537C91.0185 24.5742 91.135 24.7229 91.2234 24.8997C91.3117 25.0724 91.3559 25.2833 91.3559 25.5324C91.3559 25.8217 91.3037 26.0889 91.1993 26.334C91.0948 26.579 90.9421 26.792 90.7412 26.9728C90.5404 27.1536 90.2893 27.2942 89.9879 27.3946C89.6906 27.4951 89.3491 27.5453 88.9634 27.5453C88.7505 27.5453 88.5436 27.5252 88.3427 27.485C88.1458 27.4489 87.957 27.3986 87.7762 27.3343C87.5994 27.266 87.4327 27.1857 87.276 27.0933C87.1233 27.0009 86.9867 26.9004 86.8662 26.792L87.1675 26.2978C87.2037 26.2375 87.2479 26.1913 87.3001 26.1592C87.3564 26.123 87.4247 26.1049 87.505 26.1049C87.5894 26.1049 87.6718 26.1331 87.7521 26.1893C87.8365 26.2415 87.9329 26.2998 88.0414 26.3641C88.1539 26.4284 88.2885 26.4886 88.4452 26.5449C88.6018 26.5971 88.7967 26.6232 89.0297 26.6232C89.2226 26.6232 89.3893 26.6011 89.5299 26.5569C89.6705 26.5087 89.787 26.4444 89.8795 26.3641C89.9719 26.2837 90.0402 26.1933 90.0844 26.0929C90.1285 25.9884 90.1506 25.878 90.1506 25.7614C90.1506 25.6048 90.1065 25.4762 90.0181 25.3757C89.9297 25.2753 89.8112 25.1889 89.6625 25.1166C89.5179 25.0443 89.3511 24.98 89.1623 24.9238C88.9775 24.8675 88.7887 24.8072 88.5958 24.743C88.403 24.6787 88.2121 24.6044 88.0233 24.52C87.8385 24.4356 87.6718 24.3291 87.5231 24.2006C87.3785 24.068 87.262 23.9093 87.1736 23.7245C87.0852 23.5357 87.041 23.3067 87.041 23.0375C87.041 22.7924 87.0892 22.5594 87.1856 22.3384C87.2861 22.1174 87.4307 21.9226 87.6195 21.7538C87.8124 21.5851 88.0474 21.4525 88.3246 21.3561C88.6059 21.2556 88.9293 21.2054 89.2949 21.2054C89.7087 21.2054 90.0844 21.2717 90.4218 21.4043C90.7593 21.5369 91.0426 21.7177 91.2716 21.9467L90.9823 22.4167ZM96.2437 22.4167C96.2116 22.473 96.1754 22.5132 96.1352 22.5373C96.095 22.5614 96.0448 22.5734 95.9846 22.5734C95.9163 22.5734 95.8419 22.5533 95.7616 22.5132C95.6812 22.469 95.5868 22.4208 95.4783 22.3685C95.3699 22.3163 95.2413 22.2701 95.0926 22.2299C94.948 22.1857 94.7773 22.1636 94.5804 22.1636C94.4197 22.1636 94.273 22.1837 94.1405 22.2239C94.0119 22.2601 93.9014 22.3143 93.809 22.3866C93.7206 22.4549 93.6523 22.5373 93.6041 22.6337C93.5559 22.7261 93.5318 22.8265 93.5318 22.935C93.5318 23.0797 93.576 23.2002 93.6644 23.2966C93.7527 23.393 93.8693 23.4774 94.0139 23.5497C94.1585 23.618 94.3233 23.6803 94.5081 23.7365C94.6929 23.7928 94.8817 23.8531 95.0746 23.9173C95.2674 23.9816 95.4562 24.0559 95.641 24.1403C95.8259 24.2247 95.9906 24.3291 96.1352 24.4537C96.2799 24.5742 96.3964 24.7229 96.4848 24.8997C96.5731 25.0724 96.6173 25.2833 96.6173 25.5324C96.6173 25.8217 96.5651 26.0889 96.4606 26.334C96.3562 26.579 96.2035 26.792 96.0026 26.9728C95.8018 27.1536 95.5506 27.2942 95.2493 27.3946C94.952 27.4951 94.6105 27.5453 94.2248 27.5453C94.0119 27.5453 93.805 27.5252 93.6041 27.485C93.4072 27.4489 93.2184 27.3986 93.0376 27.3343C92.8608 27.266 92.6941 27.1857 92.5374 27.0933C92.3847 27.0009 92.2481 26.9004 92.1276 26.792L92.4289 26.2978C92.4651 26.2375 92.5093 26.1913 92.5615 26.1592C92.6178 26.123 92.6861 26.1049 92.7664 26.1049C92.8508 26.1049 92.9331 26.1331 93.0135 26.1893C93.0979 26.2415 93.1943 26.2998 93.3028 26.3641C93.4153 26.4284 93.5499 26.4886 93.7065 26.5449C93.8632 26.5971 94.0581 26.6232 94.2911 26.6232C94.484 26.6232 94.6507 26.6011 94.7913 26.5569C94.9319 26.5087 95.0484 26.4444 95.1408 26.3641C95.2333 26.2837 95.3016 26.1933 95.3457 26.0929C95.3899 25.9884 95.412 25.878 95.412 25.7614C95.412 25.6048 95.3678 25.4762 95.2795 25.3757C95.1911 25.2753 95.0725 25.1889 94.9239 25.1166C94.7793 25.0443 94.6125 24.98 94.4237 24.9238C94.2389 24.8675 94.0501 24.8072 93.8572 24.743C93.6644 24.6787 93.4735 24.6044 93.2847 24.52C93.0999 24.4356 92.9331 24.3291 92.7845 24.2006C92.6399 24.068 92.5233 23.9093 92.435 23.7245C92.3466 23.5357 92.3024 23.3067 92.3024 23.0375C92.3024 22.7924 92.3506 22.5594 92.447 22.3384C92.5475 22.1174 92.6921 21.9226 92.8809 21.7538C93.0738 21.5851 93.3088 21.4525 93.586 21.3561C93.8673 21.2556 94.1907 21.2054 94.5563 21.2054C94.9701 21.2054 95.3457 21.2717 95.6832 21.4043C96.0207 21.5369 96.304 21.7177 96.533 21.9467L96.2437 22.4167ZM99.1849 21.3018V27.4489H97.8892V21.3018H99.1849ZM99.4019 19.4457C99.4019 19.5622 99.3777 19.6727 99.3295 19.7771C99.2853 19.8816 99.2231 19.974 99.1427 20.0544C99.0624 20.1307 98.9679 20.193 98.8595 20.2412C98.755 20.2854 98.6425 20.3075 98.522 20.3075C98.4055 20.3075 98.295 20.2854 98.1905 20.2412C98.0901 20.193 98.0017 20.1307 97.9254 20.0544C97.849 19.974 97.7868 19.8816 97.7385 19.7771C97.6943 19.6727 97.6723 19.5622 97.6723 19.4457C97.6723 19.3252 97.6943 19.2127 97.7385 19.1082C97.7868 19.0037 97.849 18.9134 97.9254 18.837C98.0017 18.7567 98.0901 18.6944 98.1905 18.6502C98.295 18.602 98.4055 18.5779 98.522 18.5779C98.6425 18.5779 98.755 18.602 98.8595 18.6502C98.9679 18.6944 99.0624 18.7567 99.1427 18.837C99.2231 18.9134 99.2853 19.0037 99.3295 19.1082C99.3777 19.2127 99.4019 19.3252 99.4019 19.4457ZM104.483 22.4167C104.451 22.473 104.415 22.5132 104.375 22.5373C104.334 22.5614 104.284 22.5734 104.224 22.5734C104.156 22.5734 104.081 22.5533 104.001 22.5132C103.921 22.469 103.826 22.4208 103.718 22.3685C103.609 22.3163 103.481 22.2701 103.332 22.2299C103.187 22.1857 103.017 22.1636 102.82 22.1636C102.659 22.1636 102.512 22.1837 102.38 22.2239C102.251 22.2601 102.141 22.3143 102.048 22.3866C101.96 22.4549 101.892 22.5373 101.843 22.6337C101.795 22.7261 101.771 22.8265 101.771 22.935C101.771 23.0797 101.815 23.2002 101.904 23.2966C101.992 23.393 102.109 23.4774 102.253 23.5497C102.398 23.618 102.563 23.6803 102.747 23.7365C102.932 23.7928 103.121 23.8531 103.314 23.9173C103.507 23.9816 103.696 24.0559 103.88 24.1403C104.065 24.2247 104.23 24.3291 104.375 24.4537C104.519 24.5742 104.636 24.7229 104.724 24.8997C104.812 25.0724 104.857 25.2833 104.857 25.5324C104.857 25.8217 104.804 26.0889 104.7 26.334C104.596 26.579 104.443 26.792 104.242 26.9728C104.041 27.1536 103.79 27.2942 103.489 27.3946C103.191 27.4951 102.85 27.5453 102.464 27.5453C102.251 27.5453 102.044 27.5252 101.843 27.485C101.647 27.4489 101.458 27.3986 101.277 27.3343C101.1 27.266 100.933 27.1857 100.777 27.0933C100.624 27.0009 100.487 26.9004 100.367 26.792L100.668 26.2978C100.704 26.2375 100.749 26.1913 100.801 26.1592C100.857 26.123 100.925 26.1049 101.006 26.1049C101.09 26.1049 101.172 26.1331 101.253 26.1893C101.337 26.2415 101.434 26.2998 101.542 26.3641C101.655 26.4284 101.789 26.4886 101.946 26.5449C102.103 26.5971 102.297 26.6232 102.53 26.6232C102.723 26.6232 102.89 26.6011 103.031 26.5569C103.171 26.5087 103.288 26.4444 103.38 26.3641C103.473 26.2837 103.541 26.1933 103.585 26.0929C103.629 25.9884 103.651 25.878 103.651 25.7614C103.651 25.6048 103.607 25.4762 103.519 25.3757C103.43 25.2753 103.312 25.1889 103.163 25.1166C103.019 25.0443 102.852 24.98 102.663 24.9238C102.478 24.8675 102.289 24.8072 102.097 24.743C101.904 24.6787 101.713 24.6044 101.524 24.52C101.339 24.4356 101.172 24.3291 101.024 24.2006C100.879 24.068 100.763 23.9093 100.674 23.7245C100.586 23.5357 100.542 23.3067 100.542 23.0375C100.542 22.7924 100.59 22.5594 100.686 22.3384C100.787 22.1174 100.931 21.9226 101.12 21.7538C101.313 21.5851 101.548 21.4525 101.825 21.3561C102.107 21.2556 102.43 21.2054 102.796 21.2054C103.209 21.2054 103.585 21.2717 103.923 21.4043C104.26 21.5369 104.543 21.7177 104.772 21.9467L104.483 22.4167ZM108.045 27.5453C107.535 27.5453 107.141 27.4026 106.864 27.1174C106.591 26.8281 106.454 26.4223 106.454 25.9V22.3203H105.779C105.707 22.3203 105.644 22.2982 105.592 22.254C105.54 22.2058 105.514 22.1355 105.514 22.0431V21.5188L106.508 21.3742L106.791 19.5964C106.812 19.5281 106.846 19.4738 106.894 19.4336C106.942 19.3894 107.006 19.3673 107.087 19.3673H107.75V21.3862H109.455V22.3203H107.75V25.8097C107.75 26.0306 107.804 26.1994 107.912 26.3159C108.021 26.4324 108.165 26.4906 108.346 26.4906C108.447 26.4906 108.533 26.4786 108.605 26.4545C108.678 26.4264 108.74 26.3982 108.792 26.3701C108.844 26.338 108.889 26.3098 108.925 26.2857C108.965 26.2576 109.003 26.2436 109.039 26.2436C109.112 26.2436 109.17 26.2837 109.214 26.3641L109.6 26.9969C109.399 27.1736 109.162 27.3102 108.889 27.4067C108.615 27.4991 108.334 27.5453 108.045 27.5453Z" fill="#8F90A6"/>
<defs>
<linearGradient id="paint0_linear_602_5283" x1="-0.416406" y1="9.31416" x2="41.9692" y2="29.754" gradientUnits="userSpaceOnUse">
<stop stop-color="#4EAF51"/>
<stop offset="1" stop-color="#A0D4A1"/>
</linearGradient>
<linearGradient id="paint1_linear_602_5283" x1="12.5213" y1="14.78" x2="36.0985" y2="34.9923" gradientUnits="userSpaceOnUse">
<stop stop-color="#5F30E2"/>
<stop offset="1" stop-color="#8F6EEB"/>
</linearGradient>
</defs>
</svg>
