<svg xmlns="http://www.w3.org/2000/svg" xmlns:xlink="http://www.w3.org/1999/xlink" viewBox="0 0 159.99 206.81"><defs><style>.cls-1{fill:url(#New_Gradient_Swatch_2);}.cls-2{fill:url(#New_Gradient_Swatch_2-2);}.cls-3{fill:url(#New_Gradient_Swatch_3);}.cls-4{fill:url(#New_Gradient_Swatch_3-2);}</style><linearGradient id="New_Gradient_Swatch_2" x1="136.22" y1="90.93" x2="33.56" y2="147.28" gradientTransform="translate(112.6 6.91) rotate(45)" gradientUnits="userSpaceOnUse"><stop offset="0" stop-color="#9176e2"/><stop offset="1" stop-color="#5f30e2"/></linearGradient><linearGradient id="New_Gradient_Swatch_2-2" x1="169.54" y1="81.82" x2="118.61" y2="127.25" gradientTransform="translate(122.27 -53.63) rotate(45)" xlink:href="#New_Gradient_Swatch_2"/><linearGradient id="New_Gradient_Swatch_3" x1="107.88" y1="86.87" x2="46.03" y2="32.7" gradientTransform="translate(-16.02 60.97) rotate(-45)" gradientUnits="userSpaceOnUse"><stop offset="0" stop-color="#a0d4a1"/><stop offset="1" stop-color="#56b259"/></linearGradient><linearGradient id="New_Gradient_Swatch_3-2" x1="140.52" y1="156.86" x2="105.88" y2="182.76" gradientTransform="translate(318.98 221.97) rotate(135)" xlink:href="#New_Gradient_Swatch_3"/></defs><g id="Layer_2" data-name="Layer 2"><g id="Layer_1-2" data-name="Layer 1"><path class="cls-1" d="M69,67.93h0a0,0,0,0,1,0,0v100.8a42.08,42.08,0,0,1-42.08,42.08h0a0,0,0,0,1,0,0V110A42.08,42.08,0,0,1,69,67.93Z" transform="translate(-84.5 74.74) rotate(-45)"/><path class="cls-2" d="M146.91,68.91h0a0,0,0,0,1,0,0v61.66a42.08,42.08,0,0,1-42.08,42.08h0a0,0,0,0,1,0,0V111A42.08,42.08,0,0,1,146.91,68.91Z" transform="translate(-48.54 124.38) rotate(-45)"/><path class="cls-3" d="M44.54.4h0A42.08,42.08,0,0,1,86.62,42.49V99.25a0,0,0,0,1,0,0H44.54a0,0,0,0,1,0,0V.4A0,0,0,0,1,44.54.4Z" transform="translate(54.44 -31.78) rotate(45)"/><path class="cls-4" d="M92.48,156h0a42.08,42.08,0,0,1,42.08,42.08v0a0,0,0,0,1,0,0H92.48a0,0,0,0,1,0,0V156A0,0,0,0,1,92.48,156Z" transform="translate(68.59 382.51) rotate(-135)"/></g></g></svg>