<svg id="SvgjsSvg1052" width="288" height="288" xmlns="http://www.w3.org/2000/svg" version="1.1" xmlns:xlink="http://www.w3.org/1999/xlink" xmlns:svgjs="http://svgjs.com/svgjs"><defs id="SvgjsDefs1053"></defs><g id="SvgjsG1054"><svg xmlns="http://www.w3.org/2000/svg" viewBox="0 0 64 64" width="288" height="288"><path fill="#6b6b6b" d="M17.5 48.5h4v11h-4zm17-33h4v44h-4zm17 20h4v24h-4z" class="colorecf0f1 svgShape"></path><path fill="#9c9c9c" d="M13.5 30.5h4v29h-4zm17 3h4v26h-4zm17-13h4v39h-4z" class="color2c3e50 svgShape"></path><path fill="#7d55ef" d="M9.5 39.5h4v20h-4zm17-16h4v36h-4zm17 20h4v16h-4z" class="colore74c3c svgShape"></path><path fill="#ffffff" d="M13.5 60h-4a.5.5 0 0 1-.5-.5v-20a.5.5 0 0 1 .5-.5h4a.5.5 0 0 1 .5.5v20a.5.5 0 0 1-.5.5zM10 59h3V40h-3v19z" class="color212e3a svgShape"></path><path fill="#ffffff" d="M17.5 60h-4a.5.5 0 0 1-.5-.5v-29a.5.5 0 0 1 .5-.5h4a.5.5 0 0 1 .5.5v29a.5.5 0 0 1-.5.5zM14 59h3V31h-3v28z" class="color212e3a svgShape"></path><path fill="#ffffff" d="M21.5 60h-4a.5.5 0 0 1-.5-.5v-11a.5.5 0 0 1 .5-.5h4a.5.5 0 0 1 .5.5v11a.5.5 0 0 1-.5.5zM18 59h3V49h-3v10zm12.5 1h-4a.5.5 0 0 1-.5-.5v-36a.5.5 0 0 1 .5-.5h4a.5.5 0 0 1 .5.5v36a.5.5 0 0 1-.5.5zM27 59h3V24h-3v35z" class="color212e3a svgShape"></path><path fill="#ffffff" d="M34.5 60h-4a.5.5 0 0 1-.5-.5v-26a.5.5 0 0 1 .5-.5h4a.5.5 0 0 1 .5.5v26a.5.5 0 0 1-.5.5zM31 59h3V34h-3v25z" class="color212e3a svgShape"></path><path fill="#ffffff" d="M38.5 60h-4a.5.5 0 0 1-.5-.5v-44a.5.5 0 0 1 .5-.5h4a.5.5 0 0 1 .5.5v44a.5.5 0 0 1-.5.5zM35 59h3V16h-3v43zm12.5 1h-4a.5.5 0 0 1-.5-.5v-16a.5.5 0 0 1 .5-.5h4a.5.5 0 0 1 .5.5v16a.5.5 0 0 1-.5.5zM44 59h3V44h-3v15z" class="color212e3a svgShape"></path><path fill="#ffffff" d="M51.5 60h-4a.5.5 0 0 1-.5-.5v-39a.5.5 0 0 1 .5-.5h4a.5.5 0 0 1 .5.5v39a.5.5 0 0 1-.5.5zM48 59h3V21h-3v38z" class="color212e3a svgShape"></path><path fill="#ffffff" d="M55.5 60h-4a.5.5 0 0 1-.5-.5v-24a.5.5 0 0 1 .5-.5h4a.5.5 0 0 1 .5.5v24a.5.5 0 0 1-.5.5zM52 59h3V36h-3v23z" class="color212e3a svgShape"></path><path fill="#ffffff" d="M59.5 60h-55a.5.5 0 0 1 0-1h55a.5.5 0 0 1 0 1z" class="color212e3a svgShape"></path></svg></g></svg>