<svg id="SvgjsSvg1044" width="288" height="288" xmlns="http://www.w3.org/2000/svg" version="1.1" xmlns:xlink="http://www.w3.org/1999/xlink" xmlns:svgjs="http://svgjs.com/svgjs"><defs id="SvgjsDefs1045"></defs><g id="SvgjsG1046"><svg xmlns="http://www.w3.org/2000/svg" fill="none" viewBox="0 0 64 64" width="288" height="288"><path fill="#313131" d="M48 34.667c1.473 0 2.684 1.198 2.5 2.66A21.333 21.333 0 1 1 26.674 13.5c1.46-.184 2.66 1.027 2.66 2.5v14A4.667 4.667 0 0 0 34 34.667h14Z" class="colorD0D2E0 svgShape"></path><path fill="#313131" fill-rule="evenodd" d="M28 16c0-.789-.608-1.247-1.16-1.178A20 20 0 1 0 49.177 37.16c.07-.553-.389-1.16-1.177-1.16H34a6 6 0 0 1-6-6V16Zm-1.493-3.823c2.37-.298 4.16 1.665 4.16 3.823v14A3.333 3.333 0 0 0 34 33.333h14c2.157 0 4.121 1.79 3.823 4.16a22.667 22.667 0 1 1-25.316-25.317Z" clip-rule="evenodd" class="colorD0D2E0 svgShape"></path><path fill="#9174e4" d="M34.667 12c0-2.21 1.806-4.038 3.977-3.626a21.333 21.333 0 0 1 16.982 16.982c.412 2.17-1.417 3.977-3.626 3.977H38.667a4 4 0 0 1-4-4V12Z" class="color2B3151 svgShape"></path><path fill="#9174e4" fill-rule="evenodd" d="M33.334 12c0-2.86 2.394-5.537 5.558-4.936a22.667 22.667 0 0 1 18.044 18.044c.6 3.163-2.075 5.558-4.936 5.558H38.667a5.333 5.333 0 0 1-5.334-5.333V12Zm5.061-2.317C37.218 9.46 36 10.442 36 12v13.333A2.667 2.667 0 0 0 38.667 28H52c1.558 0 2.54-1.218 2.316-2.395a20 20 0 0 0-15.92-15.922Z" clip-rule="evenodd" class="color2B3151 svgShape"></path></svg></g></svg>