<svg id="SvgjsSvg1032" width="288" height="288" xmlns="http://www.w3.org/2000/svg" version="1.1" xmlns:xlink="http://www.w3.org/1999/xlink" xmlns:svgjs="http://svgjs.com/svgjs"><defs id="SvgjsDefs1033"></defs><g id="SvgjsG1034"><svg xmlns="http://www.w3.org/2000/svg" viewBox="0 0 32 32" width="288" height="288"><g data-name="Layer 2" fill="#000000" class="color000 svgShape"><path fill="#171938" d="M7 13H5a3 3 0 0 0-3 3v11a3 3 0 0 0 3 3h2a3 3 0 0 0 3-3V16a3 3 0 0 0-3-3zm1 14a1 1 0 0 1-1 1H5a1 1 0 0 1-1-1V16a1 1 0 0 1 1-1h2a1 1 0 0 1 1 1zm9-11h-2a3 3 0 0 0-3 3v8a3 3 0 0 0 3 3h2a3 3 0 0 0 3-3v-8a3 3 0 0 0-3-3zm1 11a1 1 0 0 1-1 1h-2a1 1 0 0 1-1-1v-8a1 1 0 0 1 1-1h2a1 1 0 0 1 1 1zm9-15h-2a3 3 0 0 0-3 3v12a3 3 0 0 0 3 3h2a3 3 0 0 0 3-3V15a3 3 0 0 0-3-3zm1 15a1 1 0 0 1-1 1h-2a1 1 0 0 1-1-1V15a1 1 0 0 1 1-1h2a1 1 0 0 1 1 1z" class="color171938 svgShape"></path><path fill="#4c46c8" d="M27.663 2.964a1 1 0 0 0-.64-.42l-2.779-.526a1 1 0 1 0-.373 1.964l.163.031-8.123 4.874-9.54-3.816a1 1 0 1 0-.742 1.858l10 4a1 1 0 0 0 .886-.072l8.93-5.357-.118.62a1 1 0 0 0 .8 1.169 1.013 1.013 0 0 0 .188.018 1 1 0 0 0 .981-.814l.527-2.779a.994.994 0 0 0-.16-.75Z" class="color4c46c8 svgShape"></path></g></svg></g></svg>