<svg id="SvgjsSvg1013" width="288" height="288" xmlns="http://www.w3.org/2000/svg" version="1.1" xmlns:xlink="http://www.w3.org/1999/xlink" xmlns:svgjs="http://svgjs.com/svgjs"><defs id="SvgjsDefs1014"></defs><g id="SvgjsG1015"><svg xmlns="http://www.w3.org/2000/svg" viewBox="0 0 32 32" width="288" height="288"><g data-name="Graduate 2" fill="#000000" class="color000 svgShape"><circle cx="21.42" cy="21.42" r="7.58" fill="#a0d4a1" class="colorff5733 svgShape"></circle><path fill="#5f30e2" d="M28.23,3.77c-1.94-1.94-4.59-2.35-6-.93L18.88,6.16a1,1,0,0,0,1.41,1.41L23.6,4.26c.55-.53,2-.25,3.21.93s1.46,2.66.94,3.2L22.43,13.7a.42.42,0,0,0,0-.1,2.25,2.25,0,0,0-.08-.24c-.07-.17-.15-.35-.23-.52l-.14-.26c-.1-.17-.21-.35-.33-.52l-.15-.22a6.55,6.55,0,0,0-.61-.69,5.68,5.68,0,0,0-3.63-1.76,4.85,4.85,0,0,0,.12-1.78C17,4.73,14.29,2.88,14.18,2.8a1,1,0,0,0-.78-.14,1,1,0,0,0-.64.46,7.43,7.43,0,0,0-.88,6.07,7.43,7.43,0,0,0-6.07.88,1,1,0,0,0-.46.64,1,1,0,0,0,.14.78A8.65,8.65,0,0,0,8.17,14a1,1,0,0,0,.49.12,1,1,0,0,0,.87-.51,1,1,0,0,0-.38-1.36,5.6,5.6,0,0,1-1.23-.94,5.59,5.59,0,0,1,5.18.68l-2,2L6.56,18.48a1,1,0,0,0,0,1.41,1,1,0,0,0,1.42,0l4.56-4.57a.88.88,0,0,1,.33-.18,3.15,3.15,0,0,1,2.88,1.11,4.16,4.16,0,0,1,.4.45c.84,1.08,1,2.28.53,2.76L15.16,21l-4.71,4.71a1,1,0,0,1,0-.1,2.18,2.18,0,0,0-.09-.23c-.06-.18-.14-.35-.22-.53L10,24.56a5.19,5.19,0,0,0-.31-.5l-.17-.24a8.11,8.11,0,0,0-.55-.64l-.05-.05a6.3,6.3,0,0,0-2.19-1.44,3.54,3.54,0,0,0-3.83.5l-.05.06c-1.37,1.45-.95,4.06,1,6A5.63,5.63,0,0,0,7.6,30a3,3,0,0,0,2.15-.82l.05,0,6.78-6.77,1.52-1.52h0l3.69-3.69h0L29.17,9.8C30.58,8.36,30.17,5.71,28.23,3.77ZM18.71,17.29l-.09-.24a4.83,4.83,0,0,0-.23-.52c0-.09-.09-.18-.14-.27a5.29,5.29,0,0,0-.32-.5,1.88,1.88,0,0,0-.16-.23,7.69,7.69,0,0,0-.6-.7,7.69,7.69,0,0,0-.7-.6l-.22-.15a5.69,5.69,0,0,0-.52-.33l-.25-.14c-.18-.09-.36-.16-.54-.23l-.22-.09-.11,0,.63-.63h0l.15-.14.84-.84h0a.94.94,0,0,1,.57-.25,3.5,3.5,0,0,1,2.64,1.17,5.39,5.39,0,0,1,.4.45c.83,1.08,1,2.28.52,2.76h0l-1.61,1.62ZM14,5.23a4.65,4.65,0,0,1,1.41,2.61,3.56,3.56,0,0,1-.78,2.5A5.59,5.59,0,0,1,14,5.23ZM5.18,26.82c-1.17-1.18-1.45-2.67-.93-3.2a.87.87,0,0,1,.31-.18l.08,0A1.14,1.14,0,0,1,5,23.37h.12a1.94,1.94,0,0,1,.46.06h0a3.27,3.27,0,0,1,.55.19l.16.08a3.38,3.38,0,0,1,.41.24l.19.13a6.47,6.47,0,0,1,.51.43l0,0a4.54,4.54,0,0,1,1,1.39,1.74,1.74,0,0,1,0,1.81C7.84,28.27,6.36,28,5.18,26.82Z" class="color511845 svgShape"></path></g></svg></g></svg>